<?xml version="1.0" encoding="UTF-8"?>
<!DOCTYPE svg PUBLIC "-//W3C//DTD SVG 1.1//EN" "http://www.w3.org/Graphics/SVG/1.1/DTD/svg11.dtd">
<!-- Creator: CorelDRAW -->
<svg xmlns="http://www.w3.org/2000/svg" xml:space="preserve" width="76px" height="76px" version="1.1" style="shape-rendering:geometricPrecision; text-rendering:geometricPrecision; image-rendering:optimizeQuality; fill-rule:evenodd; clip-rule:evenodd"
viewBox="0 0 76.48 76.34"
 xmlns:xlink="http://www.w3.org/1999/xlink"
 xmlns:xodm="http://www.corel.com/coreldraw/odm/2003">
 <defs>
  <style type="text/css">
   <![CDATA[
    .fil0 {fill:none}
    .fil1 {fill:#373435}
   ]]>
  </style>
 </defs>
 <g id="Layer_x0020_1">
  <metadata id="CorelCorpID_0Corel-Layer"/>
  <rect class="fil0" width="76.48" height="76.34" rx="10.72" ry="10.7"/>
  <path class="fil1" d="M33.29 19.33c-0.21,0.08 -0.41,0.16 -0.68,0.25 -1.22,0.42 -2.42,1.03 -3.51,1.73 -0.12,0.08 -0.19,0.11 -0.31,0.2 -0.21,0.13 -0.3,0.22 -0.57,0.39 -0.46,0.28 -0.7,0.56 -1.07,0.85 -0.53,0.43 -0.49,0.52 -0.72,0.67 -0.14,0.1 -0.16,0.08 -0.3,0.22 -0.24,0.22 -0.16,0.3 -0.42,0.54 -0.21,0.19 -0.33,0.28 -0.48,0.47 -0.1,0.15 -0.06,0.12 -0.19,0.26 -0.14,0.15 -0.09,0.05 -0.24,0.27 -0.19,0.29 -0.1,0.33 -0.36,0.59 -0.34,0.34 -0.52,0.72 -0.76,1.17l-0.16 0.28c-0.38,0.65 -0.37,0.8 -0.6,1.31l-0.41 1.05c-0.16,0.54 -0.29,0.95 -0.43,1.5 -0.65,2.65 -0.51,5.98 -0.51,8.92 0,0.57 0.15,2.55 -0.15,2.83 -0.19,0.15 -1.05,0.03 -2.05,0.63 -1.93,1.15 -1.62,2.56 -1.62,4.7l0.01 6.69c0.18,2.21 2.55,3.33 3.84,2.91 0.42,1.28 0.1,0.92 0.8,2.1 0.34,0.57 0.1,0.26 0.48,0.63 0.61,0.61 1.04,1.07 2.08,1.27 1.36,0.25 12.84,0.12 14.89,0.12l6.25 0c2.38,0 6.61,0.52 7.94,-1.75 0.21,-0.36 0.45,-0.68 0.57,-1.05 0.13,-0.4 0.32,-0.82 0.31,-1.24 0.68,0.03 0.99,-0.03 1.56,-0.23 0.61,-0.2 1.24,-0.69 1.59,-1.15 0.86,-1.12 0.65,-2.83 0.65,-4.19 0,-0.89 0.1,-6.22 -0.09,-6.84 -0.49,-1.67 -1.94,-2.52 -3.67,-2.54l0 -7.88c0,-3.19 -0.67,-4.95 -1.9,-7.53l-1.65 -2.7 -1.66 -1.8 -1.92 -1.54c-1.36,-0.88 -2.44,-1.46 -4.04,-2 -0.2,-0.07 -0.44,-0.13 -0.63,-0.23 -0.11,-1.08 -0.21,-2.32 -1.08,-3.18l-0.31 -0.35c-0.79,-0.8 -2.5,-1.36 -3.65,-1.26 -0.97,0.09 -1.98,0.3 -2.71,0.86 -0.18,0.14 -0.13,0.14 -0.31,0.27 -0.37,0.27 -0.62,0.39 -1.01,0.92l-0.43 0.77c-0.25,0.61 -0.36,1.44 -0.37,2.09zm3.7 0.12c-1.02,0.07 -3.81,0.57 -4.89,1.14 -1.43,0.75 -3.46,1.7 -4.62,2.93 -0.95,1.01 -1.08,0.83 -2.2,2.42l-1.68 2.93c-0.11,0.26 -0.21,0.54 -0.29,0.81 -0.31,0.97 -0.55,1.69 -0.74,2.79 -0.46,2.68 -0.24,6.16 -0.25,9l-0.02 13.82c0,1.61 0.03,3.4 1.11,4.62 0.6,0.68 1.19,1.1 2.27,1.18 1.39,0.11 3.19,0.01 4.62,0.01l18.44 0c1.21,0 2.31,0.08 3.37,-0.33l0.38 -0.2c0.73,-0.57 0.39,-0.18 0.97,-0.99 0.5,-0.69 0.69,-1.09 0.73,-2.16 0.12,-3 0,-6.24 0,-9.26 0,-3.09 0.01,-6.17 0,-9.26 0,-1.5 -0.03,-3.05 0,-4.55 0.04,-1.31 -0.33,-2.76 -0.7,-3.9 -0.39,-1.23 -0.89,-2.15 -1.43,-3.18 -0.18,-0.36 -0.63,-1.22 -0.82,-1.45l-3.56 -3.41c-0.64,-0.49 -1.35,-0.91 -2.05,-1.32l-0.88 -0.38c-2.13,-0.96 -5.03,-1.45 -7.76,-1.26zm6.02 37.58c2.23,0 5.21,0.44 6.56,-0.83 0.52,-0.48 0.65,-0.58 0.99,-1.24 0.3,-0.6 0.38,-1.16 0.38,-1.88 0,-1.84 0.1,-9.85 -0.12,-10.94l-0.35 -1.06c-0.9,-1.69 -2.59,-1.88 -4.52,-1.88l-15.5 0c-1.76,-0.01 -2.73,0.12 -3.9,1.17 -0.97,0.87 -0.9,2.45 -0.89,4.11 0,1.86 -0.18,8.66 0.11,9.94 0.11,0.47 0.64,1.33 0.92,1.61 1.49,1.51 3.99,1.05 6.26,1.01 3.32,-0.07 6.73,-0.01 10.06,-0.01zm7.2 -10.64c-0.16,-0.07 -2.02,0.21 -2.36,0.26 -2.32,0.3 -3.04,0.19 -5.13,0.26 -0.47,0.01 -0.92,0.05 -1.4,0.05 -0.41,-0.01 -0.82,-0.07 -1.2,-0.05 0,0.73 0.06,2.13 -0.14,2.75 -0.56,1.67 -2.96,1.76 -3.37,0.02 -0.18,-0.79 0,-2 -0.14,-2.77 -0.23,-0.02 -0.82,0.06 -1.17,0.06 -3.74,-0.02 -4.8,-0.14 -8.38,-0.55 -0.12,-0.01 -0.43,-0.01 -0.51,-0.1 -0.08,0.75 -0.02,1.85 -0.02,2.65 0,1.17 -0.18,5.1 0.33,5.8 0.35,0.5 0.38,0.66 1.02,1.09 0.54,0.37 1.35,0.47 2.13,0.46l8.29 -0.06c1.84,-0.01 3.67,-0.01 5.51,-0.01 1.63,0 4.33,0.33 5.48,-0.64l0.61 -0.69c0.12,-0.18 0.19,-0.27 0.26,-0.46 0.35,-0.85 0.19,-6.91 0.19,-8.07zm-23.81 -0.86c4.67,0.84 7.32,0.64 11.91,0.64 3.23,0 8.89,0.1 11.9,-0.66 0,-0.71 0,-1.42 0,-2.13 0,-0.83 -0.05,-1.14 -0.36,-1.79 -0.47,-1 -1.57,-1.6 -2.73,-1.59l-13.22 -0.01c-1.89,0 -4.7,-0.28 -6.12,0.43 -1.79,0.9 -1.47,2.63 -1.38,5.11zm-4.84 11.52l0.01 -13.39c-0.96,0.01 -1.9,0.27 -2.56,0.99 -0.1,0.11 -0.37,0.61 -0.43,0.8 -0.11,0.29 -0.12,9.29 0.01,9.74 0.39,1.32 1.59,1.95 2.97,1.86zm33.41 0c1.22,0 2.28,-0.47 2.76,-1.44l0.05 -0.09c0.39,-0.81 0.22,-3.93 0.21,-5.08 -0.01,-0.98 0.12,-4.16 -0.09,-4.86 -0.27,-0.88 -0.49,-0.99 -1.02,-1.37 -0.91,-0.64 -0.97,-0.28 -1.91,-0.56l0 13.4zm-20.91 -37.9c1.6,-0.24 2.17,-0.51 4.1,-0.51 1.04,0 2.66,0.1 3.73,0.34l0.43 0.03c0.01,0 0.04,-0.01 0.06,-0.02 0.08,-1.08 -0.57,-2.09 -1.29,-2.78 -0.79,-0.76 -1.8,-1.01 -2.91,-1.03 -1.2,-0.03 -2.19,0.58 -2.86,1.12 -1.05,0.85 -1.13,1.71 -1.26,2.85zm5.3 27.74l-2.09 0.01c0.06,1.1 -0.39,3.4 1.04,3.31 0.55,-0.04 0.91,-0.36 1.02,-0.85 0.16,-0.78 -0.01,-1.6 0.03,-2.47z"/>
 </g>
</svg>
