<?xml version="1.0" encoding="UTF-8"?>
<!DOCTYPE svg PUBLIC "-//W3C//DTD SVG 1.1//EN" "http://www.w3.org/Graphics/SVG/1.1/DTD/svg11.dtd">
<!-- Creator: CorelDRAW -->
<svg xmlns="http://www.w3.org/2000/svg" xml:space="preserve" width="76px" height="76px" version="1.1" style="shape-rendering:geometricPrecision; text-rendering:geometricPrecision; image-rendering:optimizeQuality; fill-rule:evenodd; clip-rule:evenodd"
viewBox="0 0 97.28 97.1"
 xmlns:xlink="http://www.w3.org/1999/xlink"
 xmlns:xodm="http://www.corel.com/coreldraw/odm/2003">
 <defs>
 </defs>
 <g id="Layer_x0020_1">
  <metadata id="CorelCorpID_0Corel-Layer"/>
  <rect fill="none" stroke-width="0.95" width="97.28" height="97.1" rx="13.64" ry="13.62"/>
  <path fill="#000000" stroke-width="0.95" stroke-miterlimit="22.9256" d="M42.34 24.59c-0.27,0.1 -0.51,0.2 -0.86,0.32 -1.56,0.52 -3.08,1.31 -4.46,2.19 -0.16,0.11 -0.25,0.15 -0.4,0.25 -0.26,0.18 -0.39,0.29 -0.73,0.5 -0.58,0.36 -0.89,0.72 -1.35,1.09 -0.67,0.54 -0.63,0.65 -0.92,0.85 -0.18,0.13 -0.2,0.1 -0.39,0.27 -0.3,0.29 -0.2,0.38 -0.53,0.69 -0.26,0.25 -0.42,0.36 -0.6,0.61 -0.14,0.18 -0.08,0.14 -0.25,0.32 -0.18,0.19 -0.12,0.06 -0.31,0.35 -0.24,0.36 -0.13,0.41 -0.46,0.75 -0.42,0.43 -0.65,0.92 -0.96,1.49l-0.2 0.35c-0.49,0.82 -0.47,1.02 -0.77,1.67l-0.52 1.34c-0.2,0.68 -0.37,1.2 -0.54,1.9 -0.83,3.38 -0.65,7.6 -0.66,11.35 0,0.72 0.2,3.24 -0.18,3.6 -0.25,0.18 -1.34,0.04 -2.61,0.8 -2.46,1.47 -2.06,3.25 -2.06,5.98l0.01 8.51c0.23,2.81 3.25,4.24 4.89,3.7 0.53,1.63 0.12,1.17 1.01,2.67 0.43,0.73 0.13,0.33 0.61,0.81 0.78,0.76 1.33,1.36 2.65,1.6 1.73,0.32 16.33,0.16 18.94,0.16l7.94 0c3.04,-0.01 8.42,0.65 10.11,-2.22 0.27,-0.46 0.57,-0.87 0.73,-1.35 0.16,-0.5 0.4,-1.04 0.38,-1.57 0.88,0.04 1.26,-0.04 2,-0.29 0.76,-0.25 1.56,-0.88 2.01,-1.47 1.09,-1.42 0.82,-3.59 0.83,-5.32 0,-1.13 0.12,-7.91 -0.11,-8.71 -0.63,-2.12 -2.47,-3.2 -4.67,-3.23l0 -10.02c0,-4.06 -0.85,-6.3 -2.42,-9.58l-2.09 -3.44 -2.12 -2.28 -2.45 -1.96c-1.72,-1.12 -3.09,-1.86 -5.13,-2.55 -0.26,-0.08 -0.56,-0.16 -0.81,-0.28 -0.13,-1.39 -0.27,-2.95 -1.37,-4.05l-0.39 -0.45c-1.01,-1.01 -3.18,-1.72 -4.64,-1.6 -1.24,0.11 -2.52,0.38 -3.45,1.09 -0.23,0.18 -0.17,0.19 -0.39,0.35 -0.47,0.34 -0.79,0.5 -1.29,1.17l-0.54 0.97c-0.33,0.78 -0.47,1.84 -0.48,2.67zm4.7 0.15c-1.29,0.09 -4.83,0.73 -6.21,1.45 -1.82,0.96 -4.41,2.16 -5.88,3.73 -1.2,1.28 -1.37,1.05 -2.79,3.08l-2.14 3.72c-0.14,0.33 -0.27,0.69 -0.38,1.03 -0.39,1.24 -0.69,2.15 -0.93,3.55 -0.59,3.4 -0.31,7.83 -0.32,11.45l-0.02 17.57c-0.01,2.05 0.03,4.34 1.4,5.89 0.77,0.86 1.52,1.39 2.9,1.5 1.76,0.14 4.05,0.01 5.87,0.01l23.46 0c1.54,0 2.93,0.1 4.28,-0.43l0.48 -0.25c0.93,-0.72 0.5,-0.22 1.24,-1.26 0.63,-0.87 0.87,-1.38 0.93,-2.75 0.15,-3.81 0,-7.93 0,-11.77 0,-3.93 0.01,-7.85 0,-11.78 -0.01,-1.91 -0.04,-3.88 0,-5.78 0.04,-1.67 -0.42,-3.52 -0.89,-4.96 -0.5,-1.57 -1.13,-2.74 -1.82,-4.06 -0.23,-0.45 -0.8,-1.55 -1.05,-1.83l-4.52 -4.35c-0.82,-0.62 -1.73,-1.15 -2.62,-1.67l-1.11 -0.49c-2.71,-1.21 -6.4,-1.85 -9.88,-1.6zm7.67 47.8c2.83,0 6.63,0.56 8.34,-1.05 0.66,-0.62 0.83,-0.74 1.26,-1.59 0.38,-0.76 0.49,-1.47 0.49,-2.38 0,-2.34 0.12,-12.53 -0.16,-13.92l-0.44 -1.34c-1.14,-2.16 -3.3,-2.41 -5.76,-2.41l-19.71 0c-2.24,0 -3.47,0.17 -4.96,1.5 -1.23,1.11 -1.14,3.12 -1.13,5.23 0,2.36 -0.23,11.01 0.14,12.64 0.14,0.59 0.81,1.69 1.16,2.05 1.9,1.92 5.09,1.34 7.96,1.28 4.23,-0.09 8.57,-0.01 12.81,-0.01zm9.16 -13.53c-0.21,-0.09 -2.58,0.26 -3.01,0.32 -2.95,0.39 -3.86,0.24 -6.53,0.33 -0.59,0.02 -1.17,0.07 -1.77,0.07 -0.52,-0.01 -1.05,-0.09 -1.53,-0.06 0,0.92 0.08,2.71 -0.18,3.5 -0.7,2.12 -3.76,2.23 -4.28,0.02 -0.24,-1.01 -0.01,-2.54 -0.18,-3.52 -0.29,-0.03 -1.05,0.07 -1.49,0.07 -4.76,-0.02 -6.11,-0.18 -10.65,-0.69 -0.17,-0.02 -0.56,-0.02 -0.66,-0.13 -0.1,0.95 -0.02,2.35 -0.02,3.36 0,1.49 -0.23,6.49 0.41,7.39 0.46,0.64 0.49,0.84 1.3,1.38 0.7,0.47 1.73,0.6 2.72,0.59l10.54 -0.08c2.34,-0.01 4.67,-0.01 7.01,-0.01 2.07,0 5.5,0.42 6.97,-0.82l0.78 -0.87c0.15,-0.23 0.23,-0.35 0.33,-0.59 0.44,-1.08 0.24,-8.78 0.24,-10.26zm-30.3 -1.1c5.95,1.07 9.32,0.82 15.16,0.82 4.11,0 11.3,0.12 15.14,-0.84 0,-0.9 -0.01,-1.81 0,-2.71 0,-1.06 -0.06,-1.45 -0.46,-2.28 -0.6,-1.27 -2,-2.04 -3.47,-2.03l-16.82 -0.01c-2.41,0.01 -5.98,-0.35 -7.79,0.56 -2.28,1.14 -1.86,3.33 -1.76,6.49zm-6.15 14.65l0.02 -17.03c-1.22,0.02 -2.41,0.35 -3.26,1.26 -0.12,0.14 -0.46,0.78 -0.55,1.02 -0.14,0.37 -0.15,11.82 0.02,12.39 0.49,1.68 2.01,2.48 3.77,2.36zm42.5 0.01c1.55,-0.01 2.9,-0.6 3.52,-1.84l0.05 -0.11c0.49,-1.03 0.28,-4.99 0.27,-6.47 -0.01,-1.24 0.15,-5.29 -0.12,-6.18 -0.34,-1.12 -0.62,-1.26 -1.29,-1.73 -1.16,-0.81 -1.23,-0.36 -2.43,-0.72l0 17.05zm-26.59 -48.21c2.03,-0.31 2.75,-0.66 5.21,-0.65 1.32,0 3.39,0.13 4.74,0.44l0.55 0.03c0.02,-0.01 0.05,-0.01 0.07,-0.02 0.1,-1.38 -0.72,-2.67 -1.63,-3.54 -1.01,-0.97 -2.3,-1.28 -3.7,-1.32 -1.53,-0.03 -2.8,0.74 -3.65,1.43 -1.33,1.08 -1.43,2.18 -1.59,3.63zm6.74 35.28l-2.67 0.01c0.09,1.41 -0.49,4.33 1.32,4.21 0.71,-0.04 1.17,-0.45 1.3,-1.08 0.21,-0.99 -0.01,-2.03 0.05,-3.14z"/>
 </g>
</svg>
