<svg xmlns="http://www.w3.org/2000/svg" version="1.1" xmlns:xlink="http://www.w3.org/1999/xlink" width="512"
    height="512" x="0" y="0" viewBox="0 0 468.436 468.436" style="enable-background:new 0 0 512 512"
    xml:space="preserve">
    <style>
        path { fill: #000;} /* Default (light mode) */
        @media (prefers-color-scheme: dark) {
        path { fill: #fff;} /* Dark mode */
        }
    </style>
    <g transform="matrix(0.6,0,0,0.6,93.68700256347657,93.68699951171877)">
        <path
            d="M369.919 125.651s-2.58-92.137-2.697-93.246a16.784 16.784 0 0 0-1.338-5.016 16.751 16.751 0 0 0-9.328-8.915l-27.3-10.59a16.751 16.751 0 0 0-12.9.291 16.75 16.75 0 0 0-8.915 9.329L288.707 65.79a128.938 128.938 0 0 0-8.679-1.771V45.81c0-25.26-20.55-45.81-45.81-45.81s-45.811 20.55-45.811 45.81v18.21a128.874 128.874 0 0 0-8.702 1.776L160.97 17.504a16.75 16.75 0 0 0-8.915-9.329 16.742 16.742 0 0 0-12.9-.291l-27.3 10.59a16.748 16.748 0 0 0-9.328 8.915 16.81 16.81 0 0 0-1.319 4.833c-.136 1.161-2.712 93.463-2.712 93.463C86.891 145.12 80.21 167.82 80.21 192.054v247.967c0 15.667 12.746 28.414 28.414 28.414h251.187c15.668 0 28.414-12.747 28.414-28.414V192.055c0-24.249-6.688-46.962-18.306-66.404zm-15.634-21.039a130.943 130.943 0 0 0-9.439-9.337l8.508-21.933.931 31.27zm-32.86-81.682a1.862 1.862 0 0 1 2.405-1.061l27.3 10.59c.594.23.888.662 1.029.982.142.321.262.829.031 1.423L332.538 85.53a129.658 129.658 0 0 0-29.431-15.384l18.318-47.216zM234.219 15c15.32 0 28.06 11.241 30.415 25.908-8.16-7.255-18.87-11.639-30.416-11.639-11.32 0-22.007 4.085-30.399 11.548C206.212 26.195 218.93 15 234.219 15zm28.009 47.266c-1.28-.037-54.741-.037-56.022 0a30.845 30.845 0 0 1 6.226-8.975c5.819-5.818 13.556-9.022 21.785-9.022 12.245 0 23.095 7.318 28.011 17.997zM116.252 33.441a1.827 1.827 0 0 1 1.029-.982l27.3-10.59a1.86 1.86 0 0 1 2.405 1.061l18.321 47.225a129.6 129.6 0 0 0-29.429 15.389l-19.658-50.68a1.826 1.826 0 0 1 .032-1.423zm-1.194 39.903 8.513 21.947a131.29 131.29 0 0 0-9.442 9.344l.929-31.291zm258.167 366.678c0 7.396-6.018 13.414-13.414 13.414H108.625c-7.396 0-13.414-6.018-13.414-13.414V192.055c0-63.329 51.521-114.85 114.851-114.85h48.314c63.328 0 114.85 51.521 114.85 114.85v247.967z"
            opacity="1" data-original="#000000"></path>
        <path
            d="M132.452 253.728c-12.107 0-21.957 9.85-21.957 21.957v141.329c0 12.107 9.85 21.957 21.957 21.957h203.533c12.107 0 21.957-9.85 21.957-21.957V275.685c0-12.107-9.85-21.957-21.957-21.957H132.452zm203.533 170.243H132.452a6.965 6.965 0 0 1-6.957-6.957v-94.267h188.801v17.055h15v-17.055h13.646v94.267a6.965 6.965 0 0 1-6.957 6.957zm6.957-148.286v32.062H125.495v-32.062a6.965 6.965 0 0 1 6.957-6.957h203.533a6.965 6.965 0 0 1 6.957 6.957zM281.824 108.039h-95.211v42.828h95.211v-42.828zm-15 27.828h-65.211v-12.828h65.211v12.828z"
            opacity="1" data-original="#000000"></path>
    </g>
</svg>