<?xml version="1.0" encoding="UTF-8"?>
<!DOCTYPE svg PUBLIC "-//W3C//DTD SVG 1.1//EN" "http://www.w3.org/Graphics/SVG/1.1/DTD/svg11.dtd">
<!-- Creator: CorelDRAW -->
<svg xmlns="http://www.w3.org/2000/svg" xml:space="preserve" width="76px" height="76px" version="1.1" style="shape-rendering:geometricPrecision; text-rendering:geometricPrecision; image-rendering:optimizeQuality; fill-rule:evenodd; clip-rule:evenodd"
viewBox="0 0 13.24 13.21"
 xmlns:xlink="http://www.w3.org/1999/xlink"
 xmlns:xodm="http://www.corel.com/coreldraw/odm/2003">
 <defs>
  <style type="text/css">
   <![CDATA[
    .str0 {stroke:#373435;stroke-width:0.1;stroke-miterlimit:22.9256}
    .fil0 {fill:none}
    .fil1 {fill:#373435}
   ]]>
  </style>
 </defs>
 <g id="Layer_x0020_1">
  <metadata id="CorelCorpID_0Corel-Layer"/>
  <rect class="fil0" width="13.24" height="13.21" rx="1.86" ry="1.85"/>
  <path class="fil1 str0" d="M4.02 10.51c0,0 0,-0.01 0,-0.01l-0.01 -0.08c0,-0.3 -0.01,-1.35 0.01,-1.47 0.04,-0.03 0.04,-0.02 0.09,-0.02 0.11,0 0.63,-0.01 0.65,0.01 0.03,0.03 0.03,1.54 0,1.56 0.03,0.06 0.08,0.04 0.11,0l-0.01 -0.03c0,0 0,0 0,-0.01 -0.01,-0.01 -0.01,-0.04 -0.01,-0.05 0,-0.33 -0.01,-1.28 0.01,-1.47 0.1,-0.02 0.7,-0.03 0.74,0.01 0.04,0.04 0.02,1.05 0.02,1.24 0,0.26 -0.04,0.35 0.07,0.32 0.03,-0.15 0.01,-0.6 0.01,-0.79 -0.01,-0.19 -0.03,-0.61 0,-0.78 0.08,-0.02 0.29,-0.01 0.38,-0.01 0.06,0 0.12,0 0.18,0 0.05,0 0.13,-0.01 0.18,0.02 -0.02,0.13 -0.02,1.52 0,1.56 0.06,0.05 0.04,0.03 0.12,0.02 0.03,-0.18 -0.01,-1.26 0.01,-1.57l0.7 0c0.03,0.43 -0.01,1.06 0,1.49 0.01,0.08 0.05,0.12 0.11,0.05l0 -1.56c0.05,-0.02 0.67,-0.02 0.74,0 0.02,0.4 0,1.04 0,1.5 0,0.03 0,0.07 0.02,0.1 0.09,-0.02 0.07,-0.06 0.07,-0.16 -0.01,-0.38 0.02,-1.18 -0.01,-1.44 0.07,-0.02 0.63,-0.02 0.69,0 0.03,0.18 0.01,0.58 0.01,0.78l-0.01 0.77c-0.01,0.01 -0.01,0.01 -0.01,0.01 0.04,0.05 0.08,0.05 0.11,-0.01 -0.03,0 -0.01,0.03 -0.02,-0.11 0,-0.21 -0.01,-0.77 0.01,-0.91 0.24,-0.01 0.49,-0.02 0.73,-0.03 0.12,-0.01 0.19,-0.06 0.27,-0.12 0.06,-0.04 0.1,-0.09 0.12,-0.17 0.01,-0.01 0.01,-0.03 0.02,-0.04 0.01,-0.03 0,-0.02 0.02,-0.03l0.02 -0.07c0.01,-0.2 0,-1.04 0,-1.25 -0.01,-0.65 0.02,-4.52 -0.02,-4.65l-0.08 -0.16c-0.01,-0.03 -0.01,-0.03 -0.03,-0.06 -0.02,-0.02 -0.06,-0.06 -0.09,-0.08 -0.04,-0.04 -0.06,-0.05 -0.11,-0.07 -0.2,-0.09 -0.39,-0.07 -0.59,-0.07l-4.68 0c-0.11,0 -0.22,0 -0.33,0 -0.05,0.01 -0.11,0 -0.15,0.01 -0.05,0.01 -0.1,0.02 -0.14,0.03 -0.03,0 -0.05,0.01 -0.07,0.01 -0.2,0.06 -0.25,0.13 -0.38,0.21l-0.16 0.17c-0.05,0.07 -0.09,0.13 -0.13,0.21 -0.03,0.09 -0.05,0.16 -0.07,0.26 -0.08,0.31 -0.05,1.22 -0.05,1.61 0,0.89 0,1.78 0,2.67 0,0.45 0,0.89 0,1.33 0,0.21 -0.02,1.24 0.01,1.32 0,0 0,0.01 0,0.01 0.02,0.05 0.09,0.04 0.12,-0.01 0.02,-0.03 0.01,-1.38 0.01,-1.54l0.69 0 0 1.57c0.06,0.02 0.07,0.03 0.11,-0.02zm-0.73 -7.14c0.01,0.05 -0.05,0.18 -0.06,0.26 -0.03,0.16 -0.02,0.83 -0.02,1.02l0 3.49c0,0.22 0.01,0.49 0,0.7l5.67 0c-0.02,-0.94 0,-1.89 0,-2.83 0,-0.47 0,-0.94 0,-1.41 0,-0.35 -0.04,-1.11 0.06,-1.36 -0.01,-0.1 0.12,-0.31 0.19,-0.38l0.09 -0.06c0.01,-0.03 0.03,0 -0.01,-0.02l-4.87 0c-0.32,0 -0.46,0.03 -0.67,0.15 -0.3,0.19 -0.3,0.37 -0.38,0.44zm5.75 -0.11c0.01,0.05 -0.03,0.19 -0.03,0.34l0 5.01c0,0.22 0.01,0.55 -0.01,0.76 0.11,0 0.22,0.01 0.32,0 0.16,-0.02 0.37,0.02 0.49,-0.04 0.01,-0.01 0.01,-0.01 0.01,-0.01l0.02 -0.01c0.06,-0.03 0.11,-0.06 0.14,-0.12l0.03 -0.08c0.02,-0.03 0.01,-0.02 0.02,-0.03 0.04,-0.62 0.01,-1.31 0.01,-1.94 0,-0.64 0,-1.29 0,-1.93 0,-0.33 0,-0.65 0,-0.98 0,-0.31 0.02,-0.65 0,-0.96 -0.01,-0.27 -0.23,-0.5 -0.5,-0.48 -0.42,0.04 -0.44,0.39 -0.5,0.47zm-5.75 0.11c-0.15,0.24 -0.09,0.92 -0.1,1.28l0 3.49c0.01,0.22 -0.01,0.5 0.01,0.71 0.13,0.03 3.93,0.01 4.26,0.01 0.33,0 1.18,-0.02 1.43,0 0.02,-0.23 0.01,-0.48 0.01,-0.7l0 -3.55c0,-0.34 -0.01,-0.71 0.01,-1.05 0,-0.09 0.04,-0.25 0.03,-0.32 -0.1,0.25 -0.06,1.01 -0.06,1.36 0,0.47 0,0.94 0,1.41 0,0.94 -0.02,1.89 0,2.83l-5.67 0c0.01,-0.21 0,-0.48 0,-0.7l0 -3.49c0,-0.19 -0.01,-0.86 0.02,-1.02 0.01,-0.08 0.07,-0.21 0.06,-0.26zm0 0c0.08,-0.07 0.08,-0.25 0.38,-0.44 0.21,-0.12 0.35,-0.15 0.67,-0.15l4.87 0 0.05 0c0,0 0,0 0,0 0.03,0 0,0 0.03,0 0.06,-0.01 0.09,-0.01 0.14,-0.01 -0.03,0.03 0.01,0.01 -0.04,0.04 -0.17,0.09 -0.17,0.04 -0.3,0.28 -0.03,0.05 -0.06,0.11 -0.05,0.17 0.06,-0.08 0.08,-0.43 0.5,-0.47 0.27,-0.02 0.49,0.21 0.5,0.48 0.02,0.31 0,0.65 0,0.96 0,0.33 0,0.65 0,0.98 0,0.64 0,1.29 0,1.93 0,0.63 0.03,1.32 -0.01,1.94 0.06,-0.02 0.01,0.02 0.03,-0.03 0,0 0.01,-0.05 0.01,-0.05 0.01,-0.21 0,-1.38 0,-1.61l0 -3.43c0,-0.37 0.06,-0.71 -0.08,-0.94 -0.1,-0.17 -0.2,-0.23 -0.44,-0.26l-3.43 0c-0.57,0 -1.15,0 -1.72,-0.01 -0.39,0 -0.67,0.04 -0.95,0.34 -0.04,0.04 -0.14,0.19 -0.16,0.28zm1.58 7.13c0.02,-0.07 0,-1.35 0.01,-1.55l0.71 0c0,0.19 -0.01,1.5 0.02,1.56 0.05,0.03 0.06,0.01 0.11,-0.02l0 -1.54 0.72 0c-0.05,-0.03 -0.13,-0.02 -0.18,-0.02 -0.06,0 -0.12,0 -0.18,0 -0.09,0 -0.3,-0.01 -0.38,0.01 -0.03,0.17 -0.01,0.59 0,0.78 0,0.19 0.02,0.64 -0.01,0.79 -0.11,0.03 -0.07,-0.06 -0.07,-0.32 0,-0.19 0.02,-1.2 -0.02,-1.24 -0.04,-0.04 -0.64,-0.03 -0.74,-0.01 -0.02,0.19 -0.01,1.14 -0.01,1.47 0,0.01 0,0.04 0.01,0.05 0,0.01 0,0.01 0,0.01l0.01 0.03zm2.51 0c0.03,-0.03 0.01,-0.12 0.01,-0.17l0 -1.38 0.71 0 0 1.42c0,0.2 0,0.13 0.04,0.18 0.04,-0.01 0.05,-0.03 0.08,-0.05l0 -1.55 0.66 0 0 1.55c0,0 0,0 0.01,-0.01l0.01 -0.77c0,-0.2 0.02,-0.6 -0.01,-0.78 -0.06,-0.02 -0.62,-0.02 -0.69,0 0.03,0.26 0,1.06 0.01,1.44 0,0.1 0.02,0.14 -0.07,0.16 -0.02,-0.03 -0.02,-0.07 -0.02,-0.1 0,-0.46 0.02,-1.1 0,-1.5 -0.07,-0.02 -0.69,-0.02 -0.74,0l0 1.56zm-3.36 0.01c0.03,-0.05 0.01,-1.38 0.01,-1.56l0.72 0c0,0.17 -0.01,1.51 0.01,1.55 0.03,-0.02 0.03,-1.53 0,-1.56 -0.02,-0.02 -0.54,-0.01 -0.65,-0.01 -0.05,0 -0.05,-0.01 -0.09,0.02 -0.02,0.12 -0.01,1.17 -0.01,1.47l0.01 0.08c0,0 0,0.01 0,0.01zm4.97 -0.02c0.03,-0.06 0.01,-0.86 0.01,-1.02 0.16,0.02 0.58,0.02 0.74,-0.01 0.19,-0.03 0.38,-0.17 0.4,-0.38 -0.02,0.01 -0.01,0 -0.02,0.03 -0.01,0.01 -0.01,0.03 -0.02,0.04 -0.02,0.08 -0.06,0.13 -0.12,0.17 -0.08,0.06 -0.15,0.11 -0.27,0.12 -0.24,0.01 -0.49,0.02 -0.73,0.03 -0.02,0.14 -0.01,0.7 -0.01,0.91 0.01,0.14 -0.01,0.11 0.02,0.11z"/>
 </g>
</svg>
