<?xml version="1.0" encoding="UTF-8"?>
<!DOCTYPE svg PUBLIC "-//W3C//DTD SVG 1.1//EN" "http://www.w3.org/Graphics/SVG/1.1/DTD/svg11.dtd">
<!-- Creator: CorelDRAW -->
<svg xmlns="http://www.w3.org/2000/svg" xml:space="preserve" width="76px" height="76px" version="1.1" style="shape-rendering:geometricPrecision; text-rendering:geometricPrecision; image-rendering:optimizeQuality; fill-rule:evenodd; clip-rule:evenodd"
viewBox="0 0 4.45 4.44"
 xmlns:xlink="http://www.w3.org/1999/xlink"
 xmlns:xodm="http://www.corel.com/coreldraw/odm/2003">
 <defs>
  <style type="text/css">
   <![CDATA[
    .str0 {stroke:black;stroke-width:0.04;stroke-miterlimit:22.9256}
    .fil0 {fill:none}
    .fil1 {fill:#373435}
   ]]>
  </style>
 </defs>
 <g id="Layer_x0020_1">
  <metadata id="CorelCorpID_0Corel-Layer"/>
  <rect class="fil0" width="4.45" height="4.44" rx="0.62" ry="0.62"/>
  <path class="fil1 str0" d="M2.92 2.8c0.14,0 0.3,-0.1 0.4,-0.2 0.18,-0.19 0.29,-0.46 0.24,-0.75 -0.02,-0.11 -0.08,-0.21 -0.17,-0.27 -0.17,-0.13 -0.35,-0.07 -0.43,-0.08 0,-0.07 0,-0.15 0,-0.22 0,-0.05 0,-0.07 -0.03,-0.09 -0.16,-0.1 -0.73,-0.11 -0.93,-0.11 -0.3,0 -0.57,0 -0.87,0.05 -0.06,0.01 -0.23,0.03 -0.24,0.1 -0.01,0.04 0,0.09 0,0.12 0,0.31 -0.01,0.62 -0.01,0.92 0,0.33 0.01,0.52 0.18,0.75 0.05,0.07 0.05,0.07 0.1,0.13 0.03,0.02 0.1,0.08 0.13,0.1 0.1,0.05 0.22,0.1 0.35,0.11 0.15,0.01 0.3,0.01 0.45,0.01 0.16,0 0.26,-0.02 0.39,-0.08 0.07,-0.03 0.15,-0.09 0.21,-0.14 0.1,-0.1 0.13,-0.15 0.19,-0.27 0.02,-0.02 0.02,-0.06 0.04,-0.08zm0 -1.51c-0.29,0.16 -1.46,0.12 -1.78,0.06 -0.03,-0.01 -0.07,-0.02 -0.11,-0.03 -0.03,-0.01 -0.07,-0.03 -0.1,-0.03 0.01,0.1 0,0.26 0,0.37 0,0.13 0,0.26 0,0.38 -0.01,0.2 -0.02,0.55 0.04,0.72 0.03,0.09 0.07,0.17 0.13,0.25 0.03,0.03 0.06,0.07 0.09,0.1 0.04,0.03 0.05,0.05 0.1,0.08 0.23,0.15 0.39,0.13 0.63,0.13 0.29,0.01 0.45,0 0.66,-0.14l0.05 -0.04c0.04,-0.04 0.03,-0.02 0.08,-0.08l0.04 -0.05c0.05,-0.06 0.1,-0.16 0.13,-0.25 0.04,-0.1 0.03,-0.22 0.03,-0.34 0,-0.12 0.01,-0.25 0.01,-0.38 0,-0.25 -0.01,-0.5 0,-0.75zm-1.98 -0.06c0.02,0.03 0.16,0.07 0.2,0.07 0.21,0.05 0.33,0.03 0.51,0.05l0.27 0.01c0.23,0 0.85,0 0.99,-0.13 -0.09,-0.1 -0.8,-0.11 -0.98,-0.11 -0.23,0 -0.85,0.01 -0.99,0.11zm2.02 0.32l0 0.18c0.06,0 0.13,0 0.19,0.01 0.02,0 0.05,0.01 0.07,0.02 0.04,0.02 0.08,0.07 0.09,0.11 0.06,0.13 0.02,0.35 -0.07,0.47 -0.05,0.07 -0.04,0.05 -0.09,0.11 -0.05,0.05 -0.13,0.1 -0.19,0.11 0,0.07 -0.01,0.14 -0.03,0.19 0.11,0.01 0.31,-0.12 0.38,-0.21 0.02,-0.03 0.03,-0.03 0.07,-0.08 0.11,-0.16 0.17,-0.4 0.14,-0.59 -0.03,-0.16 -0.13,-0.28 -0.28,-0.32 -0.1,-0.02 -0.17,-0.01 -0.28,0zm0 0.97c0.1,-0.03 0.18,-0.12 0.24,-0.2 0.04,-0.06 0.06,-0.11 0.08,-0.19 0.03,-0.1 0.02,-0.21 -0.03,-0.29 -0.06,-0.07 -0.17,-0.07 -0.28,-0.06l-0.01 0.74z"/>
 </g>
</svg>
