<?xml version="1.0" encoding="UTF-8"?>
<!DOCTYPE svg PUBLIC "-//W3C//DTD SVG 1.1//EN" "http://www.w3.org/Graphics/SVG/1.1/DTD/svg11.dtd">
<!-- Creator: CorelDRAW -->
<svg xmlns="http://www.w3.org/2000/svg" xml:space="preserve" width="76px" height="76px" version="1.1" style="shape-rendering:geometricPrecision; text-rendering:geometricPrecision; image-rendering:optimizeQuality; fill-rule:evenodd; clip-rule:evenodd"
viewBox="0 0 9.24 9.23"
 xmlns:xlink="http://www.w3.org/1999/xlink"
 xmlns:xodm="http://www.corel.com/coreldraw/odm/2003">
 <defs>
  <style type="text/css">
   <![CDATA[
    .str0 {stroke:black;stroke-width:0.09;stroke-miterlimit:22.9256}
    .fil0 {fill:none}
    .fil1 {fill:#373435}
   ]]>
  </style>
 </defs>
 <g id="Layer_x0020_1">
  <metadata id="CorelCorpID_0Corel-Layer"/>
  <rect class="fil0" width="9.24" height="9.23" rx="1.3" ry="1.29"/>
  <path class="fil1 str0" d="M6.06 5.82c0.29,0 0.63,-0.22 0.83,-0.43 0.38,-0.39 0.6,-0.94 0.5,-1.54 -0.04,-0.23 -0.16,-0.44 -0.34,-0.57 -0.36,-0.28 -0.75,-0.14 -0.9,-0.17 -0.01,-0.15 -0.01,-0.31 -0.01,-0.46 0,-0.1 0.01,-0.14 -0.06,-0.18 -0.33,-0.22 -1.51,-0.24 -1.93,-0.24 -0.63,0 -1.18,0.01 -1.81,0.11 -0.12,0.02 -0.48,0.07 -0.5,0.22 0,0.07 0,0.17 0,0.24 0,0.64 -0.01,1.28 -0.01,1.92 0,0.68 0.01,1.08 0.36,1.56 0.11,0.14 0.12,0.14 0.22,0.25 0.05,0.05 0.22,0.17 0.28,0.21 0.19,0.12 0.45,0.22 0.72,0.24 0.31,0.02 0.62,0.01 0.94,0.01 0.32,0 0.52,-0.04 0.79,-0.16 0.16,-0.07 0.32,-0.18 0.44,-0.29 0.2,-0.2 0.28,-0.3 0.41,-0.56 0.02,-0.05 0.04,-0.12 0.07,-0.16zm-0.01 -3.14c-0.59,0.33 -3.03,0.25 -3.68,0.13 -0.07,-0.02 -0.16,-0.04 -0.23,-0.06 -0.07,-0.03 -0.14,-0.06 -0.21,-0.08 0.03,0.23 0,0.54 0,0.78 0,0.26 0.01,0.53 0,0.79 -0.02,0.41 -0.04,1.13 0.08,1.48 0.06,0.19 0.16,0.37 0.27,0.52 0.06,0.08 0.12,0.15 0.19,0.21 0.09,0.07 0.11,0.1 0.22,0.17 0.46,0.32 0.79,0.27 1.3,0.28 0.6,0.01 0.93,0 1.37,-0.31l0.11 -0.08c0.07,-0.08 0.05,-0.03 0.15,-0.15l0.09 -0.11c0.11,-0.13 0.21,-0.33 0.28,-0.51 0.07,-0.22 0.06,-0.46 0.06,-0.71 0,-0.26 0.01,-0.53 0.01,-0.79 0,-0.52 -0.01,-1.04 -0.01,-1.56zm-4.1 -0.12c0.04,0.05 0.33,0.13 0.42,0.15 0.43,0.09 0.69,0.05 1.06,0.09l0.56 0.02c0.47,0 1.77,0 2.05,-0.26 -0.18,-0.21 -1.65,-0.24 -2.04,-0.24 -0.46,0 -1.75,0.03 -2.05,0.24zm4.2 0.65l0 0.39c0.12,0 0.27,-0.02 0.38,0.01 0.06,0.01 0.1,0.03 0.15,0.05 0.08,0.03 0.17,0.13 0.2,0.21 0.12,0.28 0.03,0.73 -0.16,0.99 -0.1,0.14 -0.08,0.11 -0.19,0.23 -0.09,0.09 -0.26,0.2 -0.39,0.23 0.01,0.13 -0.01,0.29 -0.05,0.4 0.22,0.01 0.63,-0.26 0.78,-0.44 0.05,-0.07 0.06,-0.06 0.14,-0.17 0.24,-0.33 0.37,-0.83 0.29,-1.23 -0.06,-0.32 -0.26,-0.58 -0.58,-0.66 -0.21,-0.05 -0.35,-0.02 -0.57,-0.01zm-0.01 2.02c0.21,-0.07 0.38,-0.25 0.5,-0.42 0.1,-0.12 0.13,-0.22 0.17,-0.38 0.05,-0.21 0.05,-0.45 -0.07,-0.6 -0.11,-0.16 -0.34,-0.15 -0.58,-0.13l-0.02 1.53z"/>
 </g>
</svg>
