<?xml version="1.0" encoding="UTF-8"?>
<!DOCTYPE svg PUBLIC "-//W3C//DTD SVG 1.1//EN" "http://www.w3.org/Graphics/SVG/1.1/DTD/svg11.dtd">
<!-- Creator: CorelDRAW -->
<svg xmlns="http://www.w3.org/2000/svg" xml:space="preserve" width="76px" height="76px" version="1.1" style="shape-rendering:geometricPrecision; text-rendering:geometricPrecision; image-rendering:optimizeQuality; fill-rule:evenodd; clip-rule:evenodd"
viewBox="0 0 17.41 17.38"
 xmlns:xlink="http://www.w3.org/1999/xlink"
 xmlns:xodm="http://www.corel.com/coreldraw/odm/2003">
 <defs>
  <style type="text/css">
   <![CDATA[
    .fil0 {fill:none}
    .fil1 {fill:#373435}
   ]]>
  </style>
 </defs>
 <g id="Layer_x0020_1">
  <metadata id="CorelCorpID_0Corel-Layer"/>
  <rect class="fil0" width="17.41" height="17.38" rx="2.44" ry="2.44"/>
  <path class="fil1" d="M7.05 2.85c-0.56,0.08 -0.27,-0.02 -0.28,0.93 0,0.35 -0.12,0.83 -0.29,1.06 -0.15,0.2 -0.1,0.16 -0.03,0.49l0.26 1.08c0.04,0.18 0.11,0.39 0.12,0.58 0,0.42 -0.14,0.71 -0.27,1.08 -0.66,1.96 -0.9,3.44 -1.3,5.42 -0.06,0.31 -0.11,0.4 0.06,0.47 0.15,0.07 0.35,0.12 0.51,0.17 1.81,0.54 4.07,0.58 5.84,-0.02 0.12,-0.04 0.41,-0.12 0.48,-0.18 0.12,-0.09 0.01,-0.4 -0.02,-0.55 -0.29,-1.61 -0.76,-3.89 -1.31,-5.4 -0.14,-0.37 -0.28,-0.66 -0.23,-1.11l0.39 -1.62c0.09,-0.36 0.03,-0.25 -0.1,-0.49 -0.17,-0.33 -0.24,-0.7 -0.24,-1.1 0,-0.26 0.03,-0.37 0.06,-0.6 0.02,-0.13 -0.03,-0.16 -0.14,-0.18 -0.61,-0.1 -0.51,-0.07 -0.57,0.36 -0.06,0.52 -0.14,1.04 -0.77,1.25 -0.36,0.12 -0.78,0.11 -1.13,-0.03 -0.57,-0.24 -0.64,-0.8 -0.68,-1.32 -0.03,-0.31 -0.03,-0.34 -0.36,-0.29zm-0.05 4.62c-0.35,0.97 -0.66,1.99 -0.91,3.03 -0.13,0.54 -0.23,1.07 -0.34,1.61 -0.11,0.53 -0.24,1.12 -0.31,1.66 0.51,0.17 0.96,0.29 1.51,0.4 0.52,0.1 1.2,0.17 1.75,0.17 0.9,0 2.06,-0.16 2.92,-0.44 0.11,-0.04 0.26,-0.1 0.36,-0.13 -0.03,-0.26 -0.1,-0.55 -0.15,-0.83 -0.23,-1.27 -0.57,-2.77 -0.93,-4 -0.08,-0.26 -0.41,-1.34 -0.51,-1.48l-3.39 0.01zm-0.06 -4.39c0.05,0.49 0.08,0.51 0.02,1.03 -0.08,0.71 -0.38,0.82 -0.33,1.03l0.27 1.13c0.03,0.14 0.08,0.31 0.11,0.46l3.38 0 0.38 -1.56c0.03,-0.12 0.04,-0.12 -0.03,-0.21 -0.3,-0.46 -0.38,-1.26 -0.27,-1.87l-0.23 -0.03c-0.04,0.51 -0.1,0.93 -0.38,1.25 -0.29,0.34 -0.66,0.48 -1.14,0.49 -0.51,0.01 -0.94,-0.2 -1.17,-0.47 -0.26,-0.31 -0.35,-0.76 -0.37,-1.26l-0.24 0.01zm0.1 4.16l3.33 0 -0.01 -0.3c-1.09,0.02 -2.22,0.03 -3.32,0l0 0.3z"/>
 </g>
</svg>
