<svg xmlns="http://www.w3.org/2000/svg" version="1.1" xmlns:xlink="http://www.w3.org/1999/xlink" width="512"
    height="512" x="0" y="0" viewBox="0 0 68 68" style="enable-background:new 0 0 512 512" xml:space="preserve"
    class="">
    <style>
        path { fill: #000;} /* Default (light mode) */
        @media (prefers-color-scheme: dark) {
        path { fill: #fff;} /* Dark mode */
        }
    </style>
    <g transform="matrix(0.6,0,0,0.6,13.600058555603027,13.59997625350952)">
        <path
            d="M59.376 48.066c-6.57-5.49-11.43-11.47-16.23-20.03v-3.73c.227-.605-.432-4.647 2.31-8.64.75-1.08.65-2.54-.24-3.46-.57-.59-1.2-1.04-1.89-1.34v-6.45c0-1.33-1.07-2.41-2.4-2.41-1.33 0-2.41 1.08-2.41 2.41v6.27c-1.36.35-2.87.98-4.51 1.9-1.65-.93-3.16-1.56-4.52-1.91v-6.26a2.41 2.41 0 0 0-2.4-2.41c-1.33 0-2.41 1.08-2.41 2.41v6.44c-.7.31-1.32.76-1.89 1.35-.88.92-.98 2.38-.24 3.46 2.742 3.968 2.093 7.98 2.29 8.57v3.81c-4.8 8.54-9.65 14.54-16.21 20.02-1.363 1.15-1.286 3.253.11 4.3 1.31 1 2.63 1.92 3.94 2.76a2.752 2.752 0 0 0 .9 3.24c13.594 10.171 27.318 10.17 40.85 0 1.006-.762 1.371-2.074.89-3.23a53.51 53.51 0 0 0 3.95-2.77c1.447-1.1 1.42-3.198.11-4.3zm-33.04-23.28h15.31v2.71h-15.31zm13.68-20.37c0-.5.41-.91.91-.91s.9.41.9.91v6.02c-.56-.09-1.17-.1-1.81-.03zm-13.84 0c0-.5.41-.91.91-.91s.9.41.9.91v5.98c-.64-.06-1.25-.05-1.81.04v-6.02zm-2.39 10.4c-.35-.5-.31-1.16.09-1.57 2.534-2.624 6.593-.964 9.75.86.23.13.52.13.75 0 3.157-1.824 7.226-3.483 9.76-.86.39.41.43 1.07.09 1.57-1.66 2.4-2.41 4.9-2.51 8.47h-15.42c-.11-3.57-.86-6.07-2.51-8.47zm34.57 36.36c-1.31 1-2.62 1.92-3.94 2.76-5.5-5.06-9.42-12.08-12.89-18.27a.75.75 0 0 0-1.31.73c4.02 7.182 7.5 13.293 13.39 18.84.555.503.575 1.45-.08 1.93-3.73 2.81-7.44 4.82-11.13 6.02-2.176-4.786-3.554-10.445-4.95-16.07-.1-.4-.5-.64-.91-.55-.4.1-.64.51-.54.91 1.233 4.98 2.813 11.465 4.95 16.14-4.63 1.26-9.25 1.26-13.9-.02 2.082-4.416 3.796-11.471 4.95-16.12a.75.75 0 0 0-.54-.91c-.4-.09-.81.15-.91.55-1.222 4.925-2.828 11.543-4.95 16.06-3.69-1.21-7.39-3.21-11.13-6.01-.64-.507-.643-1.403-.08-1.94 5.847-5.507 9.274-11.475 13.38-18.83.21-.36.08-.82-.29-1.02a.755.755 0 0 0-1.02.29c-3.47 6.19-7.39 13.19-12.87 18.25-1.32-.82-2.63-1.74-3.95-2.74-.617-.473-.672-1.445-.05-1.96 6.65-5.56 11.58-11.62 16.44-20.22h15.94c4.85 8.6 9.79 14.66 16.44 20.22.616.532.593 1.483-.05 1.96z"
             opacity="1"></path>
    </g>
</svg>