<svg xmlns="http://www.w3.org/2000/svg" version="1.1" xmlns:xlink="http://www.w3.org/1999/xlink" width="512"
    height="512" x="0" y="0" viewBox="0 0 64 64" style="enable-background:new 0 0 512 512" xml:space="preserve">
    <style>
        path { fill: #000; } /* Default (light mode) */
        @media (prefers-color-scheme: dark) {
        path { fill: #fff; } /* Dark mode */
        }
    </style>
    <g transform="matrix(0.6,0,0,0.6,12.800726318359377,12.800323973642662)">
        <g data-name="04 Earings">
            <path
                d="M17.218 13.771a1 1 0 0 1 .782.963V19a1 1 0 0 0 2 0v-4.266a3.02 3.02 0 0 0-2.274-2.9 5.034 5.034 0 0 1-3.613-5.922 4.968 4.968 0 0 1 3.8-3.8 5.053 5.053 0 0 1 4.239 1A4.983 4.983 0 0 1 24 7a7.43 7.43 0 0 0 4.13 6.683l.422.211a1 1 0 0 0 .9-1.788l-.423-.212A5.442 5.442 0 0 1 26 7a7 7 0 1 0-8.782 6.771ZM18.142 43.17C16.6 45.757 14 50.473 14 53a5 5 0 0 0 10 0c0-2.527-2.595-7.244-4.142-9.83a1.04 1.04 0 0 0-1.716 0ZM19 56a3 3 0 0 1-3-3c0-1.267 1.128-4 3-7.326C20.872 49 22 51.732 22 53a3 3 0 0 1-3 3ZM43.218 13.771a1 1 0 0 1 .782.963V19a1 1 0 0 0 2 0v-4.266a3.02 3.02 0 0 0-2.274-2.9 5.034 5.034 0 0 1-3.613-5.922 4.968 4.968 0 0 1 3.8-3.8 5.052 5.052 0 0 1 4.239 1A4.983 4.983 0 0 1 50 7a7.43 7.43 0 0 0 4.13 6.683l.422.211a1 1 0 1 0 .9-1.788l-.423-.212A5.442 5.442 0 0 1 52 7a7 7 0 1 0-8.782 6.771ZM44.142 43.17C42.6 45.757 40 50.473 40 53a5 5 0 0 0 10 0c0-2.527-2.595-7.244-4.142-9.83a1.04 1.04 0 0 0-1.716 0ZM48 53a3 3 0 0 1-6 0c0-1.267 1.128-4 3-7.326C46.872 49 48 51.732 48 53Z"
                opacity="1" data-original="#000000"></path>
            <path
                d="M24.461 41.131a1 1 0 0 0-.373 1.365C26.647 46.983 28 50.615 28 53a9 9 0 0 1-18 0c0-5.457 6.669-15.113 9-18.322a93.899 93.899 0 0 1 2.666 3.868 1 1 0 0 0 1.676-1.092 96.147 96.147 0 0 0-2.646-3.845 3.971 3.971 0 0 0 .685-6.8A2.972 2.972 0 0 0 22 25a3 3 0 0 0-6 0 2.972 2.972 0 0 0 .619 1.8 3.971 3.971 0 0 0 .683 6.8C14.794 37.056 8 46.953 8 53a11 11 0 0 0 22 0c0-2.771-1.4-6.639-4.176-11.5a1 1 0 0 0-1.363-.369ZM18 25a1 1 0 1 1 1 1 1 1 0 0 1-1-1Zm1 3a2 2 0 1 1-2 2 2 2 0 0 1 2-2ZM46.7 33.608a3.971 3.971 0 0 0 .683-6.8A2.972 2.972 0 0 0 48 25a3 3 0 0 0-6 0 2.972 2.972 0 0 0 .619 1.8 3.971 3.971 0 0 0 .683 6.8C40.794 37.056 34 46.953 34 53a10.994 10.994 0 0 0 16.38 9.59 1 1 0 1 0-.981-1.743A8.993 8.993 0 0 1 36 53c0-5.457 6.668-15.112 9-18.321 2.332 3.209 9 12.864 9 18.321a8.9 8.9 0 0 1-1.873 5.48 1 1 0 0 0 1.584 1.22A10.893 10.893 0 0 0 56 53c0-6.047-6.794-15.944-9.3-19.392ZM44 25a1 1 0 1 1 1 1 1 1 0 0 1-1-1Zm1 3a2 2 0 1 1-2 2 2 2 0 0 1 2-2Z"
                opacity="1" data-original="#000000"></path>
        </g>
    </g>
</svg>