<?xml version="1.0" encoding="UTF-8"?>
<!DOCTYPE svg PUBLIC "-//W3C//DTD SVG 1.1//EN" "http://www.w3.org/Graphics/SVG/1.1/DTD/svg11.dtd">
<!-- Creator: CorelDRAW -->
<svg xmlns="http://www.w3.org/2000/svg" xml:space="preserve" width="76px" height="76px" version="1.1" style="shape-rendering:geometricPrecision; text-rendering:geometricPrecision; image-rendering:optimizeQuality; fill-rule:evenodd; clip-rule:evenodd"
viewBox="0 0 10.18 10.16"
 xmlns:xlink="http://www.w3.org/1999/xlink"
 xmlns:xodm="http://www.corel.com/coreldraw/odm/2003">
 <defs>
  <style type="text/css">
   <![CDATA[
    .fil0 {fill:none}
    .fil1 {fill:#373435}
    .fil2 {fill:black;fill-rule:nonzero}
   ]]>
  </style>
 </defs>
 <g id="Layer_x0020_1">
  <metadata id="CorelCorpID_0Corel-Layer"/>
  <rect class="fil0" width="10.18" height="10.16" rx="1.43" ry="1.42"/>
  <path class="fil1" d="M6.49 2.24l0.01 0.07c-0.09,0 -0.28,0.08 -0.36,0.13 -0.04,0.02 -0.06,0.03 -0.1,0.06l-0.14 0.09 -0.2 0.2c-0.04,0.06 -0.1,0.14 -0.13,0.19 -0.13,0.18 -0.22,0.52 -0.22,0.75 0,0.24 0.03,0.47 0.14,0.68 0.12,0.23 0.19,0.33 0.39,0.51 0.02,0.01 0.03,0.02 0.05,0.03 0.01,0.01 0.02,0.02 0.02,0.02 0.01,0.01 0.01,0.01 0.02,0.01 0,0 0,0 0,0.01 0.23,0.14 0.26,0.16 0.51,0.24 0.05,0.01 0.09,0.02 0.15,0.03 0.04,0.01 0.12,0.01 0.16,0.02 0,0.16 -0.01,0.12 -0.09,0.21l-0.25 0.36c-0.08,0.13 -0.17,0.26 -0.24,0.39l-0.27 0.65c-0.06,0.22 -0.05,0.18 -0.08,0.39 -0.01,0.09 0.04,0.31 0.07,0.4 0.03,0.07 0.07,0.14 0.11,0.2 0.15,0.19 0.3,0.32 0.54,0.39 0.2,0.06 0.33,0.06 0.54,0.01 0.03,-0.01 0.07,-0.02 0.11,-0.04 0.12,-0.05 0.34,-0.19 0.4,-0.29 0.13,-0.2 0.16,-0.2 0.22,-0.48 0.05,-0.28 -0.07,-0.6 -0.16,-0.85 -0.02,-0.04 -0.01,-0.02 -0.03,-0.05l-0.15 -0.32c-0.09,-0.19 -0.14,-0.24 -0.23,-0.39l-0.19 -0.27c-0.17,-0.21 -0.17,-0.13 -0.18,-0.31 0.18,0 0.29,-0.04 0.44,-0.08 0.18,-0.05 0.42,-0.2 0.54,-0.33 0.07,-0.07 0.15,-0.14 0.2,-0.23l0.07 -0.1c0.01,-0.02 0.02,-0.04 0.04,-0.06 0.21,-0.4 0.22,-0.87 0.06,-1.28 -0.01,-0.02 -0.02,-0.05 -0.02,-0.06l-0.1 -0.17c-0.03,-0.05 -0.04,-0.06 -0.07,-0.11 -0.07,-0.12 -0.24,-0.26 -0.36,-0.34 -0.12,-0.08 -0.35,-0.2 -0.49,-0.21 0.03,-0.1 0.01,-0.23 -0.06,-0.32 -0.06,-0.08 -0.14,-0.12 -0.27,-0.14 -0.07,-0.02 -0.18,0.02 -0.23,0.05 -0.11,0.07 -0.19,0.18 -0.17,0.34zm-3.53 0.05c-0.03,0.04 -0.08,0.04 -0.13,0.05 -0.16,0.06 -0.31,0.14 -0.45,0.25 -0.09,0.07 -0.18,0.16 -0.26,0.26 -0.01,0.01 -0.06,0.08 -0.07,0.1l-0.06 0.11c-0.03,0.04 -0.04,0.06 -0.06,0.11 -0.01,0.03 -0.02,0.04 -0.02,0.06 -0.09,0.22 -0.12,0.44 -0.1,0.69 0.03,0.27 0.09,0.44 0.23,0.64 0.16,0.26 0.36,0.45 0.65,0.58 0.15,0.07 0.35,0.14 0.55,0.14 0,0.15 -0.01,0.14 -0.11,0.25 -0.02,0.03 -0.06,0.07 -0.08,0.1l-0.15 0.23c-0.21,0.34 -0.21,0.34 -0.38,0.71 -0.16,0.34 -0.27,0.76 -0.13,1.11 0.02,0.06 0.04,0.11 0.07,0.15 0,0.01 0.02,0.02 0.02,0.03l0.02 0.03c0,0 0.01,0.01 0.01,0.01 0.04,0.06 0.09,0.12 0.15,0.16 0.04,0.03 0.02,0.03 0.06,0.05 0.39,0.26 0.82,0.27 1.2,-0.01 0.05,-0.03 0.09,-0.07 0.12,-0.1 0.03,-0.03 0.04,-0.03 0.06,-0.06 0,-0.01 0.01,-0.02 0.02,-0.03l0.01 -0.01c0.04,-0.06 0.09,-0.15 0.13,-0.23 0,-0.01 0,-0.01 0,-0.01 0.08,-0.2 0.07,-0.47 0.02,-0.66 -0.02,-0.05 -0.04,-0.12 -0.05,-0.16 -0.03,-0.11 -0.08,-0.21 -0.12,-0.32 -0.07,-0.18 -0.18,-0.34 -0.27,-0.5 -0.01,-0.02 -0.02,-0.04 -0.04,-0.07 -0.1,-0.16 -0.24,-0.36 -0.37,-0.5 -0.07,-0.08 -0.05,-0.03 -0.06,-0.17 0.09,0 0.24,-0.02 0.32,-0.04 0.14,-0.04 0.26,-0.09 0.38,-0.16l0.17 -0.12c0.19,-0.14 0.33,-0.34 0.44,-0.54 0.24,-0.44 0.18,-1.04 -0.08,-1.45 -0.02,-0.03 -0.04,-0.05 -0.06,-0.1 0,0 -0.01,-0.02 -0.01,-0.02l-0.21 -0.22c-0.06,-0.06 -0.13,-0.09 -0.19,-0.14 -0.11,-0.07 -0.33,-0.16 -0.46,-0.18 0.01,-0.09 0.02,-0.18 -0.03,-0.26 -0.01,-0.03 -0.02,-0.05 -0.03,-0.07 -0.04,-0.03 -0.08,-0.07 -0.12,-0.09 -0.13,-0.07 -0.28,-0.06 -0.4,0.03 -0.07,0.06 -0.11,0.1 -0.13,0.19 0,0.04 -0.02,0.15 0,0.18zm2.53 1.43c0,0.28 0.06,0.56 0.23,0.8 0.01,0.01 0.02,0.03 0.03,0.05 0.02,0.03 0.01,0.02 0.04,0.05 0,0 0,0 0,0 0.07,0.08 0.06,0.08 0.16,0.17 0.08,0.07 0.22,0.16 0.31,0.2 0.13,0.07 0.39,0.15 0.53,0.15l0 -0.1 0.02 -0.01c0,0 0.02,-0.01 0.03,-0.02 0.09,-0.04 0.08,0.05 0.08,0.13 0.16,0.01 0.45,-0.09 0.6,-0.17 0.03,-0.02 0.08,-0.05 0.1,-0.07l0.04 -0.03c0.11,-0.07 0.21,-0.17 0.29,-0.27 0,0 0.01,-0.02 0.01,-0.02l0.02 -0.03c0.14,-0.21 0.22,-0.36 0.25,-0.64 0.02,-0.21 -0.01,-0.38 -0.06,-0.55 -0.05,-0.17 -0.23,-0.49 -0.38,-0.59 -0.06,-0.04 -0.08,-0.08 -0.17,-0.14 -0.08,-0.06 -0.36,-0.19 -0.45,-0.18 -0.01,0.01 -0.05,0.09 -0.11,0.12 -0.05,0.03 -0.14,0.07 -0.2,0.07 -0.12,-0.01 -0.27,-0.09 -0.31,-0.2 -0.08,0.01 -0.15,0.04 -0.22,0.07 -0.16,0.06 -0.17,0.08 -0.29,0.17 -0.02,0.01 0,0 -0.03,0.01 -0.08,0.05 -0.06,0.06 -0.11,0.11 -0.06,0.05 -0.06,0.03 -0.11,0.11l-0.09 0.13c-0.12,0.18 -0.21,0.46 -0.21,0.68zm-3.55 0.04c0.01,0.13 0.02,0.22 0.04,0.33 0.01,0.02 0.01,0.04 0.02,0.06l0.07 0.18c0.02,0.05 0.03,0.07 0.05,0.11l0.07 0.1c0.04,0.07 0.1,0.13 0.15,0.18 0.07,0.07 0.18,0.17 0.27,0.22 0.2,0.1 0.4,0.2 0.63,0.2l0 -0.08c0.02,-0.01 0.01,0.01 0.06,-0.04l0.02 -0.03c0.06,0.04 0.05,0.04 0.05,0.15 0.11,0 0.19,-0.02 0.29,-0.04 0.1,-0.03 0.33,-0.13 0.42,-0.2l0.08 -0.05c0.13,-0.1 0.25,-0.24 0.33,-0.39 0.02,-0.03 0.01,0 0.02,-0.02 0.04,-0.06 0.06,-0.11 0.08,-0.17l0.03 -0.09c0.01,0 0.01,0 0.01,-0.01 0.03,-0.1 0.07,-0.31 0.07,-0.4 0,-0.18 -0.07,-0.45 -0.15,-0.61 -0.09,-0.15 -0.04,-0.09 -0.18,-0.27 -0.01,-0.01 -0.02,-0.02 -0.04,-0.04 -0.04,-0.04 -0.02,-0.05 -0.11,-0.11l-0.17 -0.13c-0.12,-0.08 -0.28,-0.14 -0.42,-0.17 -0.01,0.01 -0.01,0.02 -0.02,0.03 -0.04,0.06 -0.02,0.05 -0.06,0.08l-0.04 0.02c-0.05,0.04 -0.11,0.06 -0.19,0.07 -0.07,0 -0.15,-0.03 -0.2,-0.07 -0.07,-0.05 -0.06,-0.05 -0.12,-0.13 -0.07,0.02 -0.2,0.06 -0.27,0.1 -0.02,0.01 -0.03,0.02 -0.05,0.03 -0.1,0.05 -0.14,0.08 -0.22,0.14l-0.16 0.15c-0.02,0.02 0,0 -0.01,0.01l-0.02 0.02c-0.06,0.09 -0.05,0.06 -0.12,0.17l-0.01 0.01c-0.04,0.07 -0.06,0.13 -0.09,0.2 -0.06,0.14 -0.1,0.31 -0.11,0.49zm1.37 1.77c-0.02,0.03 -0.04,0.04 -0.06,0.07l-0.11 0.16c-0.25,0.4 -0.32,0.45 -0.53,0.97 -0.19,0.45 -0.24,0.85 0.13,1.2 0.1,0.1 0.02,0.03 0.16,0.12 0.05,0.04 0.12,0.07 0.19,0.09 0.28,0.08 0.6,0 0.81,-0.21l0.1 -0.1c0.02,-0.02 0.02,-0.02 0.03,-0.04 0.19,-0.28 0.17,-0.56 0.08,-0.88 -0.02,-0.07 -0.05,-0.13 -0.07,-0.19 -0.03,-0.07 -0.06,-0.13 -0.09,-0.2 -0.08,-0.17 -0.14,-0.28 -0.23,-0.43l-0.41 -0.56zm3.55 0l-0.49 0.72 -0.12 0.23c-0.01,0.02 -0.02,0.03 -0.02,0.05l-0.11 0.26c-0.11,0.29 -0.17,0.62 -0.02,0.9 0.02,0.04 0.03,0.07 0.05,0.09 0.08,0.11 0.2,0.24 0.32,0.29 0.13,0.05 0.17,0.1 0.39,0.1 0.1,0 0.15,-0.01 0.23,-0.03 0.08,-0.02 0.21,-0.09 0.28,-0.13l0.2 -0.22c0.04,-0.06 0.06,-0.09 0.09,-0.17 0.12,-0.27 0.02,-0.56 -0.04,-0.79 -0.04,-0.13 -0.25,-0.56 -0.31,-0.66l-0.21 -0.33c-0.02,-0.03 -0.04,-0.04 -0.06,-0.08 -0.03,-0.04 -0.03,-0.05 -0.06,-0.08 -0.04,-0.06 -0.07,-0.1 -0.12,-0.15zm-3.42 -3.25c-0.06,-0.05 -0.01,-0.14 -0.05,-0.18 -0.02,-0.02 -0.13,-0.07 -0.16,-0.09 -0.08,0 -0.2,0.17 -0.14,0.27 0.08,-0.03 0.26,0 0.35,0zm3.3 -0.24c0.02,0.02 0.05,0.02 0.08,0.03 0.02,0.01 0.04,0.02 0.06,0.04 0.06,0.07 0.02,0.1 0.05,0.16 0.04,0 0.12,0.01 0.16,0.01 0.04,-0.13 -0.05,-0.29 -0.22,-0.3 -0.06,0 -0.1,0.02 -0.13,0.06zm0.19 0.23c-0.03,-0.06 0.01,-0.09 -0.05,-0.16 -0.02,-0.02 -0.04,-0.03 -0.06,-0.04 -0.03,-0.01 -0.06,-0.01 -0.08,-0.03 -0.07,0.01 -0.1,0.09 -0.11,0.15 -0.01,0.08 0,0.09 0.07,0.09 0.09,-0.01 0.07,-0.02 0.23,-0.01zm-3.49 0.01c0.06,0 0.06,-0.01 0.1,0.01 0,-0.02 0.04,-0.17 -0.06,-0.24 -0.05,-0.04 -0.19,-0.1 -0.25,-0.04 0.03,0.02 0.14,0.07 0.16,0.09 0.04,0.04 -0.01,0.13 0.05,0.18zm3.26 0.13c0.02,0.06 0,0.04 0.06,0.06 0.04,0.02 0.04,0.03 0.09,0.03 0.05,0 0.17,-0.04 0.17,-0.08 -0.05,-0.03 -0.25,-0.02 -0.32,-0.01zm-3.54 0l0.07 0.07c0.01,0 0.01,0 0.01,0 0.09,0.04 0.19,0.01 0.24,-0.07 -0.05,-0.01 -0.12,-0.02 -0.17,-0.01 -0.02,0 -0.13,0.02 -0.15,0.01z"/>
  <path class="fil2" d="M6.49 2.24l0.01 0.07c-0.04,0 -0.1,0.02 -0.16,0.04 -0.08,0.03 -0.15,0.06 -0.2,0.09l-0.01 0c-0.03,0.02 -0.05,0.03 -0.09,0.06l-0.14 0.09 -0.2 0.2c-0.03,0.04 -0.06,0.09 -0.09,0.13l-0.04 0.06c-0.07,0.09 -0.12,0.21 -0.15,0.34 -0.04,0.14 -0.07,0.29 -0.07,0.41 0,0.12 0.01,0.24 0.03,0.35 0.02,0.11 0.06,0.22 0.11,0.33 0.06,0.11 0.11,0.2 0.17,0.27 0.06,0.08 0.12,0.15 0.22,0.24 0.05,0.03 0.08,0.06 0.13,0.09 0.2,0.12 0.23,0.15 0.47,0.22l0.01 0c0.05,0.01 0.08,0.02 0.14,0.03l0.05 0c0.04,0.01 0.08,0.01 0.11,0.02 0,0.12 -0.01,0.13 -0.04,0.16 -0.01,0.01 -0.03,0.03 -0.05,0.05l-0.25 0.36 -0.06 0.1c-0.06,0.09 -0.13,0.19 -0.18,0.29l-0.27 0.65c-0.05,0.18 -0.05,0.19 -0.07,0.3l-0.01 0.09c0,0.04 0,0.1 0.02,0.17 0.01,0.09 0.04,0.18 0.06,0.23 0.01,0.03 0.02,0.07 0.04,0.1 0.02,0.04 0.04,0.07 0.06,0.1 0.07,0.09 0.15,0.17 0.24,0.24 0.08,0.06 0.18,0.11 0.3,0.15 0.1,0.03 0.18,0.04 0.27,0.04 0.08,0 0.16,-0.01 0.27,-0.03 0.02,-0.01 0.05,-0.02 0.08,-0.03l0.03 -0.01c0.06,-0.02 0.16,-0.08 0.24,-0.13 0.07,-0.06 0.13,-0.11 0.16,-0.16l0.07 -0.1c0.07,-0.11 0.1,-0.16 0.15,-0.38 0.02,-0.14 0.01,-0.29 -0.03,-0.44 -0.03,-0.14 -0.09,-0.29 -0.13,-0.41 -0.06,-0.13 -0.12,-0.25 -0.18,-0.37 -0.06,-0.11 -0.1,-0.18 -0.14,-0.24 -0.02,-0.05 -0.05,-0.09 -0.09,-0.15l-0.19 -0.27c-0.05,-0.06 -0.09,-0.1 -0.11,-0.12 -0.06,-0.07 -0.06,-0.07 -0.07,-0.19 0.18,0 0.29,-0.04 0.43,-0.08l0.01 0c0.09,-0.03 0.19,-0.08 0.29,-0.13 0.1,-0.07 0.19,-0.14 0.25,-0.2l0.03 -0.03c0.06,-0.06 0.13,-0.12 0.17,-0.2l0.11 -0.16c0.1,-0.19 0.16,-0.41 0.17,-0.62 0.01,-0.22 -0.03,-0.45 -0.11,-0.66l-0.02 -0.06 -0.1 -0.17 -0.03 -0.04c-0.01,-0.02 -0.02,-0.04 -0.04,-0.07 -0.03,-0.05 -0.09,-0.11 -0.14,-0.17 -0.07,-0.06 -0.15,-0.13 -0.22,-0.17 -0.06,-0.04 -0.17,-0.1 -0.27,-0.14 -0.08,-0.04 -0.16,-0.06 -0.22,-0.07 0.01,-0.05 0.01,-0.11 0,-0.17 -0.01,-0.05 -0.03,-0.1 -0.06,-0.15 -0.03,-0.04 -0.06,-0.07 -0.11,-0.09 -0.04,-0.03 -0.09,-0.04 -0.16,-0.05 -0.03,-0.01 -0.07,0 -0.11,0.01 -0.04,0.01 -0.09,0.03 -0.12,0.04 -0.06,0.04 -0.11,0.08 -0.14,0.15 -0.03,0.05 -0.04,0.11 -0.03,0.19zm0.01 0.07l-0.01 -0.07c-0.01,-0.08 0,-0.14 0.03,-0.2 0.03,-0.06 0.08,-0.1 0.14,-0.14 0.03,-0.02 0.07,-0.03 0.12,-0.05 0.04,-0.01 0.08,-0.01 0.11,0 0.07,0.01 0.12,0.02 0.16,0.05 0.05,0.02 0.08,0.05 0.11,0.09 0.03,0.04 0.06,0.1 0.07,0.15 0.01,0.06 0,0.12 -0.01,0.17 0.06,0.01 0.14,0.03 0.22,0.07 0.1,0.04 0.21,0.1 0.27,0.14 0.07,0.04 0.15,0.1 0.22,0.17 0.06,0.06 0.11,0.12 0.14,0.17 0.02,0.03 0.03,0.05 0.05,0.07l0.02 0.04c0.03,0.05 0.1,0.18 0.1,0.17l0.02 0.06c0.08,0.21 0.12,0.44 0.11,0.66 -0.01,0.21 -0.07,0.43 -0.17,0.62 -0.04,0.05 -0.07,0.11 -0.11,0.16 -0.04,0.08 -0.11,0.14 -0.16,0.2l-0.04 0.03c-0.06,0.06 -0.15,0.14 -0.25,0.2 -0.1,0.06 -0.2,0.11 -0.29,0.13l-0.01 0c-0.14,0.05 -0.25,0.08 -0.42,0.08 0,0.12 0,0.12 0.06,0.18 0.03,0.03 0.06,0.07 0.11,0.13l0.19 0.27 0.09 0.14c0.04,0.07 0.08,0.13 0.14,0.25 0.06,0.12 0.13,0.24 0.18,0.37 0.05,0.12 0.1,0.26 0.13,0.41 0.04,0.15 0.05,0.3 0.03,0.44 -0.05,0.23 -0.08,0.27 -0.15,0.38l-0.07 0.1c-0.03,0.05 -0.09,0.11 -0.16,0.16 -0.08,0.05 -0.18,0.11 -0.24,0.13l-0.03 0.01c-0.03,0.01 -0.06,0.03 -0.08,0.03 -0.11,0.02 -0.19,0.04 -0.27,0.03 -0.09,0 -0.17,-0.01 -0.27,-0.04 -0.12,-0.04 -0.22,-0.09 -0.3,-0.15 -0.09,-0.06 -0.17,-0.14 -0.24,-0.24 -0.02,-0.03 -0.04,-0.06 -0.06,-0.09 -0.02,-0.04 -0.03,-0.08 -0.05,-0.11 -0.01,-0.05 -0.04,-0.14 -0.06,-0.23 -0.01,-0.07 -0.01,-0.13 -0.01,-0.17l0.01 -0.09c0.02,-0.11 0.02,-0.12 0.07,-0.3l0.27 -0.65c0.05,-0.1 0.11,-0.2 0.18,-0.3l0.05 -0.09 0.26 -0.36c0.02,-0.02 0.04,-0.04 0.05,-0.05 0.03,-0.03 0.04,-0.04 0.03,-0.16 -0.02,-0.01 -0.06,-0.01 -0.1,-0.01l-0.06 -0.01c-0.05,0 -0.08,-0.02 -0.13,-0.03l-0.01 0c-0.24,-0.07 -0.27,-0.09 -0.47,-0.22 -0.05,-0.03 -0.08,-0.06 -0.13,-0.09 -0.1,-0.09 -0.17,-0.16 -0.22,-0.23 -0.06,-0.08 -0.11,-0.16 -0.17,-0.28 -0.05,-0.11 -0.09,-0.22 -0.11,-0.33 -0.02,-0.11 -0.03,-0.23 -0.03,-0.35 0,-0.12 0.02,-0.27 0.06,-0.41 0.04,-0.13 0.09,-0.25 0.15,-0.34l0.05 -0.06c0.03,-0.04 0.06,-0.09 0.09,-0.13l0.2 -0.2 0.14 -0.09c0.04,-0.03 0.06,-0.04 0.09,-0.06l0.01 0c0.05,-0.03 0.12,-0.06 0.2,-0.09 0.06,-0.02 0.12,-0.04 0.16,-0.04zm-3.54 -0.02c-0.02,0.03 -0.06,0.04 -0.09,0.05l-0.04 0.01c-0.08,0.02 -0.16,0.06 -0.24,0.1 -0.07,0.04 -0.14,0.09 -0.21,0.14 -0.04,0.04 -0.09,0.08 -0.14,0.13 -0.04,0.04 -0.08,0.08 -0.12,0.13l-0.07 0.1 -0.08 0.15c-0.01,0.02 -0.03,0.04 -0.04,0.07l-0.02 0.06c-0.05,0.11 -0.08,0.22 -0.09,0.33 -0.02,0.12 -0.02,0.23 0,0.36 0.01,0.14 0.03,0.25 0.07,0.35 0.03,0.1 0.08,0.19 0.15,0.29 0.08,0.13 0.17,0.24 0.28,0.34 0.1,0.09 0.23,0.17 0.37,0.24 0.08,0.04 0.18,0.07 0.29,0.1 0.08,0.02 0.17,0.04 0.26,0.04 0,0.14 0,0.14 -0.08,0.22l-0.07 0.09 -0.04 0.04 -0.15 0.23c-0.1,0.17 -0.16,0.25 -0.2,0.34 -0.05,0.09 -0.09,0.18 -0.18,0.37 -0.09,0.18 -0.16,0.39 -0.19,0.61 -0.02,0.17 0,0.34 0.06,0.5l0.03 0.08c0.01,0.03 0.03,0.05 0.04,0.07 0.01,0.02 0.03,0.04 0.05,0.07 0.02,0.03 0.04,0.06 0.07,0.09 0.02,0.02 0.05,0.05 0.08,0.07 0.02,0.02 0.03,0.02 0.03,0.03 0.01,0 0.01,0.01 0.03,0.02 0.2,0.13 0.41,0.2 0.61,0.2 0.2,0 0.41,-0.07 0.59,-0.21 0.03,-0.02 0.06,-0.04 0.09,-0.07l0.05 -0.05c0.01,-0.01 0.02,-0.02 0.04,-0.04l0.03 -0.04c0.02,-0.03 0.05,-0.07 0.07,-0.12 0.02,-0.03 0.04,-0.07 0.06,-0.11l0 -0.01c0.04,-0.09 0.05,-0.2 0.06,-0.31 0,-0.12 -0.02,-0.25 -0.04,-0.35 -0.01,-0.05 -0.03,-0.11 -0.05,-0.15l0 -0.01c-0.02,-0.07 -0.05,-0.13 -0.08,-0.2l-0.04 -0.12c-0.05,-0.13 -0.12,-0.25 -0.19,-0.36l-0.08 -0.14 -0.04 -0.07c-0.05,-0.08 -0.12,-0.18 -0.19,-0.28 -0.06,-0.08 -0.12,-0.15 -0.18,-0.22l-0.03 -0.03c-0.02,-0.02 -0.02,-0.02 -0.03,-0.03 0,-0.01 0,-0.02 0,-0.05l0 -0.06c0.04,0 0.09,-0.01 0.14,-0.01 0.07,-0.01 0.14,-0.02 0.18,-0.03 0.07,-0.02 0.13,-0.05 0.2,-0.07 0.06,-0.03 0.12,-0.05 0.18,-0.09l0.17 -0.12c0.1,-0.07 0.18,-0.16 0.25,-0.25 0.07,-0.09 0.14,-0.19 0.19,-0.29 0.12,-0.22 0.16,-0.47 0.15,-0.72 -0.02,-0.26 -0.1,-0.52 -0.23,-0.73l-0.02 -0.04c-0.02,-0.01 -0.03,-0.03 -0.04,-0.06l-0.01 -0.02 -0.21 -0.22c-0.05,-0.05 -0.11,-0.08 -0.16,-0.12l-0.03 -0.02c-0.06,-0.03 -0.14,-0.07 -0.23,-0.11 -0.08,-0.03 -0.17,-0.06 -0.23,-0.07l0 -0.02c0.01,-0.08 0.02,-0.16 -0.03,-0.24l-0.01 -0.03c-0.01,-0.01 -0.01,-0.02 -0.03,-0.03 -0.01,-0.02 -0.03,-0.04 -0.05,-0.06 -0.02,-0.02 -0.04,-0.03 -0.06,-0.04 -0.07,-0.03 -0.14,-0.05 -0.21,-0.04 -0.07,0 -0.13,0.03 -0.19,0.07 -0.03,0.03 -0.06,0.06 -0.08,0.09 -0.02,0.02 -0.04,0.06 -0.05,0.1 0,0.02 -0.01,0.07 -0.01,0.11 0,0.03 0,0.06 0.01,0.07zm-0.09 0.04c0.03,0 0.07,-0.01 0.09,-0.04 -0.01,-0.01 -0.01,-0.04 -0.01,-0.07 0,-0.04 0.01,-0.09 0.01,-0.11 0.01,-0.04 0.03,-0.08 0.05,-0.11 0.02,-0.02 0.05,-0.05 0.08,-0.08 0.06,-0.04 0.12,-0.07 0.19,-0.07 0.07,-0.01 0.14,0 0.21,0.04 0.02,0.01 0.04,0.02 0.06,0.04 0.02,0.02 0.04,0.04 0.06,0.05 0.01,0.01 0.01,0.03 0.02,0.04l0.02 0.03c0.04,0.08 0.03,0.16 0.02,0.24l0 0.02c0.06,0.01 0.15,0.04 0.23,0.07 0.09,0.03 0.17,0.08 0.23,0.11l0.03 0.02c0.05,0.04 0.11,0.07 0.16,0.12l0.21 0.22 0.01 0.02c0.01,0.03 0.03,0.04 0.04,0.06l0.02 0.04c0.14,0.21 0.22,0.47 0.23,0.73 0.01,0.25 -0.03,0.5 -0.15,0.72 -0.05,0.1 -0.12,0.2 -0.19,0.29 -0.07,0.1 -0.15,0.18 -0.24,0.25l-0.18 0.12c-0.06,0.04 -0.12,0.07 -0.18,0.09 -0.06,0.03 -0.13,0.05 -0.2,0.07 -0.04,0.01 -0.11,0.02 -0.18,0.03 -0.05,0.01 -0.1,0.01 -0.14,0.01l0 0.06c0,0.03 0,0.04 0.01,0.05 0,0.01 0.01,0.01 0.02,0.03l0.03 0.03c0.06,0.07 0.12,0.14 0.18,0.22 0.07,0.1 0.14,0.19 0.19,0.28 0.05,0.07 0.08,0.14 0.12,0.21 0.07,0.11 0.14,0.24 0.19,0.36l0.05 0.12c0.02,0.06 0.05,0.13 0.07,0.2l0 0.01c0.02,0.04 0.04,0.1 0.05,0.15 0.02,0.1 0.04,0.23 0.04,0.35 -0.01,0.11 -0.02,0.22 -0.06,0.31l0 0.01c-0.02,0.03 -0.04,0.08 -0.06,0.11 -0.02,0.05 -0.05,0.09 -0.07,0.12l-0.03 0.04c-0.02,0.02 -0.03,0.03 -0.04,0.05l-0.05 0.04c-0.03,0.03 -0.06,0.05 -0.08,0.07 -0.19,0.14 -0.4,0.21 -0.6,0.21 -0.2,0 -0.41,-0.06 -0.61,-0.2 -0.02,-0.01 -0.03,-0.01 -0.03,-0.02 0,-0.01 -0.01,-0.01 -0.03,-0.03 -0.03,-0.02 -0.06,-0.05 -0.08,-0.07 -0.03,-0.03 -0.05,-0.06 -0.07,-0.09 -0.02,-0.03 -0.04,-0.05 -0.05,-0.07 -0.02,-0.02 -0.03,-0.04 -0.04,-0.07l-0.03 -0.08c-0.07,-0.16 -0.08,-0.33 -0.06,-0.5 0.03,-0.22 0.1,-0.43 0.19,-0.61 0.08,-0.18 0.13,-0.28 0.18,-0.37 0.04,-0.09 0.1,-0.18 0.2,-0.35l0.15 -0.22 0.04 -0.04 0.07 -0.09c0.07,-0.08 0.08,-0.08 0.08,-0.22 -0.09,0 -0.18,-0.02 -0.26,-0.04 -0.11,-0.02 -0.21,-0.06 -0.29,-0.1 -0.14,-0.07 -0.27,-0.15 -0.37,-0.24 -0.11,-0.1 -0.2,-0.21 -0.28,-0.33 -0.07,-0.11 -0.12,-0.2 -0.16,-0.3 -0.03,-0.1 -0.05,-0.21 -0.07,-0.35 -0.01,-0.13 -0.01,-0.25 0.01,-0.36 0.01,-0.11 0.04,-0.22 0.09,-0.33l0.02 -0.06c0.01,-0.03 0.02,-0.05 0.04,-0.07l0.08 -0.15 0.07 -0.1c0.04,-0.05 0.08,-0.09 0.12,-0.13 0.05,-0.05 0.09,-0.09 0.14,-0.13 0.07,-0.05 0.14,-0.1 0.21,-0.14 0.08,-0.04 0.16,-0.08 0.24,-0.11l0.04 -0.01zm2.62 1.39c0,0.15 0.02,0.29 0.06,0.43 0.03,0.13 0.09,0.25 0.17,0.37 0.04,0.05 0.07,0.1 0.12,0.15 0.02,0.04 0.04,0.06 0.11,0.12 0.04,0.03 0.09,0.07 0.15,0.1 0.06,0.04 0.12,0.08 0.16,0.1 0.07,0.04 0.18,0.08 0.29,0.11 0.08,0.02 0.17,0.04 0.24,0.04l0 -0.1 0.02 -0.01 0.02 -0.02c0.05,-0.02 0.07,-0.01 0.08,0.01 0.01,0.03 0.01,0.07 0.01,0.11l0 0.01c0.07,0 0.17,-0.01 0.28,-0.04 0.12,-0.03 0.24,-0.09 0.32,-0.13l0.06 -0.04 0.08 -0.06c0.05,-0.03 0.1,-0.07 0.15,-0.12 0.05,-0.05 0.1,-0.1 0.14,-0.15l0.03 -0.05c0.07,-0.1 0.12,-0.19 0.16,-0.29 0.04,-0.1 0.07,-0.21 0.09,-0.35 0.01,-0.1 0,-0.2 -0.01,-0.29 -0.01,-0.09 -0.03,-0.18 -0.05,-0.26 -0.03,-0.09 -0.1,-0.23 -0.17,-0.35 -0.07,-0.1 -0.14,-0.2 -0.21,-0.24 -0.03,-0.02 -0.05,-0.04 -0.07,-0.06 -0.03,-0.02 -0.06,-0.05 -0.1,-0.08 -0.05,-0.03 -0.16,-0.09 -0.26,-0.13 -0.07,-0.03 -0.15,-0.06 -0.19,-0.05l-0.01 0.01c-0.02,0.03 -0.05,0.09 -0.1,0.11 -0.03,0.02 -0.07,0.04 -0.11,0.05 -0.03,0.01 -0.06,0.02 -0.09,0.02 -0.06,-0.01 -0.13,-0.03 -0.19,-0.06 -0.06,-0.04 -0.1,-0.09 -0.12,-0.14 -0.04,0.01 -0.07,0.02 -0.11,0.03l-0.11 0.04c-0.14,0.06 -0.16,0.08 -0.25,0.14l-0.07 0.04c-0.05,0.04 -0.06,0.05 -0.08,0.07 0,0.01 -0.01,0.03 -0.03,0.04 -0.02,0.02 -0.04,0.03 -0.05,0.04 -0.02,0.01 -0.03,0.02 -0.06,0.07l-0.09 0.13c-0.06,0.09 -0.11,0.2 -0.15,0.32 -0.04,0.12 -0.06,0.25 -0.06,0.36zm0.05 0.43c-0.03,-0.14 -0.05,-0.28 -0.05,-0.43 0,-0.11 0.02,-0.24 0.06,-0.36 0.03,-0.12 0.09,-0.23 0.15,-0.32l0.09 -0.13c0.03,-0.05 0.04,-0.06 0.06,-0.07 0.01,-0.01 0.03,-0.02 0.05,-0.04 0.02,-0.02 0.02,-0.03 0.03,-0.04 0.02,-0.02 0.03,-0.04 0.08,-0.07l0.07 -0.05c0.09,-0.06 0.11,-0.08 0.25,-0.13l0.11 -0.04c0.03,-0.01 0.07,-0.03 0.11,-0.03 0.02,0.05 0.07,0.1 0.12,0.13 0.06,0.04 0.13,0.06 0.19,0.06 0.03,0 0.06,0 0.09,-0.01 0.04,-0.01 0.08,-0.03 0.11,-0.05 0.04,-0.02 0.08,-0.08 0.1,-0.11l0.01 -0.02c0.04,0 0.12,0.02 0.19,0.06 0.1,0.04 0.21,0.1 0.26,0.13 0.04,0.03 0.07,0.06 0.1,0.08 0.02,0.02 0.04,0.04 0.07,0.06 0.07,0.04 0.14,0.14 0.21,0.24 0.08,0.12 0.14,0.26 0.17,0.35 0.02,0.08 0.04,0.17 0.06,0.26 0.01,0.09 0.01,0.19 0,0.29 -0.02,0.14 -0.05,0.25 -0.09,0.35 -0.04,0.1 -0.09,0.19 -0.16,0.29l-0.03 0.05c-0.04,0.05 -0.09,0.11 -0.14,0.15 -0.05,0.05 -0.1,0.09 -0.15,0.12l-0.08 0.07 -0.06 0.03c-0.08,0.05 -0.2,0.1 -0.32,0.13 -0.11,0.03 -0.21,0.05 -0.28,0.04l0 -0.01c0,-0.04 0,-0.08 -0.01,-0.11 -0.01,-0.02 -0.03,-0.03 -0.07,0l-0.03 0.01 -0.02 0.01 0 0.1c-0.07,0 -0.16,-0.01 -0.24,-0.04 -0.11,-0.03 -0.22,-0.07 -0.29,-0.11 -0.04,-0.02 -0.11,-0.06 -0.16,-0.09 -0.06,-0.04 -0.11,-0.08 -0.15,-0.11 -0.08,-0.06 -0.09,-0.08 -0.12,-0.12 -0.04,-0.05 -0.07,-0.1 -0.11,-0.15 -0.08,-0.12 -0.14,-0.24 -0.18,-0.37zm-2.23 1.38c-0.01,0.02 -0.02,0.03 -0.03,0.04l-0.02 0.03 -0.12 0.16c-0.06,0.1 -0.11,0.18 -0.16,0.24 -0.13,0.21 -0.21,0.34 -0.37,0.73 -0.1,0.23 -0.15,0.44 -0.14,0.64 0.01,0.2 0.09,0.38 0.27,0.56l0.06 0.06 0.1 0.06c0.02,0.02 0.06,0.04 0.09,0.05 0.03,0.01 0.07,0.03 0.1,0.03 0.14,0.05 0.29,0.05 0.43,0.01 0.14,-0.03 0.28,-0.11 0.38,-0.21l0.1 -0.1 0.03 -0.04c0.09,-0.14 0.14,-0.28 0.14,-0.43 0.01,-0.14 -0.02,-0.29 -0.06,-0.45 -0.01,-0.04 -0.03,-0.08 -0.04,-0.11l-0.03 -0.08c-0.03,-0.06 -0.06,-0.12 -0.08,-0.18l-0.01 -0.01c-0.04,-0.1 -0.07,-0.17 -0.11,-0.23 -0.04,-0.07 -0.08,-0.13 -0.12,-0.21l-0.41 -0.56zm-0.03 0.04c0.01,-0.01 0.02,-0.02 0.03,-0.04l0.41 0.56c0.05,0.08 0.08,0.14 0.12,0.21 0.04,0.07 0.07,0.14 0.11,0.22l0.01 0.02c0.03,0.05 0.06,0.12 0.08,0.18l0.03 0.08c0.01,0.03 0.03,0.07 0.04,0.11 0.05,0.16 0.07,0.31 0.07,0.45 -0.01,0.15 -0.05,0.29 -0.15,0.43l-0.03 0.04 -0.1 0.1c-0.1,0.11 -0.24,0.18 -0.38,0.21 -0.14,0.04 -0.29,0.04 -0.43,0 -0.03,-0.01 -0.07,-0.03 -0.1,-0.04 -0.03,-0.01 -0.07,-0.03 -0.09,-0.05l-0.1 -0.05 -0.06 -0.07c-0.18,-0.17 -0.26,-0.36 -0.27,-0.56 -0.02,-0.2 0.04,-0.41 0.13,-0.64 0.16,-0.39 0.24,-0.52 0.38,-0.73 0.04,-0.07 0.1,-0.14 0.16,-0.24l0.11 -0.16 0.03 -0.03zm3.58 -0.04l-0.49 0.72 -0.14 0.28 -0.11 0.26c-0.06,0.15 -0.1,0.3 -0.11,0.45 -0.01,0.16 0.02,0.31 0.09,0.45l0.02 0.04c0.01,0.02 0.02,0.04 0.03,0.05 0.04,0.06 0.1,0.13 0.16,0.18 0.05,0.05 0.11,0.08 0.16,0.11l0.08 0.03c0.08,0.04 0.14,0.07 0.31,0.07 0.05,0 0.09,-0.01 0.12,-0.01 0.04,-0.01 0.07,-0.01 0.11,-0.02 0.04,-0.01 0.09,-0.03 0.13,-0.06 0.06,-0.02 0.11,-0.05 0.15,-0.07l0.2 -0.22 0.01 -0.01c0.03,-0.05 0.05,-0.09 0.08,-0.16 0.11,-0.25 0.03,-0.52 -0.03,-0.75l-0.01 -0.04c-0.02,-0.06 -0.07,-0.18 -0.13,-0.31 -0.07,-0.14 -0.15,-0.3 -0.18,-0.35l-0.21 -0.33 -0.02 -0.03c-0.02,-0.01 -0.03,-0.03 -0.04,-0.05l-0.02 -0.02c-0.01,-0.02 -0.02,-0.03 -0.04,-0.06l-0.01 -0.02c-0.04,-0.05 -0.07,-0.09 -0.11,-0.13zm-0.49 0.72l0.49 -0.72c0.04,0.04 0.07,0.08 0.11,0.13l0.01 0.02c0.03,0.03 0.03,0.04 0.05,0.06l0.01 0.02c0.01,0.02 0.03,0.04 0.04,0.05l0.02 0.03 0.21 0.33c0.03,0.05 0.11,0.21 0.18,0.35 0.06,0.13 0.11,0.25 0.13,0.31l0.01 0.04c0.07,0.23 0.14,0.5 0.03,0.75 -0.02,0.07 -0.05,0.11 -0.08,0.16l-0.01 0.01 -0.2 0.22c-0.04,0.02 -0.09,0.05 -0.15,0.08 -0.04,0.02 -0.09,0.04 -0.13,0.05 -0.04,0.01 -0.07,0.02 -0.11,0.02 -0.03,0.01 -0.07,0.01 -0.12,0.01 -0.17,0 -0.23,-0.03 -0.32,-0.07l-0.07 -0.03c-0.05,-0.02 -0.11,-0.06 -0.16,-0.11 -0.06,-0.05 -0.12,-0.12 -0.16,-0.18 -0.02,-0.01 -0.03,-0.03 -0.03,-0.05l-0.02 -0.04c-0.08,-0.14 -0.1,-0.29 -0.09,-0.45 0.01,-0.15 0.05,-0.3 0.11,-0.45l0.11 -0.26 0.14 -0.28zm-2.93 -3.97c-0.03,-0.03 -0.03,-0.07 -0.03,-0.1 0,-0.03 0,-0.06 -0.03,-0.08 -0.01,-0.01 -0.04,-0.03 -0.07,-0.05 -0.03,-0.01 -0.07,-0.03 -0.08,-0.04 -0.01,0 -0.03,0.01 -0.04,0.02 -0.03,0.01 -0.06,0.04 -0.08,0.07 -0.02,0.04 -0.03,0.08 -0.03,0.11 0,0.03 0,0.05 0.01,0.07 0.06,-0.02 0.17,-0.01 0.26,-0.01l0.09 0.01zm-0.03 -0.1c0,0.03 0,0.07 0.03,0.1l0.04 0c0.02,0 0.03,0 0.06,0.01l0 -0.02c0.01,-0.04 0.03,-0.16 -0.06,-0.22 -0.03,-0.03 -0.09,-0.06 -0.15,-0.06 -0.03,-0.01 -0.07,0 -0.09,0.02 0.01,0.01 0.04,0.03 0.07,0.04 0.03,0.02 0.07,0.04 0.08,0.05 0.02,0.02 0.02,0.05 0.02,0.08zm-0.22 -0.16c0.01,-0.01 0.03,-0.01 0.04,-0.01 0.03,-0.03 0.07,-0.03 0.1,-0.02 0.06,0 0.12,0.03 0.15,0.05 0.09,0.07 0.07,0.19 0.06,0.23l0 0.02c-0.03,-0.01 -0.04,-0.01 -0.06,-0.01l-0.13 -0.01c-0.09,0 -0.2,-0.01 -0.26,0.01 -0.01,-0.02 -0.01,-0.04 -0.01,-0.07 0,-0.03 0.01,-0.07 0.03,-0.11 0.02,-0.03 0.05,-0.06 0.08,-0.08zm3.55 0.02c0.01,0.01 0.03,0.01 0.04,0.02l0.04 0.01 0.03 0.02c0.01,0 0.02,0.01 0.03,0.02 0.04,0.04 0.04,0.07 0.04,0.1 0,0.02 0,0.04 0.01,0.06l0.05 0c0.04,0.01 0.08,0.01 0.11,0.01 0,-0.02 0.01,-0.04 0.01,-0.06 0,-0.05 -0.01,-0.09 -0.04,-0.13 -0.03,-0.04 -0.06,-0.07 -0.11,-0.09 -0.02,-0.01 -0.05,-0.02 -0.08,-0.02 -0.03,0 -0.06,0.01 -0.08,0.02 -0.02,0.01 -0.04,0.02 -0.05,0.04zm0.04 0.02c-0.01,0 -0.03,-0.01 -0.04,-0.02 -0.03,0 -0.06,0.02 -0.07,0.04 -0.02,0.03 -0.04,0.07 -0.04,0.11 -0.01,0.04 -0.01,0.06 0,0.07 0.01,0.02 0.03,0.02 0.07,0.02l0.07 -0.01c0.03,0 0.06,-0.01 0.16,0 -0.01,-0.02 -0.01,-0.04 -0.01,-0.06 0,-0.03 0,-0.06 -0.04,-0.1 -0.01,-0.01 -0.02,-0.02 -0.03,-0.02l-0.04 -0.02 -0.03 -0.01zm0.15 0.21c-0.1,0 -0.13,0 -0.16,0l-0.07 0.01c-0.04,0 -0.06,0 -0.07,-0.02 -0.01,-0.01 -0.01,-0.03 0,-0.07 0,-0.04 0.01,-0.08 0.04,-0.11 0.01,-0.02 0.04,-0.04 0.07,-0.04 0.01,-0.02 0.03,-0.04 0.05,-0.04 0.02,-0.01 0.05,-0.02 0.08,-0.02 0.03,0 0.06,0.01 0.08,0.02 0.05,0.02 0.09,0.05 0.11,0.09 0.03,0.04 0.04,0.08 0.04,0.13 0,0.02 -0.01,0.04 -0.01,0.06 -0.02,0 -0.07,0 -0.11,-0.01l-0.05 0zm-0.23 0.14l0.02 0.04 0.07 0.03c0.01,0.01 0.02,0.02 0.06,0.02l0.02 0c0.03,-0.01 0.07,-0.02 0.09,-0.03 0.03,-0.01 0.06,-0.03 0.06,-0.05l0 0c-0.04,-0.02 -0.17,-0.02 -0.26,-0.02l-0.06 0.01zm0.01 0.02l-0.02 -0.02 0.07 -0.01c0.09,0 0.22,-0.01 0.26,0.01l0 0.01c0,0.02 -0.02,0.04 -0.05,0.05 -0.03,0.01 -0.07,0.03 -0.1,0.03l-0.02 0c-0.04,0 -0.05,-0.01 -0.06,-0.02l-0.07 -0.03 -0.01 -0.02zm-3.55 -0.02l0.07 0.07 0.01 0c0.05,0.02 0.09,0.02 0.14,0.01 0.04,-0.02 0.08,-0.04 0.1,-0.08l-0.04 -0.01c-0.04,0 -0.09,0 -0.13,0l-0.04 0c-0.03,0.01 -0.09,0.02 -0.11,0.01zm0.07 0.07l-0.08 -0.07 0.01 0c0.01,0.01 0.07,0 0.11,-0.01l0.04 0c0.04,-0.01 0.09,0 0.13,0l0.04 0.01c-0.02,0.04 -0.06,0.06 -0.1,0.08 -0.05,0.01 -0.09,0.01 -0.14,-0.01l-0.01 0z"/>
 </g>
</svg>
