<?xml version="1.0" encoding="UTF-8"?>
<!DOCTYPE svg PUBLIC "-//W3C//DTD SVG 1.1//EN" "http://www.w3.org/Graphics/SVG/1.1/DTD/svg11.dtd">
<!-- Creator: CorelDRAW -->
<svg xmlns="http://www.w3.org/2000/svg" xml:space="preserve" width="76px" height="76px" version="1.1" style="shape-rendering:geometricPrecision; text-rendering:geometricPrecision; image-rendering:optimizeQuality; fill-rule:evenodd; clip-rule:evenodd"
viewBox="0 0 23.3 23.26"
 xmlns:xlink="http://www.w3.org/1999/xlink"
 xmlns:xodm="http://www.corel.com/coreldraw/odm/2003">
 <defs>
  <style type="text/css">
   <![CDATA[
    .fil0 {fill:none}
    .fil1 {fill:black}
    .fil2 {fill:black;fill-rule:nonzero}
    .fil3 {fill:black;fill-rule:nonzero}
   ]]>
  </style>
 </defs>
 <g id="Layer_x0020_1">
  <metadata id="CorelCorpID_0Corel-Layer"/>
  <path class="fil0" d="M3.26 0l16.78 0c1.79,0 3.26,1.47 3.26,3.26l0 16.74c0,1.79 -1.47,3.26 -3.26,3.26l-16.78 0c-1.79,0 -3.26,-1.47 -3.26,-3.26l0 -16.74c0,-1.79 1.47,-3.26 3.26,-3.26z"/>
  <path class="fil1" d="M14.86 5.12l0.02 0.18c-0.2,0 -0.63,0.17 -0.82,0.28 -0.09,0.05 -0.13,0.07 -0.22,0.14l-0.33 0.21 -0.46 0.46c-0.1,0.13 -0.22,0.31 -0.31,0.43 -0.29,0.42 -0.49,1.2 -0.49,1.72 0,0.56 0.07,1.07 0.33,1.56 0.27,0.52 0.43,0.76 0.89,1.16 0.03,0.03 0.07,0.05 0.11,0.08 0.02,0.02 0.03,0.03 0.05,0.05 0.01,0 0.03,0.01 0.03,0.02 0.01,0 0.01,0 0.02,0.01 0.52,0.33 0.58,0.38 1.16,0.55 0.12,0.03 0.2,0.06 0.33,0.08 0.1,0.01 0.28,0.01 0.37,0.04 0.01,0.37 -0.03,0.27 -0.19,0.48l-0.59 0.83c-0.18,0.28 -0.39,0.58 -0.53,0.88l-0.63 1.49c-0.14,0.52 -0.11,0.41 -0.18,0.89 -0.03,0.23 0.09,0.73 0.17,0.92 0.06,0.17 0.14,0.33 0.24,0.46 0.34,0.44 0.69,0.73 1.24,0.89 0.46,0.14 0.75,0.14 1.22,0.03 0.09,-0.02 0.17,-0.06 0.26,-0.09 0.29,-0.11 0.78,-0.43 0.92,-0.66 0.29,-0.47 0.37,-0.46 0.5,-1.11 0.12,-0.64 -0.15,-1.38 -0.37,-1.95 -0.03,-0.09 -0.02,-0.04 -0.05,-0.11l-0.35 -0.73c-0.22,-0.43 -0.32,-0.55 -0.52,-0.89l-0.44 -0.61c-0.39,-0.49 -0.39,-0.31 -0.41,-0.73 0.41,0.01 0.66,-0.07 1,-0.17 0.4,-0.12 0.96,-0.47 1.25,-0.76 0.15,-0.16 0.33,-0.32 0.44,-0.52l0.16 -0.24c0.03,-0.04 0.06,-0.08 0.09,-0.13 0.5,-0.91 0.51,-2 0.14,-2.93 -0.02,-0.06 -0.04,-0.11 -0.05,-0.14l-0.22 -0.39c-0.07,-0.11 -0.1,-0.14 -0.17,-0.25 -0.16,-0.28 -0.54,-0.6 -0.81,-0.78 -0.27,-0.18 -0.82,-0.45 -1.14,-0.47 0.07,-0.25 0.03,-0.54 -0.13,-0.74 -0.13,-0.18 -0.31,-0.29 -0.61,-0.33 -0.16,-0.03 -0.42,0.05 -0.53,0.12 -0.25,0.15 -0.43,0.41 -0.39,0.77zm-8.08 0.13c-0.07,0.08 -0.19,0.08 -0.29,0.12 -0.37,0.12 -0.73,0.31 -1.03,0.56 -0.22,0.17 -0.43,0.37 -0.6,0.59 -0.03,0.04 -0.13,0.19 -0.16,0.23l-0.15 0.25c-0.05,0.1 -0.09,0.15 -0.13,0.26 -0.02,0.06 -0.04,0.09 -0.06,0.14 -0.2,0.49 -0.26,1 -0.2,1.58 0.06,0.62 0.2,0.99 0.5,1.47 0.38,0.59 0.84,1.01 1.5,1.32 0.35,0.15 0.81,0.31 1.26,0.32 0,0.35 -0.02,0.32 -0.25,0.58 -0.06,0.06 -0.14,0.16 -0.18,0.23l-0.35 0.51c-0.47,0.78 -0.48,0.79 -0.87,1.63 -0.37,0.77 -0.62,1.74 -0.3,2.56 0.05,0.12 0.1,0.23 0.16,0.33 0.01,0.01 0.04,0.05 0.05,0.07l0.05 0.07c0,0 0.01,0.01 0.01,0.01 0.1,0.15 0.22,0.28 0.36,0.38 0.09,0.07 0.04,0.06 0.12,0.12 0.91,0.6 1.9,0.6 2.77,-0.03 0.09,-0.07 0.18,-0.16 0.27,-0.24 0.05,-0.05 0.08,-0.07 0.12,-0.12 0.02,-0.03 0.03,-0.05 0.05,-0.08l0.02 -0.02c0.1,-0.14 0.22,-0.35 0.3,-0.54 0,0 0,-0.01 0.01,-0.01 0.17,-0.46 0.15,-1.07 0.04,-1.51 -0.03,-0.13 -0.08,-0.27 -0.11,-0.38 -0.08,-0.24 -0.2,-0.48 -0.29,-0.72 -0.15,-0.41 -0.4,-0.78 -0.6,-1.15 -0.03,-0.05 -0.06,-0.1 -0.09,-0.15 -0.24,-0.38 -0.56,-0.83 -0.85,-1.15 -0.17,-0.18 -0.13,-0.07 -0.14,-0.4 0.21,0.01 0.55,-0.05 0.72,-0.09 0.34,-0.09 0.6,-0.19 0.89,-0.36l0.39 -0.27c0.43,-0.33 0.74,-0.78 1,-1.25 0.54,-0.99 0.41,-2.37 -0.18,-3.31 -0.04,-0.07 -0.09,-0.12 -0.15,-0.22 0,-0.01 -0.02,-0.04 -0.03,-0.05l-0.48 -0.52c-0.13,-0.11 -0.28,-0.2 -0.43,-0.3 -0.24,-0.16 -0.76,-0.37 -1.04,-0.41 0.01,-0.21 0.04,-0.42 -0.06,-0.6 -0.05,-0.07 -0.06,-0.11 -0.1,-0.16 -0.07,-0.08 -0.16,-0.17 -0.26,-0.22 -0.31,-0.14 -0.65,-0.13 -0.91,0.08 -0.16,0.13 -0.25,0.23 -0.3,0.44 -0.01,0.08 -0.04,0.33 0,0.41zm5.79 3.26c-0.01,0.66 0.15,1.29 0.52,1.83 0.03,0.04 0.06,0.07 0.08,0.11 0.05,0.08 0.03,0.05 0.09,0.12 0,0 0,0.01 0.01,0.01 0.15,0.18 0.11,0.18 0.36,0.39 0.17,0.15 0.51,0.36 0.71,0.46 0.29,0.15 0.88,0.35 1.2,0.34l0 -0.23 0.06 -0.03c0,0 0.05,-0.03 0.05,-0.03 0.23,-0.11 0.2,0.11 0.19,0.28 0.37,0.04 1.04,-0.19 1.39,-0.38 0.06,-0.04 0.17,-0.11 0.22,-0.15l0.09 -0.08c0.25,-0.16 0.48,-0.39 0.67,-0.62 0,0 0.03,-0.04 0.03,-0.04l0.03 -0.06c0.31,-0.5 0.49,-0.83 0.56,-1.48 0.06,-0.48 -0.01,-0.87 -0.13,-1.27 -0.11,-0.37 -0.53,-1.11 -0.85,-1.34 -0.15,-0.09 -0.21,-0.17 -0.41,-0.32 -0.18,-0.13 -0.81,-0.44 -1.01,-0.42 -0.04,0.04 -0.13,0.21 -0.27,0.29 -0.12,0.06 -0.31,0.15 -0.46,0.14 -0.27,0 -0.6,-0.18 -0.7,-0.45 -0.18,0.04 -0.34,0.1 -0.5,0.17 -0.37,0.14 -0.4,0.18 -0.67,0.38 -0.04,0.02 -0.01,0 -0.06,0.03 -0.19,0.12 -0.15,0.15 -0.26,0.25 -0.13,0.12 -0.15,0.07 -0.25,0.24l-0.21 0.3c-0.28,0.42 -0.48,1.05 -0.48,1.56zm-8.12 0.1c0,0.3 0.03,0.5 0.09,0.75 0.01,0.04 0.02,0.09 0.03,0.13l0.16 0.43c0.05,0.1 0.09,0.15 0.13,0.24l0.15 0.24c0.1,0.15 0.23,0.3 0.35,0.41 0.16,0.17 0.42,0.39 0.62,0.49 0.45,0.24 0.91,0.47 1.44,0.47l0 -0.19c0.04,-0.03 0.03,0.03 0.13,-0.09l0.06 -0.05c0.13,0.08 0.11,0.08 0.11,0.33 0.25,-0.01 0.44,-0.05 0.65,-0.1 0.24,-0.05 0.77,-0.29 0.97,-0.44l0.18 -0.12c0.31,-0.24 0.57,-0.56 0.76,-0.89 0.04,-0.07 0.01,-0.02 0.04,-0.06 0.09,-0.13 0.15,-0.26 0.2,-0.39l0.07 -0.2c0,0 0,-0.01 0.01,-0.02 0.07,-0.22 0.15,-0.71 0.16,-0.92 0,-0.41 -0.15,-1.04 -0.35,-1.39 -0.2,-0.36 -0.08,-0.21 -0.41,-0.62 -0.02,-0.02 -0.05,-0.06 -0.08,-0.09 -0.09,-0.09 -0.05,-0.11 -0.25,-0.26l-0.39 -0.29c-0.28,-0.19 -0.65,-0.31 -0.98,-0.39 -0.02,0.03 -0.02,0.03 -0.04,0.06 -0.09,0.13 -0.05,0.12 -0.14,0.18l-0.07 0.05c-0.13,0.09 -0.26,0.15 -0.45,0.15 -0.15,0.01 -0.34,-0.06 -0.45,-0.14 -0.16,-0.11 -0.15,-0.12 -0.28,-0.29 -0.16,0.04 -0.45,0.12 -0.62,0.22 -0.04,0.01 -0.07,0.04 -0.11,0.06 -0.22,0.12 -0.32,0.18 -0.52,0.33l-0.36 0.33c-0.04,0.05 0,0 -0.03,0.04l-0.03 0.04c-0.14,0.21 -0.12,0.14 -0.27,0.38l-0.02 0.03c-0.11,0.17 -0.15,0.29 -0.23,0.46 -0.13,0.32 -0.23,0.71 -0.23,1.12zm3.14 4.05c-0.05,0.07 -0.09,0.1 -0.14,0.16l-0.27 0.37c-0.56,0.91 -0.73,1.02 -1.22,2.22 -0.42,1.03 -0.52,1.94 0.31,2.75 0.24,0.23 0.04,0.07 0.36,0.28 0.13,0.08 0.29,0.14 0.44,0.19 0.65,0.2 1.38,0 1.87,-0.47l0.22 -0.24c0.05,-0.05 0.04,-0.04 0.07,-0.09 0.43,-0.64 0.39,-1.27 0.18,-2.01 -0.05,-0.15 -0.12,-0.29 -0.17,-0.43 -0.05,-0.15 -0.12,-0.31 -0.19,-0.45 -0.19,-0.41 -0.32,-0.65 -0.54,-0.99l-0.92 -1.29zm8.11 0l-1.12 1.65 -0.27 0.52c-0.02,0.05 -0.04,0.08 -0.05,0.12l-0.25 0.6c-0.26,0.67 -0.39,1.41 -0.04,2.07 0.04,0.07 0.06,0.14 0.11,0.2 0.17,0.24 0.46,0.54 0.73,0.65 0.31,0.13 0.4,0.23 0.89,0.23 0.23,0 0.36,-0.02 0.53,-0.07 0.2,-0.05 0.48,-0.19 0.64,-0.3l0.46 -0.48c0.08,-0.14 0.14,-0.23 0.22,-0.4 0.26,-0.61 0.04,-1.28 -0.11,-1.82 -0.08,-0.29 -0.57,-1.29 -0.71,-1.49l-0.47 -0.77c-0.05,-0.06 -0.1,-0.1 -0.14,-0.18 -0.06,-0.09 -0.07,-0.1 -0.13,-0.19 -0.1,-0.12 -0.18,-0.23 -0.29,-0.34zm-7.82 -7.45c-0.13,-0.11 -0.03,-0.3 -0.13,-0.41 -0.04,-0.04 -0.3,-0.15 -0.34,-0.2 -0.21,0 -0.46,0.39 -0.33,0.63 0.18,-0.07 0.58,-0.02 0.8,-0.02zm7.54 -0.55c0.05,0.05 0.12,0.05 0.18,0.07 0.07,0.03 0.11,0.06 0.16,0.11 0.13,0.14 0.05,0.23 0.1,0.35 0.1,0.01 0.29,0.04 0.37,0.04 0.11,-0.3 -0.11,-0.68 -0.5,-0.69 -0.15,0 -0.24,0.04 -0.31,0.12zm0.44 0.53c-0.05,-0.12 0.03,-0.21 -0.1,-0.35 -0.05,-0.05 -0.09,-0.08 -0.16,-0.11 -0.06,-0.02 -0.13,-0.02 -0.18,-0.07 -0.15,0.03 -0.22,0.21 -0.24,0.35 -0.03,0.19 0,0.21 0.15,0.2 0.22,-0.01 0.18,-0.03 0.53,-0.02zm-7.98 0.02c0.13,0.01 0.12,-0.01 0.23,0.03 0,-0.05 0.08,-0.39 -0.14,-0.56 -0.11,-0.08 -0.43,-0.22 -0.56,-0.08 0.04,0.05 0.3,0.16 0.34,0.2 0.1,0.11 0,0.3 0.13,0.41zm7.45 0.3c0.06,0.13 0.01,0.09 0.15,0.15 0.08,0.03 0.09,0.06 0.2,0.06 0.11,0.01 0.4,-0.08 0.39,-0.19 -0.11,-0.06 -0.56,-0.03 -0.74,-0.02zm-8.11 0.01l0.19 0.16c0,0 0.01,0 0.01,0.01 0.21,0.08 0.44,0 0.55,-0.18 -0.13,-0.01 -0.27,-0.03 -0.39,-0.02 -0.06,0.01 -0.29,0.05 -0.36,0.03z"/>
  <path class="fil2" d="M12.28 8.17c-0.02,0.13 -0.02,0.25 -0.02,0.37 0,0.12 0,0.24 0.01,0.35 -0.01,-0.12 -0.02,-0.23 -0.02,-0.35 0,-0.12 0.01,-0.24 0.03,-0.37zm-0.01 0.72l0 0.06 0 -0.06zm-0.01 0c-0.01,-0.12 -0.01,-0.23 -0.01,-0.35 0,-0.12 0.01,-0.24 0.03,-0.37 -0.02,0.13 -0.03,0.25 -0.03,0.37 0,0.12 0,0.24 0.01,0.35zm0.02 -0.72l0.01 -0.08 -0.01 0.08zm0.29 0.34c0,0.17 0.01,0.35 0.03,0.52 0.02,0.16 0.05,0.32 0.1,0.47 0.04,0.15 0.1,0.3 0.16,0.44 0.07,0.14 0.15,0.27 0.24,0.4l0.26 0.36c0.03,0.04 0.05,0.07 0.09,0.11 0.04,0.04 0.09,0.08 0.18,0.16l0.15 0.11 0.18 0.13 0.2 0.12 0.18 0.1c0.08,0.04 0.18,0.09 0.3,0.13 0.11,0.04 0.23,0.08 0.35,0.12 0.1,0.03 0.21,0.05 0.31,0.07 0.09,0.01 0.17,0.02 0.24,0.01l0 -0.22 0.06 -0.03 0.05 -0.03c0.05,-0.02 0.09,-0.03 0.12,-0.03 0.03,0.01 0.05,0.02 0.06,0.05 0.02,0.05 0.02,0.15 0.01,0.24l0 0.02c0.08,0.01 0.18,0.01 0.28,-0.01 0.11,-0.01 0.23,-0.04 0.36,-0.07 0.13,-0.04 0.27,-0.09 0.4,-0.14 0.13,-0.05 0.25,-0.11 0.35,-0.17l0.12 -0.07 0.19 -0.15 0.17 -0.12 0.17 -0.15 0.17 -0.17 0.15 -0.18 0.07 -0.1c0.08,-0.13 0.15,-0.24 0.21,-0.35 0.06,-0.11 0.12,-0.22 0.16,-0.33 0.05,-0.12 0.09,-0.24 0.12,-0.37 0.03,-0.13 0.06,-0.27 0.07,-0.43 0.02,-0.12 0.02,-0.23 0.02,-0.34 0,-0.11 -0.01,-0.22 -0.02,-0.32 -0.01,-0.11 -0.03,-0.21 -0.05,-0.31 -0.02,-0.1 -0.05,-0.2 -0.08,-0.3 -0.03,-0.1 -0.09,-0.23 -0.15,-0.37 -0.07,-0.14 -0.15,-0.28 -0.24,-0.42 -0.08,-0.12 -0.16,-0.24 -0.25,-0.34 -0.07,-0.08 -0.15,-0.16 -0.22,-0.21 -0.06,-0.04 -0.11,-0.08 -0.17,-0.13l0 -0.01c-0.06,-0.05 -0.13,-0.11 -0.23,-0.18 -0.05,-0.04 -0.15,-0.09 -0.25,-0.15 -0.1,-0.05 -0.22,-0.1 -0.33,-0.15 -0.1,-0.04 -0.19,-0.07 -0.26,-0.09 -0.07,-0.02 -0.13,-0.03 -0.17,-0.03l-0.03 0.04c-0.02,0.03 -0.06,0.08 -0.1,0.13 -0.04,0.04 -0.09,0.09 -0.14,0.12l-0.13 0.06 -0.12 0.05 -0.11 0.03 -0.1 0.01c-0.07,-0.01 -0.14,-0.02 -0.22,-0.04 -0.07,-0.03 -0.15,-0.06 -0.21,-0.1 -0.07,-0.04 -0.12,-0.09 -0.17,-0.15 -0.05,-0.05 -0.08,-0.1 -0.1,-0.17l-0.13 0.03 -0.13 0.04 -0.24 0.1c-0.16,0.06 -0.26,0.1 -0.34,0.15 -0.07,0.04 -0.14,0.09 -0.23,0.16l-0.16 0.11c-0.06,0.03 -0.1,0.06 -0.12,0.09 -0.03,0.02 -0.05,0.04 -0.06,0.06l-0.08 0.09 -0.06 0.06 -0.05 0.03c-0.04,0.02 -0.07,0.05 -0.14,0.16l-0.21 0.29c-0.07,0.11 -0.13,0.22 -0.19,0.35 -0.06,0.13 -0.11,0.26 -0.15,0.4 -0.05,0.14 -0.08,0.28 -0.1,0.42 -0.03,0.14 -0.04,0.27 -0.04,0.39zm0.13 0.99c-0.05,-0.15 -0.08,-0.31 -0.1,-0.47 -0.02,-0.17 -0.03,-0.35 -0.03,-0.52 0,-0.12 0.01,-0.26 0.03,-0.39 0.03,-0.14 0.06,-0.28 0.1,-0.42 0.04,-0.14 0.1,-0.27 0.16,-0.4 0.05,-0.13 0.12,-0.24 0.19,-0.35l0.21 -0.3c0.03,-0.05 0.06,-0.09 0.08,-0.11 0.02,-0.02 0.04,-0.03 0.06,-0.04l0.04 -0.04 0.07 -0.05 0.07 -0.09c0.02,-0.02 0.04,-0.04 0.06,-0.07 0.03,-0.02 0.07,-0.05 0.13,-0.09l0.15 -0.1c0.2,-0.14 0.26,-0.19 0.57,-0.32l0.25 -0.09 0.13 -0.04 0.13 -0.03c0.02,0.06 0.06,0.12 0.1,0.17 0.05,0.06 0.11,0.1 0.17,0.14 0.07,0.05 0.14,0.08 0.21,0.1 0.08,0.03 0.15,0.04 0.22,0.04l0.1 -0.01 0.11 -0.02 0.12 -0.05 0.12 -0.06c0.06,-0.03 0.11,-0.08 0.15,-0.12 0.04,-0.05 0.07,-0.1 0.1,-0.13l0.02 -0.04c0.05,-0.01 0.11,0 0.17,0.02 0.08,0.02 0.18,0.06 0.27,0.1 0.11,0.04 0.23,0.1 0.33,0.15 0.11,0.05 0.2,0.11 0.25,0.15 0.1,0.07 0.17,0.13 0.23,0.18l0 0.01c0.06,0.04 0.11,0.09 0.18,0.13 0.07,0.05 0.14,0.12 0.22,0.21 0.08,0.1 0.16,0.21 0.24,0.34 0.09,0.13 0.17,0.28 0.24,0.42 0.07,0.14 0.12,0.27 0.15,0.37 0.03,0.1 0.06,0.2 0.08,0.3 0.02,0.1 0.04,0.2 0.05,0.31 0.02,0.1 0.02,0.21 0.02,0.32 0,0.11 0,0.22 -0.01,0.34 -0.02,0.16 -0.05,0.31 -0.08,0.44 -0.03,0.13 -0.07,0.24 -0.11,0.36 -0.05,0.11 -0.1,0.22 -0.17,0.33 -0.06,0.11 -0.13,0.23 -0.2,0.35l-0.07 0.1 -0.16 0.18 -0.17 0.17 -0.17 0.15 -0.17 0.12 -0.19 0.15 -0.12 0.08c-0.1,0.05 -0.22,0.11 -0.35,0.16 -0.13,0.05 -0.27,0.1 -0.4,0.14 -0.13,0.03 -0.25,0.06 -0.36,0.08 -0.1,0.01 -0.2,0.01 -0.28,0.01l0 -0.03c0,-0.09 0.01,-0.19 -0.02,-0.24 -0.01,-0.02 -0.03,-0.04 -0.05,-0.04 -0.03,-0.01 -0.07,0 -0.12,0.02l-0.05 0.03 -0.06 0.03 0 0.23c-0.07,0 -0.15,-0.01 -0.24,-0.02 -0.1,-0.02 -0.21,-0.04 -0.31,-0.07 -0.12,-0.03 -0.24,-0.07 -0.35,-0.11 -0.12,-0.05 -0.22,-0.09 -0.3,-0.13l-0.18 -0.11 -0.2 -0.12 -0.19 -0.13 -0.14 -0.11c-0.09,-0.07 -0.14,-0.12 -0.18,-0.16 -0.04,-0.04 -0.06,-0.07 -0.09,-0.11l-0.27 -0.36c-0.09,-0.12 -0.16,-0.26 -0.23,-0.4 -0.07,-0.14 -0.12,-0.29 -0.16,-0.44zm-5.11 3.17c-0.05,0.05 -0.09,0.1 -0.14,0.15l-0.27 0.37 -0.35 0.56c-0.31,0.47 -0.5,0.76 -0.86,1.66 -0.11,0.26 -0.19,0.51 -0.25,0.75 -0.06,0.25 -0.08,0.48 -0.07,0.71 0.01,0.23 0.06,0.45 0.16,0.66 0.1,0.22 0.25,0.43 0.46,0.63l0.15 0.14 0.31 0.2 0.11 0.05 0.23 0.08c0.16,0.04 0.32,0.07 0.48,0.07 0.17,0.01 0.34,-0.01 0.5,-0.05 0.17,-0.05 0.33,-0.11 0.48,-0.19 0.14,-0.08 0.28,-0.18 0.4,-0.3l0.23 -0.24 0.07 -0.1c0.11,-0.15 0.18,-0.31 0.24,-0.47 0.05,-0.16 0.08,-0.32 0.09,-0.49 0,-0.16 -0.01,-0.33 -0.03,-0.5 -0.03,-0.17 -0.07,-0.35 -0.12,-0.53l-0.05 -0.14 -0.12 -0.3c-0.05,-0.14 -0.11,-0.28 -0.17,-0.41l-0.15 -0.32 -0.13 -0.24 -0.13 -0.23 -0.15 -0.24 -0.92 -1.28zm-0.08 0.08l0.07 -0.09 0.93 1.29 0.15 0.24 0.13 0.23 0.13 0.24 0.15 0.32c0.06,0.13 0.13,0.27 0.17,0.41l0.07 0.17c0.04,0.09 0.07,0.17 0.1,0.26 0.05,0.19 0.09,0.37 0.12,0.54 0.03,0.17 0.04,0.34 0.03,0.5 -0.01,0.17 -0.04,0.33 -0.09,0.49 -0.05,0.16 -0.13,0.32 -0.24,0.48l-0.07 0.09 -0.22 0.24c-0.12,0.12 -0.26,0.22 -0.41,0.3 -0.15,0.08 -0.31,0.15 -0.48,0.19 -0.16,0.04 -0.33,0.06 -0.5,0.06 -0.16,-0.01 -0.32,-0.03 -0.48,-0.08l-0.23 -0.08 -0.11 -0.05 -0.32 -0.19 -0.14 -0.15c-0.21,-0.2 -0.36,-0.41 -0.46,-0.62 -0.1,-0.22 -0.15,-0.44 -0.16,-0.67 -0.02,-0.23 0.01,-0.47 0.07,-0.71 0.05,-0.24 0.14,-0.49 0.24,-0.75 0.37,-0.9 0.55,-1.19 0.86,-1.66l0.36 -0.57 0.27 -0.36 0.06 -0.07zm8.33 5.94l0.01 0 -0.01 0zm-8.49 -14.08l0 0 0 0zm0.46 0.38c0,0.04 0,0.08 0.01,0.12 0.01,0.04 0.03,0.07 0.06,0.1l0.15 0 0.08 0.02 0 -0.03c0.02,-0.1 0.05,-0.37 -0.14,-0.52 -0.04,-0.02 -0.1,-0.06 -0.16,-0.08 -0.06,-0.02 -0.12,-0.04 -0.18,-0.05 -0.04,-0.01 -0.09,-0.01 -0.13,0 -0.03,0.01 -0.07,0.03 -0.09,0.05l0.06 0.04 0.1 0.06c0.08,0.04 0.16,0.08 0.18,0.1 0.03,0.03 0.04,0.06 0.05,0.09 0,0.03 0.01,0.07 0.01,0.1zm7.52 0.52l0.05 0.1 0.21 0.1c0.02,0.01 0.05,0.01 0.09,0.01l0.05 0 0.11 -0.03 0.11 -0.04c0.03,-0.01 0.06,-0.03 0.09,-0.05 0.01,-0.02 0.03,-0.04 0.03,-0.06l0 -0.01c-0.09,-0.04 -0.38,-0.03 -0.59,-0.03l-0.15 0.01zm0.02 0.06l-0.02 -0.06 0.15 -0.01c0.21,-0.01 0.5,-0.02 0.59,0.03l0 0.01c0,0.02 -0.01,0.04 -0.03,0.06 -0.02,0.02 -0.06,0.04 -0.09,0.06l-0.11 0.04 -0.11 0.02 -0.05 0.01c-0.08,-0.01 -0.1,-0.02 -0.14,-0.04l-0.16 -0.08 -0.03 -0.04zm-8.12 -0.04l0.18 0.15 0.01 0c0.05,0.02 0.11,0.03 0.16,0.04 0.05,0 0.1,-0.01 0.15,-0.03 0.05,-0.01 0.1,-0.04 0.14,-0.07 0.04,-0.03 0.07,-0.07 0.1,-0.11l-0.1 -0.01c-0.1,-0.01 -0.2,-0.01 -0.29,-0.01l-0.23 0.03c-0.05,0.01 -0.09,0.01 -0.12,0.01zm0.18 0.15l-0.19 -0.16 0.01 0c0.02,0.01 0.06,0 0.11,0l0.24 -0.03c0.09,-0.01 0.19,0 0.29,0.01l0.1 0.01c-0.02,0.04 -0.06,0.08 -0.1,0.11 -0.04,0.04 -0.09,0.06 -0.14,0.08 -0.05,0.01 -0.1,0.02 -0.15,0.02 -0.05,0 -0.11,-0.01 -0.16,-0.03l-0.01 -0.01z"/>
  <path class="fil3" d="M14.86 5.12l0.02 0.18c-0.09,0 -0.23,0.04 -0.37,0.08 -0.17,0.06 -0.35,0.14 -0.45,0.2l-0.03 0.02c-0.07,0.04 -0.11,0.06 -0.19,0.12l-0.33 0.21 -0.46 0.46c-0.07,0.09 -0.14,0.2 -0.21,0.3l-0.1 0.13c-0.14,0.2 -0.26,0.48 -0.34,0.78 -0.09,0.32 -0.15,0.67 -0.15,0.94 0,0.28 0.02,0.55 0.07,0.8 0.05,0.26 0.13,0.51 0.26,0.76 0.14,0.26 0.25,0.45 0.38,0.63 0.13,0.17 0.28,0.33 0.51,0.53 0.1,0.08 0.19,0.14 0.3,0.21 0.44,0.28 0.53,0.34 1.07,0.5l0.03 0c0.1,0.04 0.18,0.06 0.3,0.07l0.12 0.01c0.09,0.01 0.19,0.01 0.25,0.04 0.01,0.27 -0.01,0.29 -0.09,0.37 -0.02,0.02 -0.06,0.06 -0.1,0.11l-0.59 0.83 -0.14 0.21c-0.14,0.22 -0.28,0.45 -0.39,0.67l-0.63 1.49c-0.12,0.43 -0.12,0.43 -0.15,0.68l-0.02 0.21c-0.02,0.1 0,0.25 0.03,0.4 0.03,0.2 0.09,0.41 0.13,0.52 0.03,0.08 0.07,0.17 0.11,0.24 0.04,0.08 0.08,0.16 0.13,0.22 0.17,0.22 0.34,0.4 0.54,0.55 0.2,0.15 0.43,0.26 0.7,0.34 0.23,0.07 0.42,0.1 0.61,0.1 0.19,0.01 0.38,-0.02 0.61,-0.07 0.06,-0.02 0.12,-0.04 0.19,-0.06l0.07 -0.03c0.15,-0.06 0.36,-0.18 0.54,-0.31 0.17,-0.12 0.31,-0.25 0.38,-0.35l0.15 -0.24c0.17,-0.25 0.24,-0.35 0.34,-0.88 0.06,-0.31 0.03,-0.66 -0.05,-0.99 -0.08,-0.33 -0.2,-0.66 -0.31,-0.95 -0.12,-0.28 -0.27,-0.56 -0.4,-0.84 -0.13,-0.26 -0.22,-0.41 -0.32,-0.56 -0.06,-0.1 -0.12,-0.19 -0.2,-0.33l-0.44 -0.61c-0.12,-0.15 -0.2,-0.24 -0.26,-0.29 -0.13,-0.14 -0.13,-0.15 -0.15,-0.44 0.4,0 0.66,-0.07 0.98,-0.17l0.02 0c0.2,-0.06 0.43,-0.18 0.66,-0.31 0.22,-0.14 0.44,-0.3 0.58,-0.45l0.07 -0.07c0.14,-0.14 0.29,-0.28 0.38,-0.45l0.24 -0.37c0.25,-0.45 0.38,-0.93 0.4,-1.42 0.03,-0.51 -0.06,-1.03 -0.25,-1.51l-0.05 -0.14 -0.22 -0.39 -0.06 -0.08c-0.04,-0.06 -0.07,-0.1 -0.11,-0.17 -0.07,-0.13 -0.19,-0.26 -0.32,-0.39 -0.16,-0.15 -0.34,-0.29 -0.49,-0.39 -0.15,-0.1 -0.39,-0.23 -0.63,-0.33 -0.18,-0.07 -0.37,-0.13 -0.51,-0.14 0.04,-0.13 0.04,-0.26 0.02,-0.39 -0.02,-0.13 -0.07,-0.25 -0.15,-0.35 -0.06,-0.09 -0.14,-0.16 -0.24,-0.22 -0.1,-0.05 -0.22,-0.09 -0.37,-0.11 -0.07,-0.01 -0.16,0 -0.25,0.02 -0.11,0.02 -0.22,0.07 -0.28,0.1 -0.13,0.08 -0.25,0.19 -0.32,0.33 -0.06,0.12 -0.09,0.27 -0.07,0.44zm0.01 0.17l-0.01 -0.17c-0.02,-0.17 0.01,-0.32 0.07,-0.44 0.07,-0.14 0.19,-0.25 0.32,-0.33 0.06,-0.04 0.17,-0.08 0.28,-0.11 0.09,-0.02 0.18,-0.03 0.25,-0.02 0.15,0.03 0.27,0.07 0.37,0.12 0.1,0.06 0.18,0.13 0.24,0.22 0.08,0.1 0.13,0.22 0.15,0.35 0.03,0.13 0.02,0.26 -0.01,0.38 0.14,0.02 0.32,0.07 0.5,0.15 0.24,0.1 0.48,0.23 0.63,0.33 0.15,0.1 0.33,0.24 0.49,0.39 0.13,0.13 0.25,0.26 0.32,0.39 0.05,0.07 0.08,0.11 0.11,0.16l0.06 0.08c0.06,0.12 0.23,0.42 0.22,0.4l0.06 0.14c0.18,0.48 0.27,1 0.24,1.51 -0.02,0.49 -0.15,0.97 -0.39,1.42 -0.08,0.12 -0.16,0.24 -0.24,0.37 -0.1,0.17 -0.25,0.32 -0.38,0.45l-0.07 0.07c-0.15,0.15 -0.36,0.31 -0.59,0.45 -0.22,0.14 -0.46,0.25 -0.66,0.31l-0.01 0c-0.33,0.1 -0.59,0.18 -0.99,0.17 0.02,0.29 0.02,0.29 0.15,0.43 0.06,0.06 0.14,0.15 0.26,0.29l0.44 0.61 0.2 0.34c0.1,0.15 0.19,0.29 0.32,0.56 0.14,0.28 0.28,0.56 0.4,0.84 0.11,0.29 0.23,0.61 0.31,0.95 0.08,0.33 0.12,0.68 0.06,1 -0.1,0.52 -0.17,0.62 -0.34,0.88l-0.16 0.23c-0.07,0.11 -0.21,0.23 -0.37,0.35 -0.19,0.13 -0.4,0.25 -0.55,0.31l-0.07 0.03c-0.07,0.02 -0.13,0.05 -0.19,0.06 -0.23,0.06 -0.42,0.08 -0.61,0.08 -0.19,-0.01 -0.38,-0.04 -0.61,-0.11 -0.27,-0.08 -0.5,-0.19 -0.7,-0.34 -0.2,-0.15 -0.37,-0.33 -0.54,-0.55 -0.05,-0.06 -0.1,-0.14 -0.14,-0.22 -0.04,-0.07 -0.07,-0.16 -0.1,-0.24 -0.05,-0.11 -0.1,-0.32 -0.14,-0.52 -0.03,-0.15 -0.04,-0.3 -0.03,-0.4l0.03 -0.21c0.03,-0.25 0.03,-0.25 0.14,-0.68l0.64 -1.49c0.11,-0.22 0.25,-0.45 0.39,-0.67l0.14 -0.21 0.59 -0.83c0.04,-0.05 0.07,-0.09 0.1,-0.12 0.08,-0.07 0.09,-0.09 0.09,-0.36 -0.07,-0.02 -0.16,-0.03 -0.25,-0.03l-0.12 -0.01c-0.12,-0.02 -0.2,-0.04 -0.31,-0.07l-0.02 -0.01c-0.55,-0.16 -0.63,-0.21 -1.07,-0.49 -0.12,-0.08 -0.2,-0.14 -0.3,-0.22 -0.23,-0.2 -0.39,-0.36 -0.52,-0.53 -0.13,-0.18 -0.24,-0.37 -0.37,-0.63 -0.13,-0.25 -0.21,-0.5 -0.26,-0.76 -0.05,-0.25 -0.07,-0.52 -0.07,-0.8 0,-0.27 0.05,-0.62 0.15,-0.94 0.08,-0.3 0.2,-0.58 0.34,-0.78l0.1 -0.13c0.06,-0.1 0.14,-0.21 0.21,-0.3l0.46 -0.46 0.32 -0.22c0.09,-0.05 0.13,-0.08 0.2,-0.12l0.03 -0.01c0.1,-0.06 0.28,-0.14 0.45,-0.2 0.14,-0.05 0.28,-0.08 0.36,-0.09zm-8.09 -0.04c-0.05,0.06 -0.13,0.08 -0.21,0.1l-0.08 0.02c-0.19,0.06 -0.37,0.14 -0.55,0.24 -0.17,0.09 -0.33,0.2 -0.48,0.32 -0.11,0.09 -0.22,0.19 -0.33,0.29 -0.1,0.1 -0.19,0.2 -0.27,0.3l-0.16 0.24 -0.19 0.33c-0.03,0.05 -0.06,0.1 -0.09,0.17l-0.05 0.14c-0.11,0.24 -0.17,0.5 -0.21,0.75 -0.03,0.26 -0.03,0.54 0,0.83 0.03,0.31 0.08,0.56 0.16,0.79 0.08,0.23 0.19,0.44 0.34,0.68 0.19,0.29 0.4,0.55 0.65,0.76 0.24,0.22 0.52,0.4 0.85,0.55 0.19,0.09 0.42,0.18 0.66,0.24 0.19,0.05 0.4,0.08 0.6,0.08 0,0.32 -0.01,0.34 -0.18,0.51l-0.17 0.2 -0.08 0.11 -0.35 0.51c-0.23,0.39 -0.36,0.59 -0.46,0.79 -0.11,0.2 -0.21,0.42 -0.41,0.84 -0.2,0.42 -0.37,0.91 -0.42,1.39 -0.05,0.4 -0.02,0.8 0.12,1.16l0.08 0.18c0.02,0.06 0.05,0.11 0.08,0.15 0.04,0.06 0.08,0.11 0.11,0.16 0.05,0.07 0.1,0.14 0.16,0.2 0.06,0.07 0.13,0.13 0.2,0.18 0.04,0.03 0.05,0.05 0.06,0.06 0.01,0.01 0.02,0.03 0.07,0.05 0.45,0.31 0.93,0.46 1.4,0.45 0.46,0 0.92,-0.16 1.36,-0.47 0.06,-0.05 0.12,-0.11 0.18,-0.16l0.12 -0.11c0.03,-0.03 0.06,-0.05 0.09,-0.09l0.07 -0.1c0.05,-0.08 0.11,-0.17 0.17,-0.27 0.05,-0.08 0.09,-0.18 0.13,-0.27l0 -0.01c0.08,-0.21 0.12,-0.46 0.13,-0.71 0.01,-0.28 -0.03,-0.56 -0.08,-0.8 -0.03,-0.12 -0.08,-0.25 -0.11,-0.35l-0.01 -0.03c-0.04,-0.15 -0.11,-0.3 -0.17,-0.44l-0.11 -0.28c-0.11,-0.29 -0.27,-0.56 -0.42,-0.83l-0.18 -0.32 -0.1 -0.15c-0.12,-0.2 -0.27,-0.42 -0.43,-0.64 -0.13,-0.18 -0.28,-0.36 -0.42,-0.51l-0.07 -0.07c-0.03,-0.03 -0.05,-0.05 -0.05,-0.07 -0.01,-0.03 -0.01,-0.05 -0.01,-0.11l0 -0.15c0.09,0 0.21,0 0.33,-0.02 0.15,-0.02 0.3,-0.05 0.39,-0.07 0.17,-0.05 0.32,-0.1 0.46,-0.15 0.14,-0.06 0.28,-0.13 0.43,-0.22l0.39 -0.26c0.21,-0.16 0.4,-0.36 0.56,-0.57 0.17,-0.22 0.31,-0.45 0.44,-0.68 0.26,-0.49 0.36,-1.06 0.33,-1.63 -0.03,-0.6 -0.21,-1.2 -0.51,-1.68l-0.06 -0.09c-0.03,-0.03 -0.06,-0.07 -0.09,-0.13l-0.03 -0.05 -0.48 -0.52c-0.11,-0.09 -0.23,-0.17 -0.36,-0.25l-0.07 -0.05c-0.12,-0.08 -0.32,-0.18 -0.52,-0.26 -0.19,-0.07 -0.39,-0.13 -0.52,-0.15l0 -0.06c0.02,-0.18 0.03,-0.37 -0.07,-0.54l-0.03 -0.07c-0.02,-0.03 -0.03,-0.06 -0.06,-0.08 -0.04,-0.05 -0.08,-0.09 -0.12,-0.13 -0.04,-0.04 -0.09,-0.07 -0.14,-0.1 -0.16,-0.07 -0.32,-0.1 -0.48,-0.09 -0.15,0.02 -0.3,0.07 -0.43,0.17 -0.08,0.07 -0.14,0.13 -0.19,0.19 -0.05,0.07 -0.08,0.14 -0.1,0.25 -0.01,0.04 -0.03,0.15 -0.03,0.25 0,0.07 0,0.13 0.02,0.16zm-0.21 0.09c0.08,-0.01 0.16,-0.03 0.2,-0.09 -0.01,-0.03 -0.01,-0.09 -0.01,-0.16 0,-0.1 0.01,-0.21 0.02,-0.26 0.02,-0.1 0.06,-0.17 0.11,-0.24 0.05,-0.07 0.11,-0.12 0.19,-0.19 0.13,-0.1 0.28,-0.16 0.43,-0.17 0.16,-0.02 0.32,0.02 0.48,0.09 0.05,0.03 0.1,0.06 0.14,0.1 0.05,0.04 0.09,0.08 0.13,0.12 0.02,0.03 0.03,0.06 0.05,0.09l0.04 0.07c0.1,0.17 0.08,0.36 0.06,0.54l0 0.05c0.14,0.02 0.33,0.08 0.52,0.16 0.2,0.08 0.4,0.17 0.53,0.26l0.07 0.04c0.12,0.08 0.24,0.16 0.35,0.26l0.48 0.52 0.03 0.05c0.03,0.05 0.06,0.09 0.09,0.13l0.06 0.09c0.3,0.48 0.49,1.08 0.52,1.68 0.03,0.57 -0.08,1.15 -0.34,1.63 -0.13,0.24 -0.27,0.47 -0.43,0.68 -0.17,0.21 -0.35,0.41 -0.57,0.57l-0.39 0.27c-0.15,0.09 -0.29,0.15 -0.43,0.21 -0.14,0.06 -0.29,0.1 -0.46,0.15 -0.09,0.02 -0.24,0.06 -0.39,0.07 -0.12,0.02 -0.24,0.03 -0.33,0.02l0 0.15c0,0.05 0,0.08 0.01,0.1 0.01,0.03 0.02,0.04 0.06,0.07l0.07 0.08c0.14,0.15 0.28,0.33 0.41,0.51 0.16,0.21 0.31,0.44 0.44,0.64 0.1,0.15 0.18,0.31 0.27,0.47 0.16,0.27 0.32,0.54 0.43,0.83l0.11 0.27c0.06,0.15 0.12,0.3 0.17,0.45l0.01 0.02c0.03,0.11 0.07,0.24 0.1,0.36 0.06,0.23 0.09,0.52 0.08,0.8 0,0.25 -0.04,0.5 -0.12,0.71l-0.01 0.02c-0.03,0.08 -0.08,0.17 -0.13,0.26 -0.06,0.1 -0.12,0.2 -0.17,0.27l-0.07 0.1c-0.03,0.04 -0.05,0.06 -0.09,0.1l-0.11 0.1c-0.06,0.06 -0.13,0.12 -0.19,0.16 -0.44,0.32 -0.9,0.47 -1.36,0.48 -0.47,0 -0.95,-0.15 -1.41,-0.45 -0.04,-0.03 -0.05,-0.04 -0.06,-0.06 -0.01,-0.01 -0.02,-0.03 -0.06,-0.06 -0.08,-0.05 -0.14,-0.11 -0.2,-0.17 -0.06,-0.07 -0.12,-0.13 -0.16,-0.21 -0.03,-0.05 -0.08,-0.1 -0.11,-0.15 -0.03,-0.05 -0.06,-0.1 -0.09,-0.16l-0.07 -0.17c-0.15,-0.37 -0.17,-0.77 -0.13,-1.17 0.06,-0.48 0.22,-0.97 0.42,-1.39 0.2,-0.42 0.3,-0.63 0.41,-0.84 0.12,-0.21 0.24,-0.41 0.47,-0.79l0.35 -0.52 0.08 -0.1 0.17 -0.2c0.16,-0.17 0.18,-0.19 0.18,-0.5 -0.2,0 -0.41,-0.04 -0.6,-0.09 -0.24,-0.06 -0.47,-0.15 -0.66,-0.23 -0.33,-0.15 -0.61,-0.34 -0.86,-0.55 -0.24,-0.22 -0.45,-0.47 -0.64,-0.77 -0.15,-0.24 -0.26,-0.45 -0.34,-0.68 -0.08,-0.23 -0.14,-0.48 -0.17,-0.79 -0.03,-0.29 -0.02,-0.57 0.01,-0.83 0.03,-0.26 0.1,-0.51 0.2,-0.75l0.06 -0.14c0.03,-0.07 0.05,-0.12 0.08,-0.17l0.2 -0.34 0.16 -0.23c0.08,-0.1 0.17,-0.2 0.27,-0.3 0.1,-0.1 0.21,-0.2 0.33,-0.3 0.14,-0.12 0.31,-0.22 0.48,-0.32 0.18,-0.09 0.36,-0.17 0.55,-0.23l0.08 -0.03zm6 3.17c0,0.34 0.04,0.68 0.13,0.99 0.08,0.3 0.21,0.58 0.4,0.84 0.09,0.12 0.17,0.23 0.26,0.36 0.06,0.08 0.09,0.12 0.27,0.27 0.09,0.07 0.21,0.15 0.33,0.24 0.14,0.08 0.28,0.17 0.38,0.22 0.16,0.08 0.4,0.18 0.65,0.25 0.2,0.05 0.4,0.09 0.55,0.08l0 -0.22 0.06 -0.03 0.05 -0.03c0.1,-0.05 0.15,-0.03 0.18,0.02 0.02,0.05 0.02,0.15 0.01,0.24l0 0.02c0.17,0.02 0.4,-0.02 0.64,-0.08 0.28,-0.08 0.56,-0.2 0.75,-0.31l0.12 -0.07 0.19 -0.15c0.12,-0.08 0.23,-0.17 0.34,-0.27 0.12,-0.11 0.23,-0.23 0.32,-0.35l0.07 -0.1c0.16,-0.25 0.28,-0.46 0.37,-0.68 0.1,-0.23 0.16,-0.48 0.19,-0.8 0.03,-0.24 0.02,-0.46 0,-0.66 -0.02,-0.21 -0.07,-0.41 -0.13,-0.61 -0.06,-0.2 -0.21,-0.51 -0.39,-0.79 -0.15,-0.23 -0.32,-0.44 -0.47,-0.55 -0.07,-0.04 -0.12,-0.09 -0.17,-0.13 -0.06,-0.06 -0.13,-0.11 -0.23,-0.19 -0.1,-0.07 -0.35,-0.2 -0.58,-0.3 -0.18,-0.07 -0.35,-0.13 -0.43,-0.12l-0.03 0.04c-0.05,0.07 -0.13,0.19 -0.24,0.25 -0.07,0.04 -0.16,0.08 -0.25,0.11 -0.07,0.02 -0.14,0.04 -0.21,0.04 -0.14,-0.01 -0.3,-0.06 -0.43,-0.14 -0.13,-0.08 -0.23,-0.19 -0.27,-0.32 -0.09,0.02 -0.17,0.05 -0.26,0.07l-0.24 0.1c-0.32,0.12 -0.38,0.17 -0.57,0.31l-0.16 0.11c-0.12,0.07 -0.15,0.11 -0.18,0.15 -0.02,0.03 -0.04,0.06 -0.08,0.09 -0.05,0.05 -0.08,0.07 -0.11,0.09 -0.04,0.03 -0.07,0.05 -0.14,0.16l-0.21 0.29c-0.14,0.21 -0.26,0.48 -0.34,0.75 -0.09,0.27 -0.14,0.56 -0.14,0.81zm0.13 0.99c-0.1,-0.31 -0.13,-0.65 -0.13,-0.99 0,-0.25 0.05,-0.54 0.13,-0.81 0.09,-0.27 0.21,-0.54 0.35,-0.75l0.21 -0.3c0.06,-0.11 0.1,-0.13 0.14,-0.15 0.03,-0.02 0.06,-0.04 0.11,-0.09 0.03,-0.04 0.06,-0.06 0.07,-0.09 0.04,-0.04 0.07,-0.08 0.19,-0.16l0.15 -0.1c0.2,-0.14 0.26,-0.19 0.57,-0.32l0.25 -0.09c0.08,-0.03 0.17,-0.05 0.26,-0.07 0.05,0.13 0.15,0.24 0.27,0.31 0.13,0.09 0.29,0.14 0.43,0.14 0.07,0 0.14,-0.01 0.21,-0.03 0.09,-0.03 0.18,-0.08 0.24,-0.11 0.12,-0.06 0.2,-0.19 0.25,-0.25l0.02 -0.04c0.09,-0.01 0.26,0.04 0.44,0.12 0.23,0.09 0.48,0.22 0.58,0.3 0.11,0.07 0.17,0.13 0.23,0.18 0.06,0.05 0.11,0.09 0.18,0.14 0.14,0.1 0.31,0.31 0.46,0.55 0.18,0.28 0.33,0.59 0.39,0.79 0.06,0.2 0.11,0.4 0.13,0.61 0.03,0.2 0.03,0.42 0.01,0.66 -0.04,0.32 -0.1,0.57 -0.19,0.8 -0.1,0.22 -0.22,0.43 -0.37,0.68l-0.07 0.1c-0.1,0.12 -0.21,0.24 -0.33,0.35 -0.1,0.1 -0.22,0.2 -0.34,0.27l-0.19 0.15 -0.12 0.08c-0.19,0.1 -0.47,0.22 -0.75,0.3 -0.24,0.06 -0.47,0.1 -0.64,0.09l0 -0.03c0,-0.09 0.01,-0.19 -0.02,-0.24 -0.02,-0.05 -0.07,-0.06 -0.17,-0.02l-0.05 0.03 -0.06 0.03 0 0.23c-0.15,0 -0.35,-0.03 -0.55,-0.09 -0.25,-0.07 -0.49,-0.16 -0.65,-0.24 -0.11,-0.06 -0.25,-0.14 -0.38,-0.23 -0.13,-0.08 -0.25,-0.17 -0.33,-0.24 -0.18,-0.15 -0.21,-0.19 -0.27,-0.27 -0.1,-0.12 -0.18,-0.23 -0.27,-0.36 -0.18,-0.26 -0.31,-0.54 -0.39,-0.84zm-5.11 3.17c-0.03,0.03 -0.05,0.06 -0.08,0.09l-0.06 0.06 -0.27 0.37c-0.14,0.22 -0.25,0.4 -0.35,0.56 -0.31,0.47 -0.5,0.76 -0.86,1.66 -0.21,0.52 -0.35,1 -0.32,1.46 0.02,0.46 0.21,0.89 0.62,1.29l0.15 0.14 0.21 0.14c0.07,0.04 0.14,0.07 0.21,0.11 0.08,0.03 0.16,0.05 0.23,0.08 0.32,0.09 0.66,0.1 0.98,0.02 0.33,-0.09 0.64,-0.25 0.88,-0.49l0.23 -0.24 0.07 -0.1c0.21,-0.31 0.31,-0.63 0.33,-0.96 0.01,-0.33 -0.05,-0.67 -0.15,-1.03 -0.03,-0.1 -0.07,-0.18 -0.1,-0.27l-0.07 -0.17c-0.05,-0.14 -0.12,-0.29 -0.18,-0.42l-0.01 -0.03c-0.1,-0.21 -0.18,-0.37 -0.26,-0.52 -0.08,-0.15 -0.17,-0.3 -0.28,-0.47l-0.92 -1.28zm-0.08 0.08c0.02,-0.02 0.05,-0.05 0.07,-0.09l0.93 1.29c0.11,0.17 0.2,0.31 0.28,0.47 0.09,0.16 0.17,0.32 0.26,0.52l0.01 0.02c0.07,0.14 0.13,0.28 0.18,0.43l0.07 0.17c0.04,0.09 0.07,0.17 0.1,0.26 0.11,0.37 0.17,0.71 0.15,1.04 -0.02,0.33 -0.11,0.65 -0.33,0.97l-0.07 0.09 -0.22 0.24c-0.25,0.24 -0.56,0.41 -0.89,0.49 -0.32,0.08 -0.66,0.08 -0.98,-0.02 -0.08,-0.02 -0.15,-0.05 -0.23,-0.08 -0.07,-0.03 -0.15,-0.07 -0.21,-0.11l-0.22 -0.13 -0.14 -0.15c-0.42,-0.4 -0.6,-0.83 -0.62,-1.29 -0.03,-0.46 0.1,-0.94 0.31,-1.46 0.37,-0.9 0.55,-1.19 0.86,-1.67 0.11,-0.15 0.22,-0.33 0.36,-0.56l0.27 -0.36 0.06 -0.07zm8.19 -0.08l-1.12 1.64 -0.32 0.64 -0.25 0.6c-0.13,0.33 -0.22,0.69 -0.25,1.04 -0.02,0.35 0.04,0.7 0.21,1.03l0.04 0.07c0.02,0.05 0.04,0.09 0.07,0.13 0.1,0.13 0.23,0.28 0.38,0.41 0.11,0.1 0.23,0.19 0.35,0.24l0.18 0.08c0.19,0.08 0.32,0.15 0.71,0.15 0.11,0 0.2,-0.01 0.28,-0.02 0.09,-0.01 0.16,-0.03 0.25,-0.05 0.09,-0.02 0.2,-0.07 0.31,-0.12 0.12,-0.06 0.24,-0.13 0.32,-0.18l0.46 -0.48 0.03 -0.05c0.07,-0.11 0.13,-0.19 0.19,-0.35 0.25,-0.57 0.08,-1.19 -0.07,-1.71l-0.03 -0.11c-0.04,-0.13 -0.16,-0.41 -0.29,-0.69 -0.16,-0.34 -0.34,-0.69 -0.42,-0.8l-0.47 -0.77 -0.06 -0.06c-0.03,-0.03 -0.05,-0.07 -0.08,-0.12l-0.04 -0.05c-0.03,-0.05 -0.04,-0.07 -0.09,-0.13l-0.04 -0.05c-0.08,-0.11 -0.15,-0.2 -0.25,-0.29zm-1.12 1.64l1.12 -1.65c0.1,0.1 0.17,0.19 0.26,0.3l0.03 0.04c0.05,0.07 0.06,0.09 0.1,0.14l0.03 0.05c0.03,0.05 0.06,0.08 0.09,0.12l0.05 0.06 0.48 0.76c0.07,0.12 0.25,0.47 0.41,0.81 0.13,0.28 0.26,0.56 0.29,0.69l0.03 0.11c0.15,0.52 0.33,1.14 0.08,1.72 -0.07,0.15 -0.12,0.23 -0.2,0.34l-0.02 0.05 -0.46 0.48c-0.09,0.06 -0.21,0.13 -0.33,0.18 -0.11,0.05 -0.22,0.1 -0.31,0.12 -0.08,0.03 -0.16,0.04 -0.24,0.05 -0.09,0.02 -0.18,0.02 -0.29,0.02 -0.39,0 -0.52,-0.06 -0.71,-0.15l-0.18 -0.08c-0.12,-0.05 -0.24,-0.13 -0.36,-0.23 -0.14,-0.13 -0.28,-0.29 -0.37,-0.42 -0.04,-0.04 -0.06,-0.08 -0.08,-0.13l-0.03 -0.07c-0.18,-0.33 -0.23,-0.68 -0.21,-1.03 0.02,-0.35 0.12,-0.71 0.25,-1.04l0.25 -0.6 0.32 -0.64zm-6.71 -9.1c-0.06,-0.06 -0.06,-0.14 -0.07,-0.22 0,-0.07 0,-0.14 -0.05,-0.19 -0.02,-0.02 -0.1,-0.06 -0.18,-0.1 -0.07,-0.04 -0.14,-0.07 -0.17,-0.1 -0.03,0 -0.07,0.02 -0.1,0.04 -0.07,0.03 -0.13,0.1 -0.18,0.17 -0.04,0.08 -0.07,0.17 -0.07,0.26 0,0.05 0.01,0.11 0.04,0.16 0.13,-0.05 0.38,-0.04 0.59,-0.03l0.19 0.01zm-0.06 -0.22c0,0.08 0,0.16 0.07,0.22l0.09 0c0.05,0 0.07,0 0.14,0.02l0 -0.03c0.02,-0.09 0.05,-0.37 -0.14,-0.52 -0.07,-0.04 -0.21,-0.11 -0.34,-0.13 -0.08,-0.01 -0.17,0 -0.22,0.05 0.02,0.02 0.09,0.06 0.16,0.1 0.08,0.04 0.16,0.08 0.18,0.1 0.05,0.05 0.05,0.12 0.06,0.19zm-0.52 -0.36c0.04,-0.02 0.08,-0.03 0.11,-0.03 0.06,-0.06 0.15,-0.07 0.24,-0.05 0.13,0.01 0.26,0.08 0.33,0.13 0.2,0.15 0.16,0.43 0.15,0.53l-0.01 0.03c-0.07,-0.03 -0.09,-0.03 -0.14,-0.03l-0.29 0c-0.21,-0.01 -0.46,-0.03 -0.59,0.02 -0.03,-0.05 -0.05,-0.11 -0.05,-0.16 0,-0.09 0.04,-0.18 0.08,-0.26 0.05,-0.07 0.11,-0.14 0.17,-0.18zm8.14 0.03c0.02,0.03 0.06,0.04 0.1,0.05l0.08 0.02 0.08 0.05c0.03,0.01 0.05,0.03 0.07,0.06 0.08,0.09 0.08,0.15 0.08,0.22 0,0.04 0,0.08 0.02,0.13l0.13 0.01c0.09,0.01 0.19,0.03 0.23,0.02 0.02,-0.04 0.03,-0.1 0.03,-0.15 0,-0.1 -0.03,-0.2 -0.08,-0.29 -0.06,-0.09 -0.15,-0.16 -0.26,-0.2 -0.05,-0.02 -0.12,-0.04 -0.18,-0.04 -0.07,0 -0.13,0.01 -0.18,0.03 -0.05,0.02 -0.09,0.05 -0.12,0.09zm0.1 0.05c-0.04,0 -0.08,-0.01 -0.11,-0.05 -0.06,0.02 -0.11,0.06 -0.15,0.11 -0.05,0.07 -0.08,0.16 -0.09,0.24 -0.02,0.09 -0.01,0.14 0.01,0.17 0.02,0.03 0.07,0.03 0.14,0.03l0.17 -0.01c0.07,-0.01 0.13,-0.02 0.36,-0.01 -0.02,-0.05 -0.02,-0.09 -0.02,-0.13 0,-0.07 -0.01,-0.13 -0.08,-0.22 -0.02,-0.03 -0.05,-0.05 -0.07,-0.06l-0.09 -0.04 -0.07 -0.03zm0.33 0.48c-0.23,0 -0.29,0.01 -0.36,0.01l-0.17 0.01c-0.07,0.01 -0.12,0 -0.14,-0.03 -0.03,-0.02 -0.03,-0.08 -0.02,-0.17 0.02,-0.08 0.04,-0.17 0.09,-0.24 0.04,-0.06 0.1,-0.1 0.16,-0.11 0.04,-0.04 0.08,-0.07 0.13,-0.09 0.05,-0.02 0.11,-0.03 0.18,-0.03 0.06,0 0.13,0.01 0.19,0.04 0.1,0.04 0.19,0.11 0.25,0.2 0.06,0.09 0.09,0.19 0.09,0.29 -0.01,0.05 -0.01,0.11 -0.03,0.16 -0.05,0 -0.15,-0.01 -0.24,-0.02l-0.13 -0.02zm-0.53 0.32l0.05 0.1 0.16 0.08c0.04,0.02 0.06,0.03 0.14,0.03l0.05 0c0.06,-0.01 0.15,-0.03 0.22,-0.07 0.06,-0.03 0.12,-0.07 0.12,-0.11l0 -0.01c-0.09,-0.04 -0.38,-0.03 -0.59,-0.03l-0.15 0.01zm0.02 0.06l-0.02 -0.06 0.15 -0.01c0.21,-0.01 0.5,-0.02 0.59,0.03l0 0.01c0,0.04 -0.05,0.09 -0.12,0.12 -0.07,0.03 -0.15,0.05 -0.22,0.06l-0.05 0.01c-0.08,-0.01 -0.1,-0.02 -0.14,-0.04l-0.16 -0.08 -0.03 -0.04zm-8.12 -0.04l0.18 0.15 0.01 0c0.11,0.04 0.21,0.04 0.31,0.01 0.1,-0.03 0.18,-0.09 0.24,-0.18l-0.1 -0.01c-0.1,-0.01 -0.2,-0.01 -0.29,-0.01l-0.08 0.01c-0.09,0.02 -0.22,0.03 -0.27,0.03zm0.18 0.15l-0.19 -0.16 0.01 0c0.04,0.01 0.17,-0.01 0.27,-0.02l0.08 -0.01c0.09,-0.01 0.19,0 0.29,0.01l0.1 0.01c-0.05,0.09 -0.14,0.16 -0.24,0.19 -0.1,0.03 -0.2,0.03 -0.31,-0.01l-0.01 -0.01z"/>
  <path class="fil2" d="M14.9 5.12l0.01 0.17c0,0.02 -0.01,0.04 -0.03,0.04 -0.04,0 -0.09,0.01 -0.15,0.03l-0.21 0.06 -0.24 0.09c-0.08,0.04 -0.15,0.07 -0.2,0.1 -0.19,0.11 -0.36,0.23 -0.55,0.35l-0.45 0.46c-0.11,0.14 -0.21,0.28 -0.31,0.42 -0.06,0.1 -0.13,0.21 -0.18,0.34 -0.06,0.13 -0.11,0.28 -0.16,0.43 -0.04,0.16 -0.08,0.33 -0.1,0.48 -0.03,0.16 -0.04,0.31 -0.04,0.45 0,0.13 0.01,0.27 0.02,0.41 0.01,0.13 0.02,0.26 0.05,0.39 0.02,0.12 0.05,0.25 0.1,0.37 0.04,0.13 0.09,0.25 0.15,0.37 0.07,0.13 0.13,0.24 0.19,0.34 0.06,0.11 0.12,0.2 0.19,0.28 0.06,0.09 0.13,0.17 0.21,0.26 0.08,0.08 0.18,0.17 0.29,0.27l0.15 0.11 0.15 0.11c0.44,0.27 0.52,0.32 1.06,0.48l0.03 0.01c0.1,0.03 0.18,0.05 0.29,0.07l0.26 0.02c0.04,0 0.09,0.01 0.12,0.02 0.01,0.01 0.02,0.02 0.02,0.03 0.01,0.15 0.01,0.22 -0.01,0.28 -0.01,0.05 -0.04,0.08 -0.08,0.12 -0.04,0.03 -0.07,0.08 -0.1,0.11l-0.59 0.83 -0.14 0.22c-0.14,0.22 -0.28,0.44 -0.39,0.66l-0.63 1.48 -0.1 0.41c-0.02,0.08 -0.03,0.15 -0.04,0.27l-0.03 0.2c0,0.05 0,0.1 0,0.16 0.01,0.08 0.02,0.16 0.03,0.23 0.02,0.1 0.04,0.2 0.06,0.28 0.03,0.1 0.05,0.18 0.07,0.24l0.11 0.24 0.06 0.11 0.07 0.1c0.08,0.11 0.17,0.21 0.26,0.3 0.08,0.09 0.18,0.17 0.27,0.24 0.1,0.07 0.21,0.14 0.32,0.19 0.11,0.06 0.24,0.11 0.37,0.14 0.11,0.04 0.22,0.06 0.31,0.08 0.1,0.02 0.19,0.03 0.29,0.03 0.09,0 0.18,-0.01 0.28,-0.02 0.1,-0.01 0.21,-0.03 0.32,-0.06 0.06,-0.01 0.11,-0.03 0.17,-0.05l0.08 -0.04c0.08,-0.02 0.17,-0.07 0.26,-0.12 0.09,-0.05 0.19,-0.12 0.28,-0.18 0.09,-0.06 0.17,-0.12 0.23,-0.19 0.06,-0.05 0.11,-0.11 0.14,-0.15l0.15 -0.24c0.17,-0.25 0.24,-0.35 0.34,-0.86 0.03,-0.16 0.03,-0.32 0.02,-0.49 -0.01,-0.16 -0.04,-0.33 -0.08,-0.49 -0.03,-0.17 -0.08,-0.33 -0.14,-0.49 -0.05,-0.16 -0.11,-0.31 -0.16,-0.45 -0.08,-0.2 -0.18,-0.39 -0.27,-0.58l-0.13 -0.27c-0.07,-0.13 -0.12,-0.23 -0.18,-0.31l-0.14 -0.25c-0.06,-0.09 -0.13,-0.19 -0.2,-0.32l-0.44 -0.61c-0.12,-0.14 -0.2,-0.23 -0.25,-0.29l-0.01 0c-0.06,-0.07 -0.1,-0.11 -0.12,-0.17 -0.02,-0.06 -0.03,-0.14 -0.04,-0.29 0,-0.02 0.02,-0.03 0.04,-0.04 0.2,0.01 0.36,-0.01 0.51,-0.04 0.15,-0.03 0.3,-0.08 0.46,-0.12l0.02 -0.01c0.09,-0.03 0.2,-0.07 0.3,-0.12 0.12,-0.05 0.23,-0.11 0.35,-0.18 0.11,-0.07 0.22,-0.15 0.32,-0.22 0.1,-0.08 0.19,-0.15 0.26,-0.22l0.07 -0.08c0.14,-0.13 0.28,-0.28 0.37,-0.44l0.24 -0.37c0.12,-0.22 0.21,-0.44 0.28,-0.67 0.06,-0.24 0.1,-0.48 0.11,-0.73 0.02,-0.25 0,-0.51 -0.04,-0.76 -0.04,-0.25 -0.11,-0.5 -0.2,-0.74l-0.06 -0.14 -0.21 -0.38 -0.06 -0.09c-0.04,-0.05 -0.07,-0.09 -0.11,-0.16 -0.03,-0.06 -0.08,-0.12 -0.13,-0.18 -0.05,-0.07 -0.12,-0.14 -0.19,-0.2 -0.07,-0.07 -0.15,-0.14 -0.23,-0.21 -0.09,-0.06 -0.17,-0.13 -0.25,-0.18 -0.08,-0.05 -0.19,-0.11 -0.3,-0.17 -0.1,-0.05 -0.21,-0.11 -0.32,-0.15 -0.1,-0.04 -0.19,-0.08 -0.28,-0.1 -0.08,-0.03 -0.16,-0.04 -0.22,-0.05 -0.02,0 -0.03,-0.02 -0.03,-0.04l0 -0.01c0.02,-0.06 0.02,-0.12 0.03,-0.18 0,-0.06 0,-0.13 -0.01,-0.19 -0.01,-0.06 -0.03,-0.12 -0.06,-0.17 -0.02,-0.07 -0.05,-0.11 -0.09,-0.16 -0.03,-0.04 -0.06,-0.08 -0.1,-0.11 -0.04,-0.04 -0.08,-0.07 -0.13,-0.09 -0.05,-0.03 -0.1,-0.05 -0.16,-0.07 -0.06,-0.02 -0.12,-0.03 -0.19,-0.05l-0.01 0c-0.03,0 -0.06,0 -0.1,0 -0.04,0.01 -0.09,0.01 -0.13,0.02 -0.05,0.02 -0.1,0.03 -0.15,0.05 -0.05,0.02 -0.09,0.04 -0.12,0.05 -0.07,0.04 -0.13,0.09 -0.18,0.15 -0.05,0.05 -0.09,0.11 -0.13,0.17 -0.03,0.06 -0.05,0.13 -0.06,0.2 -0.01,0.06 -0.01,0.14 0,0.22zm-0.07 0.14l-0.01 -0.13c-0.01,-0.09 -0.01,-0.17 0.01,-0.25 0.01,-0.07 0.03,-0.15 0.07,-0.21 0.03,-0.08 0.08,-0.14 0.13,-0.2 0.06,-0.06 0.13,-0.11 0.2,-0.15l0 0c0.04,-0.02 0.08,-0.04 0.14,-0.06 0.04,-0.02 0.1,-0.04 0.15,-0.05 0.05,-0.01 0.1,-0.02 0.15,-0.02 0.04,-0.01 0.08,-0.01 0.12,0 0.07,0.01 0.14,0.03 0.2,0.05 0.07,0.02 0.13,0.04 0.18,0.07 0.05,0.03 0.1,0.06 0.14,0.1 0.04,0.04 0.08,0.08 0.11,0.12 0.04,0.06 0.08,0.11 0.1,0.18 0.03,0.06 0.05,0.12 0.06,0.19 0.01,0.07 0.02,0.14 0.01,0.2 0,0.06 -0.01,0.11 -0.02,0.16 0.06,0.01 0.12,0.02 0.19,0.04 0.09,0.03 0.19,0.07 0.29,0.11 0.11,0.04 0.22,0.1 0.33,0.15 0.11,0.06 0.22,0.13 0.3,0.18 0.08,0.05 0.17,0.11 0.26,0.18 0.08,0.07 0.16,0.14 0.24,0.22 0.07,0.06 0.13,0.13 0.19,0.2l0 0c0.06,0.07 0.1,0.13 0.14,0.19 0.03,0.07 0.06,0.11 0.1,0.16l0.06 0.08c0.11,0.2 0.2,0.34 0.28,0.54 0.09,0.25 0.16,0.5 0.21,0.76 0.04,0.26 0.05,0.52 0.04,0.77 -0.01,0.25 -0.05,0.5 -0.12,0.75 -0.07,0.23 -0.16,0.46 -0.28,0.68l0 0.01c-0.07,0.11 -0.15,0.23 -0.23,0.34l-0.01 0.03c-0.1,0.17 -0.25,0.32 -0.39,0.46l-0.07 0.07c-0.07,0.07 -0.16,0.15 -0.26,0.23 -0.1,0.07 -0.22,0.15 -0.33,0.22 -0.12,0.07 -0.24,0.14 -0.35,0.19 -0.11,0.05 -0.22,0.1 -0.32,0.12l-0.01 0.01c-0.17,0.05 -0.32,0.09 -0.47,0.12 -0.15,0.03 -0.3,0.05 -0.49,0.05 0.02,0.23 0.02,0.25 0.14,0.37l0 0c0.06,0.06 0.15,0.15 0.26,0.29 0.3,0.43 0.52,0.74 0.79,1.19 0.05,0.09 0.11,0.19 0.18,0.32l0.13 0.27c0.09,0.2 0.19,0.39 0.27,0.58 0.05,0.14 0.11,0.3 0.16,0.45 0.06,0.16 0.11,0.33 0.15,0.5 0.04,0.17 0.07,0.34 0.08,0.51 0.01,0.17 0,0.34 -0.03,0.5 -0.05,0.27 -0.09,0.43 -0.14,0.55 -0.06,0.13 -0.12,0.22 -0.2,0.35l-0.16 0.23c-0.03,0.05 -0.08,0.11 -0.15,0.17 -0.06,0.06 -0.15,0.13 -0.23,0.19 -0.1,0.07 -0.2,0.13 -0.29,0.19 -0.1,0.05 -0.19,0.1 -0.27,0.12l-0.08 0.04c-0.06,0.02 -0.12,0.04 -0.18,0.06 -0.12,0.02 -0.23,0.04 -0.33,0.06 -0.1,0.01 -0.2,0.02 -0.29,0.01 -0.1,0 -0.2,-0.01 -0.3,-0.03 -0.1,-0.01 -0.21,-0.04 -0.32,-0.07 -0.14,-0.04 -0.27,-0.09 -0.38,-0.15 -0.12,-0.06 -0.23,-0.12 -0.33,-0.2 -0.1,-0.07 -0.2,-0.16 -0.29,-0.25 -0.09,-0.09 -0.18,-0.2 -0.26,-0.31 -0.06,-0.08 -0.09,-0.13 -0.14,-0.22l-0.11 -0.25c-0.02,-0.05 -0.05,-0.14 -0.07,-0.24 -0.02,-0.08 -0.05,-0.18 -0.06,-0.28 -0.02,-0.09 -0.03,-0.17 -0.04,-0.24 0,-0.07 0,-0.13 0.01,-0.18l0.02 -0.2c0.02,-0.13 0.03,-0.2 0.04,-0.28 0.17,-0.64 0.45,-1.32 0.74,-1.9 0.11,-0.23 0.26,-0.46 0.4,-0.67l0.14 -0.22 0.59 -0.83 0.1 -0.12c0.04,-0.03 0.06,-0.06 0.07,-0.09 0.01,-0.05 0.01,-0.11 0.01,-0.22l-0.08 -0.02c-0.08,0 -0.18,-0.01 -0.26,-0.02 -0.11,-0.01 -0.19,-0.04 -0.3,-0.07l-0.03 -0.01c-0.55,-0.16 -0.63,-0.21 -1.08,-0.49l-0.16 -0.11 -0.15 -0.11c-0.11,-0.1 -0.21,-0.19 -0.29,-0.28 -0.09,-0.09 -0.16,-0.17 -0.22,-0.26 -0.07,-0.09 -0.13,-0.18 -0.19,-0.28 -0.06,-0.1 -0.12,-0.22 -0.2,-0.36 -0.06,-0.12 -0.11,-0.25 -0.16,-0.37 -0.04,-0.13 -0.07,-0.26 -0.1,-0.39 -0.02,-0.13 -0.04,-0.26 -0.05,-0.4 -0.01,-0.13 -0.01,-0.27 -0.01,-0.41 0,-0.14 0.01,-0.3 0.03,-0.46l0 0c0.03,-0.16 0.07,-0.33 0.11,-0.49 0.05,-0.15 0.1,-0.31 0.16,-0.44 0.06,-0.13 0.12,-0.25 0.19,-0.35 0.43,-0.61 0.67,-0.87 1.33,-1.26 0.06,-0.03 0.13,-0.06 0.21,-0.1l0.25 -0.1c0.08,-0.02 0.15,-0.04 0.21,-0.06l0.12 -0.02zm-8.03 0.02c-0.02,0.03 -0.06,0.05 -0.1,0.07l-0.2 0.05c-0.1,0.04 -0.19,0.07 -0.28,0.11 -0.09,0.04 -0.18,0.08 -0.26,0.13 -0.09,0.05 -0.17,0.1 -0.25,0.15 -0.08,0.05 -0.16,0.11 -0.23,0.17 -0.11,0.1 -0.21,0.18 -0.32,0.29l-0.15 0.15 -0.12 0.14 -0.16 0.23 -0.2 0.34c-0.02,0.05 -0.05,0.09 -0.07,0.16l-0.06 0.14c-0.05,0.12 -0.09,0.25 -0.13,0.37 -0.03,0.12 -0.05,0.25 -0.07,0.38 -0.02,0.13 -0.03,0.26 -0.03,0.39 0,0.14 0.01,0.28 0.02,0.42 0.02,0.16 0.04,0.3 0.06,0.43 0.03,0.12 0.06,0.24 0.1,0.36 0.04,0.11 0.09,0.22 0.15,0.33 0.05,0.11 0.12,0.22 0.19,0.34 0.1,0.15 0.2,0.28 0.3,0.41 0.11,0.12 0.22,0.24 0.34,0.35 0.12,0.1 0.25,0.2 0.39,0.29 0.14,0.09 0.29,0.18 0.45,0.25 0.1,0.05 0.22,0.09 0.34,0.14 0.1,0.03 0.21,0.07 0.32,0.1 0.1,0.02 0.2,0.04 0.31,0.06 0.09,0.01 0.19,0.02 0.28,0.02 0.02,0 0.04,0.01 0.04,0.03 0,0.17 -0.01,0.25 -0.03,0.32 -0.03,0.08 -0.07,0.13 -0.16,0.22l-0.17 0.19 -0.08 0.11 -0.35 0.51 -0.28 0.47 -0.18 0.32 -0.17 0.33 -0.24 0.51c-0.1,0.22 -0.2,0.46 -0.28,0.71l0 0c-0.06,0.22 -0.11,0.44 -0.14,0.67 -0.02,0.2 -0.03,0.4 0,0.6 0.02,0.19 0.06,0.37 0.12,0.54l0.08 0.18 0.08 0.15c0.09,0.12 0.17,0.23 0.27,0.35l0.09 0.09 0.1 0.08c0.05,0.03 0.06,0.05 0.07,0.07l0 0c0.01,0.01 0.02,0.02 0.06,0.04 0.22,0.15 0.45,0.26 0.68,0.34 0.23,0.07 0.46,0.11 0.7,0.11 0.23,-0.01 0.46,-0.05 0.68,-0.12 0.22,-0.08 0.44,-0.2 0.65,-0.35l0.1 -0.07 0.25 -0.24c0.07,-0.08 0.13,-0.18 0.19,-0.27l0.09 -0.14c0.05,-0.09 0.09,-0.18 0.13,-0.28 0.04,-0.1 0.07,-0.2 0.09,-0.32 0.02,-0.11 0.03,-0.24 0.03,-0.37 0.01,-0.13 0,-0.27 -0.01,-0.4 -0.02,-0.14 -0.04,-0.27 -0.07,-0.39 -0.03,-0.11 -0.06,-0.22 -0.09,-0.32l-0.02 -0.06c-0.05,-0.14 -0.11,-0.29 -0.17,-0.43 -0.03,-0.09 -0.08,-0.2 -0.11,-0.29 -0.11,-0.28 -0.27,-0.56 -0.42,-0.82l-0.18 -0.32 -0.31 -0.47 -0.22 -0.31 -0.21 -0.28 -0.2 -0.23 -0.07 -0.08c-0.04,-0.03 -0.06,-0.05 -0.07,-0.08l-0.01 -0.05 0 -0.22c0,-0.02 0.02,-0.04 0.04,-0.04l0.14 0 0.18 -0.01 0.2 -0.04 0.19 -0.04 0.24 -0.07 0.22 -0.08 0.21 -0.09 0.2 -0.12 0.4 -0.26c0.1,-0.08 0.2,-0.17 0.3,-0.26 0.09,-0.1 0.17,-0.2 0.26,-0.3 0.08,-0.11 0.15,-0.22 0.22,-0.33 0.07,-0.11 0.14,-0.23 0.21,-0.35 0.12,-0.23 0.21,-0.49 0.27,-0.75 0.05,-0.28 0.07,-0.57 0.06,-0.86 -0.02,-0.3 -0.07,-0.6 -0.16,-0.88 -0.08,-0.28 -0.2,-0.54 -0.35,-0.78l-0.06 -0.09c-0.03,-0.03 -0.06,-0.07 -0.09,-0.13l-0.03 -0.04 -0.47 -0.52c-0.06,-0.05 -0.11,-0.09 -0.17,-0.13l-0.26 -0.17c-0.06,-0.04 -0.14,-0.08 -0.22,-0.13l-0.01 0c-0.09,-0.04 -0.19,-0.09 -0.29,-0.12 -0.09,-0.04 -0.19,-0.08 -0.28,-0.1 -0.09,-0.03 -0.16,-0.05 -0.23,-0.06 -0.02,0 -0.03,-0.02 -0.03,-0.03l0 -0.06c0.02,-0.18 0.03,-0.36 -0.06,-0.52 -0.07,-0.14 -0.08,-0.15 -0.2,-0.27l-0.07 -0.05 -0.07 -0.04c-0.08,-0.04 -0.15,-0.06 -0.23,-0.08 -0.08,-0.01 -0.15,-0.02 -0.23,-0.01 -0.07,0 -0.14,0.02 -0.21,0.05 -0.07,0.03 -0.13,0.06 -0.19,0.11l-0.11 0.09 -0.08 0.09c-0.02,0.03 -0.04,0.07 -0.06,0.1l0 0.01c-0.02,0.03 -0.03,0.08 -0.04,0.12l-0.02 0.12 0 0.13 0 0.09 0.01 0.06c0.01,0.01 0,0.03 -0.01,0.04zm-0.24 0.03l0.11 -0.03c0.02,-0.01 0.05,-0.02 0.06,-0.04l-0.01 -0.05 0 -0.1 0.01 -0.13 0.02 -0.13c0.01,-0.05 0.02,-0.1 0.04,-0.15 0.02,-0.04 0.04,-0.08 0.07,-0.11 0.03,-0.04 0.06,-0.07 0.09,-0.1l0.11 -0.1c0.06,-0.05 0.13,-0.09 0.21,-0.12 0.07,-0.03 0.15,-0.05 0.24,-0.06 0.08,0 0.16,0 0.24,0.02 0.09,0.01 0.17,0.04 0.25,0.08l0.08 0.05 0.08 0.05 0.12 0.13 0.04 0.05 0.06 0.11c0.05,0.09 0.07,0.19 0.08,0.28 0.01,0.1 0,0.19 -0.01,0.28l0 0.02c0.06,0.01 0.13,0.03 0.2,0.05 0.09,0.03 0.19,0.07 0.29,0.1 0.11,0.05 0.21,0.09 0.3,0.13l0 0.01c0.09,0.04 0.17,0.09 0.23,0.13l0.26 0.17c0.06,0.04 0.12,0.08 0.18,0.13 0.15,0.16 0.41,0.41 0.51,0.58 0.03,0.05 0.06,0.09 0.09,0.13l0.06 0.09c0.16,0.24 0.28,0.51 0.36,0.8 0.09,0.29 0.15,0.59 0.16,0.89 0.02,0.3 0,0.6 -0.06,0.88 -0.06,0.28 -0.15,0.54 -0.28,0.78 -0.06,0.11 -0.13,0.23 -0.2,0.35 -0.08,0.11 -0.15,0.23 -0.23,0.33 -0.09,0.11 -0.18,0.21 -0.27,0.31 -0.1,0.1 -0.2,0.19 -0.31,0.27 -0.22,0.15 -0.38,0.26 -0.61,0.39l-0.21 0.09 -0.23 0.08 -0.24 0.07 -0.19 0.05 -0.21 0.03 -0.18 0.02 -0.11 0 0 0.12c0,0.04 0,0.07 0,0.08 0.03,0.05 0.09,0.1 0.12,0.13l0.21 0.24 0.21 0.28c0.16,0.22 0.29,0.42 0.44,0.64 0.08,0.13 0.16,0.26 0.23,0.4l0.05 0.08c0.15,0.27 0.31,0.54 0.42,0.83l0.11 0.28c0.06,0.14 0.13,0.29 0.17,0.44l0.02 0.06c0.03,0.1 0.07,0.22 0.09,0.32 0.03,0.12 0.06,0.26 0.07,0.4 0.02,0.14 0.02,0.28 0.02,0.42 0,0.12 -0.02,0.25 -0.04,0.38 -0.02,0.12 -0.05,0.23 -0.09,0.33 -0.04,0.1 -0.09,0.19 -0.14,0.29l-0.08 0.14c-0.07,0.1 -0.13,0.19 -0.21,0.29 -0.08,0.07 -0.26,0.26 -0.35,0.32 -0.22,0.15 -0.45,0.27 -0.68,0.35 -0.23,0.08 -0.47,0.12 -0.7,0.12 -0.24,0 -0.49,-0.03 -0.72,-0.11 -0.24,-0.08 -0.48,-0.19 -0.71,-0.34l-0.05 -0.04c-0.05,-0.07 -0.11,-0.11 -0.18,-0.17l-0.1 -0.09 -0.09 -0.1 -0.18 -0.26 -0.09 -0.16 -0.08 -0.18c-0.07,-0.18 -0.11,-0.37 -0.13,-0.56 -0.02,-0.2 -0.02,-0.41 0.01,-0.62 0.02,-0.23 0.07,-0.46 0.14,-0.69 0.08,-0.25 0.17,-0.49 0.28,-0.72l0.24 -0.49 0.17 -0.35 0.19 -0.33c0.21,-0.35 0.4,-0.64 0.63,-0.98l0.08 -0.1 0.18 -0.21c0.14,-0.15 0.16,-0.17 0.17,-0.44 -0.09,0 -0.18,-0.01 -0.26,-0.02 -0.11,-0.01 -0.22,-0.04 -0.32,-0.06 -0.11,-0.03 -0.22,-0.06 -0.33,-0.1 -0.12,-0.05 -0.24,-0.09 -0.34,-0.14 -0.16,-0.08 -0.32,-0.16 -0.46,-0.25 -0.14,-0.09 -0.28,-0.2 -0.4,-0.31 -0.12,-0.1 -0.24,-0.22 -0.35,-0.35 -0.1,-0.13 -0.2,-0.27 -0.3,-0.42 -0.08,-0.12 -0.14,-0.23 -0.2,-0.35 -0.06,-0.11 -0.11,-0.22 -0.15,-0.34 -0.04,-0.12 -0.07,-0.24 -0.1,-0.37 -0.03,-0.13 -0.05,-0.27 -0.06,-0.43 -0.02,-0.15 -0.02,-0.29 -0.02,-0.43 0,-0.13 0.01,-0.27 0.02,-0.4 0.02,-0.13 0.05,-0.26 0.08,-0.39 0.03,-0.13 0.08,-0.25 0.13,-0.38l0.06 -0.14c0.02,-0.07 0.05,-0.11 0.08,-0.17 0.12,-0.19 0.22,-0.38 0.36,-0.57l0.13 -0.15 0.14 -0.15 0.16 -0.16 0.18 -0.14c0.07,-0.06 0.15,-0.12 0.23,-0.17 0.08,-0.06 0.17,-0.11 0.25,-0.16 0.09,-0.04 0.18,-0.09 0.27,-0.13 0.1,-0.04 0.19,-0.08 0.29,-0.11l0.08 -0.02zm6.05 3.2c0,0.17 0.01,0.34 0.03,0.51 0.02,0.16 0.05,0.32 0.09,0.47 0.05,0.15 0.1,0.3 0.17,0.44 0.06,0.13 0.14,0.26 0.22,0.39l0.27 0.36c0.03,0.04 0.05,0.07 0.09,0.1 0.04,0.04 0.09,0.09 0.18,0.16l0.14 0.11 0.18 0.13 0.2 0.12 0.18 0.1c0.08,0.04 0.18,0.09 0.29,0.13 0.11,0.04 0.23,0.08 0.35,0.11 0.1,0.03 0.21,0.06 0.3,0.07 0.08,0.01 0.14,0.02 0.2,0.02l0 -0.19c0,-0.02 0.01,-0.03 0.02,-0.04l0.06 -0.02 0.06 -0.03c0.05,-0.03 0.1,-0.04 0.13,-0.03 0.04,0 0.07,0.03 0.09,0.06 0.03,0.06 0.02,0.16 0.02,0.25 0.07,0 0.15,0 0.23,-0.01 0.12,-0.02 0.24,-0.05 0.36,-0.08 0.13,-0.04 0.27,-0.08 0.4,-0.13 0.13,-0.06 0.24,-0.11 0.34,-0.17l0.11 -0.07 0.2 -0.15c0.13,-0.09 0.21,-0.16 0.34,-0.27 0.12,-0.12 0.2,-0.21 0.32,-0.35l0.06 -0.09c0.08,-0.12 0.15,-0.24 0.21,-0.35 0.06,-0.11 0.11,-0.22 0.16,-0.33 0.04,-0.11 0.08,-0.23 0.11,-0.35 0.04,-0.13 0.06,-0.27 0.08,-0.43 0.01,-0.12 0.01,-0.23 0.01,-0.34 0,-0.11 0,-0.22 -0.02,-0.32 -0.01,-0.1 -0.03,-0.2 -0.05,-0.3 -0.02,-0.1 -0.05,-0.19 -0.07,-0.29 -0.03,-0.11 -0.09,-0.24 -0.16,-0.37 -0.06,-0.14 -0.14,-0.28 -0.23,-0.42 -0.08,-0.12 -0.16,-0.24 -0.24,-0.33 -0.08,-0.09 -0.15,-0.16 -0.22,-0.21 -0.07,-0.04 -0.12,-0.09 -0.17,-0.13l-0.01 -0.01c-0.06,-0.05 -0.12,-0.11 -0.22,-0.18 -0.05,-0.04 -0.14,-0.09 -0.25,-0.15 -0.1,-0.05 -0.22,-0.1 -0.33,-0.15 -0.09,-0.04 -0.18,-0.07 -0.25,-0.09 -0.06,-0.01 -0.11,-0.02 -0.14,-0.02l-0.02 0.02c-0.02,0.04 -0.06,0.08 -0.1,0.13 -0.04,0.05 -0.1,0.1 -0.16,0.13l-0.12 0.07 -0.13 0.04 -0.12 0.03 -0.1 0.01c-0.07,0 -0.15,-0.01 -0.23,-0.04 -0.08,-0.02 -0.15,-0.06 -0.22,-0.1l-0.01 -0.01c-0.06,-0.04 -0.12,-0.09 -0.17,-0.14l0 -0.01c-0.04,-0.04 -0.07,-0.09 -0.1,-0.14l-0.21 0.06 -0.25 0.09c-0.16,0.06 -0.25,0.11 -0.33,0.15 -0.07,0.04 -0.14,0.09 -0.23,0.16 -0.05,0.03 -0.11,0.08 -0.16,0.11 -0.06,0.03 -0.09,0.06 -0.12,0.08l-0.14 0.16 -0.06 0.06 -0.05 0.03c-0.04,0.02 -0.07,0.04 -0.13,0.14l-0.21 0.3c-0.07,0.11 -0.13,0.22 -0.19,0.34 -0.06,0.13 -0.11,0.27 -0.15,0.4 -0.04,0.14 -0.08,0.28 -0.1,0.42 -0.02,0.13 -0.03,0.26 -0.03,0.38zm0.05 1c-0.04,-0.15 -0.08,-0.32 -0.1,-0.48 -0.02,-0.17 -0.03,-0.34 -0.03,-0.52 0,-0.12 0.01,-0.26 0.04,-0.39 0.02,-0.15 0.06,-0.29 0.1,-0.43 0.04,-0.14 0.09,-0.28 0.15,-0.41 0.06,-0.12 0.13,-0.24 0.2,-0.35l0.21 -0.3c0.03,-0.05 0.06,-0.09 0.08,-0.11 0.03,-0.03 0.05,-0.04 0.07,-0.06 0.08,-0.05 0.12,-0.09 0.18,-0.16 0.01,-0.02 0.03,-0.05 0.06,-0.07 0.03,-0.03 0.07,-0.06 0.13,-0.1l0.16 -0.11c0.19,-0.14 0.26,-0.18 0.57,-0.31l0.25 -0.09 0.13 -0.04 0.13 -0.03c0.02,-0.01 0.04,0 0.04,0.02 0.02,0.06 0.06,0.11 0.1,0.16 0.04,0.05 0.1,0.1 0.16,0.13 0.06,0.04 0.13,0.08 0.2,0.1 0.07,0.02 0.15,0.03 0.21,0.04l0.09 -0.01 0.11 -0.03 0.12 -0.04 0.12 -0.06c0.05,-0.03 0.1,-0.08 0.13,-0.12 0.04,-0.04 0.08,-0.09 0.1,-0.12l0.03 -0.04c0,-0.01 0.01,-0.02 0.02,-0.02 0.05,0 0.11,0.01 0.18,0.03 0.08,0.02 0.18,0.05 0.27,0.09 0.12,0.05 0.23,0.1 0.33,0.16 0.11,0.05 0.21,0.11 0.26,0.15l0.01 0c0.1,0.07 0.16,0.13 0.22,0.18l0.01 0.01c0.05,0.05 0.1,0.09 0.17,0.13 0.07,0.05 0.15,0.13 0.22,0.22 0.09,0.09 0.17,0.21 0.25,0.34 0.09,0.14 0.17,0.28 0.24,0.42 0.07,0.15 0.13,0.28 0.16,0.38 0.03,0.1 0.05,0.2 0.08,0.3 0.02,0.11 0.04,0.21 0.05,0.31 0.01,0.11 0.02,0.22 0.02,0.33 0,0.11 -0.01,0.23 -0.02,0.35 -0.02,0.16 -0.04,0.3 -0.07,0.43 -0.03,0.14 -0.07,0.26 -0.12,0.37 -0.05,0.11 -0.1,0.23 -0.16,0.34l-0.01 0c-0.06,0.11 -0.13,0.23 -0.2,0.35l-0.07 0.1 -0.16 0.19 -0.17 0.17 -0.18 0.15c-0.05,0.04 -0.11,0.09 -0.17,0.12 -0.12,0.09 -0.19,0.15 -0.31,0.23 -0.1,0.05 -0.23,0.11 -0.36,0.17 -0.13,0.05 -0.26,0.1 -0.4,0.13 -0.13,0.04 -0.25,0.07 -0.37,0.08 -0.1,0.02 -0.2,0.02 -0.29,0.01 -0.01,0 -0.03,-0.02 -0.03,-0.03l0 -0.04c0.01,-0.08 0.01,-0.17 -0.01,-0.21 0,-0.02 -0.01,-0.03 -0.03,-0.03 -0.02,0 -0.05,0 -0.09,0.02 -0.04,0.03 -0.05,0.04 -0.09,0.05l0 0.21c0,0.02 -0.02,0.03 -0.04,0.03 -0.07,0.01 -0.15,0 -0.24,-0.01 -0.1,-0.02 -0.21,-0.04 -0.32,-0.07 -0.12,-0.04 -0.24,-0.08 -0.35,-0.12 -0.12,-0.04 -0.23,-0.09 -0.31,-0.13l-0.18 -0.11 -0.2 -0.12 -0.19 -0.13 -0.14 -0.11c-0.09,-0.08 -0.15,-0.13 -0.19,-0.17 -0.04,-0.04 -0.06,-0.07 -0.09,-0.11l-0.27 -0.36c-0.09,-0.13 -0.17,-0.26 -0.23,-0.4 -0.07,-0.15 -0.13,-0.29 -0.17,-0.45zm-5.07 3.22l-0.11 0.12 -0.27 0.36 -0.35 0.56c-0.31,0.47 -0.5,0.76 -0.86,1.65 -0.1,0.26 -0.19,0.51 -0.24,0.75 -0.06,0.24 -0.09,0.47 -0.07,0.7 0.01,0.22 0.06,0.44 0.16,0.65 0.09,0.21 0.24,0.42 0.45,0.62l0.14 0.14 0.31 0.18 0.11 0.05 0.22 0.08c0.16,0.05 0.32,0.07 0.47,0.08 0.17,0 0.34,-0.02 0.49,-0.06 0.17,-0.04 0.32,-0.1 0.47,-0.18 0.15,-0.08 0.28,-0.18 0.4,-0.3l0.22 -0.23 0.07 -0.09c0.1,-0.16 0.18,-0.32 0.23,-0.47 0.05,-0.16 0.08,-0.32 0.09,-0.48 0.01,-0.16 0,-0.33 -0.03,-0.5l0 0c-0.02,-0.17 -0.07,-0.34 -0.12,-0.52l-0.04 -0.13 -0.12 -0.31c-0.05,-0.14 -0.12,-0.28 -0.18,-0.41l-0.15 -0.31 -0.12 -0.24 -0.13 -0.23 -0.15 -0.24 -0.89 -1.24zm-0.11 0l0.07 -0.09c0.01,-0.01 0.04,-0.02 0.05,-0.01 0.33,0.36 0.8,1.07 1.09,1.54l0.14 0.23 0.12 0.25 0.15 0.31c0.06,0.13 0.13,0.27 0.18,0.41l0.07 0.18c0.03,0.09 0.07,0.17 0.09,0.26 0.06,0.19 0.1,0.37 0.13,0.54 0.02,0.18 0.04,0.35 0.03,0.52 -0.01,0.16 -0.04,0.33 -0.1,0.49 -0.05,0.16 -0.13,0.33 -0.24,0.49 -0.09,0.13 -0.18,0.21 -0.3,0.34 -0.12,0.12 -0.26,0.22 -0.41,0.3 -0.15,0.09 -0.32,0.15 -0.49,0.19 -0.16,0.05 -0.34,0.07 -0.51,0.06 -0.16,0 -0.33,-0.03 -0.49,-0.08l-0.23 -0.08 -0.11 -0.05c-0.24,-0.13 -0.29,-0.16 -0.48,-0.34 -0.21,-0.21 -0.36,-0.42 -0.46,-0.64 -0.11,-0.22 -0.16,-0.45 -0.17,-0.68 -0.01,-0.23 0.01,-0.47 0.07,-0.72 0.06,-0.24 0.14,-0.5 0.25,-0.76 0.36,-0.9 0.55,-1.19 0.86,-1.66l0.36 -0.56c0.11,-0.15 0.21,-0.3 0.33,-0.44zm8.23 -0.01l-1.1 1.61 -0.32 0.63 -0.24 0.6c-0.07,0.17 -0.12,0.34 -0.17,0.51 -0.04,0.17 -0.07,0.35 -0.08,0.52 -0.01,0.17 0,0.34 0.03,0.51 0.03,0.17 0.09,0.34 0.17,0.5l0.04 0.08c0.02,0.04 0.04,0.08 0.07,0.12 0.05,0.07 0.11,0.14 0.18,0.22 0.06,0.06 0.12,0.13 0.19,0.19 0.06,0.05 0.12,0.1 0.18,0.14 0.06,0.03 0.11,0.06 0.17,0.09l0.17 0.07c0.1,0.05 0.18,0.08 0.28,0.11 0.1,0.03 0.23,0.04 0.42,0.04l0.15 0 0.13 -0.01 0.12 -0.03 0.12 -0.02 0.14 -0.05 0.16 -0.07c0.12,-0.06 0.21,-0.11 0.32,-0.18l0.46 -0.48 0.03 -0.05c0.07,-0.1 0.12,-0.19 0.18,-0.33 0.12,-0.28 0.14,-0.58 0.11,-0.86 -0.03,-0.29 -0.11,-0.57 -0.19,-0.83l-0.03 -0.11c-0.01,-0.06 -0.05,-0.15 -0.09,-0.26 -0.06,-0.13 -0.13,-0.28 -0.2,-0.43l-0.24 -0.49c-0.07,-0.14 -0.13,-0.25 -0.17,-0.3l-0.47 -0.77c-0.07,-0.08 -0.12,-0.14 -0.18,-0.23 -0.03,-0.05 -0.04,-0.07 -0.09,-0.13l-0.04 -0.05c-0.07,-0.09 -0.13,-0.18 -0.21,-0.26zm-1.16 1.57l1.12 -1.65c0.01,-0.01 0.03,-0.02 0.05,-0.01l0.01 0.01c0.1,0.09 0.17,0.19 0.25,0.29l0.04 0.05c0.05,0.07 0.06,0.09 0.1,0.14 0.15,0.28 0.48,0.73 0.65,1 0.04,0.06 0.1,0.17 0.17,0.31l0.24 0.49 0.2 0.43c0.04,0.11 0.08,0.21 0.1,0.27l0.03 0.11c0.07,0.26 0.15,0.55 0.18,0.84 0.04,0.3 0.02,0.6 -0.11,0.9 -0.06,0.15 -0.12,0.24 -0.19,0.35 -0.15,0.22 -0.42,0.49 -0.66,0.64l-0.17 0.09 -0.17 0.07 -0.15 0.05 -0.13 0.03 -0.12 0.02 -0.13 0.01 -0.16 0.01c-0.2,0 -0.33,-0.02 -0.44,-0.05 -0.11,-0.02 -0.19,-0.06 -0.29,-0.11l-0.17 -0.07c-0.06,-0.03 -0.12,-0.06 -0.18,-0.1 -0.07,-0.04 -0.13,-0.09 -0.19,-0.15 -0.07,-0.06 -0.13,-0.12 -0.2,-0.19l0 0c-0.07,-0.08 -0.13,-0.16 -0.18,-0.23 -0.04,-0.04 -0.06,-0.08 -0.08,-0.13l-0.04 -0.08c-0.08,-0.17 -0.14,-0.34 -0.17,-0.51 -0.04,-0.18 -0.05,-0.36 -0.04,-0.54 0.02,-0.17 0.05,-0.35 0.09,-0.53 0.04,-0.17 0.1,-0.35 0.17,-0.51l0.24 -0.61 0.33 -0.64zm-6.75 -9.12l-0.02 -0.05c-0.01,-0.04 -0.01,-0.09 -0.01,-0.12l-0.01 -0.1c-0.01,-0.03 -0.02,-0.05 -0.04,-0.07 -0.01,-0.02 -0.09,-0.06 -0.16,-0.1l-0.17 -0.09 -0.03 0.01 -0.05 0.02c-0.03,0.01 -0.05,0.04 -0.08,0.06 -0.03,0.03 -0.05,0.07 -0.07,0.1 -0.03,0.04 -0.05,0.08 -0.06,0.12 -0.01,0.04 -0.02,0.08 -0.02,0.12l0.01 0.07 0.01 0.04c0.07,-0.01 0.16,-0.02 0.25,-0.02 0.11,-0.01 0.23,0 0.33,0.01l0.12 0zm0.04 -0.18c0,0.04 0.01,0.08 0.01,0.11l0 0c0.01,0.03 0.02,0.05 0.04,0.07l0.15 0.01 0.04 0.01c0.01,-0.11 0.04,-0.35 -0.13,-0.48 -0.04,-0.02 -0.09,-0.05 -0.16,-0.08 -0.05,-0.02 -0.11,-0.04 -0.16,-0.05 -0.04,0 -0.08,0 -0.12,0.01l-0.04 0.01 0.12 0.06c0.08,0.05 0.16,0.09 0.19,0.12 0.03,0.03 0.04,0.06 0.05,0.1l0.01 0.11zm-0.56 -0.39l0.06 -0.03 0.05 0c0.03,-0.03 0.06,-0.05 0.1,-0.06 0.05,-0.01 0.1,-0.01 0.15,0 0.06,0.01 0.13,0.03 0.18,0.05l0.01 0c0.06,0.03 0.12,0.07 0.16,0.09 0.21,0.16 0.18,0.45 0.16,0.56l0 0.03c0,0.02 -0.02,0.03 -0.04,0.03l-0.01 0c-0.07,-0.02 -0.09,-0.02 -0.13,-0.02l-0.3 -0.01c-0.2,-0.01 -0.45,-0.02 -0.57,0.03 -0.02,0 -0.04,-0.01 -0.05,-0.02 -0.01,-0.03 -0.02,-0.06 -0.03,-0.09 -0.01,-0.03 -0.01,-0.06 -0.01,-0.09 0,-0.05 0.01,-0.1 0.02,-0.14 0.01,-0.05 0.04,-0.09 0.06,-0.14 0.02,-0.04 0.05,-0.07 0.08,-0.11 0.04,-0.03 0.07,-0.06 0.11,-0.08zm8.2 0.06c0.13,0.05 0.2,0.03 0.31,0.16 0.04,0.05 0.06,0.09 0.07,0.13 0.01,0.04 0.02,0.07 0.02,0.11l0 0.06 0.01 0.04 0.31 0.03 0.01 -0.05 0.01 -0.07c0,-0.04 -0.01,-0.09 -0.02,-0.14 -0.02,-0.05 -0.04,-0.09 -0.06,-0.13 -0.03,-0.04 -0.07,-0.08 -0.11,-0.11 -0.04,-0.03 -0.08,-0.06 -0.13,-0.08l-0.09 -0.02 -0.08 -0.01 -0.09 0.01 -0.08 0.02 -0.08 0.05zm0.04 0.09l-0.06 -0.02 -0.05 -0.03 -0.05 0.03c-0.02,0.02 -0.05,0.04 -0.06,0.06 -0.02,0.03 -0.04,0.07 -0.06,0.1 -0.01,0.04 -0.02,0.08 -0.03,0.12l0 0.11c0,0.02 0,0.03 0.01,0.04l0.03 0.01 0.08 0 0.16 -0.01c0.07,0 0.14,-0.01 0.32,-0.01l-0.01 -0.09c0,-0.03 0,-0.06 -0.01,-0.09 -0.01,-0.03 -0.03,-0.07 -0.06,-0.1l-0.06 -0.06 -0.08 -0.04 -0.07 -0.02zm0.34 0.48c-0.22,0 -0.29,0 -0.36,0.01l-0.16 0.01c-0.04,0 -0.08,0 -0.11,0 -0.03,-0.01 -0.05,-0.02 -0.07,-0.04 -0.02,-0.02 -0.03,-0.05 -0.03,-0.09 0,-0.03 0,-0.07 0.01,-0.12 0,-0.04 0.02,-0.09 0.03,-0.14 0.02,-0.04 0.04,-0.08 0.07,-0.11 0.02,-0.03 0.05,-0.06 0.08,-0.08 0.02,-0.02 0.05,-0.03 0.09,-0.04l0.05 -0.05c0.02,-0.02 0.05,-0.03 0.07,-0.04 0.03,-0.01 0.06,-0.02 0.09,-0.03l0.11 -0.01 0.1 0.01 0.1 0.03c0.05,0.02 0.11,0.05 0.15,0.09 0.05,0.04 0.09,0.08 0.12,0.13 0.03,0.04 0.05,0.1 0.07,0.15 0.01,0.05 0.02,0.11 0.02,0.16l-0.01 0.09 -0.02 0.08c0,0.01 -0.02,0.02 -0.03,0.02 -0.13,0 -0.24,-0.02 -0.37,-0.03zm-0.47 0.31l0.02 0.04 0.2 0.1 0.06 0.01 0.06 -0.01 0.1 -0.02 0.1 -0.04c0.03,-0.01 0.06,-0.03 0.08,-0.05l0.02 -0.02c-0.1,-0.03 -0.36,-0.02 -0.55,-0.01l-0.09 0zm-0.07 0.04l-0.03 -0.06c0,-0.02 0.01,-0.04 0.02,-0.05l0.17 -0.01c0.21,0 0.51,-0.01 0.61,0.04 0.01,0 0.01,0.01 0.01,0.02l0.01 0.02c0,0.03 -0.02,0.06 -0.05,0.09 -0.02,0.02 -0.06,0.04 -0.1,0.06l-0.11 0.04 -0.11 0.03 -0.07 0c-0.08,0 -0.11,-0.02 -0.15,-0.04l-0.16 -0.07 -0.02 -0.02 -0.02 -0.05zm-7.99 -0.02l0.11 0.09c0.04,0.02 0.09,0.03 0.14,0.03 0.05,0 0.1,-0.01 0.14,-0.02 0.04,-0.01 0.09,-0.04 0.12,-0.07l0.06 -0.05 -0.04 0c-0.09,-0.01 -0.19,-0.02 -0.27,-0.01l-0.26 0.03zm0.05 0.14l-0.19 -0.15c-0.01,-0.02 -0.01,-0.04 0,-0.05 0.01,-0.01 0.02,-0.02 0.04,-0.02l0 0.01c0.02,0 0.06,0 0.11,-0.01l0.24 -0.03c0.09,0 0.19,0 0.29,0.01l0.1 0.01c0.02,0 0.04,0.02 0.04,0.04l-0.01 0.02c-0.03,0.05 -0.07,0.09 -0.11,0.12 -0.04,0.04 -0.09,0.07 -0.15,0.08 -0.05,0.02 -0.11,0.03 -0.16,0.03 -0.06,-0.01 -0.12,-0.02 -0.17,-0.04l-0.03 -0.02z"/>
  <path class="fil3" d="M14.86 5.12l0.02 0.18c-0.09,0 -0.23,0.04 -0.37,0.08 -0.17,0.06 -0.35,0.14 -0.45,0.2l-0.03 0.02c-0.07,0.04 -0.11,0.06 -0.19,0.12l-0.33 0.21 -0.46 0.46c-0.07,0.09 -0.14,0.2 -0.21,0.3l-0.1 0.13c-0.14,0.2 -0.26,0.48 -0.34,0.78 -0.09,0.32 -0.15,0.67 -0.15,0.94 0,0.28 0.02,0.55 0.07,0.8 0.05,0.26 0.13,0.51 0.26,0.76 0.14,0.26 0.25,0.45 0.38,0.63 0.13,0.17 0.28,0.33 0.51,0.53 0.1,0.08 0.19,0.14 0.3,0.21 0.44,0.28 0.53,0.34 1.07,0.5l0.03 0c0.1,0.04 0.18,0.06 0.3,0.07l0.12 0.01c0.09,0.01 0.19,0.01 0.25,0.04 0.01,0.27 -0.01,0.29 -0.09,0.37 -0.02,0.02 -0.06,0.06 -0.1,0.11l-0.59 0.83 -0.14 0.21c-0.14,0.22 -0.28,0.45 -0.39,0.67l-0.63 1.49c-0.12,0.43 -0.12,0.43 -0.15,0.68l-0.02 0.21c-0.02,0.1 0,0.25 0.03,0.4 0.03,0.2 0.09,0.41 0.13,0.52 0.03,0.08 0.07,0.17 0.11,0.24 0.04,0.08 0.08,0.16 0.13,0.22 0.17,0.22 0.34,0.4 0.54,0.55 0.2,0.15 0.43,0.26 0.7,0.34 0.23,0.07 0.42,0.1 0.61,0.1 0.19,0.01 0.38,-0.02 0.61,-0.07 0.06,-0.02 0.12,-0.04 0.19,-0.06l0.07 -0.03c0.15,-0.06 0.36,-0.18 0.54,-0.31 0.17,-0.12 0.31,-0.25 0.38,-0.35l0.15 -0.24c0.17,-0.25 0.24,-0.35 0.34,-0.88 0.06,-0.31 0.03,-0.66 -0.05,-0.99 -0.08,-0.33 -0.2,-0.66 -0.31,-0.95 -0.12,-0.28 -0.27,-0.56 -0.4,-0.84 -0.13,-0.26 -0.22,-0.41 -0.32,-0.56 -0.06,-0.1 -0.12,-0.19 -0.2,-0.33l-0.44 -0.61c-0.12,-0.15 -0.2,-0.24 -0.26,-0.29 -0.13,-0.14 -0.13,-0.15 -0.15,-0.44 0.4,0 0.66,-0.07 0.98,-0.17l0.02 0c0.2,-0.06 0.43,-0.18 0.66,-0.31 0.22,-0.14 0.44,-0.3 0.58,-0.45l0.07 -0.07c0.14,-0.14 0.29,-0.28 0.38,-0.45l0.24 -0.37c0.25,-0.45 0.38,-0.93 0.4,-1.42 0.03,-0.51 -0.06,-1.03 -0.25,-1.51l-0.05 -0.14 -0.22 -0.39 -0.06 -0.08c-0.04,-0.06 -0.07,-0.1 -0.11,-0.17 -0.07,-0.13 -0.19,-0.26 -0.32,-0.39 -0.16,-0.15 -0.34,-0.29 -0.49,-0.39 -0.15,-0.1 -0.39,-0.23 -0.63,-0.33 -0.18,-0.07 -0.37,-0.13 -0.51,-0.14 0.04,-0.13 0.04,-0.26 0.02,-0.39 -0.02,-0.13 -0.07,-0.25 -0.15,-0.35 -0.06,-0.09 -0.14,-0.16 -0.24,-0.22 -0.1,-0.05 -0.22,-0.09 -0.37,-0.11 -0.07,-0.01 -0.16,0 -0.25,0.02 -0.11,0.02 -0.22,0.07 -0.28,0.1 -0.13,0.08 -0.25,0.19 -0.32,0.33 -0.06,0.12 -0.09,0.27 -0.07,0.44zm0.01 0.17l-0.01 -0.17c-0.02,-0.17 0.01,-0.32 0.07,-0.44 0.07,-0.14 0.19,-0.25 0.32,-0.33 0.06,-0.04 0.17,-0.08 0.28,-0.11 0.09,-0.02 0.18,-0.03 0.25,-0.02 0.15,0.03 0.27,0.07 0.37,0.12 0.1,0.06 0.18,0.13 0.24,0.22 0.08,0.1 0.13,0.22 0.15,0.35 0.03,0.13 0.02,0.26 -0.01,0.38 0.14,0.02 0.32,0.07 0.5,0.15 0.24,0.1 0.48,0.23 0.63,0.33 0.15,0.1 0.33,0.24 0.49,0.39 0.13,0.13 0.25,0.26 0.32,0.39 0.05,0.07 0.08,0.11 0.11,0.16l0.06 0.08c0.06,0.12 0.23,0.42 0.22,0.4l0.06 0.14c0.18,0.48 0.27,1 0.24,1.51 -0.02,0.49 -0.15,0.97 -0.39,1.42 -0.08,0.12 -0.16,0.24 -0.24,0.37 -0.1,0.17 -0.25,0.32 -0.38,0.45l-0.07 0.07c-0.15,0.15 -0.36,0.31 -0.59,0.45 -0.22,0.14 -0.46,0.25 -0.66,0.31l-0.01 0c-0.33,0.1 -0.59,0.18 -0.99,0.17 0.02,0.29 0.02,0.29 0.15,0.43 0.06,0.06 0.14,0.15 0.26,0.29l0.44 0.61 0.2 0.34c0.1,0.15 0.19,0.29 0.32,0.56 0.14,0.28 0.28,0.56 0.4,0.84 0.11,0.29 0.23,0.61 0.31,0.95 0.08,0.33 0.12,0.68 0.06,1 -0.1,0.52 -0.17,0.62 -0.34,0.88l-0.16 0.23c-0.07,0.11 -0.21,0.23 -0.37,0.35 -0.19,0.13 -0.4,0.25 -0.55,0.31l-0.07 0.03c-0.07,0.02 -0.13,0.05 -0.19,0.06 -0.23,0.06 -0.42,0.08 -0.61,0.08 -0.19,-0.01 -0.38,-0.04 -0.61,-0.11 -0.27,-0.08 -0.5,-0.19 -0.7,-0.34 -0.2,-0.15 -0.37,-0.33 -0.54,-0.55 -0.05,-0.06 -0.1,-0.14 -0.14,-0.22 -0.04,-0.07 -0.07,-0.16 -0.1,-0.24 -0.05,-0.11 -0.1,-0.32 -0.14,-0.52 -0.03,-0.15 -0.04,-0.3 -0.03,-0.4l0.03 -0.21c0.03,-0.25 0.03,-0.25 0.14,-0.68l0.64 -1.49c0.11,-0.22 0.25,-0.45 0.39,-0.67l0.14 -0.21 0.59 -0.83c0.04,-0.05 0.07,-0.09 0.1,-0.12 0.08,-0.07 0.09,-0.09 0.09,-0.36 -0.07,-0.02 -0.16,-0.03 -0.25,-0.03l-0.12 -0.01c-0.12,-0.02 -0.2,-0.04 -0.31,-0.07l-0.02 -0.01c-0.55,-0.16 -0.63,-0.21 -1.07,-0.49 -0.12,-0.08 -0.2,-0.14 -0.3,-0.22 -0.23,-0.2 -0.39,-0.36 -0.52,-0.53 -0.13,-0.18 -0.24,-0.37 -0.37,-0.63 -0.13,-0.25 -0.21,-0.5 -0.26,-0.76 -0.05,-0.25 -0.07,-0.52 -0.07,-0.8 0,-0.27 0.05,-0.62 0.15,-0.94 0.08,-0.3 0.2,-0.58 0.34,-0.78l0.1 -0.13c0.06,-0.1 0.14,-0.21 0.21,-0.3l0.46 -0.46 0.32 -0.22c0.09,-0.05 0.13,-0.08 0.2,-0.12l0.03 -0.01c0.1,-0.06 0.28,-0.14 0.45,-0.2 0.14,-0.05 0.28,-0.08 0.36,-0.09zm-8.09 -0.04c-0.05,0.06 -0.13,0.08 -0.21,0.1l-0.08 0.02c-0.19,0.06 -0.37,0.14 -0.55,0.24 -0.17,0.09 -0.33,0.2 -0.48,0.32 -0.11,0.09 -0.22,0.19 -0.33,0.29 -0.1,0.1 -0.19,0.2 -0.27,0.3l-0.16 0.24 -0.19 0.33c-0.03,0.05 -0.06,0.1 -0.09,0.17l-0.05 0.14c-0.11,0.24 -0.17,0.5 -0.21,0.75 -0.03,0.26 -0.03,0.54 0,0.83 0.03,0.31 0.08,0.56 0.16,0.79 0.08,0.23 0.19,0.44 0.34,0.68 0.19,0.29 0.4,0.55 0.65,0.76 0.24,0.22 0.52,0.4 0.85,0.55 0.19,0.09 0.42,0.18 0.66,0.24 0.19,0.05 0.4,0.08 0.6,0.08 0,0.32 -0.01,0.34 -0.18,0.51l-0.17 0.2 -0.08 0.11 -0.35 0.51c-0.23,0.39 -0.36,0.59 -0.46,0.79 -0.11,0.2 -0.21,0.42 -0.41,0.84 -0.2,0.42 -0.37,0.91 -0.42,1.39 -0.05,0.4 -0.02,0.8 0.12,1.16l0.08 0.18c0.02,0.06 0.05,0.11 0.08,0.15 0.04,0.06 0.08,0.11 0.11,0.16 0.05,0.07 0.1,0.14 0.16,0.2 0.06,0.07 0.13,0.13 0.2,0.18 0.04,0.03 0.05,0.05 0.06,0.06 0.01,0.01 0.02,0.03 0.07,0.05 0.45,0.31 0.93,0.46 1.4,0.45 0.46,0 0.92,-0.16 1.36,-0.47 0.06,-0.05 0.12,-0.11 0.18,-0.16l0.12 -0.11c0.03,-0.03 0.06,-0.05 0.09,-0.09l0.07 -0.1c0.05,-0.08 0.11,-0.17 0.17,-0.27 0.05,-0.08 0.09,-0.18 0.13,-0.27l0 -0.01c0.08,-0.21 0.12,-0.46 0.13,-0.71 0.01,-0.28 -0.03,-0.56 -0.08,-0.8 -0.03,-0.12 -0.08,-0.25 -0.11,-0.35l-0.01 -0.03c-0.04,-0.15 -0.11,-0.3 -0.17,-0.44l-0.11 -0.28c-0.11,-0.29 -0.27,-0.56 -0.42,-0.83l-0.18 -0.32 -0.1 -0.15c-0.12,-0.2 -0.27,-0.42 -0.43,-0.64 -0.13,-0.18 -0.28,-0.36 -0.42,-0.51l-0.07 -0.07c-0.03,-0.03 -0.05,-0.05 -0.05,-0.07 -0.01,-0.03 -0.01,-0.05 -0.01,-0.11l0 -0.15c0.09,0 0.21,0 0.33,-0.02 0.15,-0.02 0.3,-0.05 0.39,-0.07 0.17,-0.05 0.32,-0.1 0.46,-0.15 0.14,-0.06 0.28,-0.13 0.43,-0.22l0.39 -0.26c0.21,-0.16 0.4,-0.36 0.56,-0.57 0.17,-0.22 0.31,-0.45 0.44,-0.68 0.26,-0.49 0.36,-1.06 0.33,-1.63 -0.03,-0.6 -0.21,-1.2 -0.51,-1.68l-0.06 -0.09c-0.03,-0.03 -0.06,-0.07 -0.09,-0.13l-0.03 -0.05 -0.48 -0.52c-0.11,-0.09 -0.23,-0.17 -0.36,-0.25l-0.07 -0.05c-0.12,-0.08 -0.32,-0.18 -0.52,-0.26 -0.19,-0.07 -0.39,-0.13 -0.52,-0.15l0 -0.06c0.02,-0.18 0.03,-0.37 -0.07,-0.54l-0.03 -0.07c-0.02,-0.03 -0.03,-0.06 -0.06,-0.08 -0.04,-0.05 -0.08,-0.09 -0.12,-0.13 -0.04,-0.04 -0.09,-0.07 -0.14,-0.1 -0.16,-0.07 -0.32,-0.1 -0.48,-0.09 -0.15,0.02 -0.3,0.07 -0.43,0.17 -0.08,0.07 -0.14,0.13 -0.19,0.19 -0.05,0.07 -0.08,0.14 -0.1,0.25 -0.01,0.04 -0.03,0.15 -0.03,0.25 0,0.07 0,0.13 0.02,0.16zm-0.21 0.09c0.08,-0.01 0.16,-0.03 0.2,-0.09 -0.01,-0.03 -0.01,-0.09 -0.01,-0.16 0,-0.1 0.01,-0.21 0.02,-0.26 0.02,-0.1 0.06,-0.17 0.11,-0.24 0.05,-0.07 0.11,-0.12 0.19,-0.19 0.13,-0.1 0.28,-0.16 0.43,-0.17 0.16,-0.02 0.32,0.02 0.48,0.09 0.05,0.03 0.1,0.06 0.14,0.1 0.05,0.04 0.09,0.08 0.13,0.12 0.02,0.03 0.03,0.06 0.05,0.09l0.04 0.07c0.1,0.17 0.08,0.36 0.06,0.54l0 0.05c0.14,0.02 0.33,0.08 0.52,0.16 0.2,0.08 0.4,0.17 0.53,0.26l0.07 0.04c0.12,0.08 0.24,0.16 0.35,0.26l0.48 0.52 0.03 0.05c0.03,0.05 0.06,0.09 0.09,0.13l0.06 0.09c0.3,0.48 0.49,1.08 0.52,1.68 0.03,0.57 -0.08,1.15 -0.34,1.63 -0.13,0.24 -0.27,0.47 -0.43,0.68 -0.17,0.21 -0.35,0.41 -0.57,0.57l-0.39 0.27c-0.15,0.09 -0.29,0.15 -0.43,0.21 -0.14,0.06 -0.29,0.1 -0.46,0.15 -0.09,0.02 -0.24,0.06 -0.39,0.07 -0.12,0.02 -0.24,0.03 -0.33,0.02l0 0.15c0,0.05 0,0.08 0.01,0.1 0.01,0.03 0.02,0.04 0.06,0.07l0.07 0.08c0.14,0.15 0.28,0.33 0.41,0.51 0.16,0.21 0.31,0.44 0.44,0.64 0.1,0.15 0.18,0.31 0.27,0.47 0.16,0.27 0.32,0.54 0.43,0.83l0.11 0.27c0.06,0.15 0.12,0.3 0.17,0.45l0.01 0.02c0.03,0.11 0.07,0.24 0.1,0.36 0.06,0.23 0.09,0.52 0.08,0.8 0,0.25 -0.04,0.5 -0.12,0.71l-0.01 0.02c-0.03,0.08 -0.08,0.17 -0.13,0.26 -0.06,0.1 -0.12,0.2 -0.17,0.27l-0.07 0.1c-0.03,0.04 -0.05,0.06 -0.09,0.1l-0.11 0.1c-0.06,0.06 -0.13,0.12 -0.19,0.16 -0.44,0.32 -0.9,0.47 -1.36,0.48 -0.47,0 -0.95,-0.15 -1.41,-0.45 -0.04,-0.03 -0.05,-0.04 -0.06,-0.06 -0.01,-0.01 -0.02,-0.03 -0.06,-0.06 -0.08,-0.05 -0.14,-0.11 -0.2,-0.17 -0.06,-0.07 -0.12,-0.13 -0.16,-0.21 -0.03,-0.05 -0.08,-0.1 -0.11,-0.15 -0.03,-0.05 -0.06,-0.1 -0.09,-0.16l-0.07 -0.17c-0.15,-0.37 -0.17,-0.77 -0.13,-1.17 0.06,-0.48 0.22,-0.97 0.42,-1.39 0.2,-0.42 0.3,-0.63 0.41,-0.84 0.12,-0.21 0.24,-0.41 0.47,-0.79l0.35 -0.52 0.08 -0.1 0.17 -0.2c0.16,-0.17 0.18,-0.19 0.18,-0.5 -0.2,0 -0.41,-0.04 -0.6,-0.09 -0.24,-0.06 -0.47,-0.15 -0.66,-0.23 -0.33,-0.15 -0.61,-0.34 -0.86,-0.55 -0.24,-0.22 -0.45,-0.47 -0.64,-0.77 -0.15,-0.24 -0.26,-0.45 -0.34,-0.68 -0.08,-0.23 -0.14,-0.48 -0.17,-0.79 -0.03,-0.29 -0.02,-0.57 0.01,-0.83 0.03,-0.26 0.1,-0.51 0.2,-0.75l0.06 -0.14c0.03,-0.07 0.05,-0.12 0.08,-0.17l0.2 -0.34 0.16 -0.23c0.08,-0.1 0.17,-0.2 0.27,-0.3 0.1,-0.1 0.21,-0.2 0.33,-0.3 0.14,-0.12 0.31,-0.22 0.48,-0.32 0.18,-0.09 0.36,-0.17 0.55,-0.23l0.08 -0.03zm6 3.17c0,0.34 0.04,0.68 0.13,0.99 0.08,0.3 0.21,0.58 0.4,0.84 0.09,0.12 0.17,0.23 0.26,0.36 0.06,0.08 0.09,0.12 0.27,0.27 0.09,0.07 0.21,0.15 0.33,0.24 0.14,0.08 0.28,0.17 0.38,0.22 0.16,0.08 0.4,0.18 0.65,0.25 0.2,0.05 0.4,0.09 0.55,0.08l0 -0.22 0.06 -0.03 0.05 -0.03c0.1,-0.05 0.15,-0.03 0.18,0.02 0.02,0.05 0.02,0.15 0.01,0.24l0 0.02c0.17,0.02 0.4,-0.02 0.64,-0.08 0.28,-0.08 0.56,-0.2 0.75,-0.31l0.12 -0.07 0.19 -0.15c0.12,-0.08 0.23,-0.17 0.34,-0.27 0.12,-0.11 0.23,-0.23 0.32,-0.35l0.07 -0.1c0.16,-0.25 0.28,-0.46 0.37,-0.68 0.1,-0.23 0.16,-0.48 0.19,-0.8 0.03,-0.24 0.02,-0.46 0,-0.66 -0.02,-0.21 -0.07,-0.41 -0.13,-0.61 -0.06,-0.2 -0.21,-0.51 -0.39,-0.79 -0.15,-0.23 -0.32,-0.44 -0.47,-0.55 -0.07,-0.04 -0.12,-0.09 -0.17,-0.13 -0.06,-0.06 -0.13,-0.11 -0.23,-0.19 -0.1,-0.07 -0.35,-0.2 -0.58,-0.3 -0.18,-0.07 -0.35,-0.13 -0.43,-0.12l-0.03 0.04c-0.05,0.07 -0.13,0.19 -0.24,0.25 -0.07,0.04 -0.16,0.08 -0.25,0.11 -0.07,0.02 -0.14,0.04 -0.21,0.04 -0.14,-0.01 -0.3,-0.06 -0.43,-0.14 -0.13,-0.08 -0.23,-0.19 -0.27,-0.32 -0.09,0.02 -0.17,0.05 -0.26,0.07l-0.24 0.1c-0.32,0.12 -0.38,0.17 -0.57,0.31l-0.16 0.11c-0.12,0.07 -0.15,0.11 -0.18,0.15 -0.02,0.03 -0.04,0.06 -0.08,0.09 -0.05,0.05 -0.08,0.07 -0.11,0.09 -0.04,0.03 -0.07,0.05 -0.14,0.16l-0.21 0.29c-0.14,0.21 -0.26,0.48 -0.34,0.75 -0.09,0.27 -0.14,0.56 -0.14,0.81zm0.13 0.99c-0.1,-0.31 -0.13,-0.65 -0.13,-0.99 0,-0.25 0.05,-0.54 0.13,-0.81 0.09,-0.27 0.21,-0.54 0.35,-0.75l0.21 -0.3c0.06,-0.11 0.1,-0.13 0.14,-0.15 0.03,-0.02 0.06,-0.04 0.11,-0.09 0.03,-0.04 0.06,-0.06 0.07,-0.09 0.04,-0.04 0.07,-0.08 0.19,-0.16l0.15 -0.1c0.2,-0.14 0.26,-0.19 0.57,-0.32l0.25 -0.09c0.08,-0.03 0.17,-0.05 0.26,-0.07 0.05,0.13 0.15,0.24 0.27,0.31 0.13,0.09 0.29,0.14 0.43,0.14 0.07,0 0.14,-0.01 0.21,-0.03 0.09,-0.03 0.18,-0.08 0.24,-0.11 0.12,-0.06 0.2,-0.19 0.25,-0.25l0.02 -0.04c0.09,-0.01 0.26,0.04 0.44,0.12 0.23,0.09 0.48,0.22 0.58,0.3 0.11,0.07 0.17,0.13 0.23,0.18 0.06,0.05 0.11,0.09 0.18,0.14 0.14,0.1 0.31,0.31 0.46,0.55 0.18,0.28 0.33,0.59 0.39,0.79 0.06,0.2 0.11,0.4 0.13,0.61 0.03,0.2 0.03,0.42 0.01,0.66 -0.04,0.32 -0.1,0.57 -0.19,0.8 -0.1,0.22 -0.22,0.43 -0.37,0.68l-0.07 0.1c-0.1,0.12 -0.21,0.24 -0.33,0.35 -0.1,0.1 -0.22,0.2 -0.34,0.27l-0.19 0.15 -0.12 0.08c-0.19,0.1 -0.47,0.22 -0.75,0.3 -0.24,0.06 -0.47,0.1 -0.64,0.09l0 -0.03c0,-0.09 0.01,-0.19 -0.02,-0.24 -0.02,-0.05 -0.07,-0.06 -0.17,-0.02l-0.05 0.03 -0.06 0.03 0 0.23c-0.15,0 -0.35,-0.03 -0.55,-0.09 -0.25,-0.07 -0.49,-0.16 -0.65,-0.24 -0.11,-0.06 -0.25,-0.14 -0.38,-0.23 -0.13,-0.08 -0.25,-0.17 -0.33,-0.24 -0.18,-0.15 -0.21,-0.19 -0.27,-0.27 -0.1,-0.12 -0.18,-0.23 -0.27,-0.36 -0.18,-0.26 -0.31,-0.54 -0.39,-0.84zm-5.11 3.17c-0.03,0.03 -0.05,0.06 -0.08,0.09l-0.06 0.06 -0.27 0.37c-0.14,0.22 -0.25,0.4 -0.35,0.56 -0.31,0.47 -0.5,0.76 -0.86,1.66 -0.21,0.52 -0.35,1 -0.32,1.46 0.02,0.46 0.21,0.89 0.62,1.29l0.15 0.14 0.21 0.14c0.07,0.04 0.14,0.07 0.21,0.11 0.08,0.03 0.16,0.05 0.23,0.08 0.32,0.09 0.66,0.1 0.98,0.02 0.33,-0.09 0.64,-0.25 0.88,-0.49l0.23 -0.24 0.07 -0.1c0.21,-0.31 0.31,-0.63 0.33,-0.96 0.01,-0.33 -0.05,-0.67 -0.15,-1.03 -0.03,-0.1 -0.07,-0.18 -0.1,-0.27l-0.07 -0.17c-0.05,-0.14 -0.12,-0.29 -0.18,-0.42l-0.01 -0.03c-0.1,-0.21 -0.18,-0.37 -0.26,-0.52 -0.08,-0.15 -0.17,-0.3 -0.28,-0.47l-0.92 -1.28zm-0.08 0.08c0.02,-0.02 0.05,-0.05 0.07,-0.09l0.93 1.29c0.11,0.17 0.2,0.31 0.28,0.47 0.09,0.16 0.17,0.32 0.26,0.52l0.01 0.02c0.07,0.14 0.13,0.28 0.18,0.43l0.07 0.17c0.04,0.09 0.07,0.17 0.1,0.26 0.11,0.37 0.17,0.71 0.15,1.04 -0.02,0.33 -0.11,0.65 -0.33,0.97l-0.07 0.09 -0.22 0.24c-0.25,0.24 -0.56,0.41 -0.89,0.49 -0.32,0.08 -0.66,0.08 -0.98,-0.02 -0.08,-0.02 -0.15,-0.05 -0.23,-0.08 -0.07,-0.03 -0.15,-0.07 -0.21,-0.11l-0.22 -0.13 -0.14 -0.15c-0.42,-0.4 -0.6,-0.83 -0.62,-1.29 -0.03,-0.46 0.1,-0.94 0.31,-1.46 0.37,-0.9 0.55,-1.19 0.86,-1.67 0.11,-0.15 0.22,-0.33 0.36,-0.56l0.27 -0.36 0.06 -0.07zm8.19 -0.08l-1.12 1.64 -0.32 0.64 -0.25 0.6c-0.13,0.33 -0.22,0.69 -0.25,1.04 -0.02,0.35 0.04,0.7 0.21,1.03l0.04 0.07c0.02,0.05 0.04,0.09 0.07,0.13 0.1,0.13 0.23,0.28 0.38,0.41 0.11,0.1 0.23,0.19 0.35,0.24l0.18 0.08c0.19,0.08 0.32,0.15 0.71,0.15 0.11,0 0.2,-0.01 0.28,-0.02 0.09,-0.01 0.16,-0.03 0.25,-0.05 0.09,-0.02 0.2,-0.07 0.31,-0.12 0.12,-0.06 0.24,-0.13 0.32,-0.18l0.46 -0.48 0.03 -0.05c0.07,-0.11 0.13,-0.19 0.19,-0.35 0.25,-0.57 0.08,-1.19 -0.07,-1.71l-0.03 -0.11c-0.04,-0.13 -0.16,-0.41 -0.29,-0.69 -0.16,-0.34 -0.34,-0.69 -0.42,-0.8l-0.47 -0.77 -0.06 -0.06c-0.03,-0.03 -0.05,-0.07 -0.08,-0.12l-0.04 -0.05c-0.03,-0.05 -0.04,-0.07 -0.09,-0.13l-0.04 -0.05c-0.08,-0.11 -0.15,-0.2 -0.25,-0.29zm-1.12 1.64l1.12 -1.65c0.1,0.1 0.17,0.19 0.26,0.3l0.03 0.04c0.05,0.07 0.06,0.09 0.1,0.14l0.03 0.05c0.03,0.05 0.06,0.08 0.09,0.12l0.05 0.06 0.48 0.76c0.07,0.12 0.25,0.47 0.41,0.81 0.13,0.28 0.26,0.56 0.29,0.69l0.03 0.11c0.15,0.52 0.33,1.14 0.08,1.72 -0.07,0.15 -0.12,0.23 -0.2,0.34l-0.02 0.05 -0.46 0.48c-0.09,0.06 -0.21,0.13 -0.33,0.18 -0.11,0.05 -0.22,0.1 -0.31,0.12 -0.08,0.03 -0.16,0.04 -0.24,0.05 -0.09,0.02 -0.18,0.02 -0.29,0.02 -0.39,0 -0.52,-0.06 -0.71,-0.15l-0.18 -0.08c-0.12,-0.05 -0.24,-0.13 -0.36,-0.23 -0.14,-0.13 -0.28,-0.29 -0.37,-0.42 -0.04,-0.04 -0.06,-0.08 -0.08,-0.13l-0.03 -0.07c-0.18,-0.33 -0.23,-0.68 -0.21,-1.03 0.02,-0.35 0.12,-0.71 0.25,-1.04l0.25 -0.6 0.32 -0.64zm-6.71 -9.1c-0.06,-0.06 -0.06,-0.14 -0.07,-0.22 0,-0.07 0,-0.14 -0.05,-0.19 -0.02,-0.02 -0.1,-0.06 -0.18,-0.1 -0.07,-0.04 -0.14,-0.07 -0.17,-0.1 -0.03,0 -0.07,0.02 -0.1,0.04 -0.07,0.03 -0.13,0.1 -0.18,0.17 -0.04,0.08 -0.07,0.17 -0.07,0.26 0,0.05 0.01,0.11 0.04,0.16 0.13,-0.05 0.38,-0.04 0.59,-0.03l0.19 0.01zm-0.06 -0.22c0,0.08 0,0.16 0.07,0.22l0.09 0c0.05,0 0.07,0 0.14,0.02l0 -0.03c0.02,-0.09 0.05,-0.37 -0.14,-0.52 -0.07,-0.04 -0.21,-0.11 -0.34,-0.13 -0.08,-0.01 -0.17,0 -0.22,0.05 0.02,0.02 0.09,0.06 0.16,0.1 0.08,0.04 0.16,0.08 0.18,0.1 0.05,0.05 0.05,0.12 0.06,0.19zm-0.52 -0.36c0.04,-0.02 0.08,-0.03 0.11,-0.03 0.06,-0.06 0.15,-0.07 0.24,-0.05 0.13,0.01 0.26,0.08 0.33,0.13 0.2,0.15 0.16,0.43 0.15,0.53l-0.01 0.03c-0.07,-0.03 -0.09,-0.03 -0.14,-0.03l-0.29 0c-0.21,-0.01 -0.46,-0.03 -0.59,0.02 -0.03,-0.05 -0.05,-0.11 -0.05,-0.16 0,-0.09 0.04,-0.18 0.08,-0.26 0.05,-0.07 0.11,-0.14 0.17,-0.18zm8.14 0.03c0.02,0.03 0.06,0.04 0.1,0.05l0.08 0.02 0.08 0.05c0.03,0.01 0.05,0.03 0.07,0.06 0.08,0.09 0.08,0.15 0.08,0.22 0,0.04 0,0.08 0.02,0.13l0.13 0.01c0.09,0.01 0.19,0.03 0.23,0.02 0.02,-0.04 0.03,-0.1 0.03,-0.15 0,-0.1 -0.03,-0.2 -0.08,-0.29 -0.06,-0.09 -0.15,-0.16 -0.26,-0.2 -0.05,-0.02 -0.12,-0.04 -0.18,-0.04 -0.07,0 -0.13,0.01 -0.18,0.03 -0.05,0.02 -0.09,0.05 -0.12,0.09zm0.1 0.05c-0.04,0 -0.08,-0.01 -0.11,-0.05 -0.06,0.02 -0.11,0.06 -0.15,0.11 -0.05,0.07 -0.08,0.16 -0.09,0.24 -0.02,0.09 -0.01,0.14 0.01,0.17 0.02,0.03 0.07,0.03 0.14,0.03l0.17 -0.01c0.07,-0.01 0.13,-0.02 0.36,-0.01 -0.02,-0.05 -0.02,-0.09 -0.02,-0.13 0,-0.07 -0.01,-0.13 -0.08,-0.22 -0.02,-0.03 -0.05,-0.05 -0.07,-0.06l-0.09 -0.04 -0.07 -0.03zm0.33 0.48c-0.23,0 -0.29,0.01 -0.36,0.01l-0.17 0.01c-0.07,0.01 -0.12,0 -0.14,-0.03 -0.03,-0.02 -0.03,-0.08 -0.02,-0.17 0.02,-0.08 0.04,-0.17 0.09,-0.24 0.04,-0.06 0.1,-0.1 0.16,-0.11 0.04,-0.04 0.08,-0.07 0.13,-0.09 0.05,-0.02 0.11,-0.03 0.18,-0.03 0.06,0 0.13,0.01 0.19,0.04 0.1,0.04 0.19,0.11 0.25,0.2 0.06,0.09 0.09,0.19 0.09,0.29 -0.01,0.05 -0.01,0.11 -0.03,0.16 -0.05,0 -0.15,-0.01 -0.24,-0.02l-0.13 -0.02zm-0.53 0.32l0.05 0.1 0.16 0.08c0.04,0.02 0.06,0.03 0.14,0.03l0.05 0c0.06,-0.01 0.15,-0.03 0.22,-0.07 0.06,-0.03 0.12,-0.07 0.12,-0.11l0 -0.01c-0.09,-0.04 -0.38,-0.03 -0.59,-0.03l-0.15 0.01zm0.02 0.06l-0.02 -0.06 0.15 -0.01c0.21,-0.01 0.5,-0.02 0.59,0.03l0 0.01c0,0.04 -0.05,0.09 -0.12,0.12 -0.07,0.03 -0.15,0.05 -0.22,0.06l-0.05 0.01c-0.08,-0.01 -0.1,-0.02 -0.14,-0.04l-0.16 -0.08 -0.03 -0.04zm-8.12 -0.04l0.18 0.15 0.01 0c0.11,0.04 0.21,0.04 0.31,0.01 0.1,-0.03 0.18,-0.09 0.24,-0.18l-0.1 -0.01c-0.1,-0.01 -0.2,-0.01 -0.29,-0.01l-0.08 0.01c-0.09,0.02 -0.22,0.03 -0.27,0.03zm0.18 0.15l-0.19 -0.16 0.01 0c0.04,0.01 0.17,-0.01 0.27,-0.02l0.08 -0.01c0.09,-0.01 0.19,0 0.29,0.01l0.1 0.01c-0.05,0.09 -0.14,0.16 -0.24,0.19 -0.1,0.03 -0.2,0.03 -0.31,-0.01l-0.01 -0.01z"/>
 </g>
</svg>
