<svg xmlns="http://www.w3.org/2000/svg" version="1.1" xmlns:xlink="http://www.w3.org/1999/xlink" width="512"
    height="512" x="0" y="0" viewBox="0 0 512 512" style="enable-background:new 0 0 512 512" xml:space="preserve">
    <style>
        path { fill: #000;} /* Default (light mode) */
        @media (prefers-color-scheme: dark) {
        path { fill: #ffffff; }
        }
    </style>
    <g transform="matrix(0.6,0,0,0.6,102.38897399902345,102.48820190429689)">
        <path
            d="M150.587 341.359c-47.066 0-85.358-38.292-85.358-85.359 4.689-113.24 166.046-113.207 170.717 0 0 47.067-38.292 85.359-85.36 85.359zm0-155.718c-38.796 0-70.358 31.563-70.358 70.359 3.864 93.341 136.866 93.313 140.717 0 0-38.796-31.563-70.359-70.36-70.359zM361.413 341.359c-47.067 0-85.36-38.292-85.36-85.359 4.69-113.24 166.047-113.208 170.719 0 0 47.067-38.293 85.359-85.359 85.359zm0-155.718c-38.796 0-70.36 31.563-70.36 70.359 3.866 93.34 136.868 93.314 140.719 0 0-38.796-31.563-70.359-70.359-70.359z"
             opacity="1"></path>
        <path
            d="M221.584 231.499c-5.1.087-8.927-5.353-7.023-10.13 14.571-38.216 68.339-38.334 82.877-.003a7.5 7.5 0 0 1-4.391 9.654 7.499 7.499 0 0 1-9.655-4.392c-4.382-11.694-15.607-19.367-27.986-19.134-11.835.238-22.604 7.927-26.797 19.131a7.504 7.504 0 0 1-7.025 4.874zM451.667 231.497h-19.256a7.5 7.5 0 1 1 0-15h19.256c9.923.34 9.93 14.657 0 15zM79.589 231.497H60.333a7.5 7.5 0 1 1 0-15h19.256c9.923.34 9.93 14.657 0 15zM181.952 223.682a9.475 9.475 0 0 1-13.056 3.015c-10.394-7.083-.878-22.306 10.041-16.07a9.474 9.474 0 0 1 3.015 13.055zM108.353 251.1c-4.905.065-8.67-4.912-7.199-9.62 5.172-17.571 19.439-31.191 37.233-35.543a7.498 7.498 0 0 1 9.067 5.503 7.5 7.5 0 0 1-5.503 9.067c-12.62 3.087-22.74 12.746-26.406 25.208a7.504 7.504 0 0 1-7.193 5.385zM319.178 251.1c-4.905.066-8.67-4.912-7.197-9.62 5.171-17.572 19.438-31.191 37.232-35.543a7.498 7.498 0 0 1 9.067 5.503 7.5 7.5 0 0 1-5.503 9.067c-12.62 3.087-22.739 12.746-26.408 25.208a7.503 7.503 0 0 1-7.191 5.385z"
             opacity="1"></path>
    </g>
</svg>