<?xml version="1.0" encoding="UTF-8"?>
<!DOCTYPE svg PUBLIC "-//W3C//DTD SVG 1.1//EN" "http://www.w3.org/Graphics/SVG/1.1/DTD/svg11.dtd">
<!-- Creator: CorelDRAW -->
<svg xmlns="http://www.w3.org/2000/svg" xml:space="preserve" width="76px" height="76px" version="1.1" style="shape-rendering:geometricPrecision; text-rendering:geometricPrecision; image-rendering:optimizeQuality; fill-rule:evenodd; clip-rule:evenodd"
viewBox="0 0 2.95 2.94"
 xmlns:xlink="http://www.w3.org/1999/xlink"
 xmlns:xodm="http://www.corel.com/coreldraw/odm/2003">
 <defs>
  <style type="text/css">
   <![CDATA[
    .fil0 {fill:none}
    .fil1 {fill:#373435}
   ]]>
  </style>
 </defs>
 <g id="Layer_x0020_1">
  <metadata id="CorelCorpID_0Corel-Layer"/>
  <rect class="fil0" width="2.95" height="2.94" rx="0.41" ry="0.41"/>
  <path class="fil1" d="M0.64 1.31c-0.02,0 -0.04,0 -0.06,0 -0.02,0 -0.03,0 -0.02,0.03 0.01,0.01 0.04,0.01 0.07,0.01 -0.02,0.1 -0.02,0.18 0.04,0.28 0.01,0.03 0.03,0.05 0.04,0.07 0.03,0.03 0.08,0.06 0.14,0.09 0.11,0.05 0.27,0.02 0.36,-0.06 0.01,-0.01 0.01,-0.01 0.01,-0.01 0.03,-0.02 0.07,-0.08 0.09,-0.12 0.03,-0.06 0.04,-0.13 0.03,-0.21 0,-0.02 -0.01,-0.01 0,-0.02 0.07,-0.07 0.19,-0.06 0.25,0 0.01,0.01 0.01,0.02 0,0.04 -0.02,0.17 0.09,0.36 0.29,0.4 0.12,0.02 0.22,-0.01 0.31,-0.08 0.01,-0.01 0.01,-0.01 0.02,-0.02 0.03,-0.03 0.03,-0.04 0.06,-0.08 0.01,-0.02 0.02,-0.05 0.03,-0.08 0.03,-0.1 0.01,-0.13 0,-0.2 0.05,-0.01 0.09,0.01 0.09,-0.03 -0.01,-0.02 -0.06,0 -0.1,-0.01 -0.02,-0.03 -0.03,-0.05 -0.05,-0.08 -0.03,-0.02 -0.05,-0.04 -0.08,-0.05 -0.14,-0.07 -0.31,-0.07 -0.43,0.01 -0.06,0.04 -0.1,0.09 -0.12,0.15l-0.03 -0.02c-0.01,-0.01 -0.02,-0.01 -0.03,-0.02 -0.05,-0.02 -0.12,-0.02 -0.17,0 -0.03,0.02 -0.04,0.04 -0.06,0.04 -0.03,-0.07 -0.07,-0.11 -0.12,-0.15 -0.12,-0.08 -0.29,-0.08 -0.42,-0.01 -0.05,0.02 -0.09,0.05 -0.11,0.09 -0.01,0.01 -0.01,0.01 -0.02,0.02l-0.01 0.02zm1.25 -0.15c-0.04,0.01 -0.09,0.02 -0.12,0.04 -0.05,0.03 -0.09,0.07 -0.12,0.12 -0.01,0.02 -0.01,0.04 -0.02,0.06 -0.03,0.12 0.02,0.28 0.12,0.34 0.11,0.07 0.26,0.09 0.38,0.02 0.03,-0.02 0.07,-0.05 0.09,-0.08 0.04,-0.07 0.07,-0.14 0.06,-0.25 -0.01,-0.2 -0.21,-0.27 -0.39,-0.25zm-0.96 0c-0.1,0.01 -0.17,0.05 -0.22,0.1 -0.11,0.12 -0.07,0.35 0.06,0.45 0.14,0.11 0.34,0.1 0.45,-0.03 0.09,-0.1 0.12,-0.26 0.05,-0.38 -0.07,-0.11 -0.21,-0.16 -0.34,-0.14z"/>
 </g>
</svg>
