<?xml version="1.0" encoding="UTF-8"?>
<!DOCTYPE svg PUBLIC "-//W3C//DTD SVG 1.1//EN" "http://www.w3.org/Graphics/SVG/1.1/DTD/svg11.dtd">
<!-- Creator: CorelDRAW -->
<svg xmlns="http://www.w3.org/2000/svg" xml:space="preserve" width="76px" height="76px" version="1.1" style="shape-rendering:geometricPrecision; text-rendering:geometricPrecision; image-rendering:optimizeQuality; fill-rule:evenodd; clip-rule:evenodd"
viewBox="0 0 6.54 6.53"
 xmlns:xlink="http://www.w3.org/1999/xlink"
 xmlns:xodm="http://www.corel.com/coreldraw/odm/2003">
 <defs>
 </defs>
 <g id="Layer_x0020_1">
  <metadata id="CorelCorpID_0Corel-Layer"/>
  <rect fill="none" width="6.54" height="6.53" rx="0.92" ry="0.92"/>
  <path fill="#000000" stroke="black" stroke-width="0.01" stroke-miterlimit="22.9256" d="M1.42 2.92c-0.04,0 -0.08,0 -0.12,0 -0.05,0 -0.07,-0.01 -0.06,0.05 0.03,0.02 0.1,0.02 0.15,0.02 -0.03,0.24 -0.04,0.4 0.09,0.63 0.03,0.06 0.06,0.1 0.1,0.15 0.06,0.08 0.18,0.15 0.31,0.2 0.25,0.11 0.61,0.05 0.8,-0.13 0.01,-0.01 0.01,-0.01 0.02,-0.02 0.07,-0.06 0.15,-0.17 0.19,-0.26 0.07,-0.14 0.09,-0.3 0.07,-0.48 -0.01,-0.03 -0.01,-0.03 0.01,-0.04 0.15,-0.15 0.43,-0.14 0.55,0 0.03,0.03 0.01,0.05 0.01,0.09 -0.06,0.39 0.2,0.81 0.64,0.88 0.26,0.04 0.49,-0.02 0.69,-0.18 0.01,-0.01 0.01,-0.01 0.03,-0.03 0.06,-0.07 0.08,-0.09 0.14,-0.18 0.02,-0.05 0.05,-0.12 0.07,-0.18 0.06,-0.22 0.02,-0.28 0,-0.45 0.1,-0.01 0.21,0.02 0.19,-0.05 -0.01,-0.04 -0.13,-0.01 -0.21,-0.02 -0.05,-0.08 -0.07,-0.13 -0.13,-0.18 -0.05,-0.05 -0.09,-0.09 -0.17,-0.13 -0.3,-0.14 -0.67,-0.15 -0.95,0.04 -0.12,0.08 -0.22,0.2 -0.27,0.34l-0.06 -0.05c-0.02,-0.02 -0.04,-0.03 -0.07,-0.05 -0.1,-0.05 -0.26,-0.04 -0.37,0 -0.06,0.03 -0.11,0.08 -0.13,0.09 -0.07,-0.15 -0.16,-0.26 -0.27,-0.33 -0.28,-0.19 -0.65,-0.19 -0.95,-0.03 -0.1,0.05 -0.18,0.11 -0.24,0.2 -0.02,0.02 -0.02,0.03 -0.03,0.04l-0.03 0.06zm2.79 -0.34c-0.09,0.01 -0.21,0.05 -0.28,0.09 -0.11,0.07 -0.2,0.14 -0.26,0.26 -0.02,0.05 -0.04,0.08 -0.05,0.13 -0.07,0.27 0.04,0.62 0.28,0.77 0.24,0.15 0.57,0.18 0.83,0.02 0.06,-0.04 0.15,-0.1 0.19,-0.17 0.11,-0.16 0.17,-0.3 0.15,-0.55 -0.03,-0.43 -0.48,-0.6 -0.86,-0.55zm-2.14 0c-0.22,0.03 -0.39,0.12 -0.5,0.22 -0.24,0.26 -0.15,0.78 0.15,1.01 0.3,0.22 0.74,0.2 1,-0.08 0.2,-0.22 0.26,-0.57 0.1,-0.84 -0.15,-0.25 -0.46,-0.35 -0.75,-0.31z"/>
 </g>
</svg>
