<?xml version="1.0" encoding="UTF-8"?>
<!DOCTYPE svg PUBLIC "-//W3C//DTD SVG 1.1//EN" "http://www.w3.org/Graphics/SVG/1.1/DTD/svg11.dtd">
<!-- Creator: CorelDRAW -->
<svg xmlns="http://www.w3.org/2000/svg" xml:space="preserve" width="76px" height="76px" version="1.1" style="shape-rendering:geometricPrecision; text-rendering:geometricPrecision; image-rendering:optimizeQuality; fill-rule:evenodd; clip-rule:evenodd"
viewBox="0 0 3.81 3.8"
 xmlns:xlink="http://www.w3.org/1999/xlink"
 xmlns:xodm="http://www.corel.com/coreldraw/odm/2003">
 <defs>
  <style type="text/css">
   <![CDATA[
    .str0 {stroke:black;stroke-width:0.01;stroke-miterlimit:22.9256}
    .fil0 {fill:none}
    .fil1 {fill:#373435}
   ]]>
  </style>
 </defs>
 <g id="Layer_x0020_1">
  <metadata id="CorelCorpID_0Corel-Layer"/>
  <rect class="fil0" width="3.81" height="3.8" rx="0.53" ry="0.53"/>
  <path class="fil1 str0" d="M1.52 1.29c-0.13,0.01 -0.29,0.06 -0.35,0.18 -0.02,0.06 -0.03,0.08 -0.04,0.14 -0.04,0.21 -0.08,0.41 -0.11,0.62l-0.07 0.38c-0.01,0.12 0.02,0.01 0,0.16 -0.01,0.03 -0.02,0.06 0.01,0.06 0.05,0.02 0.1,0.03 0.15,0.04 0.08,0.02 0.07,0 0.1,-0.07 0.03,-0.1 0.02,-0.02 0.05,-0.13l0.05 -0.14c0,0.11 -0.03,0.25 0.02,0.34 0.01,0.02 0.02,0.02 0.02,0.05 0,0.2 -0.01,0.18 0.26,0.18l0.73 0c0.13,0 0.12,-0.02 0.12,-0.17 0,-0.07 0.02,-0.03 0.04,-0.11 0.01,-0.06 0.01,-0.22 0,-0.28 0.02,0.05 0.05,0.17 0.07,0.19 0.02,0.03 0.02,0.02 0.03,0.07 0.02,0.07 0.01,0.09 0.1,0.07 0.17,-0.04 0.17,-0.02 0.16,-0.1 0,-0.01 -0.01,-0.06 0,-0.08 0,-0.02 0.01,0.01 0,-0.07 -0.04,-0.23 -0.08,-0.48 -0.12,-0.7 -0.03,-0.14 -0.04,-0.25 -0.07,-0.38 -0.02,-0.06 -0.07,-0.13 -0.12,-0.16 -0.02,-0.02 -0.08,-0.05 -0.12,-0.06 -0.04,-0.01 -0.11,-0.02 -0.15,-0.04 0.01,0 0.04,-0.06 0.04,-0.08 0.02,-0.03 0.02,-0.08 0.02,-0.12 -0.01,-0.08 -0.04,-0.14 -0.08,-0.2 -0.01,-0.01 -0.02,-0.02 -0.03,-0.03 -0.02,-0.04 -0.08,-0.07 -0.11,-0.09 -0.06,-0.04 -0.14,-0.05 -0.21,-0.06 -0.28,-0.01 -0.49,0.26 -0.43,0.49 0.01,0.03 0.03,0.08 0.04,0.1zm0.26 0.6c-0.01,-0.02 0,-0.38 0,-0.43 -0.01,-0.01 -0.05,-0.02 -0.06,-0.02 -0.06,-0.03 -0.1,-0.06 -0.14,-0.09 -0.01,-0.01 -0.01,-0.01 -0.02,-0.02 -0.05,0 -0.15,0.03 -0.19,0.04 -0.16,0.06 -0.18,0.13 -0.2,0.28 -0.03,0.11 -0.18,0.99 -0.18,1 0.01,0.02 0.1,0.03 0.11,0.03 0.02,0.01 0.08,0.03 0.11,0.02l0.1 -0.32c0.01,-0.05 0,-0.09 0.01,-0.14 0,-0.09 0,-0.18 0.01,-0.27 0,-0.04 0,-0.24 0.02,-0.27l0.03 0c0.01,0.03 0,0.16 0,0.2 -0.01,0.14 -0.02,0.29 -0.02,0.43l-0.01 0.43c0.01,0.13 0.04,0.11 0.1,0.11l0.89 0c0.08,0 0.11,0.02 0.12,-0.11 0,-0.03 0,-0.16 -0.01,-0.21 0,-0.07 0,-0.14 0,-0.21 -0.01,-0.14 -0.02,-0.3 -0.02,-0.43 0,-0.05 -0.02,-0.16 -0.01,-0.21 0.05,-0.01 0.04,0.02 0.05,0.1 0,0.04 0,0.09 0.01,0.14 0,0.05 0.01,0.39 0.02,0.42 0.01,0.05 0.1,0.34 0.1,0.34 0.02,0.01 0.08,-0.01 0.11,-0.02 0.03,0 0.08,-0.01 0.1,-0.02 0.01,-0.03 -0.02,-0.21 -0.03,-0.24 -0.01,-0.09 -0.03,-0.16 -0.04,-0.25 -0.03,-0.15 -0.05,-0.32 -0.09,-0.47 -0.01,-0.08 -0.02,-0.17 -0.06,-0.22 -0.04,-0.06 -0.08,-0.08 -0.17,-0.11 -0.02,-0.01 -0.15,-0.05 -0.17,-0.04 -0.01,0 -0.02,0.01 -0.04,0.03l-0.13 0.08c-0.01,0 -0.01,0.01 -0.02,0.01l-0.02 0.01c-0.01,0 -0.01,0 -0.01,0 0,0.12 0,0.27 0,0.4 0,0.02 0,0.04 -0.03,0.04 -0.02,-0.01 -0.01,-0.03 -0.01,-0.05 -0.01,-0.09 0,-0.18 0,-0.27 0,-0.02 0,-0.05 0,-0.07 0,-0.06 -0.01,-0.03 -0.02,-0.05 -0.02,-0.04 0.04,-0.04 0.08,-0.06 0.12,-0.06 0.24,-0.12 0.24,-0.28 0,-0.08 -0.02,-0.15 -0.06,-0.21 -0.02,-0.03 -0.04,-0.04 -0.07,-0.07 -0.13,-0.11 -0.35,-0.12 -0.49,-0.02 -0.15,0.11 -0.21,0.33 -0.1,0.46 0.04,0.04 0.1,0.08 0.15,0.11 0.02,0.01 0.04,0.01 0.05,0.02 0.03,0.01 0.08,0.01 0.06,0.05 -0.01,0.03 -0.01,-0.02 -0.01,0.07l0 0.27c0,0.04 0.02,0.11 -0.04,0.09zm-0.18 0.33c-0.02,0 -0.02,0.04 -0.02,0.06 -0.02,0.08 -0.04,0.18 -0.1,0.23 0,0.01 -0.02,0.02 -0.02,0.03 0,0 -0.05,0.15 0.03,0.22 0.01,0.01 0.01,0.01 0.02,0.01 0.04,0.02 0.28,0.01 0.32,0.01 0.13,0 0.25,0 0.37,0 0.07,0 0.11,0 0.14,-0.04 0.03,-0.05 0.02,-0.11 0.02,-0.17 -0.01,-0.07 -0.02,-0.01 -0.08,-0.11 -0.02,-0.05 -0.03,-0.08 -0.04,-0.14 -0.03,-0.1 -0.01,-0.1 -0.08,-0.1 -0.09,0 -0.53,-0.01 -0.56,0zm0.58 0.04l-0.55 0c-0.01,0.03 -0.02,0.07 -0.02,0.1 -0.01,0.04 -0.03,0.07 -0.04,0.1 -0.05,0.13 -0.08,0.06 -0.08,0.18 0,0.12 0.07,0.1 0.16,0.1l0.51 0c0.1,0 0.16,0.01 0.16,-0.1 -0.01,-0.12 -0.03,-0.05 -0.09,-0.18 -0.04,-0.09 -0.03,-0.15 -0.05,-0.2zm-0.3 -0.83l0 0.04c0.03,0.01 0.03,0 0.05,-0.01l0 -0.03c0.02,-0.01 0.08,-0.06 0.1,-0.08 0.02,-0.02 0.07,-0.06 0.09,-0.08 0.02,-0.03 0.06,-0.05 0.08,-0.13 0.04,-0.18 -0.15,-0.26 -0.3,-0.26 -0.09,0 -0.15,0.02 -0.21,0.06 -0.11,0.07 -0.1,0.2 -0.03,0.3l0.05 0.05c0,0 0,0 0,0.01l0.13 0.1c0.02,0.01 0.02,0.02 0.04,0.03zm0.02 -0.03c0.01,-0.01 0.05,-0.04 0.07,-0.06l0.05 -0.04c0.01,-0.01 0.01,-0.01 0.02,-0.01 0.01,-0.01 0,-0.01 0.01,-0.02 0.02,-0.02 0.02,-0.01 0.05,-0.04 0.02,-0.03 0.03,-0.05 0.05,-0.08 0.05,-0.16 -0.12,-0.22 -0.24,-0.23 -0.08,0 -0.16,0.03 -0.21,0.07 -0.06,0.05 -0.06,0.13 -0.02,0.2 0.03,0.05 0.03,0.03 0.06,0.06l0.13 0.12c0,0 0.01,0 0.01,0.01 0.01,0.01 0.01,0.01 0.02,0.02zm0.52 1.51l-1.03 0c0,0.06 -0.01,0.14 0.02,0.14 0.02,0.01 0.45,0 0.49,0l0.5 0c0.03,0 0.01,-0.06 0.02,-0.14zm-1.43 -0.11c0.04,0 0.12,0.03 0.16,0.03 0.01,-0.02 0.03,-0.07 0.02,-0.08 -0.05,-0.01 -0.13,-0.04 -0.17,-0.04l-0.01 0.09zm1.64 -0.05l0.03 0.08 0.16 -0.03 -0.01 -0.09 -0.18 0.04z"/>
 </g>
</svg>
