<?xml version="1.0" encoding="UTF-8"?>
<!DOCTYPE svg PUBLIC "-//W3C//DTD SVG 1.1//EN" "http://www.w3.org/Graphics/SVG/1.1/DTD/svg11.dtd">
<!-- Creator: CorelDRAW -->
<svg xmlns="http://www.w3.org/2000/svg" xml:space="preserve" width="76px" height="76px" version="1.1" style="shape-rendering:geometricPrecision; text-rendering:geometricPrecision; image-rendering:optimizeQuality; fill-rule:evenodd; clip-rule:evenodd"
viewBox="0 0 9.24 9.23"
 xmlns:xlink="http://www.w3.org/1999/xlink"
 xmlns:xodm="http://www.corel.com/coreldraw/odm/2003">
 <defs>
  <style type="text/css">
   <![CDATA[
    .str0 {stroke:black;stroke-width:0.03;stroke-miterlimit:22.9256}
    .fil0 {fill:none}
    .fil1 {fill:black}
   ]]>
  </style>
 </defs>
 <g id="Layer_x0020_1">
  <metadata id="CorelCorpID_0Corel-Layer"/>
  <rect class="fil0" width="9.24" height="9.23" rx="1.3" ry="1.29"/>
  <path class="fil1 str0" d="M3.7 3.12c-0.32,0.05 -0.72,0.16 -0.86,0.45 -0.06,0.13 -0.08,0.19 -0.11,0.34 -0.09,0.5 -0.19,0.99 -0.26,1.49l-0.16 0.94c-0.04,0.28 0.03,0.02 -0.01,0.37 -0.01,0.08 -0.04,0.15 0.04,0.17 0.1,0.03 0.24,0.05 0.35,0.08 0.2,0.04 0.18,0.02 0.24,-0.17 0.08,-0.25 0.05,-0.04 0.13,-0.3l0.11 -0.34c0.01,0.25 -0.06,0.6 0.06,0.81 0.03,0.06 0.04,0.05 0.04,0.13 -0.01,0.49 -0.03,0.43 0.64,0.43l1.77 0c0.32,0 0.29,-0.05 0.29,-0.42 0,-0.16 0.04,-0.06 0.09,-0.27 0.03,-0.14 0.02,-0.51 0.01,-0.68 0.05,0.12 0.12,0.42 0.17,0.48 0.06,0.07 0.04,0.05 0.07,0.15 0.06,0.18 0.03,0.23 0.23,0.18 0.42,-0.1 0.43,-0.05 0.41,-0.23 0,-0.04 -0.02,-0.16 -0.02,-0.19 0,-0.07 0.03,0 0,-0.19 -0.09,-0.55 -0.18,-1.16 -0.28,-1.7 -0.06,-0.32 -0.1,-0.61 -0.18,-0.92 -0.04,-0.14 -0.16,-0.31 -0.27,-0.39 -0.07,-0.04 -0.22,-0.1 -0.31,-0.13 -0.1,-0.04 -0.27,-0.06 -0.35,-0.1 0.03,-0.02 0.08,-0.15 0.1,-0.2 0.03,-0.08 0.04,-0.2 0.03,-0.29 -0.02,-0.19 -0.09,-0.35 -0.18,-0.48 -0.02,-0.03 -0.05,-0.05 -0.07,-0.08 -0.06,-0.08 -0.19,-0.17 -0.28,-0.22 -0.14,-0.09 -0.33,-0.13 -0.52,-0.13 -0.67,-0.03 -1.18,0.61 -1.03,1.19 0.02,0.06 0.07,0.18 0.11,0.22zm0.63 1.46c-0.03,-0.05 -0.02,-0.91 -0.02,-1.04 -0.02,-0.01 -0.11,-0.04 -0.14,-0.06 -0.14,-0.05 -0.24,-0.14 -0.34,-0.21 -0.03,-0.02 -0.03,-0.02 -0.05,-0.05 -0.12,0 -0.35,0.07 -0.47,0.11 -0.36,0.13 -0.41,0.32 -0.48,0.66 -0.06,0.29 -0.44,2.41 -0.42,2.45 0.01,0.03 0.23,0.07 0.26,0.07 0.06,0.02 0.2,0.06 0.26,0.05l0.24 -0.79c0.02,-0.11 0.02,-0.22 0.02,-0.33 0.01,-0.22 0.02,-0.43 0.03,-0.66 0.01,-0.11 0.01,-0.59 0.05,-0.65l0.07 -0.01c0.04,0.07 0.01,0.39 0,0.49 -0.01,0.33 -0.04,0.7 -0.04,1.03l-0.03 1.04c0.02,0.33 0.11,0.28 0.26,0.28l2.16 0c0.18,0 0.26,0.04 0.28,-0.25 0.01,-0.09 -0.01,-0.4 -0.02,-0.52 -0.01,-0.17 0,-0.35 -0.01,-0.52 -0.01,-0.33 -0.04,-0.72 -0.05,-1.03 0,-0.14 -0.04,-0.4 -0.01,-0.51 0.12,-0.03 0.1,0.04 0.11,0.23 0,0.11 0.01,0.23 0.02,0.34 0,0.13 0.03,0.95 0.05,1.03 0.02,0.11 0.25,0.81 0.26,0.82 0.05,0.03 0.19,-0.02 0.25,-0.04 0.08,-0.02 0.2,-0.03 0.26,-0.06 0.01,-0.06 -0.07,-0.5 -0.09,-0.59 -0.03,-0.2 -0.06,-0.39 -0.09,-0.59 -0.07,-0.38 -0.13,-0.78 -0.21,-1.15 -0.04,-0.18 -0.06,-0.4 -0.16,-0.53 -0.1,-0.15 -0.2,-0.2 -0.41,-0.27 -0.05,-0.02 -0.35,-0.11 -0.41,-0.1 -0.02,0.01 -0.04,0.04 -0.09,0.08l-0.32 0.19c-0.02,0.01 -0.04,0.02 -0.06,0.03l-0.05 0.01c-0.02,0.01 -0.01,0.01 -0.02,0.01 0.01,0.3 0,0.66 0.01,0.97 0,0.05 -0.01,0.1 -0.07,0.09 -0.05,-0.01 -0.04,-0.07 -0.04,-0.12 -0.01,-0.22 0,-0.44 0,-0.65 0,-0.05 0,-0.11 0,-0.16 0,-0.15 0,-0.08 -0.03,-0.13 -0.05,-0.09 0.09,-0.09 0.18,-0.13 0.3,-0.15 0.58,-0.3 0.59,-0.7 0,-0.2 -0.06,-0.36 -0.15,-0.49 -0.06,-0.08 -0.09,-0.12 -0.16,-0.17 -0.32,-0.29 -0.85,-0.31 -1.2,-0.06 -0.37,0.27 -0.51,0.79 -0.24,1.1 0.1,0.12 0.24,0.22 0.37,0.28 0.04,0.02 0.08,0.03 0.12,0.05 0.08,0.03 0.19,0.03 0.15,0.12 -0.03,0.06 -0.03,-0.05 -0.03,0.18l0 0.65c0,0.09 0.03,0.27 -0.09,0.21zm-0.44 0.8c-0.05,0.02 -0.05,0.11 -0.06,0.16 -0.04,0.2 -0.1,0.42 -0.23,0.56 -0.01,0.02 -0.05,0.04 -0.06,0.05 -0.01,0.01 -0.11,0.38 0.07,0.54 0.02,0.02 0.03,0.03 0.06,0.04 0.09,0.03 0.67,0.02 0.77,0.02 0.3,0 0.6,0 0.9,0 0.17,0 0.27,0 0.34,-0.11 0.07,-0.11 0.05,-0.26 0.04,-0.4 -0.02,-0.18 -0.05,-0.02 -0.18,-0.27 -0.06,-0.12 -0.08,-0.2 -0.11,-0.33 -0.06,-0.25 -0.02,-0.26 -0.19,-0.26 -0.22,0 -1.3,-0.02 -1.35,0zm1.39 0.11l-1.33 0c-0.02,0.06 -0.03,0.17 -0.05,0.25 -0.03,0.08 -0.06,0.16 -0.09,0.23 -0.13,0.32 -0.19,0.15 -0.2,0.42 0,0.31 0.18,0.25 0.38,0.25l1.25 0c0.24,0 0.39,0.04 0.38,-0.25 -0.01,-0.28 -0.06,-0.1 -0.2,-0.42 -0.1,-0.21 -0.09,-0.36 -0.14,-0.48zm-0.72 -2.01l0 0.08c0.06,0.04 0.07,0.02 0.12,-0.01l-0.01 -0.08c0.05,-0.02 0.21,-0.15 0.26,-0.2 0.04,-0.04 0.18,-0.14 0.2,-0.18 0.07,-0.09 0.16,-0.14 0.2,-0.32 0.1,-0.45 -0.35,-0.64 -0.72,-0.64 -0.21,0 -0.37,0.06 -0.52,0.16 -0.26,0.17 -0.24,0.47 -0.07,0.71l0.12 0.13c0.01,0.01 0.01,0.01 0.02,0.02l0.3 0.25c0.04,0.03 0.06,0.06 0.1,0.08zm0.05 -0.09c0.03,-0.02 0.13,-0.1 0.16,-0.13l0.13 -0.1c0.02,-0.02 0.02,-0.02 0.04,-0.04 0.02,-0.01 0.02,-0.02 0.04,-0.04 0.04,-0.04 0.04,-0.02 0.11,-0.11 0.05,-0.05 0.09,-0.1 0.12,-0.18 0.13,-0.38 -0.28,-0.54 -0.58,-0.55 -0.2,0 -0.37,0.06 -0.51,0.16 -0.15,0.12 -0.15,0.32 -0.05,0.48 0.08,0.12 0.07,0.08 0.14,0.16l0.32 0.28c0.02,0.01 0.02,0.02 0.04,0.03 0.02,0.02 0.02,0.02 0.04,0.04zm1.26 3.68l-2.5 0c0.01,0.15 -0.03,0.33 0.05,0.34 0.05,0.01 1.09,0 1.2,0l1.19 0c0.09,-0.01 0.04,-0.16 0.06,-0.34zm-3.47 -0.29c0.11,0.02 0.3,0.09 0.39,0.09 0.02,-0.05 0.06,-0.17 0.06,-0.2 -0.12,-0.02 -0.33,-0.1 -0.43,-0.1l-0.02 0.21zm3.99 -0.11l0.06 0.2 0.39 -0.09 -0.02 -0.21 -0.43 0.1z"/>
 </g>
</svg>
