<?xml version="1.0" encoding="UTF-8"?>
<!DOCTYPE svg PUBLIC "-//W3C//DTD SVG 1.1//EN" "http://www.w3.org/Graphics/SVG/1.1/DTD/svg11.dtd">
<!-- Creator: CorelDRAW -->
<svg xmlns="http://www.w3.org/2000/svg" xml:space="preserve" width="76px" height="76px" version="1.1" style="shape-rendering:geometricPrecision; text-rendering:geometricPrecision; image-rendering:optimizeQuality; fill-rule:evenodd; clip-rule:evenodd"
viewBox="0 0 18.18 18.15"
 xmlns:xlink="http://www.w3.org/1999/xlink"
 xmlns:xodm="http://www.corel.com/coreldraw/odm/2003">
 <defs>
  <style type="text/css">
   <![CDATA[
    .fil0 {fill:none}
    .fil1 {fill:#000000}
     @media (prefers-color-scheme: dark) {
        .fil1 { fill: #ffffff; }
    }
   ]]>
  </style>
 </defs>
 <g id="Layer_x0020_1">
  <metadata id="CorelCorpID_0Corel-Layer"/>
  <rect class="fil0" width="18.18" height="18.15" rx="2.55" ry="2.55"/>
  <path class="fil1" d="M9.09 7.34c0.26,0.43 0.48,2.26 0.55,2.83 0.18,1.48 0.38,3.01 0.55,4.49 0.05,0.51 -0.05,0.43 1.28,0.38 0.28,0 0.54,-0.01 0.82,-0.01 0.43,0 0.46,0.04 0.44,-0.39 -0.14,-2.74 -0.16,-5.46 -0.26,-8.18 -0.01,-0.26 -0.09,-3.07 -0.12,-3.25 -0.03,-0.15 -0.15,-0.14 -0.29,-0.14 -1.53,0.02 -3.12,0.01 -4.65,0.01l-1.26 -0.01c-0.42,0 -0.32,0 -0.35,0.9l-0.09 2.44c-0.06,1.09 -0.06,2.19 -0.09,3.28 -0.05,1.61 -0.09,3.29 -0.16,4.9 -0.02,0.57 -0.12,0.4 1.23,0.45 0.27,0.01 0.54,0.02 0.82,0.03 0.44,0.01 0.41,0.05 0.47,-0.38 0.25,-2 0.47,-3.99 0.77,-5.99 0.1,-0.65 0.17,-0.79 0.34,-1.36zm0.1 -1.14c-0.01,0.17 0.01,0.38 0.01,0.55 0.01,0.2 0.07,0.28 0.14,0.44 0.11,0.27 0.19,0.59 0.25,0.91 0.26,1.32 0.38,2.71 0.56,4.05 0.09,0.69 0.19,1.4 0.25,2.08l2 -0.06c0.02,-0.18 -0.11,-4.1 -0.12,-4.37 -0.01,-0.71 -0.04,-1.45 -0.07,-2.17 -0.01,-0.37 -0.02,-0.74 -0.02,-1.11 -0.01,-0.34 -0.01,-0.76 -0.04,-1.09 -0.39,0.01 -0.65,-0.11 -0.93,-0.33 -0.15,-0.13 -0.42,-0.49 -0.45,-0.82l-1.12 0.01c-0.02,0.09 0,0.85 -0.03,1.15 -0.03,0.23 -0.11,0.48 -0.26,0.64 -0.05,0.05 -0.1,0.06 -0.17,0.12zm-3.16 -0.77c-0.05,0.33 -0.03,0.74 -0.06,1.08 -0.02,0.36 -0.02,0.72 -0.02,1.08 -0.02,0.74 -0.04,1.48 -0.06,2.21 -0.04,1.46 -0.12,2.93 -0.13,4.38l1.99 0.05c0.06,-0.07 0.62,-5.16 0.81,-6.08 0.06,-0.31 0.13,-0.63 0.24,-0.9 0.05,-0.14 0.15,-0.26 0.15,-0.42 -0.01,-0.19 -0.02,-0.38 -0.02,-0.58 -0.43,0 -0.35,0 -0.35,-0.79 0,-0.36 0.03,-0.84 -0.01,-1.18l-1.16 -0.01c-0.03,0.07 -0.04,0.17 -0.06,0.25 -0.12,0.31 -0.19,0.37 -0.39,0.57 -0.24,0.23 -0.5,0.32 -0.93,0.34zm2.82 -1.41l1.87 -0.01 -0.03 -0.64 -1.84 0.01 0 0.64zm0 1.96c0.34,0.06 0.46,-0.29 0.5,-0.6 0.04,-0.35 0,-0.74 0.02,-1.1l-0.52 0 0 1.7zm3.3 -0.82l-0.03 -0.89c-0.2,-0.05 -0.81,0.01 -1.07,0 0.01,0.24 0.24,0.54 0.36,0.62 0.24,0.18 0.34,0.26 0.74,0.27zm-6.12 -0.01c0.45,0.1 1.02,-0.37 1.1,-0.87l-1.07 0 -0.03 0.87zm1.41 -1.15l1.13 0.01 0 -0.64 -1.11 0 -0.02 0.63zm3.57 0.01l1.1 -0.01 -0.03 -0.61c-0.09,-0.04 -0.91,-0.03 -1.08,-0.01l0.01 0.63zm-4.93 -0.01l1.07 0.01 0.02 -0.64 -1.06 0 -0.03 0.63zm-0.33 10.75l1.92 0.06c0.04,-0.02 0.03,-0.02 0.05,-0.15 0,-0.06 0.01,-0.11 0.02,-0.17l-1.97 -0.05 -0.02 0.31zm4.68 -0.25l0.04 0.31 1.96 -0.06 -0.01 -0.31 -1.99 0.06zm-1.22 -10.97c-0.06,0.03 -0.07,0 -0.09,0.09 -0.02,0.05 -0.01,0.1 0,0.14 0.03,0.09 0.14,0.15 0.26,0.09 0.18,-0.09 0.08,-0.43 -0.17,-0.32z"/>
 </g>
</svg>
