<svg xmlns="http://www.w3.org/2000/svg" version="1.1" xmlns:xlink="http://www.w3.org/1999/xlink" width="512"
    height="512" x="0" y="0" viewBox="0 0 512 512" style="enable-background:new 0 0 512 512" xml:space="preserve">
    <style>
        path { fill: #000; } /* Default (light mode) */
        @media (prefers-color-scheme: dark) {
        path { fill: #fff; } /* Dark mode */
        }
    </style>
    <g transform="matrix(0.6,0,0,0.6,102.40020141601562,102.39981994628906)">
        <path
            d="M404.395 258.446a7.499 7.499 0 0 0-7.5 7.5v195.58h-24.214c-4.143 0-7.5 3.357-7.5 7.5s3.357 7.5 7.5 7.5h24.214v20.068a.404.404 0 0 1-.404.403h-78.137a.4.4 0 0 1-.397-.34l-3.204-20.132h22.926c4.143 0 7.5-3.357 7.5-7.5s-3.357-7.5-7.5-7.5h-25.314L263.5 154.501V53.949h75.198v33.438c0 30.241 24.603 54.844 54.844 54.844h3.353v88.712c-.001 4.142 3.356 7.5 7.5 7.5s7.5-3.357 7.5-7.5V16.128c0-8.894-7.236-16.129-16.13-16.129L116.154 0c-8.851 0-16.05 7.2-16.05 16.051v480.545c0 8.494 6.91 15.404 15.404 15.404h78.137c7.617 0 14.016-5.46 15.213-12.983L256 202.818l47.142 296.199A15.336 15.336 0 0 0 318.355 512h78.138c8.492 0 15.404-6.909 15.404-15.404v-230.65a7.5 7.5 0 0 0-7.502-7.5zM353.698 15.001h42.067a1.13 1.13 0 0 1 1.129 1.128v22.819h-43.196V15.001zm0 38.948h43.196v73.28h-3.352v.001c-21.97 0-39.843-17.873-39.843-39.843V53.949zm-65.577-38.948h50.576v23.947h-50.576V15.001zm-114.245 0h50.002v23.947h-50.002V15.001zm-58.771 1.05c0-.579.471-1.05 1.049-1.05h42.722v23.947h-43.771V16.051zm0 37.898h43.771v33.438c0 21.97-17.873 39.843-39.842 39.843h-3.928V53.949zm78.938 442.71a.4.4 0 0 1-.397.34h-78.137a.403.403 0 0 1-.403-.403v-20.068h82.142l-3.205 20.131zm5.591-35.133h-84.529V142.232h3.928c30.241 0 54.843-24.604 54.843-54.844V53.949h38.915v76.207c0 7.622 4.441 14.677 11.315 17.972l23.605 11.316-48.077 302.082zm48.865-318.34-17.907-8.583a4.957 4.957 0 0 1-2.799-4.445V53.949h20.706v89.237zm-9.62-104.238V15.001h34.241v23.947h-34.241z"
            opacity="1" data-original="#000000"></path>
    </g>
</svg>