<?xml version="1.0" encoding="UTF-8"?>
<!DOCTYPE svg PUBLIC "-//W3C//DTD SVG 1.1//EN" "http://www.w3.org/Graphics/SVG/1.1/DTD/svg11.dtd">
<!-- Creator: CorelDRAW -->
<svg xmlns="http://www.w3.org/2000/svg" xml:space="preserve" width="76px" height="76px" version="1.1" style="shape-rendering:geometricPrecision; text-rendering:geometricPrecision; image-rendering:optimizeQuality; fill-rule:evenodd; clip-rule:evenodd"
viewBox="0 0 11.1 11.08"
 xmlns:xlink="http://www.w3.org/1999/xlink"
 xmlns:xodm="http://www.corel.com/coreldraw/odm/2003">
 <defs>
  <style type="text/css">
   <![CDATA[
    .fil0 {fill:none}
    .fil1 {fill:#373435}
   ]]>
  </style>
 </defs>
 <g id="Layer_x0020_1">
  <metadata id="CorelCorpID_0Corel-Layer"/>
  <rect class="fil0" width="11.1" height="11.08" rx="1.56" ry="1.55"/>
  <path class="fil1" d="M5.55 4.55c0.15,0.25 0.27,1.29 0.31,1.61 0.11,0.85 0.22,1.73 0.32,2.58 0.03,0.28 -0.03,0.24 0.73,0.22 0.16,-0.01 0.31,-0.01 0.47,-0.01 0.24,0 0.26,0.02 0.25,-0.22 -0.08,-1.58 -0.09,-3.13 -0.15,-4.69 0,-0.15 -0.05,-1.75 -0.07,-1.85 -0.01,-0.09 -0.08,-0.08 -0.16,-0.08 -0.88,0.01 -1.78,0 -2.66,0l-0.72 0c-0.24,0 -0.19,0 -0.2,0.51l-0.06 1.4c-0.03,0.62 -0.03,1.25 -0.05,1.87 -0.02,0.92 -0.05,1.89 -0.09,2.8 -0.01,0.33 -0.07,0.24 0.7,0.26 0.16,0.01 0.32,0.01 0.47,0.02 0.25,0.01 0.24,0.03 0.27,-0.21 0.15,-1.15 0.27,-2.29 0.44,-3.43 0.06,-0.38 0.1,-0.46 0.2,-0.78zm0.06 -0.65c-0.01,0.09 0,0.21 0,0.31 0.01,0.11 0.04,0.16 0.08,0.25 0.07,0.16 0.11,0.34 0.15,0.52 0.15,0.76 0.21,1.55 0.32,2.32 0.05,0.39 0.1,0.8 0.14,1.19l1.14 -0.03c0.01,-0.11 -0.06,-2.35 -0.06,-2.5 -0.01,-0.41 -0.03,-0.84 -0.04,-1.25 -0.01,-0.21 -0.01,-0.42 -0.02,-0.63 0,-0.19 0,-0.44 -0.02,-0.63 -0.22,0.01 -0.37,-0.06 -0.53,-0.19 -0.09,-0.07 -0.24,-0.27 -0.26,-0.47l-0.64 0.01c-0.01,0.05 0,0.49 -0.02,0.66 -0.02,0.13 -0.06,0.27 -0.15,0.36 -0.02,0.03 -0.05,0.04 -0.09,0.08zm-1.81 -0.44c-0.03,0.18 -0.02,0.42 -0.03,0.61 -0.02,0.21 -0.01,0.42 -0.02,0.62 -0.01,0.42 -0.02,0.85 -0.03,1.27 -0.02,0.83 -0.07,1.67 -0.07,2.5l1.13 0.03c0.04,-0.04 0.36,-2.95 0.47,-3.48 0.03,-0.18 0.07,-0.36 0.13,-0.51 0.03,-0.09 0.09,-0.15 0.09,-0.24 0,-0.11 -0.01,-0.22 -0.01,-0.33 -0.25,-0.01 -0.2,-0.01 -0.2,-0.46 0,-0.2 0.01,-0.48 -0.01,-0.67l-0.66 -0.01c-0.02,0.04 -0.02,0.1 -0.04,0.14 -0.06,0.18 -0.11,0.22 -0.22,0.33 -0.13,0.13 -0.29,0.19 -0.53,0.2zm1.61 -0.81l1.07 -0.01 -0.02 -0.36 -1.05 0 0 0.37zm0 1.12c0.2,0.03 0.27,-0.16 0.29,-0.34 0.02,-0.21 0,-0.43 0.01,-0.63l-0.3 0 0 0.97zm1.89 -0.47l-0.02 -0.51c-0.11,-0.03 -0.46,0.01 -0.61,0 0.01,0.14 0.14,0.31 0.21,0.36 0.14,0.1 0.19,0.14 0.42,0.15zm-3.5 0c0.25,0.05 0.58,-0.22 0.63,-0.5l-0.61 -0.01 -0.02 0.51zm0.8 -0.66l0.65 0 0 -0.36 -0.63 0 -0.02 0.36zm2.05 0l0.63 0 -0.02 -0.36c-0.05,-0.02 -0.52,-0.01 -0.62,0l0.01 0.36zm-2.82 0l0.61 0 0.01 -0.36 -0.61 0 -0.01 0.36zm-0.19 6.15l1.1 0.03c0.02,-0.01 0.01,-0.01 0.02,-0.08 0.01,-0.04 0.01,-0.07 0.02,-0.1l-1.13 -0.03 -0.01 0.18zm2.68 -0.15l0.02 0.18 1.12 -0.03 -0.01 -0.18 -1.13 0.03zm-0.7 -6.27c-0.03,0.01 -0.04,0 -0.06,0.05 0,0.03 0,0.06 0.01,0.08 0.01,0.05 0.08,0.08 0.15,0.05 0.1,-0.05 0.04,-0.25 -0.1,-0.18z"/>
 </g>
</svg>
