<?xml version="1.0" encoding="UTF-8"?>
<!DOCTYPE svg PUBLIC "-//W3C//DTD SVG 1.1//EN" "http://www.w3.org/Graphics/SVG/1.1/DTD/svg11.dtd">
<!-- Creator: CorelDRAW -->
<svg xmlns="http://www.w3.org/2000/svg" xml:space="preserve" width="76px" height="76px" version="1.1" style="shape-rendering:geometricPrecision; text-rendering:geometricPrecision; image-rendering:optimizeQuality; fill-rule:evenodd; clip-rule:evenodd"
viewBox="0 0 44.73 44.65"
 xmlns:xlink="http://www.w3.org/1999/xlink"
 xmlns:xodm="http://www.corel.com/coreldraw/odm/2003">
 <defs>
  <style type="text/css">
   <![CDATA[
    .str0 {stroke:black;stroke-width:0.42;stroke-miterlimit:22.9256}
    .fil0 {fill:none}
    .fil1 {fill:black}
   ]]>
  </style>
 </defs>
 <g id="Layer_x0020_1">
  <metadata id="CorelCorpID_0Corel-Layer"/>
  <rect class="fil0" width="44.73" height="44.65" rx="6.27" ry="6.26"/>
  <path class="fil1 str0" d="M22.1 21.34l-0.01 12.45c-1.52,0.02 -4.17,-0.26 -5.08,0.39 -0.3,0.21 -0.65,0.65 -0.8,1.06 -0.13,0.34 -0.13,0.65 -0.13,1.06 0,0.56 -0.08,0.64 0.16,1.07 1.22,0.06 3.98,0.02 5.34,0.01 1.77,-0.01 3.61,-0.05 5.32,-0.01 0.33,0.01 0.94,0.03 1.3,0 0.5,-0.05 0.35,-0.59 0.36,-1.07 0,-0.97 -0.17,-1.43 -0.82,-2.03 -0.18,-0.18 -0.61,-0.41 -0.94,-0.46 -0.37,-0.06 -3.68,-0.03 -4.18,-0.03l-0.02 -12.46c0.58,0.05 1.29,0.01 1.86,0.01 0.63,0 1.28,0.01 1.9,0.01 1.26,-0.01 2.38,-0.03 3.61,-0.01 2.12,0.03 2.46,0.17 1.88,-1.57 -0.32,-0.97 -0.56,-1.98 -0.89,-2.94 -0.34,-0.98 -0.59,-1.97 -0.91,-3.01l-1.37 -4.54c-0.7,-2.31 -0.54,-2.01 -3.88,-2.02l-7 0c-1.31,0.01 -1.37,0.77 -1.65,1.71l-1.81 5.92c-0.04,0.15 -0.07,0.3 -0.11,0.4l-1.42 4.68c-0.2,0.64 -0.42,1.38 0.48,1.38 1.48,0 2.98,-0.03 4.46,0 1.45,0.03 2.91,-0.05 4.35,0zm9.49 -0.53c0.02,-0.2 -0.6,-2.17 -0.72,-2.52l-0.76 -2.54c-0.49,-1.54 -1.04,-3.55 -1.53,-5.04l-0.77 -2.49c-0.24,-0.49 -0.53,-0.42 -1.19,-0.42 -0.56,0 -1.12,0 -1.68,0 -2.21,0 -4.41,-0.01 -6.61,0 -0.97,0 -1.26,-0.16 -1.52,0.76 -0.18,0.61 -0.37,1.2 -0.54,1.77l-3.08 10.15c-0.13,0.45 -0.25,0.34 1.25,0.34l8.1 0c1.49,0 3.06,-0.01 4.47,-0.01 1.46,0 3.13,-0.05 4.58,0zm-14.99 16.06l11.42 -0.03c0.16,-1.19 -0.28,-2.51 -1.51,-2.53 -1.37,-0.02 -2.78,0 -4.16,0 -1.39,0.01 -2.78,-0.01 -4.17,0 -0.34,0 -0.54,0.08 -0.77,0.22 -0.13,0.08 -0.18,0.12 -0.29,0.24 -0.65,0.71 -0.49,1.05 -0.52,2.1z"/>
 </g>
</svg>
