<svg xmlns="http://www.w3.org/2000/svg" version="1.1" xmlns:xlink="http://www.w3.org/1999/xlink" width="512"
    height="512" x="0" y="0" viewBox="0 0 512 512" style="enable-background:new 0 0 512 512" xml:space="preserve">
    <style>
        path { fill: #000; } /* Default (light mode) */
        @media (prefers-color-scheme: dark) {
        path { fill: #fff; } /* Dark mode */
        }
    </style>
    <g transform="matrix(0.6,0,0,0.6,102.4001251220703,102.4)">
        <path
            d="M443.171 257.663 390.022 26.465C386.428 10.883 372.741 0 356.733 0H155.269c-16.11 0-29.805 10.902-33.293 26.469L68.828 257.671c-4.882 21.392 11.314 41.758 33.293 41.758h127.755v145.297H163.38c-14.594 0-26.469 11.876-26.469 26.469V504c0 4.422 3.582 8 8 8h222.177c4.418 0 8-3.579 8-8v-32.804c0-14.594-11.876-26.469-26.469-26.469h-66.495V299.428h71.008v45.164c-11.753 3.482-20.406 14.251-20.406 27.118 0 15.617 12.746 28.328 28.41 28.328s28.406-12.711 28.406-28.328c0-12.869-8.654-23.641-20.41-27.12v-45.162h40.75c21.98 0 38.176-20.365 33.289-41.765zm-84.084 213.532V496H152.911v-24.805c0-5.773 4.696-10.469 10.469-10.469h185.239c5.774 0 10.468 4.696 10.468 10.469zm-113.211-26.469v-145.29h20.246v145.29zm127.665-73.016c0 6.797-5.566 12.329-12.406 12.329-6.843 0-12.411-5.531-12.411-12.329 0-6.843 5.566-12.407 12.411-12.407 6.839 0 12.406 5.564 12.406 12.407zm36.34-88.282h-307.76c-11.714 0-20.288-10.836-17.695-22.187l53.153-231.229C139.431 21.762 146.704 16 155.27 16h201.462c8.512 0 15.789 5.781 17.695 14.054l53.145 231.178c2.601 11.37-5.994 22.196-17.691 22.196z"
            opacity="1"></path>
    </g>
</svg>