<?xml version="1.0" encoding="UTF-8"?>
<!DOCTYPE svg PUBLIC "-//W3C//DTD SVG 1.1//EN" "http://www.w3.org/Graphics/SVG/1.1/DTD/svg11.dtd">
<!-- Creator: CorelDRAW -->
<svg xmlns="http://www.w3.org/2000/svg" xml:space="preserve" width="76px" height="76px" version="1.1" style="shape-rendering:geometricPrecision; text-rendering:geometricPrecision; image-rendering:optimizeQuality; fill-rule:evenodd; clip-rule:evenodd"
viewBox="0 0 51.12 51.03"
 xmlns:xlink="http://www.w3.org/1999/xlink"
 xmlns:xodm="http://www.corel.com/coreldraw/odm/2003">
 <defs>
  <style type="text/css">
   <![CDATA[
    .fil0 {fill:none}
    .fil1 {fill:#373435}
   ]]>
  </style>
 </defs>
 <g id="Layer_x0020_1">
  <metadata id="CorelCorpID_0Corel-Layer"/>
  <rect class="fil0" width="51.12" height="51.03" rx="7.17" ry="7.16"/>
  <path class="fil1" d="M25.26 24.39l-0.02 14.23c-1.73,0.02 -4.76,-0.3 -5.8,0.44 -0.34,0.25 -0.75,0.75 -0.92,1.21 -0.15,0.4 -0.14,0.75 -0.14,1.22 0,0.64 -0.1,0.72 0.18,1.22 1.4,0.07 4.55,0.03 6.11,0.01 2.01,-0.01 4.12,-0.05 6.08,-0.01 0.38,0.01 1.07,0.04 1.48,0 0.57,-0.05 0.4,-0.67 0.41,-1.22 0,-1.11 -0.19,-1.64 -0.93,-2.33 -0.21,-0.19 -0.71,-0.46 -1.07,-0.52 -0.43,-0.07 -4.22,-0.04 -4.79,-0.03l-0.02 -14.24c0.67,0.05 1.47,0.01 2.13,0.01 0.72,0 1.46,0.01 2.17,0 1.44,0 2.72,-0.02 4.13,0 2.41,0.03 2.8,0.19 2.15,-1.8 -0.37,-1.1 -0.65,-2.26 -1.02,-3.36 -0.39,-1.12 -0.68,-2.24 -1.05,-3.44l-1.56 -5.19c-0.8,-2.63 -0.62,-2.29 -4.44,-2.3l-8 0c-1.49,0 -1.56,0.88 -1.89,1.95l-2.06 6.77c-0.05,0.17 -0.08,0.34 -0.12,0.46l-1.63 5.34c-0.23,0.74 -0.48,1.58 0.55,1.58 1.69,0 3.41,-0.03 5.1,0 1.65,0.04 3.32,-0.06 4.97,0zm10.84 -0.6c0.03,-0.24 -0.68,-2.49 -0.81,-2.89l-0.87 -2.9c-0.56,-1.76 -1.19,-4.06 -1.76,-5.76l-0.88 -2.84c-0.27,-0.57 -0.6,-0.49 -1.36,-0.49 -0.64,0 -1.28,0 -1.92,0 -2.52,0.01 -5.04,0 -7.56,0 -1.1,0 -1.43,-0.18 -1.73,0.87 -0.2,0.7 -0.42,1.38 -0.62,2.03l-3.51 11.6c-0.16,0.51 -0.29,0.39 1.43,0.39l9.26 -0.01c1.69,0 3.49,0 5.1,-0.01 1.67,0 3.57,-0.05 5.23,0.01zm-17.13 18.35l13.06 -0.03c0.18,-1.37 -0.32,-2.87 -1.73,-2.9 -1.57,-0.02 -3.17,0 -4.75,0.01 -1.59,0 -3.19,-0.01 -4.77,-0.01 -0.39,0 -0.61,0.1 -0.88,0.26 -0.15,0.09 -0.2,0.13 -0.33,0.27 -0.75,0.81 -0.56,1.2 -0.6,2.4z"/>
 </g>
</svg>
