<svg xmlns="http://www.w3.org/2000/svg" version="1.1" xmlns:xlink="http://www.w3.org/1999/xlink" width="512"
    height="512" x="0" y="0" viewBox="0 0 512 512" style="enable-background:new 0 0 512 512" xml:space="preserve">
    <style>
        path { fill: #000; } /* Default (light mode) */
        @media (prefers-color-scheme: dark) {
        path { fill: #fff; } /* Dark mode */
        }
    </style>
    <g transform="matrix(0.6,0,0,0.6,102.4091796875,102.40080032348632)">
        <path fill-rule="evenodd"
            d="M94.837 57.819c-26.217 9.073-27.464 40.217 0 45.806v15.076c-26.202 9.02-27.459 40.222 0 45.806v15.066c-26.213 9.05-27.466 40.222 0 45.806v14.018c-26.215 9.062-27.466 40.217 0 45.806v15.066c-26.217 9.073-27.464 40.217 0 45.806v15.076c-26.202 9.02-27.459 40.222 0 45.806v15.066c-26.213 9.05-27.466 40.222 0 45.806v18.034c0 5.594 4.536 10.139 10.129 10.139h322.237c5.593 0 10.139-4.545 10.139-10.139V26.141c0-5.594-4.545-10.139-10.139-10.139H104.966c-5.594 0-10.129 4.545-10.129 10.139zm9.796 371.314v56.728c-.091 1.001 322.234-.001 322.57.344 1.095.255-.07-459.85.343-460.066-.263-.657-322.657-.657-322.914-.001v28.851c4.33-.882 9.198-1.459 14.645-1.656 5.391-14.895 27.724-11.252 27.86 4.82-.122 15.993-22.299 19.733-27.801 4.976-5.633.196-10.521.833-14.704 1.802v50.939c4.33-.891 9.198-1.469 14.645-1.665 5.396-14.901 27.723-11.246 27.86 4.83-.121 15.978-22.308 19.728-27.801 4.966-5.633.206-10.521.833-14.704 1.802v50.939c4.33-.892 9.198-1.469 14.645-1.665 5.392-14.887 27.727-11.236 27.86 4.83-.121 15.978-22.308 19.728-27.801 4.966-5.633.206-10.521.833-14.704 1.812v49.881c4.33-.881 9.198-1.469 14.645-1.655 5.385-14.901 27.727-11.247 27.86 4.82-.121 15.976-22.301 19.724-27.801 4.976-5.633.196-10.521.823-14.704 1.802v50.929c4.33-.882 9.198-1.459 14.645-1.656 5.391-14.895 27.724-11.252 27.86 4.82-.122 15.993-22.299 19.734-27.801 4.976-5.633.196-10.521.833-14.704 1.802v50.939c4.33-.891 9.198-1.469 14.645-1.665 5.396-14.901 27.723-11.246 27.86 4.83-.121 15.978-22.308 19.728-27.801 4.966-5.633.206-10.521.833-14.704 1.802v50.939c4.33-.891 9.198-1.469 14.645-1.665 5.392-14.887 27.727-11.236 27.86 4.83-.121 15.978-22.308 19.728-27.801 4.966-5.632.205-10.52.832-14.703 1.811zm-9.796 3.468c-12.776 5.726-14.468 21.393 0 25.234zm37.959-14.792c5.943.03 5.943 9.062 0 9.091-5.957-.028-5.956-9.064 0-9.091zm-37.959-46.09c-12.769 5.744-14.475 21.396 0 25.244zm37.959-14.792c5.939.034 5.947 9.072 0 9.1-5.961-.027-5.952-9.068 0-9.1zm-37.959-46.08c-12.774 5.738-14.465 21.397 0 25.244zm37.959-14.792c5.948.029 5.938 9.074 0 9.1-5.952-.024-5.962-9.073 0-9.1zm-37.959-46.079c-12.766 5.73-14.473 21.397 0 25.234zm37.959-14.792c5.944.03 5.943 9.062 0 9.091-5.957-.029-5.957-9.064 0-9.091zm-37.959-45.032c-12.776 5.726-14.468 21.393 0 25.234zm37.959-14.792c5.943.03 5.943 9.062 0 9.091-5.957-.028-5.956-9.064 0-9.091zm-37.959-46.09c-12.769 5.744-14.475 21.396 0 25.244zm37.959-14.791c5.939.034 5.947 9.072 0 9.1-5.961-.028-5.952-9.069 0-9.1zM94.837 68.398c-12.774 5.738-14.465 21.397 0 25.244zm37.959-14.792c5.948.029 5.938 9.074 0 9.1-5.952-.024-5.962-9.073 0-9.1z"
            clip-rule="evenodd"  opacity="1"></path>
    </g>
</svg>