<?xml version="1.0" encoding="UTF-8"?>
<!DOCTYPE svg PUBLIC "-//W3C//DTD SVG 1.1//EN" "http://www.w3.org/Graphics/SVG/1.1/DTD/svg11.dtd">
<!-- Creator: CorelDRAW -->
<svg xmlns="http://www.w3.org/2000/svg" xml:space="preserve" width="76px" height="76px" version="1.1" style="shape-rendering:geometricPrecision; text-rendering:geometricPrecision; image-rendering:optimizeQuality; fill-rule:evenodd; clip-rule:evenodd"
viewBox="0 0 6.23 6.22"
 xmlns:xlink="http://www.w3.org/1999/xlink"
 xmlns:xodm="http://www.corel.com/coreldraw/odm/2003">
 <defs>
  <style type="text/css">
   <![CDATA[
    .fil0 {fill:none}
    .fil1 {fill:#373435}
   ]]>
  </style>
 </defs>
 <g id="Layer_x0020_1">
  <metadata id="CorelCorpID_0Corel-Layer"/>
  <rect class="fil0" width="6.23" height="6.22" rx="0.87" ry="0.87"/>
  <path class="fil1" d="M1.85 1.65c-0.14,0.01 -0.21,-0.02 -0.25,0.08 -0.01,0.03 -0.01,0.11 0.01,0.14 0.05,0.05 0.16,0.04 0.24,0.04l0 0.4c-0.07,0 -0.18,-0.01 -0.22,0.03 -0.05,0.04 -0.07,0.19 0.06,0.21 0.05,0.01 0.1,0.01 0.16,0.01l0 0.41c-0.14,0 -0.26,-0.02 -0.26,0.11 0,0.03 0.01,0.06 0.02,0.09 0.03,0.06 0.18,0.04 0.24,0.04l0 0.41c-0.14,0.01 -0.24,-0.02 -0.26,0.09 -0.03,0.17 0.13,0.16 0.26,0.16 -0.01,0.12 0,0.28 0,0.41 -0.06,0 -0.13,-0.01 -0.18,0.01 -0.11,0.03 -0.1,0.19 0,0.23 0.05,0.01 0.12,0 0.18,0.01 -0.01,0.09 -0.01,0.29 0.01,0.37 0.05,0.11 0.24,0.09 0.37,0.09l2.13 0c0.08,0 0.15,-0.02 0.21,-0.08 0.08,-0.08 0.07,-0.23 0.07,-0.36l0 -3.02c0,-0.06 0,-0.11 -0.02,-0.16 -0.08,-0.15 -0.16,-0.14 -0.37,-0.14l-2.19 0c-0.09,0 -0.18,-0.02 -0.21,0.11 -0.01,0.04 -0.01,0.26 0,0.31zm0.05 0c0.15,0 0.26,-0.02 0.26,0.15 0,0.13 -0.15,0.11 -0.26,0.11l0 0.4c0.06,0 0.18,0 0.22,0.03 0.02,0.02 0.03,0.04 0.04,0.06 0.03,0.18 -0.12,0.16 -0.26,0.16l0 0.41c0.13,0 0.26,-0.02 0.26,0.12 0,0.14 -0.1,0.12 -0.26,0.12l0 0.41c0.06,0 0.13,0 0.18,0.01 0.06,0.02 0.08,0.05 0.08,0.12 0,0.07 -0.02,0.1 -0.08,0.11 -0.06,0.01 -0.11,0.01 -0.18,0.01l0 0.41c0.14,0 0.26,-0.02 0.26,0.12 0,0.08 -0.02,0.09 -0.08,0.11 -0.05,0.02 -0.11,0.01 -0.18,0.01 0,0.07 -0.01,0.3 0.01,0.34 0.03,0.09 0.14,0.06 0.28,0.06l2.01 0c0.14,0 0.32,0.03 0.37,-0.1 0.01,-0.06 0.01,-0.09 0.01,-0.16 0,-0.35 0.01,-3.18 0,-3.23 -0.01,-0.02 -0.02,-0.05 -0.03,-0.07 0,0 -0.01,0 -0.01,0l0 -0.01c-0.01,-0.01 -0.01,-0.01 -0.01,-0.01 -0.07,-0.08 -0.28,-0.05 -0.4,-0.05l-2.08 0c-0.24,0 -0.11,0.12 -0.15,0.36zm0 0.2c0.07,0 0.15,0.01 0.2,-0.02 0.02,-0.15 -0.03,-0.12 -0.2,-0.12l0 0.14zm-0.05 0l0 -0.14c-0.03,0 -0.1,0 -0.13,0 -0.05,0.01 -0.07,0.02 -0.07,0.06 0,0.06 0,0.07 0.06,0.08 0.03,0 0.1,0 0.14,0zm-0.2 1.85c0,0.06 -0.02,0.09 0.04,0.11 0.04,0 0.12,0 0.16,0l0 -0.13c-0.04,0 -0.08,0 -0.11,0 -0.06,0 -0.06,0 -0.09,0.02zm0.2 0.77l0 -0.13c-0.04,-0.01 -0.09,-0.01 -0.13,0 -0.06,0 -0.07,0 -0.07,0.06 0,0.05 0.01,0.06 0.07,0.07 0.03,0 0.09,0 0.13,0zm-0.2 -2c0.03,0.02 0.04,0.03 0.08,0.03 0.04,0 0.08,0 0.12,0l0 -0.13c-0.04,0 -0.12,-0.01 -0.15,0 -0.07,0.01 -0.05,0.05 -0.05,0.1zm0.25 2c0.07,0 0.15,0 0.2,-0.03l0 -0.08c-0.03,-0.02 -0.03,-0.02 -0.08,-0.02 -0.04,-0.01 -0.09,-0.01 -0.12,0l0 0.13zm0 -0.66c0.04,0 0.07,0 0.11,0 0.05,-0.01 0.05,0 0.09,-0.02l0 -0.09c-0.04,-0.04 -0.13,-0.02 -0.2,-0.02l0 0.13zm-0.24 -0.67c0.04,0.02 0.12,0.02 0.18,0.02l0.01 -0.13c-0.04,-0.01 -0.13,-0.01 -0.16,0 -0.05,0.01 -0.05,0.06 -0.03,0.11zm0.24 0.02c0.05,0 0.16,0 0.2,-0.02l0 -0.09c-0.05,-0.03 -0.13,-0.03 -0.19,-0.03l-0.01 0.14zm0 -0.66c0.08,0 0.13,0.01 0.2,-0.02l0 -0.09c-0.04,-0.03 -0.14,-0.02 -0.2,-0.02l0 0.13z"/>
 </g>
</svg>
