<?xml version="1.0" encoding="UTF-8"?>
<!DOCTYPE svg PUBLIC "-//W3C//DTD SVG 1.1//EN" "http://www.w3.org/Graphics/SVG/1.1/DTD/svg11.dtd">
<!-- Creator: CorelDRAW -->
<svg xmlns="http://www.w3.org/2000/svg" xml:space="preserve" width="76px" height="76px" version="1.1" style="shape-rendering:geometricPrecision; text-rendering:geometricPrecision; image-rendering:optimizeQuality; fill-rule:evenodd; clip-rule:evenodd"
viewBox="0 0 11.41 11.39"
 xmlns:xlink="http://www.w3.org/1999/xlink"
 xmlns:xodm="http://www.corel.com/coreldraw/odm/2003">
 <defs>
  <style type="text/css">
   <![CDATA[
    .str0 {stroke-width:0.09;stroke-miterlimit:22.9256}
    .fil0 {fill:none}
    .fil1 {fill:#000000}
     @media (prefers-color-scheme: dark) {
        .fil1 { fill: #ffffff; }
    }
   ]]>
  </style>
 </defs>
 <g id="Layer_x0020_1">
  <metadata id="CorelCorpID_0Corel-Layer"/>
  <rect class="fil0" width="11.41" height="11.39" rx="1.6" ry="1.6"/>
  <path class="fil1 str0" d="M3.29 2.91c-0.26,0.02 -0.4,-0.04 -0.47,0.15 -0.03,0.07 -0.03,0.21 0.02,0.26 0.09,0.1 0.3,0.08 0.45,0.08l-0.01 0.76c-0.13,0 -0.32,-0.01 -0.41,0.06 -0.09,0.08 -0.14,0.38 0.11,0.41 0.1,0.01 0.19,0.01 0.31,0.01l-0.01 0.79c-0.26,0.01 -0.49,-0.03 -0.48,0.22 0,0.05 0.01,0.12 0.03,0.16 0.06,0.12 0.35,0.08 0.45,0.09l0 0.77c-0.25,0.02 -0.44,-0.03 -0.48,0.18 -0.06,0.33 0.25,0.3 0.49,0.3 -0.01,0.22 -0.01,0.55 -0.01,0.78 -0.11,0 -0.25,-0.01 -0.33,0.02 -0.22,0.06 -0.2,0.36 -0.01,0.44 0.1,0.03 0.24,0.01 0.34,0.02 0,0.18 -0.02,0.55 0.04,0.7 0.08,0.23 0.45,0.18 0.7,0.17l4.07 0c0.16,0.01 0.29,-0.03 0.4,-0.14 0.16,-0.16 0.13,-0.44 0.13,-0.69l0 -5.77c0,-0.11 0,-0.22 -0.04,-0.3 -0.14,-0.29 -0.3,-0.28 -0.7,-0.28l-4.19 0c-0.17,0 -0.33,-0.02 -0.4,0.21 -0.02,0.07 -0.01,0.5 0,0.6zm0.1 0c0.29,0 0.49,-0.04 0.49,0.28 0,0.25 -0.29,0.21 -0.49,0.21l0 0.76c0.1,0 0.35,0 0.43,0.07 0.02,0.03 0.05,0.07 0.06,0.11 0.07,0.34 -0.23,0.3 -0.49,0.3l0 0.79c0.25,0 0.48,-0.04 0.49,0.23 0.01,0.27 -0.19,0.23 -0.49,0.24l0 0.78c0.11,-0.01 0.25,-0.01 0.34,0.02 0.11,0.03 0.15,0.09 0.15,0.22 0,0.14 -0.04,0.19 -0.15,0.21 -0.11,0.02 -0.2,0.03 -0.34,0.02l0 0.78c0.26,0 0.49,-0.03 0.49,0.24 0,0.15 -0.03,0.17 -0.15,0.21 -0.1,0.03 -0.21,0.02 -0.34,0.02 0,0.13 -0.01,0.56 0.01,0.64 0.07,0.18 0.27,0.13 0.54,0.13l3.84 0c0.28,0 0.61,0.05 0.7,-0.21 0.04,-0.1 0.03,-0.16 0.03,-0.29 0,-0.68 0.02,-6.08 -0.01,-6.17 -0.01,-0.05 -0.03,-0.11 -0.05,-0.14 0,0 -0.01,-0.01 -0.01,-0.01l-0.01 -0.01c-0.01,-0.02 -0.01,-0.02 -0.02,-0.03 -0.13,-0.14 -0.54,-0.1 -0.76,-0.1l-3.98 0c-0.45,0 -0.21,0.23 -0.28,0.7zm0 0.38c0.13,0 0.28,0.02 0.38,-0.04 0.03,-0.28 -0.06,-0.22 -0.38,-0.22l0 0.26zm-0.1 0l-0.01 -0.26c-0.05,-0.01 -0.18,-0.01 -0.24,0 -0.09,0 -0.13,0.02 -0.13,0.12 -0.01,0.11 0.01,0.13 0.11,0.14 0.07,0 0.2,0 0.27,0zm-0.38 3.54c0,0.12 -0.04,0.18 0.08,0.2 0.06,0.01 0.23,0.01 0.29,0.01l0 -0.25c-0.06,-0.01 -0.14,0 -0.2,0 -0.11,0 -0.11,0 -0.17,0.04zm0.38 1.46l-0.01 -0.25c-0.07,0 -0.17,0 -0.24,0 -0.11,0.01 -0.14,0.02 -0.13,0.13 0,0.09 0.02,0.12 0.12,0.12 0.08,0.01 0.18,0.01 0.26,0zm-0.38 -3.81c0.05,0.04 0.07,0.05 0.16,0.05 0.07,0 0.15,0 0.22,0l-0.01 -0.25c-0.06,0 -0.22,-0.01 -0.28,0 -0.13,0.02 -0.09,0.11 -0.09,0.2zm0.48 3.81c0.14,0.01 0.29,0.01 0.38,-0.04l0 -0.17c-0.06,-0.03 -0.06,-0.03 -0.16,-0.04 -0.06,0 -0.16,0 -0.22,0l0 0.25zm0 -1.25c0.07,0 0.14,0 0.2,-0.01 0.11,-0.01 0.1,0.01 0.18,-0.03l0 -0.16c-0.08,-0.08 -0.26,-0.05 -0.38,-0.05l0 0.25zm-0.47 -1.28c0.08,0.04 0.24,0.04 0.36,0.03l0 -0.25c-0.07,-0.01 -0.24,0 -0.3,0 -0.1,0.02 -0.09,0.12 -0.06,0.22zm0.47 0.03c0.09,0.01 0.31,0 0.38,-0.04l0 -0.16c-0.09,-0.06 -0.25,-0.06 -0.37,-0.05l-0.01 0.25zm0 -1.26c0.15,0 0.25,0.01 0.38,-0.04l0 -0.16c-0.08,-0.06 -0.27,-0.05 -0.38,-0.05l0 0.25z"/>
 </g>
</svg>
