<?xml version="1.0" encoding="UTF-8"?>
<!DOCTYPE svg PUBLIC "-//W3C//DTD SVG 1.1//EN" "http://www.w3.org/Graphics/SVG/1.1/DTD/svg11.dtd">
<!-- Creator: CorelDRAW -->
<svg xmlns="http://www.w3.org/2000/svg" xml:space="preserve" width="76px" height="76px" version="1.1" style="shape-rendering:geometricPrecision; text-rendering:geometricPrecision; image-rendering:optimizeQuality; fill-rule:evenodd; clip-rule:evenodd"
viewBox="0 0 7.1 7.09"
 xmlns:xlink="http://www.w3.org/1999/xlink"
 xmlns:xodm="http://www.corel.com/coreldraw/odm/2003">
 <defs>
  <style type="text/css">
   <![CDATA[
    .str0 {stroke:black;stroke-width:0.07;stroke-miterlimit:22.9256}
    .fil0 {fill:none}
    .fil1 {fill:black}
   ]]>
  </style>
 </defs>
 <g id="Layer_x0020_1">
  <metadata id="CorelCorpID_0Corel-Layer"/>
  <rect class="fil0" width="7.1" height="7.09" rx="1" ry="0.99"/>
  <path class="fil1 str0" d="M2.25 2.41c0.02,0.03 0.01,0.47 0.01,0.55 0,0.02 0,0 -0.01,0.02 0.05,0.02 0.03,0.02 0.03,0.17l0 2.26c0,0.13 0.03,0.21 0.11,0.31 0.03,0.03 0.08,0.06 0.12,0.09 0.04,0.02 0.1,0.04 0.16,0.04l1.78 0c0.06,0 0.11,-0.01 0.15,-0.03 0.12,-0.06 0.25,-0.21 0.25,-0.33l0 -3.86c0,-0.12 -0.09,-0.25 -0.17,-0.31 -0.15,-0.11 -0.22,-0.08 -0.37,-0.08l-1.26 0c-0.02,-0.01 -0.02,0 -0.1,0l-0.3 0c-0.07,0 -0.09,0.01 -0.16,0.04 -0.11,0.06 -0.2,0.18 -0.21,0.33l0 0.72c0,0.06 0.01,0.06 -0.03,0.08zm0.1 -0.8l0 3.83c0,0.11 0.05,0.19 0.11,0.25 0.04,0.04 0.15,0.1 0.24,0.1l1.7 0c0.07,0 0.11,-0.01 0.16,-0.03 0.03,-0.01 0.08,-0.05 0.11,-0.07 0.07,-0.06 0.11,-0.17 0.11,-0.27l0 -3.79c0,-0.15 -0.18,-0.33 -0.35,-0.33l-1.73 0c-0.12,0 -0.17,0.04 -0.24,0.09 -0.05,0.04 -0.11,0.13 -0.11,0.22zm0.16 0.13l0 0.5c0,0.13 0.06,0.23 0.16,0.29 0.1,0.05 0.22,0.04 0.31,-0.04l0.01 -0.01c0.11,-0.12 0.09,-0.27 0.09,-0.45l0 -0.18c0,-0.11 0.02,-0.19 -0.07,-0.3 -0.06,-0.08 -0.13,-0.11 -0.24,-0.11 -0.06,0 -0.14,0.05 -0.18,0.1 -0.04,0.05 -0.08,0.11 -0.08,0.2zm0.07 0.01l0 0.49c0,0.07 0.02,0.13 0.06,0.17 0.16,0.19 0.37,0 0.37,-0.12l0 -0.59c0,-0.05 -0.04,-0.1 -0.08,-0.13 -0.15,-0.14 -0.35,-0.02 -0.35,0.18z"/>
 </g>
</svg>
