<?xml version="1.0" encoding="UTF-8"?>
<!DOCTYPE svg PUBLIC "-//W3C//DTD SVG 1.1//EN" "http://www.w3.org/Graphics/SVG/1.1/DTD/svg11.dtd">
<!-- Creator: CorelDRAW -->
<svg xmlns="http://www.w3.org/2000/svg" xml:space="preserve" width="76px" height="76px" version="1.1" style="shape-rendering:geometricPrecision; text-rendering:geometricPrecision; image-rendering:optimizeQuality; fill-rule:evenodd; clip-rule:evenodd"
viewBox="0 0 3 3"
 xmlns:xlink="http://www.w3.org/1999/xlink"
 xmlns:xodm="http://www.corel.com/coreldraw/odm/2003">
 <defs>
  <style type="text/css">
   <![CDATA[
    .str0 {stroke:black;stroke-width:0.03;stroke-miterlimit:22.9256}
    .fil0 {fill:none}
    .fil1 {fill:black}
   ]]>
  </style>
 </defs>
 <g id="Layer_x0020_1">
  <metadata id="CorelCorpID_0Corel-Layer"/>
  <rect class="fil0" width="3" height="3" rx="0.42" ry="0.42"/>
  <path class="fil1 str0" d="M0.95 1.02c0.01,0.01 0.01,0.2 0.01,0.23 0,0.01 0,0 -0.01,0.01 0.02,0.01 0.02,0.01 0.02,0.07l0 0.96c0,0.05 0.01,0.09 0.04,0.13 0.01,0.01 0.03,0.02 0.05,0.03 0.02,0.01 0.05,0.03 0.07,0.03l0.75 0c0.03,0 0.05,-0.01 0.07,-0.02 0.05,-0.02 0.1,-0.09 0.1,-0.14l0 -1.63c0,-0.05 -0.04,-0.11 -0.07,-0.13 -0.07,-0.05 -0.09,-0.04 -0.16,-0.04l-0.53 0c-0.01,0 -0.01,0.01 -0.04,0l-0.13 0c-0.03,0.01 -0.04,0.01 -0.07,0.02 -0.04,0.03 -0.08,0.08 -0.09,0.14l0.01 0.31c0,0.02 0,0.02 -0.02,0.03zm0.04 -0.34l0 1.62c0,0.05 0.03,0.08 0.05,0.1 0.02,0.02 0.06,0.05 0.1,0.05l0.72 0c0.03,0 0.05,0 0.07,-0.01 0.01,-0.01 0.03,-0.02 0.04,-0.03 0.03,-0.03 0.05,-0.08 0.05,-0.12l0 -1.6c0,-0.07 -0.07,-0.14 -0.15,-0.14l-0.73 0c-0.05,0 -0.07,0.02 -0.1,0.04 -0.02,0.01 -0.05,0.05 -0.05,0.09zm0.07 0.06l0 0.21c0,0.05 0.03,0.1 0.07,0.12 0.04,0.02 0.09,0.02 0.13,-0.02l0 0c0.05,-0.05 0.04,-0.12 0.04,-0.19l0 -0.08c0,-0.04 0.01,-0.08 -0.03,-0.13 -0.02,-0.03 -0.05,-0.04 -0.1,-0.04 -0.03,0 -0.06,0.02 -0.07,0.04 -0.02,0.02 -0.04,0.05 -0.04,0.09zm0.03 0l0 0.21c0,0.03 0.01,0.05 0.02,0.07 0.07,0.08 0.16,0 0.16,-0.05l0 -0.25c0,-0.02 -0.02,-0.04 -0.03,-0.06 -0.06,-0.05 -0.15,0 -0.15,0.08z"/>
 </g>
</svg>
