<svg xmlns="http://www.w3.org/2000/svg" version="1.1" xmlns:xlink="http://www.w3.org/1999/xlink" width="512"
    height="512" x="0" y="0" viewBox="0 0 300 300" style="enable-background:new 0 0 512 512" xml:space="preserve">
    <style>
    path { fill: #000; } /* Default (light mode) */
    @media (prefers-color-scheme: dark) {
      path { fill: #fff; } /* Dark mode */
    }
    </style>
    <g transform="matrix(0.6000000000000002,0,0,0.6000000000000002,59.99999999999993,59.99999999999993)">
        <path
            d="M47.557 109.488a4.529 4.529 0 1 0 1.248 8.972 4.53 4.53 0 1 0-1.248-8.972zM50 48c2.211 0 4-1.789 4-4V32c0-2.211-1.789-4-4-4s-4 1.789-4 4v12c0 2.211 1.789 4 4 4zM50 56c-2.211 0-4 1.789-4 4v12c0 2.211 1.789 4 4 4s4-1.789 4-4V60c0-2.211-1.789-4-4-4zM46 52c0-2.211-1.789-4-4-4H30c-2.211 0-4 1.789-4 4s1.789 4 4 4h12c2.211 0 4-1.789 4-4zM74 52c0-2.211-1.789-4-4-4H58c-2.211 0-4 1.789-4 4s1.789 4 4 4h12c2.211 0 4-1.789 4-4zM250.867 64H97.133C84.379 64 74 74.379 74 87.133V132h-4c-2.211 0-4 1.789-4 4v20c0 2.211 1.789 4 4 4h4v4h-4c-2.211 0-4 1.789-4 4v20c0 2.211 1.789 4 4 4h4v76c0 2.211 1.789 4 4 4s4-1.789 4-4V87.133C82 78.789 88.789 72 97.133 72h153.734C259.211 72 266 78.789 266 87.133V268c0 2.211 1.789 4 4 4s4-1.789 4-4V87.133C274 74.379 263.621 64 250.867 64z"
            fill="#000000" opacity="1" data-original="#000000"></path>
        <path
            d="M154 112c0-17.645-14.355-32-32-32s-32 14.355-32 32v32c0 17.645 14.355 32 32 32s32-14.355 32-32zm-8 32c0 13.234-10.766 24-24 24s-24-10.766-24-24v-32c0-13.234 10.766-24 24-24s24 10.766 24 24z"
            fill="#000000" opacity="1" data-original="#000000"></path>
        <path
            d="M142 112c0-11.027-8.973-20-20-20s-20 8.973-20 20c0 6.565 3.223 12.351 8.124 16-4.901 3.649-8.124 9.435-8.124 16 0 11.027 8.973 20 20 20s20-8.973 20-20c0-6.565-3.223-12.351-8.124-16 4.901-3.649 8.124-9.435 8.124-16zm-8 32c0 6.617-5.383 12-12 12s-12-5.383-12-12 5.383-12 12-12 12 5.383 12 12zm-12-20c-6.617 0-12-5.383-12-12s5.383-12 12-12 12 5.383 12 12-5.383 12-12 12zM174 192c-13.234 0-24 10.766-24 24s10.766 24 24 24 24-10.766 24-24-10.766-24-24-24zm0 40c-8.824 0-16-7.176-16-16s7.176-16 16-16 16 7.176 16 16-7.176 16-16 16z"
            fill="#000000" opacity="1" data-original="#000000"></path>
    </g>
</svg>