<?xml version="1.0" encoding="UTF-8"?>
<!DOCTYPE svg PUBLIC "-//W3C//DTD SVG 1.1//EN" "http://www.w3.org/Graphics/SVG/1.1/DTD/svg11.dtd">
<!-- Creator: CorelDRAW -->
<svg xmlns="http://www.w3.org/2000/svg" xml:space="preserve" width="76px" height="76px" version="1.1" style="shape-rendering:geometricPrecision; text-rendering:geometricPrecision; image-rendering:optimizeQuality; fill-rule:evenodd; clip-rule:evenodd"
viewBox="0 0 5.76 5.75"
 xmlns:xlink="http://www.w3.org/1999/xlink"
 xmlns:xodm="http://www.corel.com/coreldraw/odm/2003">
 <defs>
  <style type="text/css">
   <![CDATA[
    .str0 {stroke:black;stroke-width:0.03;stroke-miterlimit:22.9256}
    .fil0 {fill:none}
    .fil1 {fill:#000000}
     @media (prefers-color-scheme: dark) {
        .fil1 { fill: #ffffff; }
    }
   ]]>
  </style>
 </defs>
 <g id="Layer_x0020_1">
  <metadata id="CorelCorpID_0Corel-Layer"/>
  <rect class="fil0" width="5.76" height="5.75" rx="0.81" ry="0.81"/>
  <path class="fil1" d="M1.43 1.33c-0.12,0.05 -0.04,0.19 0.02,0.3 0.08,0.16 0.06,0.16 0.04,0.35 -0.04,0.35 -0.07,0.87 -0.04,1.24 0,0.14 0.02,0.27 0.03,0.41 0,0.1 0.04,0.31 0.02,0.39 -0.04,0.1 -0.21,0.33 -0.1,0.39 0.13,0.07 0.29,-0.1 0.39,-0.13 0.08,-0.02 0.11,-0.01 0.19,0 0.59,0.05 1.07,0.06 1.66,0.01 0.12,0 0.28,-0.04 0.38,0.01 0.1,0.05 0.23,0.18 0.35,0.1 0.02,-0.01 0.02,0 0.02,-0.03 0.03,-0.08 -0.03,-0.17 -0.07,-0.24 -0.09,-0.15 -0.07,-0.18 -0.05,-0.35 0.04,-0.27 0.05,-0.54 0.06,-0.82 0.01,-0.28 -0.01,-0.57 -0.04,-0.84 -0.01,-0.08 -0.05,-0.31 -0.03,-0.38 0.02,-0.05 0.05,-0.1 0.08,-0.15 0.02,-0.03 0.05,-0.11 0.06,-0.16 0,-0.04 0,-0.06 -0.03,-0.08 -0.07,-0.05 -0.18,0 -0.25,0.04 -0.14,0.08 -0.14,0.11 -0.34,0.09 -0.27,-0.03 -0.55,-0.05 -0.82,-0.05 -0.07,0 -0.15,-0.01 -0.22,0l-0.62 0.03c-0.12,0.01 -0.29,0.05 -0.37,-0.01 -0.05,-0.03 -0.24,-0.15 -0.32,-0.12zm-0.01 0.07c0.01,0.11 0.09,0.2 0.12,0.3 0.04,0.1 0.01,0.27 -0.01,0.38 -0.02,0.21 -0.04,0.57 -0.04,0.8 -0.01,0.16 0.03,0.65 0.04,0.79 0.04,0.29 0.05,0.32 -0.05,0.53 -0.02,0.03 -0.07,0.11 -0.06,0.15 0.04,0.08 0.25,-0.06 0.29,-0.09 0.12,-0.07 0.22,-0.04 0.36,-0.02 0.47,0.04 1.16,0.04 1.63,-0.01 0.06,0 0.13,-0.01 0.19,-0.01 0.07,0 0.12,0.02 0.17,0.04 0.06,0.03 0.23,0.17 0.29,0.09 -0.01,-0.02 -0.01,-0.06 -0.06,-0.15 -0.02,-0.05 -0.05,-0.09 -0.07,-0.14 -0.04,-0.1 0,-0.26 0.01,-0.38 0.04,-0.41 0.06,-0.8 0.04,-1.21 -0.01,-0.12 -0.02,-0.27 -0.04,-0.39 -0.01,-0.12 -0.05,-0.27 -0.01,-0.38 0.04,-0.11 0.11,-0.17 0.13,-0.3 -0.06,-0.03 -0.11,-0.01 -0.16,0.02 -0.07,0.03 -0.1,0.05 -0.14,0.07 -0.15,0.08 -0.21,0.04 -0.36,0.03l-0.4 -0.02c-0.36,-0.02 -0.85,-0.01 -1.21,0.02 -0.24,0.02 -0.25,0.05 -0.43,-0.06 -0.04,-0.03 -0.11,-0.06 -0.15,-0.07 -0.04,-0.01 -0.05,-0.01 -0.08,0.01z"/>
 </g>
</svg>
