<?xml version="1.0" encoding="UTF-8"?>
<!DOCTYPE svg PUBLIC "-//W3C//DTD SVG 1.1//EN" "http://www.w3.org/Graphics/SVG/1.1/DTD/svg11.dtd">
<!-- Creator: CorelDRAW -->
<svg xmlns="http://www.w3.org/2000/svg" xml:space="preserve" width="76px" height="76px" version="1.1" style="shape-rendering:geometricPrecision; text-rendering:geometricPrecision; image-rendering:optimizeQuality; fill-rule:evenodd; clip-rule:evenodd"
viewBox="0 0 2.48 2.47"
 xmlns:xlink="http://www.w3.org/1999/xlink"
 xmlns:xodm="http://www.corel.com/coreldraw/odm/2003">
 <defs>
  <style type="text/css">
   <![CDATA[
    .str0 {stroke:black;stroke-width:0.02;stroke-miterlimit:22.9256}
    .fil0 {fill:none}
    .fil1 {fill:#373435}
   ]]>
  </style>
 </defs>
 <g id="Layer_x0020_1">
  <metadata id="CorelCorpID_0Corel-Layer"/>
  <rect class="fil0" width="2.48" height="2.47" rx="0.35" ry="0.35"/>
  <path class="fil1 str0" d="M0.62 0.57c-0.06,0.02 -0.02,0.08 0,0.13 0.04,0.07 0.03,0.07 0.02,0.15 -0.02,0.15 -0.03,0.38 -0.02,0.53 0.01,0.07 0.01,0.12 0.01,0.18 0.01,0.04 0.03,0.13 0.01,0.17 -0.01,0.04 -0.08,0.14 -0.04,0.17 0.06,0.03 0.13,-0.05 0.17,-0.06 0.03,-0.01 0.05,0 0.08,0 0.25,0.02 0.46,0.03 0.71,0.01 0.06,-0.01 0.12,-0.02 0.17,0 0.04,0.02 0.1,0.07 0.15,0.04 0.01,0 0.01,0 0.01,-0.01 0.01,-0.03 -0.02,-0.08 -0.03,-0.11 -0.04,-0.06 -0.03,-0.07 -0.02,-0.15 0.01,-0.11 0.02,-0.23 0.02,-0.35 0,-0.12 0,-0.24 -0.02,-0.36 0,-0.03 -0.02,-0.13 -0.01,-0.16 0.01,-0.03 0.02,-0.05 0.03,-0.07 0.01,-0.01 0.03,-0.04 0.03,-0.07 0,-0.01 0,-0.02 -0.01,-0.03 -0.03,-0.02 -0.08,0 -0.11,0.02 -0.06,0.03 -0.06,0.04 -0.14,0.03 -0.12,-0.01 -0.24,-0.01 -0.36,-0.01 -0.03,0 -0.06,-0.01 -0.09,0l-0.27 0.01c-0.05,0 -0.12,0.02 -0.16,-0.01 -0.02,-0.01 -0.1,-0.06 -0.13,-0.05zm-0.01 0.03c0,0.05 0.04,0.09 0.05,0.13 0.02,0.04 0.01,0.12 0,0.16 -0.01,0.1 -0.02,0.25 -0.02,0.35 0,0.06 0.01,0.28 0.02,0.34 0.01,0.12 0.02,0.14 -0.03,0.22 0,0.02 -0.02,0.05 -0.02,0.07 0.02,0.03 0.11,-0.03 0.12,-0.04 0.05,-0.03 0.1,-0.02 0.16,-0.01 0.2,0.02 0.5,0.02 0.7,0 0.03,0 0.06,-0.01 0.08,-0.01 0.03,0 0.05,0.01 0.08,0.02 0.02,0.01 0.09,0.07 0.12,0.04 0,-0.01 0,-0.03 -0.02,-0.07 -0.01,-0.01 -0.03,-0.03 -0.04,-0.05 -0.01,-0.05 0,-0.12 0.01,-0.17 0.02,-0.17 0.03,-0.34 0.01,-0.52 0,-0.05 0,-0.11 -0.01,-0.17 -0.01,-0.05 -0.02,-0.11 -0.01,-0.16 0.02,-0.05 0.05,-0.07 0.06,-0.13 -0.03,-0.01 -0.05,0 -0.07,0.01 -0.03,0.01 -0.04,0.02 -0.06,0.03 -0.06,0.03 -0.09,0.02 -0.16,0.01l-0.17 -0.01c-0.15,-0.01 -0.36,0 -0.52,0.01 -0.1,0.01 -0.1,0.02 -0.18,-0.02 -0.02,-0.01 -0.05,-0.03 -0.06,-0.03 -0.02,-0.01 -0.03,0 -0.04,0z"/>
 </g>
</svg>
