<svg xmlns="http://www.w3.org/2000/svg" version="1.1" xmlns:xlink="http://www.w3.org/1999/xlink" width="512"
    height="512" x="0" y="0" viewBox="0 0 128 128" style="enable-background:new 0 0 512 512" xml:space="preserve"
    class="">
    <style>
    path { fill: #000; } /* Default (light mode) */
    @media (prefers-color-scheme: dark) {
      path { fill: #fff; } /* Dark mode */
    }
    </style>
    <g transform="matrix(0.6000000000000002,0,0,0.6000000000000002,25.854601097106936,25.607690811157227)">
        <path
            d="M122.278 24.821a4.371 4.371 0 0 0-3.4-1.633h-.023a23.9 23.9 0 0 0-10.215 2.666 289.217 289.217 0 0 0-28.619-8.7 289.139 289.139 0 0 0-29.492-4.994 23.888 23.888 0 0 0-7.973-6.957 4.382 4.382 0 0 0-6.186 2.822c-.9 3.46-1.779 8.217-1.091 11.745a177.621 177.621 0 0 0-7.3 22.8c-.04.176-.373 1.648-.826 3.918-2.184.49-4.336.985-6.4 1.48a23.368 23.368 0 0 0-9.911-3.734 4.379 4.379 0 0 0-4.8 4.811c.368 3.552 1.2 8.317 3.079 11.386a177.921 177.921 0 0 0 1.127 23.916 177.454 177.454 0 0 0 4.848 23.419c-1.051 3.431-.677 8.257-.155 11.791a4.377 4.377 0 0 0 4.327 3.734 4.419 4.419 0 0 0 1.535-.276 24 24 0 0 0 8.656-6.071A288.173 288.173 0 0 0 59.31 115.1a291.259 291.259 0 0 0 29.377-5.629 23.778 23.778 0 0 0 9.905 3.734 4.383 4.383 0 0 0 4.808-4.8 40.3 40.3 0 0 0-1.429-7.514 4.32 4.32 0 0 0 .641.054 4.387 4.387 0 0 0 4.242-3.28c.895-3.459 1.778-8.216 1.09-11.743a177.614 177.614 0 0 0 7.3-22.778l.006-.025a177.469 177.469 0 0 0 3.64-23.639c2.19-2.848 3.523-7.5 4.267-10.994a4.354 4.354 0 0 0-.879-3.665zm-22.612 84.641a.89.89 0 0 1-.715.257 20.891 20.891 0 0 1-8.969-3.584 1.753 1.753 0 0 0-1.382-.246 291.476 291.476 0 0 1-29.73 5.735 287.856 287.856 0 0 1-30.214 1.836 1.749 1.749 0 0 0-1.275.578 21.131 21.131 0 0 1-7.8 5.7.881.881 0 0 1-.77-.069.845.845 0 0 1-.412-.615c-.7-4.716-.637-8.494.168-10.639a1.758 1.758 0 0 0 .035-1.128 175 175 0 0 1-4.886-23.373 175.535 175.535 0 0 1-1.08-23.883 1.753 1.753 0 0 0-.314-1.084c-1.319-1.884-2.314-5.526-2.8-10.265a.879.879 0 0 1 .959-.961 20.767 20.767 0 0 1 8.986 3.589 1.747 1.747 0 0 0 1.376.241c1.8-.436 3.688-.872 5.6-1.306a149.66 149.66 0 0 0-2.1 15.969c-2.19 2.849-3.523 7.5-4.266 11a4.381 4.381 0 0 0 4.269 5.286h.021a23.91 23.91 0 0 0 10.217-2.665 289.453 289.453 0 0 0 28.62 8.7c5.961 1.405 12.4 2.554 18.344 3.464a62.007 62.007 0 0 0 3.131 7.83 1.75 1.75 0 1 0 3.142-1.542 54.7 54.7 0 0 1-2.372-5.713c2.6.368 5.05.688 7.246.957a27.953 27.953 0 0 0 4.155 4.406 1.757 1.757 0 0 0 .258.578c1.309 1.859 2.307 5.5 2.811 10.252a.857.857 0 0 1-.253.695zm20.063-81.715c-.99 4.657-2.366 8.174-3.874 9.9a1.756 1.756 0 0 0-.427 1.046 174.955 174.955 0 0 1-3.591 23.622 174.8 174.8 0 0 1-7.332 22.743 1.748 1.748 0 0 0-.085 1.126c.577 2.221.238 5.983-.954 10.592a.861.861 0 0 1-.483.574.88.88 0 0 1-.758-.01 21.056 21.056 0 0 1-7.157-6.494 1.747 1.747 0 0 0-1.207-.711 289.215 289.215 0 0 1-29.855-5.018 289.023 289.023 0 0 1-28.954-8.838 1.749 1.749 0 0 0-1.4.1A21.031 21.031 0 0 1 24.371 79a.987.987 0 0 1-.7-.33.864.864 0 0 1-.175-.729c.99-4.656 2.366-8.174 3.874-9.9a1.748 1.748 0 0 0 .428-1.046 175.352 175.352 0 0 1 3.588-23.611 175.623 175.623 0 0 1 7.335-22.754 1.752 1.752 0 0 0 .079-1.13c-.577-2.221-.238-5.983.954-10.593a.861.861 0 0 1 .482-.572.877.877 0 0 1 .76.009 21.04 21.04 0 0 1 7.155 6.494 1.749 1.749 0 0 0 1.208.711 289.022 289.022 0 0 1 29.855 5.018 288.863 288.863 0 0 1 28.957 8.833 1.736 1.736 0 0 0 1.4-.1 21.052 21.052 0 0 1 9.282-2.617.886.886 0 0 1 .7.331.855.855 0 0 1 .176.733z"
            opacity="1" data-original="#000000" class=""></path>
        <path
            d="M60.913 19.646c-1.89-.291-3.729-.556-5.485-.8a1.75 1.75 0 0 0-.477 3.468c1.739.239 3.56.5 5.43.788a1.639 1.639 0 0 0 .268.021 1.75 1.75 0 0 0 .264-3.479zM106.053 34.483a1.75 1.75 0 0 0-2.415.542c-6.119 9.661-9.27 22.6-9.405 23.156s-3.08 13.527-1.918 24.9a1.752 1.752 0 0 0 1.74 1.573 1.546 1.546 0 0 0 .179-.01 1.75 1.75 0 0 0 1.566-1.916c-1.1-10.789 1.814-23.628 1.84-23.745.031-.128 3.152-12.923 8.955-22.085a1.752 1.752 0 0 0-.542-2.415z"
            opacity="1" data-original="#000000" class=""></path>
    </g>
</svg>