<?xml version="1.0" encoding="UTF-8"?>
<!DOCTYPE svg PUBLIC "-//W3C//DTD SVG 1.1//EN" "http://www.w3.org/Graphics/SVG/1.1/DTD/svg11.dtd">
<!-- Creator: CorelDRAW -->
<svg xmlns="http://www.w3.org/2000/svg" xml:space="preserve" width="76px" height="76px" version="1.1" style="shape-rendering:geometricPrecision; text-rendering:geometricPrecision; image-rendering:optimizeQuality; fill-rule:evenodd; clip-rule:evenodd"
viewBox="0 0 4.22 4.21"
 xmlns:xlink="http://www.w3.org/1999/xlink"
 xmlns:xodm="http://www.corel.com/coreldraw/odm/2003">
 <defs>
  <style type="text/css">
   <![CDATA[
    .fil0 {fill:none}
    .fil1 {fill:#373435}
    .fil2 {fill:black;fill-rule:nonzero}
   ]]>
  </style>
 </defs>
 <g id="Layer_x0020_1">
  <metadata id="CorelCorpID_0Corel-Layer"/>
  <rect class="fil0" width="4.22" height="4.21" rx="0.59" ry="0.59"/>
  <path class="fil1" d="M2.04 0.71c-0.28,0.02 -0.58,0.13 -0.79,0.3 -0.01,0.01 -0.01,0.01 -0.02,0.02 -0.02,0.02 -0.02,0.01 -0.05,0.04 -0.01,0.02 -0.03,0.03 -0.05,0.04 -0.01,0.02 -0.02,0.04 -0.04,0.05 -0.25,0.26 -0.39,0.64 -0.37,1.02 0.02,0.33 0.12,0.56 0.32,0.81 0.01,0.02 0,0.01 0.02,0.02 0.02,0.03 0.01,0.03 0.05,0.06l0.03 0.04c0.01,0 0.01,0 0.01,0.01 0.01,0 0.01,0 0.02,0.01 0.04,0.04 0.13,0.12 0.19,0.15 0.1,0.06 0.11,0.07 0.23,0.12 0.36,0.15 0.8,0.13 1.14,-0.05 0.11,-0.05 0.17,-0.1 0.26,-0.17l0.14 -0.12c0.04,-0.05 0.11,-0.15 0.15,-0.2 0.16,-0.23 0.23,-0.54 0.22,-0.83 -0.02,-0.19 -0.06,-0.4 -0.15,-0.55 -0.09,-0.16 -0.11,-0.19 -0.23,-0.33l-0.07 -0.07c-0.04,-0.04 -0.14,-0.12 -0.19,-0.15 -0.11,-0.06 -0.12,-0.07 -0.23,-0.12 -0.17,-0.07 -0.39,-0.11 -0.59,-0.1zm0.03 0.05c-0.17,0 -0.41,0.06 -0.54,0.13 -0.03,0.02 -0.07,0.04 -0.11,0.06l-0.15 0.1c-0.01,0.01 -0.02,0.02 -0.04,0.04l-0.2 0.22c-0.04,0.05 -0.07,0.09 -0.1,0.15 -0.16,0.29 -0.21,0.65 -0.13,0.98 0.04,0.16 0.12,0.32 0.22,0.46 0.01,0.01 0.02,0.03 0.04,0.05l0.04 0.04c0.02,0.03 0.04,0.05 0.08,0.09 0.02,0.01 0.03,0.03 0.04,0.04 0.28,0.23 0.55,0.34 0.93,0.33 0.26,0 0.5,-0.09 0.7,-0.22 0.07,-0.04 0.18,-0.13 0.23,-0.19l0.08 -0.09c0.02,-0.03 0.04,-0.06 0.07,-0.09 0.01,-0.02 0.02,-0.04 0.03,-0.06 0.03,-0.03 0.07,-0.13 0.09,-0.16 0.08,-0.2 0.1,-0.35 0.1,-0.58 0,-0.19 -0.06,-0.38 -0.13,-0.54 -0.01,-0.04 -0.04,-0.07 -0.06,-0.1 -0.02,-0.05 -0.1,-0.16 -0.14,-0.2l-0.04 -0.04c-0.22,-0.23 -0.56,-0.44 -1.01,-0.42zm-0.02 0.37c-0.2,0.02 -0.34,0.07 -0.5,0.18l-0.07 0.05c-0.01,0.01 -0.02,0.02 -0.03,0.03 -0.03,0.02 -0.04,0.04 -0.06,0.06 -0.06,0.05 -0.16,0.22 -0.19,0.3 -0.06,0.15 -0.07,0.24 -0.07,0.42 0.01,0.12 0.06,0.29 0.11,0.38 0.06,0.12 0.07,0.12 0.15,0.21 0.04,0.06 0.07,0.08 0.12,0.12 0.28,0.22 0.73,0.27 1.04,0.1 0.1,-0.06 0.2,-0.13 0.28,-0.21 0.18,-0.21 0.27,-0.43 0.25,-0.72 -0.01,-0.19 -0.1,-0.44 -0.22,-0.57l-0.03 -0.03c-0.01,-0.02 -0.02,-0.02 -0.03,-0.03l-0.07 -0.06c-0.09,-0.07 -0.14,-0.11 -0.26,-0.16 -0.11,-0.04 -0.29,-0.08 -0.42,-0.07zm0.05 0.05c-0.24,0 -0.42,0.08 -0.59,0.22 -0.01,0 -0.01,0 -0.02,0.01 -0.01,0 -0.01,0.01 -0.01,0.02 -0.02,0.01 -0.02,0.01 -0.04,0.02 -0.08,0.1 -0.13,0.15 -0.19,0.28 -0.11,0.26 -0.1,0.6 0.05,0.85 0.18,0.29 0.47,0.46 0.82,0.46 0.13,0 0.28,-0.03 0.38,-0.09 0.05,-0.03 0.1,-0.05 0.15,-0.08 0.02,-0.02 0.06,-0.04 0.08,-0.07 0,0 0.01,-0.01 0.01,-0.01l0.14 -0.16c0.03,-0.05 0.05,-0.09 0.08,-0.15 0.12,-0.25 0.1,-0.52 0,-0.77 -0.03,-0.05 -0.06,-0.1 -0.09,-0.14 -0.05,-0.08 -0.09,-0.1 -0.11,-0.13 -0.06,-0.07 -0.19,-0.15 -0.28,-0.18 -0.11,-0.06 -0.25,-0.09 -0.38,-0.08z"/>
  <path class="fil2" d="M2.04 0.71c-0.14,0.01 -0.28,0.04 -0.42,0.09 -0.13,0.05 -0.26,0.13 -0.37,0.21l-0.01 0.01c0,0 0,0 -0.01,0.01 -0.01,0.01 -0.02,0.01 -0.02,0.02 0,0 -0.01,0 -0.03,0.02 -0.01,0.01 -0.01,0.02 -0.02,0.02 -0.01,0.01 -0.02,0.01 -0.03,0.02l-0.01 0.02c-0.01,0.01 -0.02,0.02 -0.03,0.03 -0.12,0.13 -0.22,0.29 -0.29,0.47 -0.06,0.17 -0.09,0.36 -0.08,0.55 0.01,0.17 0.04,0.31 0.09,0.44 0.06,0.13 0.13,0.25 0.23,0.37 0,0.01 0.01,0.01 0.01,0.02l0.01 0c0.01,0.01 0.01,0.02 0.02,0.03 0,0 0.01,0.01 0.03,0.03 0.02,0.02 0.04,0.04 0.06,0.06 0.02,0.02 0.07,0.06 0.11,0.09 0.03,0.02 0.06,0.05 0.08,0.06l0.03 0.02c0.07,0.04 0.09,0.05 0.2,0.1 0.18,0.07 0.38,0.1 0.58,0.1 0.2,-0.01 0.39,-0.06 0.56,-0.15 0.06,-0.02 0.1,-0.05 0.14,-0.08 0.04,-0.02 0.08,-0.05 0.12,-0.09l0.14 -0.12c0.02,-0.03 0.04,-0.06 0.07,-0.09 0.03,-0.04 0.06,-0.08 0.08,-0.11 0.08,-0.12 0.14,-0.25 0.17,-0.39 0.04,-0.14 0.05,-0.29 0.04,-0.44 0,-0.1 -0.02,-0.2 -0.04,-0.3 -0.03,-0.09 -0.06,-0.17 -0.1,-0.25 -0.04,-0.08 -0.07,-0.13 -0.1,-0.17 -0.03,-0.05 -0.07,-0.09 -0.13,-0.16l-0.07 -0.07c-0.02,-0.02 -0.06,-0.05 -0.1,-0.08 -0.04,-0.03 -0.07,-0.05 -0.09,-0.07l-0.06 -0.03c-0.05,-0.03 -0.08,-0.05 -0.17,-0.09 -0.09,-0.03 -0.19,-0.06 -0.28,-0.08 -0.1,-0.02 -0.21,-0.02 -0.31,-0.02zm-0.42 0.09c0.14,-0.05 0.28,-0.08 0.42,-0.09 0.1,0 0.21,0 0.31,0.02 0.1,0.02 0.19,0.05 0.28,0.08 0.09,0.04 0.12,0.06 0.18,0.09l0.05 0.03c0.02,0.02 0.05,0.04 0.09,0.07 0.04,0.03 0.08,0.06 0.1,0.08l0.07 0.07c0.06,0.07 0.1,0.11 0.13,0.16 0.03,0.04 0.06,0.09 0.1,0.17 0.04,0.08 0.08,0.16 0.1,0.25 0.02,0.1 0.04,0.2 0.05,0.3 0,0.15 -0.01,0.3 -0.05,0.44 -0.03,0.14 -0.09,0.27 -0.17,0.39 -0.02,0.03 -0.05,0.07 -0.08,0.11 -0.03,0.04 -0.05,0.07 -0.07,0.09l-0.14 0.12c-0.04,0.04 -0.08,0.07 -0.12,0.09 -0.04,0.03 -0.08,0.06 -0.14,0.08 -0.17,0.09 -0.36,0.14 -0.56,0.15 -0.2,0.01 -0.4,-0.03 -0.58,-0.1 -0.11,-0.05 -0.13,-0.06 -0.2,-0.1l-0.03 -0.02c-0.02,-0.01 -0.05,-0.04 -0.08,-0.06 -0.05,-0.03 -0.09,-0.07 -0.11,-0.09 -0.02,-0.02 -0.04,-0.04 -0.06,-0.06 -0.02,-0.02 -0.03,-0.03 -0.03,-0.03 -0.01,-0.01 -0.01,-0.02 -0.02,-0.03l-0.01 0c-0.01,-0.01 -0.01,-0.01 -0.01,-0.02 -0.1,-0.12 -0.17,-0.24 -0.23,-0.37 -0.05,-0.13 -0.08,-0.27 -0.09,-0.44 -0.01,-0.19 0.02,-0.38 0.08,-0.55 0.07,-0.18 0.17,-0.34 0.29,-0.47 0.01,-0.01 0.02,-0.02 0.03,-0.03l0.01 -0.02c0.01,-0.01 0.02,-0.01 0.03,-0.02 0.01,0 0.01,-0.01 0.02,-0.02 0.02,-0.02 0.02,-0.02 0.03,-0.02 0,-0.01 0.01,-0.01 0.02,-0.02 0.01,-0.01 0.01,-0.01 0.01,-0.01l0.01 -0.01c0.11,-0.08 0.24,-0.16 0.37,-0.21zm0.45 -0.04c-0.08,0 -0.19,0.01 -0.28,0.04 -0.1,0.02 -0.19,0.05 -0.26,0.09l-0.04 0.02c-0.02,0.01 -0.04,0.02 -0.07,0.04l-0.15 0.1c0,0.01 -0.01,0.01 -0.02,0.02 0,0.01 -0.01,0.01 -0.02,0.02l-0.2 0.22 -0.02 0.03c-0.03,0.04 -0.05,0.07 -0.08,0.12 -0.08,0.15 -0.13,0.31 -0.15,0.48 -0.02,0.16 -0.02,0.33 0.02,0.5 0.02,0.08 0.05,0.16 0.09,0.24 0.04,0.08 0.08,0.15 0.13,0.22l0.04 0.05 0.04 0.04c0.01,0.01 0.02,0.02 0.03,0.03 0.01,0.02 0.03,0.03 0.05,0.06l0.02 0.02c0.01,0 0.01,0.01 0.02,0.02 0.14,0.11 0.28,0.2 0.43,0.25 0.15,0.06 0.31,0.09 0.5,0.08 0.12,0 0.24,-0.02 0.35,-0.05 0.13,-0.04 0.24,-0.1 0.35,-0.17 0.04,-0.02 0.08,-0.06 0.12,-0.09 0.04,-0.03 0.08,-0.07 0.11,-0.1l0.08 -0.09c0.02,-0.03 0.04,-0.06 0.06,-0.09l0.01 0c0.01,-0.01 0.01,-0.02 0.01,-0.03 0.01,-0.01 0.01,-0.02 0.02,-0.03 0.01,-0.01 0.03,-0.04 0.04,-0.07 0.02,-0.03 0.04,-0.07 0.05,-0.09 0.04,-0.1 0.06,-0.19 0.08,-0.28 0.02,-0.09 0.02,-0.18 0.02,-0.3 0,-0.09 -0.01,-0.19 -0.04,-0.28 -0.02,-0.09 -0.05,-0.18 -0.09,-0.26 -0.01,-0.03 -0.02,-0.05 -0.04,-0.07l-0.02 -0.03c-0.01,-0.03 -0.04,-0.07 -0.06,-0.1 -0.03,-0.04 -0.06,-0.08 -0.08,-0.1l-0.04 -0.04c-0.12,-0.13 -0.28,-0.25 -0.47,-0.32 -0.15,-0.07 -0.34,-0.11 -0.54,-0.1zm-0.28 0.04c0.09,-0.03 0.2,-0.04 0.28,-0.05 0.2,0 0.39,0.04 0.54,0.1 0.19,0.08 0.35,0.2 0.47,0.33l0.04 0.04c0.02,0.02 0.05,0.06 0.08,0.1 0.02,0.03 0.05,0.07 0.06,0.1l0.02 0.03c0.02,0.02 0.03,0.04 0.04,0.07 0.04,0.08 0.07,0.17 0.09,0.26 0.03,0.09 0.04,0.19 0.04,0.28 0,0.12 0,0.21 -0.02,0.3 -0.01,0.09 -0.04,0.18 -0.08,0.28 -0.01,0.02 -0.03,0.06 -0.05,0.09 -0.01,0.03 -0.03,0.06 -0.04,0.07 -0.01,0.01 -0.01,0.02 -0.01,0.03 -0.01,0.01 -0.01,0.02 -0.02,0.03l-0.01 0c-0.02,0.03 -0.04,0.06 -0.06,0.09l-0.08 0.09c-0.03,0.03 -0.07,0.07 -0.11,0.1 -0.04,0.04 -0.08,0.07 -0.12,0.09 -0.11,0.07 -0.22,0.13 -0.35,0.17 -0.11,0.03 -0.23,0.05 -0.35,0.05 -0.19,0.01 -0.36,-0.02 -0.5,-0.08 -0.15,-0.05 -0.29,-0.14 -0.43,-0.25 -0.01,-0.01 -0.01,-0.02 -0.02,-0.02l-0.02 -0.02c-0.02,-0.03 -0.04,-0.04 -0.05,-0.06l-0.04 -0.03 -0.03 -0.04 -0.04 -0.05c-0.05,-0.07 -0.09,-0.14 -0.13,-0.22 -0.04,-0.08 -0.07,-0.16 -0.09,-0.24 -0.04,-0.17 -0.05,-0.34 -0.02,-0.5 0.02,-0.17 0.07,-0.33 0.15,-0.48 0.03,-0.05 0.05,-0.08 0.08,-0.12l0.02 -0.03 0.2 -0.22c0.01,-0.01 0.02,-0.02 0.02,-0.02 0.01,-0.01 0.02,-0.01 0.02,-0.02l0.15 -0.1c0.03,-0.02 0.05,-0.03 0.07,-0.04l0.04 -0.02c0.07,-0.04 0.16,-0.07 0.26,-0.09zm0.26 0.33c-0.1,0.01 -0.19,0.03 -0.26,0.06 -0.08,0.03 -0.16,0.06 -0.24,0.12l-0.07 0.05c-0.01,0.01 -0.01,0.01 -0.01,0.01l-0.02 0.02c-0.02,0.01 -0.03,0.03 -0.04,0.04 -0.01,0.01 -0.01,0.01 -0.02,0.02 -0.03,0.02 -0.07,0.07 -0.1,0.13 -0.04,0.06 -0.07,0.13 -0.09,0.17 -0.03,0.08 -0.04,0.14 -0.05,0.2 -0.01,0.06 -0.02,0.13 -0.02,0.22 0,0.06 0.02,0.13 0.03,0.19 0.02,0.07 0.05,0.14 0.08,0.19 0.05,0.1 0.06,0.11 0.11,0.16l0.04 0.05c0.02,0.03 0.04,0.05 0.06,0.07 0.02,0.01 0.04,0.03 0.06,0.05 0.14,0.11 0.33,0.18 0.51,0.2 0.18,0.01 0.37,-0.02 0.53,-0.1 0.05,-0.03 0.1,-0.06 0.15,-0.1 0.04,-0.03 0.09,-0.07 0.13,-0.11 0.09,-0.11 0.16,-0.21 0.2,-0.33 0.04,-0.12 0.06,-0.24 0.05,-0.39 0,-0.1 -0.03,-0.21 -0.07,-0.31 -0.04,-0.1 -0.09,-0.19 -0.15,-0.26l-0.03 -0.03c-0.01,-0.01 -0.01,-0.01 -0.02,-0.02 0,0 -0.01,0 -0.01,-0.01l-0.07 -0.06c-0.04,-0.04 -0.08,-0.06 -0.12,-0.09 -0.04,-0.02 -0.08,-0.04 -0.14,-0.07 -0.06,-0.02 -0.14,-0.04 -0.22,-0.06 -0.07,-0.01 -0.14,-0.01 -0.2,-0.01zm-0.27 0.06c0.08,-0.03 0.17,-0.05 0.27,-0.06 0.06,0 0.13,0 0.2,0.01 0.08,0.02 0.16,0.04 0.22,0.06 0.06,0.02 0.1,0.05 0.14,0.07 0.04,0.03 0.08,0.05 0.13,0.09l0.06 0.06c0.01,0.01 0.01,0.01 0.01,0.01 0.01,0.01 0.01,0.01 0.02,0.02l0.03 0.03c0.06,0.07 0.11,0.16 0.15,0.26 0.04,0.1 0.07,0.21 0.07,0.31 0.01,0.15 -0.01,0.27 -0.05,0.39 -0.04,0.12 -0.11,0.22 -0.2,0.33 -0.04,0.04 -0.09,0.08 -0.13,0.11 -0.05,0.04 -0.1,0.07 -0.15,0.1 -0.16,0.08 -0.35,0.11 -0.53,0.1 -0.18,-0.02 -0.37,-0.09 -0.51,-0.2 -0.02,-0.02 -0.04,-0.04 -0.06,-0.05 -0.02,-0.02 -0.04,-0.04 -0.06,-0.07l-0.05 -0.05c-0.04,-0.05 -0.05,-0.06 -0.1,-0.16 -0.03,-0.05 -0.06,-0.12 -0.08,-0.19 -0.01,-0.06 -0.03,-0.13 -0.03,-0.19 0,-0.09 0,-0.16 0.01,-0.22 0.01,-0.06 0.03,-0.12 0.06,-0.2 0.01,-0.04 0.05,-0.11 0.09,-0.17 0.03,-0.06 0.07,-0.11 0.1,-0.13 0.01,-0.01 0.01,-0.02 0.02,-0.02 0.01,-0.02 0.02,-0.03 0.04,-0.04l0.01 -0.02c0.01,0 0.01,-0.01 0.02,-0.01l0.07 -0.05c0.08,-0.06 0.16,-0.09 0.23,-0.12zm0.32 -0.01c-0.12,0 -0.23,0.02 -0.32,0.06 -0.1,0.03 -0.19,0.09 -0.27,0.16l-0.02 0.01 -0.01 0.02c-0.01,0 -0.02,0.01 -0.02,0.01 0,0 -0.01,0.01 -0.02,0.01l-0.02 0.03c-0.07,0.08 -0.11,0.13 -0.16,0.25 -0.06,0.13 -0.09,0.29 -0.08,0.44 0.01,0.14 0.05,0.29 0.12,0.41 0.09,0.14 0.21,0.26 0.35,0.34 0.14,0.07 0.3,0.12 0.47,0.12 0.07,0 0.14,-0.01 0.2,-0.03 0.07,-0.01 0.13,-0.03 0.18,-0.06l0.03 -0.02c0.04,-0.02 0.08,-0.04 0.12,-0.06l0 -0.01c0.03,-0.02 0.06,-0.04 0.08,-0.06 0.05,-0.05 0.1,-0.11 0.15,-0.17 0.02,-0.02 0.03,-0.05 0.04,-0.07 0.01,-0.03 0.03,-0.05 0.04,-0.08 0.06,-0.12 0.08,-0.24 0.08,-0.37 0,-0.13 -0.03,-0.27 -0.08,-0.4 -0.03,-0.05 -0.06,-0.09 -0.09,-0.14l0 0c-0.04,-0.06 -0.07,-0.08 -0.09,-0.1 -0.01,-0.01 -0.01,-0.02 -0.02,-0.03 -0.03,-0.03 -0.07,-0.06 -0.11,-0.09 -0.06,-0.04 -0.12,-0.07 -0.17,-0.09 -0.05,-0.03 -0.12,-0.05 -0.19,-0.07 -0.06,-0.01 -0.13,-0.02 -0.19,-0.01zm-0.32 0.06c0.09,-0.04 0.2,-0.06 0.32,-0.06 0.06,-0.01 0.13,0 0.19,0.01 0.07,0.02 0.14,0.04 0.19,0.06 0.05,0.03 0.11,0.06 0.17,0.1 0.04,0.03 0.08,0.06 0.11,0.09 0.01,0.01 0.01,0.02 0.02,0.03 0.02,0.02 0.05,0.04 0.09,0.1l0 0c0.03,0.05 0.07,0.09 0.09,0.14 0.05,0.13 0.08,0.27 0.08,0.4 0,0.13 -0.02,0.25 -0.08,0.37 -0.01,0.03 -0.02,0.05 -0.04,0.08 -0.01,0.02 -0.02,0.05 -0.04,0.07 -0.05,0.06 -0.1,0.12 -0.15,0.17 -0.02,0.02 -0.05,0.05 -0.07,0.06l-0.01 0.01c-0.04,0.02 -0.08,0.04 -0.12,0.06l-0.03 0.02c-0.05,0.03 -0.11,0.05 -0.18,0.06 -0.06,0.02 -0.13,0.03 -0.2,0.03 -0.17,0 -0.33,-0.04 -0.47,-0.12 -0.14,-0.08 -0.26,-0.2 -0.35,-0.34 -0.07,-0.12 -0.11,-0.27 -0.12,-0.41 -0.01,-0.15 0.02,-0.31 0.07,-0.44 0.05,-0.12 0.1,-0.17 0.17,-0.25l0.02 -0.03c0.01,0 0.01,-0.01 0.02,-0.01 0,0 0.01,-0.01 0.02,-0.01l0.01 -0.02 0.02 -0.01c0.08,-0.07 0.17,-0.13 0.27,-0.16z"/>
 </g>
</svg>
