<?xml version="1.0" encoding="UTF-8"?>
<!DOCTYPE svg PUBLIC "-//W3C//DTD SVG 1.1//EN" "http://www.w3.org/Graphics/SVG/1.1/DTD/svg11.dtd">
<!-- Creator: CorelDRAW -->
<svg xmlns="http://www.w3.org/2000/svg" xml:space="preserve" width="76px" height="76px" version="1.1" style="shape-rendering:geometricPrecision; text-rendering:geometricPrecision; image-rendering:optimizeQuality; fill-rule:evenodd; clip-rule:evenodd"
viewBox="0 0 18.18 18.15"
 xmlns:xlink="http://www.w3.org/1999/xlink"
 xmlns:xodm="http://www.corel.com/coreldraw/odm/2003">
 <defs>
  <style type="text/css">
   <![CDATA[
    .str0 {stroke:black;stroke-width:0.08;stroke-miterlimit:22.9256}
    .fil0 {fill:none}
    .fil1 {fill:#000000}
     @media (prefers-color-scheme: dark) {
        .fil1 { fill: #ffffff; }
    }
   ]]>
  </style>
 </defs>
 <g id="Layer_x0020_1">
  <metadata id="CorelCorpID_0Corel-Layer"/>
  <rect class="fil0" width="18.18" height="18.15" rx="2.55" ry="2.55"/>
  <path class="fil1 str0" d="M8.8 3.07c-1.23,0.07 -2.49,0.56 -3.4,1.29 -0.05,0.05 -0.05,0.04 -0.1,0.09 -0.1,0.1 -0.07,0.03 -0.2,0.17 -0.07,0.07 -0.15,0.1 -0.21,0.18 -0.06,0.07 -0.11,0.14 -0.17,0.2 -1.12,1.14 -1.7,2.78 -1.6,4.4 0.08,1.43 0.51,2.42 1.35,3.5 0.04,0.06 0.03,0.04 0.09,0.1 0.09,0.09 0.07,0.1 0.23,0.25l0.14 0.14c0.03,0.02 0.02,0.02 0.04,0.05 0.03,0.02 0.03,0.03 0.06,0.05 0.2,0.18 0.59,0.5 0.84,0.65 0.43,0.26 0.48,0.29 1,0.51 1.52,0.64 3.44,0.56 4.91,-0.19 0.47,-0.24 0.74,-0.43 1.11,-0.74l0.6 -0.55c0.19,-0.2 0.5,-0.62 0.65,-0.84 0.69,-1.01 1,-2.31 0.93,-3.57 -0.05,-0.85 -0.25,-1.71 -0.62,-2.37 -0.38,-0.69 -0.48,-0.83 -1,-1.43l-0.29 -0.29c-0.19,-0.18 -0.62,-0.52 -0.85,-0.65 -0.43,-0.25 -0.48,-0.3 -0.98,-0.51 -0.74,-0.32 -1.66,-0.48 -2.53,-0.44zm0.13 0.19c-0.74,0.02 -1.75,0.27 -2.32,0.58 -0.16,0.08 -0.32,0.16 -0.47,0.25l-0.65 0.43c-0.07,0.06 -0.11,0.11 -0.19,0.17l-0.87 0.95c-0.17,0.24 -0.27,0.38 -0.42,0.65 -0.69,1.26 -0.89,2.8 -0.54,4.22 0.17,0.71 0.51,1.41 0.93,1.98 0.06,0.07 0.1,0.13 0.16,0.21l0.16 0.19c0.12,0.11 0.19,0.21 0.37,0.37 0.07,0.07 0.11,0.13 0.18,0.18 1.19,0.99 2.34,1.46 4,1.45 1.12,-0.01 2.13,-0.39 3.02,-0.96 0.3,-0.2 0.75,-0.57 0.99,-0.82l0.33 -0.39c0.11,-0.14 0.21,-0.26 0.31,-0.41 0.06,-0.08 0.08,-0.15 0.14,-0.22 0.1,-0.14 0.31,-0.56 0.38,-0.72 0.34,-0.85 0.45,-1.49 0.45,-2.47 -0.01,-0.84 -0.26,-1.64 -0.56,-2.34 -0.08,-0.17 -0.17,-0.3 -0.26,-0.46 -0.12,-0.21 -0.44,-0.65 -0.61,-0.84l-0.18 -0.19c-0.95,-0.98 -2.43,-1.87 -4.35,-1.81zm-0.1 1.63c-0.87,0.08 -1.44,0.29 -2.14,0.74l-0.3 0.23c-0.06,0.05 -0.07,0.07 -0.13,0.12 -0.14,0.11 -0.2,0.2 -0.28,0.27 -0.24,0.21 -0.68,0.96 -0.81,1.29 -0.24,0.67 -0.3,1.05 -0.28,1.81 0.01,0.53 0.22,1.25 0.44,1.65 0.29,0.53 0.32,0.51 0.65,0.91 0.2,0.24 0.31,0.33 0.55,0.52 1.21,0.96 3.11,1.14 4.46,0.41 0.44,-0.24 0.86,-0.54 1.19,-0.91 0.79,-0.89 1.17,-1.82 1.11,-3.1 -0.05,-0.83 -0.44,-1.87 -0.97,-2.44l-0.12 -0.14c-0.05,-0.07 -0.08,-0.07 -0.13,-0.13l-0.28 -0.26c-0.4,-0.31 -0.63,-0.47 -1.15,-0.68 -0.48,-0.2 -1.25,-0.34 -1.81,-0.29zm0.22 0.18c-1.03,0.04 -1.8,0.35 -2.55,0.95 -0.03,0.03 -0.05,0.03 -0.07,0.05 -0.03,0.03 -0.04,0.05 -0.07,0.08 -0.05,0.06 -0.08,0.05 -0.14,0.12 -0.35,0.4 -0.58,0.64 -0.81,1.18 -0.48,1.13 -0.45,2.6 0.2,3.66 0.76,1.24 2.04,1.99 3.54,1.98 0.56,0 1.18,-0.13 1.63,-0.37 0.23,-0.12 0.43,-0.21 0.64,-0.36 0.11,-0.08 0.25,-0.18 0.34,-0.28 0.02,-0.02 0.04,-0.04 0.07,-0.07l0.58 -0.67c0.14,-0.21 0.24,-0.4 0.36,-0.64 0.49,-1.07 0.42,-2.26 -0.03,-3.31 -0.09,-0.23 -0.24,-0.44 -0.37,-0.63 -0.23,-0.35 -0.38,-0.43 -0.47,-0.54 -0.25,-0.31 -0.83,-0.65 -1.19,-0.81 -0.49,-0.22 -1.08,-0.36 -1.66,-0.34z"/>
 </g>
</svg>
