<svg xmlns="http://www.w3.org/2000/svg" version="1.1" xmlns:xlink="http://www.w3.org/1999/xlink" width="512"
    height="512" x="0" y="0" viewBox="0 0 511.999 511.999" style="enable-background:new 0 0 512 512"
    xml:space="preserve">
    <style>
        path { fill: #000;} /* Default (light mode) */
        @media (prefers-color-scheme: dark) {
        path { fill: #fff;} /* Dark mode */
        }
    </style>
    <g transform="matrix(0.6,0,0,0.6,102.39979858398439,102.39979553222656)">
        <path
            d="M437.02 74.981C388.667 26.629 324.38 0 255.999 0S123.333 26.629 74.98 74.981C26.629 123.332 0 187.62 0 256s26.629 132.667 74.98 181.019c48.352 48.351 112.64 74.98 181.019 74.98 68.38 0 132.668-26.629 181.02-74.98 48.351-48.352 74.98-112.639 74.98-181.019.001-68.38-26.628-132.668-74.979-181.019zM255.999 491.969C125.885 491.969 20.031 386.114 20.031 256S125.885 20.031 255.999 20.031 491.968 125.886 491.968 256 386.114 491.969 255.999 491.969z"
            opacity="1"></path>
        <path
            d="M408.692 245.985c-5.531 0-10.015 4.484-10.015 10.015 0 78.673-64.005 142.677-142.678 142.677S113.322 334.672 113.322 256s64.004-142.677 142.677-142.677c43.951 0 84.796 19.811 112.062 54.354 3.427 4.341 9.726 5.083 14.067 1.656 4.343-3.426 5.084-9.725 1.656-14.067-31.089-39.385-77.664-61.974-127.785-61.974-89.718 0-162.708 72.99-162.708 162.708s72.99 162.708 162.708 162.708S418.708 345.718 418.708 256c0-5.531-4.484-10.015-10.016-10.015z"
            opacity="1"></path>
        <path
            d="M407.808 202.354c-.13-.641-.32-1.272-.57-1.873s-.562-1.182-.922-1.723a9.493 9.493 0 0 0-1.241-1.522 9.666 9.666 0 0 0-1.523-1.252 10.154 10.154 0 0 0-3.605-1.492c-3.255-.651-6.71.411-9.035 2.744-.461.461-.881.971-1.252 1.522-.36.541-.671 1.122-.921 1.723s-.44 1.232-.57 1.873a9.895 9.895 0 0 0-.19 1.963c0 .651.06 1.302.19 1.953.13.642.32 1.272.571 1.873.25.601.562 1.182.921 1.733.371.541.791 1.062 1.252 1.522a10.076 10.076 0 0 0 7.081 2.935c.651 0 1.312-.07 1.953-.2s1.272-.32 1.873-.571a9.928 9.928 0 0 0 1.732-.921c.551-.361 1.063-.781 1.523-1.242s.881-.982 1.241-1.522a10.128 10.128 0 0 0 1.692-5.559c0-.662-.07-1.313-.2-1.964z"
            opacity="1"></path>
    </g>
</svg>