<?xml version="1.0" encoding="UTF-8"?>
<!DOCTYPE svg PUBLIC "-//W3C//DTD SVG 1.1//EN" "http://www.w3.org/Graphics/SVG/1.1/DTD/svg11.dtd">
<!-- Creator: CorelDRAW -->
<svg xmlns="http://www.w3.org/2000/svg" xml:space="preserve" width="76px" height="76px" version="1.1" style="shape-rendering:geometricPrecision; text-rendering:geometricPrecision; image-rendering:optimizeQuality; fill-rule:evenodd; clip-rule:evenodd"
viewBox="0 0 19.62 19.59"
 xmlns:xlink="http://www.w3.org/1999/xlink"
 xmlns:xodm="http://www.corel.com/coreldraw/odm/2003">
 <defs>
  <style type="text/css">
   <![CDATA[
    .fil0 {fill:none}
    .fil1 {fill:#373435}
   ]]>
  </style>
 </defs>
 <g id="Layer_x0020_1">
  <metadata id="CorelCorpID_0Corel-Layer"/>
  <rect class="fil0" width="19.62" height="19.59" rx="2.75" ry="2.75"/>
  <path class="fil1" d="M10.55 16.64c-0.06,0 0,0.05 0,-0.23l0.01 -0.93c0.04,-0.02 0.03,-0.01 0.04,-0.04 0.1,-0.01 0.26,-0.03 0.32,0.02 0.05,0.09 0.02,1.04 0.02,1.21 0.03,0.07 0.14,0.02 0.18,0 0.07,-0.25 0.02,-0.89 0.03,-1.2l0.3 -0.01c0,0.19 -0.03,1.11 0.03,1.2 0.08,0.06 0.15,0.05 0.2,-0.03 0.06,-0.14 -0.01,-0.93 0.02,-1.15 0.07,-0.03 0.19,-0.02 0.28,-0.02 0.01,0.13 0.03,0.48 0.02,0.62 0,0.14 -0.03,0.56 0.07,0.61 0.24,0.13 0.18,-0.37 0.17,-0.48 -0.01,-0.85 -0.06,-2.46 -0.15,-3.18 -0.04,-0.38 -0.05,-0.83 -0.12,-1.18 -0.07,-0.37 -0.14,-0.76 -0.2,-1.14 -0.05,-0.39 -0.28,-1.14 -0.41,-1.58 -0.05,-0.18 -0.12,-0.35 -0.16,-0.5 0.03,-0.03 0.05,-0.04 0.1,-0.07 0.03,-0.03 0.06,-0.06 0.09,-0.08 0.15,-0.1 0.32,-0.19 0.43,-0.32l0.16 -0.13c0,-0.01 0.01,-0.01 0.01,-0.01l0.18 -0.16c0.03,-0.02 0.03,-0.02 0.06,-0.04l0.37 -0.38c0.06,-0.07 0.13,-0.11 0.19,-0.17 0.33,-0.32 0.61,-0.68 0.77,-1.1 0.11,-0.31 0.12,-0.67 0.05,-0.98 -0.02,-0.06 -0.02,-0.1 -0.04,-0.15 -0.09,-0.38 -0.39,-0.92 -0.66,-1.2 -0.05,-0.05 -0.06,-0.05 -0.1,-0.1 -0.08,-0.11 -0.19,-0.2 -0.29,-0.27 -0.35,-0.24 -0.8,-0.36 -1.23,-0.46 -0.63,-0.15 -1.41,-0.15 -2.08,-0.11 -0.23,0.01 -0.45,0.05 -0.67,0.07 -0.49,0.04 -1.24,0.31 -1.58,0.66 -0.29,0.28 -0.44,0.47 -0.66,0.84 -0.07,0.13 -0.19,0.4 -0.22,0.52 -0.14,0.48 -0.16,0.77 0.03,1.24 0.07,0.18 0.15,0.34 0.26,0.49 0.28,0.37 0.3,0.32 0.54,0.58l0.39 0.36c0.02,0.01 0.03,0.02 0.05,0.03l0.1 0.09c0.14,0.09 0.29,0.23 0.42,0.33l0.37 0.28c0.04,0.02 0.07,0.05 0.11,0.09 -0.08,0.08 -0.3,0.53 -0.37,0.67 -0.2,0.45 -0.28,0.65 -0.43,1.16 -0.38,1.39 -0.52,2.8 -0.52,4.25l0 0.79c0,0.12 -0.02,0.17 0.07,0.21 0.32,0.19 0.08,-0.93 0.18,-1.24l0.27 -0.01c0.02,0.24 -0.04,1.07 0.02,1.2 0.08,0.1 0.19,0.08 0.23,-0.02 0.02,-0.06 0.01,-0.3 0.01,-0.38l0 -0.59c0,-0.06 0,-0.15 0.02,-0.2l0.32 -0.01c-0.01,0.24 -0.03,1.06 0.01,1.23 0.31,0.1 0.23,-0.2 0.23,-0.47 0,-0.87 -0.11,-0.73 0.29,-0.76l0 1.02c0,0.12 -0.02,0.24 0.12,0.25 0.2,0 0.13,-0.44 0.13,-0.59 0,-0.17 -0.02,-0.56 0.02,-0.68l0.33 0c-0.02,0.22 -0.04,1.12 0.03,1.25 0.21,0.07 0.2,-0.08 0.2,-0.23 0,-0.71 -0.01,-1.42 0.05,-2.12 0.02,-0.19 0.02,-0.69 0.06,-0.82 0.09,0.14 0.18,2.72 0.17,3.19 0,0.19 0,0.38 0,0.57 0,0.15 -0.09,0.66 0.18,0.53 0.07,-0.04 0.01,0 0.04,-0.03 0.07,-0.24 -0.04,-0.98 0.04,-1.18 0.07,-0.02 0.21,-0.02 0.29,0 0.05,0.33 -0.01,0.76 0,1.1 0.01,0.14 0.13,0.19 0.21,0.07zm-3.29 -2.57l2.03 0.01c0,-0.35 0.06,-1.5 0.1,-1.8 0.07,-0.55 0.04,-1.09 0.2,-1.7 0.01,-0.07 0.04,-0.12 0.05,-0.18l0.18 -0.53c0.04,-0.1 0.09,-0.19 0.16,-0.31 0.11,-0.18 0.39,-0.58 0.56,-0.72l0.35 -0.28c0.05,-0.03 0.08,-0.06 0.13,-0.1l0.34 -0.25c0,0 0.01,-0.01 0.01,-0.01l0.2 -0.16c0.12,-0.09 0.62,-0.52 0.69,-0.62 0.09,-0.13 0.3,-0.31 0.42,-0.4 0.08,-0.07 0.05,-0.07 0.11,-0.13 0.03,-0.04 0.07,-0.06 0.12,-0.11l0.21 -0.29c0.32,-0.5 0.38,-0.9 0.18,-1.5 -0.04,-0.11 -0.08,-0.23 -0.14,-0.33l-0.17 -0.3c-0.09,-0.12 -0.17,-0.28 -0.3,-0.4 -0.04,-0.04 -0.09,-0.08 -0.11,-0.12 -0.01,0.18 0.02,0.19 -0.02,0.41 -0.02,0.12 -0.07,0.28 -0.11,0.38 -0.09,0.21 -0.43,0.73 -0.57,0.88l-0.25 0.24c-0.15,0.18 -0.39,0.35 -0.44,0.4 -0.24,0.25 -0.54,0.39 -0.72,0.56 -0.16,0.15 -0.34,0.26 -0.45,0.36l-0.25 0.23c-0.28,0.21 -0.87,0.82 -1.07,1.11l-0.49 0.83c-0.22,0.47 -0.36,0.86 -0.49,1.37 -0.28,1.09 -0.43,2.32 -0.46,3.46zm2.77 1.15l1.94 0c-0.01,-1.16 -0.08,-2.35 -0.26,-3.43 -0.19,-1.09 -0.33,-1.92 -0.71,-2.99 -0.21,0.09 -0.46,0.39 -0.59,0.58l-0.13 0.18c-0.27,0.43 -0.32,0.54 -0.45,1.06 -0.09,0.35 -0.11,0.46 -0.06,0.86 0.09,0.69 0.21,2.03 0.22,2.77 0.01,0.3 0.02,0.67 0.04,0.97zm-2.32 -10.18l0.46 -0.2c0.56,-0.23 1.05,-0.29 1.65,-0.28 0.3,0 0.59,0.01 0.87,0.07 0.09,0.02 0.18,0.04 0.28,0.06 0.53,0.12 0.53,0.18 0.94,0.36 0.14,-0.15 0.35,-0.58 0.4,-0.82 0.05,-0.23 0.05,-0.56 -0.15,-0.68 -0.26,-0.15 -0.92,-0.32 -1.19,-0.35 -0.8,-0.11 -1.52,-0.06 -2.31,0.01 -0.37,0.03 -0.65,0.12 -0.98,0.26 -0.08,0.04 -0.35,0.14 -0.39,0.22 -0.06,0.11 -0.03,0.42 0,0.54 0.1,0.36 0.26,0.56 0.42,0.81zm0.8 3.21c0.14,-0.18 0.56,-0.68 0.69,-0.79 0.21,-0.17 0.24,-0.22 0.39,-0.37 0.04,-0.03 0.05,-0.04 0.09,-0.07 -0.01,0 -0.01,-0.01 -0.01,-0.01l-0.2 -0.13c-0.36,-0.24 -0.34,-0.28 -0.62,-0.47l-0.26 -0.22c-0.1,-0.1 -0.07,-0.04 -0.15,-0.11 -0.03,-0.03 -0.05,-0.06 -0.08,-0.09 -0.04,-0.04 -0.06,-0.04 -0.1,-0.07 -0.09,-0.07 -0.22,-0.18 -0.29,-0.27l-0.28 -0.27c-0.1,-0.07 -0.25,-0.32 -0.32,-0.41 -0.2,-0.25 -0.4,-0.71 -0.34,-1.06l-0.57 0.81c-0.05,0.09 -0.1,0.22 -0.14,0.33l-0.09 0.36c-0.05,0.43 0.09,0.73 0.3,1.08 0.05,0.09 0.13,0.21 0.19,0.26 0.09,0.07 0.16,0.14 0.24,0.23 0.28,0.31 0.32,0.31 0.61,0.56l0.43 0.34c0.02,0.02 0.01,0.01 0.03,0.03l0.34 0.25c0.06,0.03 0.1,0.06 0.14,0.09zm-0.58 -3.01c0.01,0.06 0.04,0.06 0.09,0.11 0.24,0.23 0.31,0.31 0.59,0.53l0.65 0.52c0.01,0 0.04,0.02 0.04,0.02l0.33 0.24c0.09,0.06 0.18,0.15 0.27,0.18l0.54 -0.41c0.01,-0.01 0.03,-0.03 0.03,-0.03l0.86 -0.71c0.03,-0.03 0.02,-0.02 0.05,-0.05 0.1,-0.11 0.11,-0.09 0.18,-0.16 0.06,-0.07 0.14,-0.18 0.2,-0.24 -0.55,-0.37 -1.9,-0.51 -2.5,-0.42 -0.37,0.06 -0.6,0.09 -0.94,0.24 -0.06,0.03 -0.36,0.14 -0.39,0.18zm2.62 11.4c0.04,-0.04 0.03,-0.15 0.03,-0.23 0,-0.23 -0.02,-0.79 0,-0.95l0.33 0 0.01 1.14c0,0 -0.02,0.02 0.02,0.07 0,-0.17 0.03,-1.12 -0.02,-1.21 -0.06,-0.05 -0.22,-0.03 -0.32,-0.02 -0.01,0.03 0,0.02 -0.04,0.04l-0.01 0.93c0,0.28 -0.06,0.23 0,0.23z"/>
 </g>
</svg>
