<svg xmlns="http://www.w3.org/2000/svg" version="1.1" xmlns:xlink="http://www.w3.org/1999/xlink" width="512"
    height="512" x="0" y="0" viewBox="0 0 64 64" style="enable-background:new 0 0 512 512" xml:space="preserve"
    class="">
    <style>
        path { fill: #000; } /* Default (light mode) */
        @media (prefers-color-scheme: dark) {
        path { fill: #fff; } /* Dark mode */
        }
    </style>
    <g transform="matrix(0.6,0,0,0.6,12.800350189208984,12.797837734222412)">
        <path
            d="M50.99 2.95c-.009-.509-.484-.948-.99-.95-.176.034-29.009-.061-29.15.03-.319.012-.578.269-.745.523l-3.713 7.426a3.99 3.99 0 0 0 1.642 5.289l10.008 5.535c-8.244 9.756-13.306 20.533-15.032 32.049-.095.586.348.986.819 1.275l-.82 5.732c-.165 1.301 1.769 1.585 1.98.283l.75-5.242c.509.141 1.084.27 1.74.383l-.8 5.574a1.002 1.002 0 0 0 .848 1.133 1.003 1.003 0 0 0 1.133-.848l.8-5.57c.497.06 1.025.115 1.609.164l-.729 5.123a1 1 0 0 0 1.98.282l.75-5.268c.479.027.981.051 1.501.07l-.562 3.916c-.09.595.389 1.147.991 1.142a1 1 0 0 0 .989-.858l.594-4.145c.704.053 1.171-.094 1.382-.743.955-3.632 2.08-7.145 3.351-10.491.872 3.811 1.686 6.403 1.729 6.539.223.704.989.836 1.594.539l1.057 5.585a1 1 0 0 0 1.965-.371l-1.107-5.852 1.116-.372 1.047 5.545a1 1 0 0 0 1.965-.371l-1.098-5.812 1.405-.468 1.028 5.46a1 1 0 0 0 1.965-.369l-1.078-5.729 1.086-.362 1.028 5.46a1 1 0 0 0 1.965-.369l-1.078-5.729c.663-.147 1.243-.578 1.066-1.329-.923-3.651-4.517-15.936-5.78-20.261a3.957 3.957 0 0 0 2.181-1.885l2.336-4.451c.499-.95.58-1.999.312-2.949 2.91-1.422 4.789-1.854 4.981-4.93-.012-.05.021-9.291-.01-9.33zM24.83 4h21.969l-9.828 6.803zm1.404 49.991c-2.496-.045-5.306-.205-7.487-.531-1.712-.251-2.739-.471-3.664-.918 1.774-11.035 6.734-21.376 14.741-30.754l8.068 4.463c.204.113.416.2.631.275-5.373 7.393-9.732 17.922-12.29 27.466zm18.562-7.646-10.133 3.381a102.057 102.057 0 0 1-2.01-8.288c2.121-5.047 4.47-9.434 7.002-13.065 1.235 4.229 4.084 14.007 5.141 17.972zm-.859-27.115L41.6 23.681c-.487.977-1.795 1.368-2.738.82L19.004 13.518a1.995 1.995 0 0 1-.821-2.645l3.244-6.488 15.011 8.412c.069.048.135.089.212.119l6.495 3.64a1.99 1.99 0 0 1 .793 2.675zm4.085-5.227c-.391.225-1.817.906-3.033 1.482-.388-.578-5.422-3.166-6.075-3.594l10.087-6.983v7.372c0 .72-.369 1.365-.979 1.723z"
            data-name="scarf"  opacity="1" class=""></path>
    </g>
</svg>