<svg xmlns="http://www.w3.org/2000/svg" version="1.1" xmlns:xlink="http://www.w3.org/1999/xlink" width="512"
    height="512" x="0" y="0" viewBox="0 0 497.431 497.431" style="enable-background:new 0 0 512 512"
    xml:space="preserve">
     <style>
        path { fill: #000; } /* Default (light mode) */
        @media (prefers-color-scheme: dark) {
        path { fill: #fff; } /* Dark mode */
        }
    </style>
    <g transform="matrix(0.6,0,0,0.6,99.4861083984375,99.48613395690919)">
        <path
            d="M368.559 242.83c28-29.24 24-60.24 21.92-69.24a26.922 26.922 0 0 0 8.36-19.36 354.98 354.98 0 0 0-3.08-47c-5.32-39.24-29.2-72.8-30.4-74.44-9.88-18.32-38.88-25.4-47.6-27.12-88-17.6-153.36 11.28-156 12.52-.4.192-.765.449-1.08.76-1.44 1.48-23.12 24-28.76 39a224.496 224.496 0 0 0-8.84 33.64c-.96 5.32-7.12 13.36-16.92 22.12a22.118 22.118 0 0 0-7.56 17.24c.56 12.88 8.24 34.08 41.32 62.12a28.663 28.663 0 0 0-2.76 8.8 4 4 0 0 0 1.64 3.56l16.68 12.24a19.13 19.13 0 0 0-1.84 8.36c.84 12.92 30.28 41.64 36 47.24a4 4 0 0 0 5.16.32 4 4 0 0 0 1-4.92c-4.36-8.44-1.92-29.68 63.56-77.04 46.36-33.52 84.52-78.96 96.8-100.72 6.52-11.48 12.8-22.6 14.08-34.44a163.52 163.52 0 0 1 17.6 52 343.056 343.056 0 0 1 3 45.88 19.042 19.042 0 0 1-7.24 14.92 324.474 324.474 0 0 1-92 49.72c-67.04 24.08-92.88 49.08-93.92 59.76a386.867 386.867 0 0 0 2.36 177.92 4 4 0 0 0 4.48 3 114.123 114.123 0 0 1 33.92.64 192.008 192.008 0 0 0 52.36.48c3.36-.44 7.44-1.2 12-2.04 4.56-.84 10.72-1.92 16.76-2.76l7.36 38.2a4.001 4.001 0 0 0 4 3.24c41.76 0 54.96-23.2 55.48-24a4.001 4.001 0 0 0 .28-3.2s-7.24-21.88-26.6-94.76a810.684 810.684 0 0 0-36-101.72 122.89 122.89 0 0 0 44.48-30.92zm-262.28-112.08a14.119 14.119 0 0 1 4.88-10.92c8-7.12 17.84-17.52 19.48-26.64a210.251 210.251 0 0 1 8.44-32.28c3.56-9.52 15.04-23.16 21.88-30.72a208.281 208.281 0 0 0 59.24 103.12c-47.16 19.36-67.64 39.36-76.56 52.84-31.48-27.08-36.96-46.28-37.36-55.4zm107.2-16.24a251.996 251.996 0 0 1 66.28-4.52c-2.64 2-5.28 3.92-7.96 5.88h-.32c-16.24 4.8-30.52 9.36-42.92 14.2-.2-.2-.32-.44-.52-.64a153.974 153.974 0 0 1-14.56-14.92zm-68.16 86.16c2.6-8.44 18.24-41.32 105.76-70.2l-2.44 1.72c-9.24 6.4-17.96 12.48-25.72 18.24-32 23.72-54.08 44.88-64 60.24l-13.6-10zm203.88-113.72.12-.04c-11.72 20.44-49.76 65.76-94.68 98.28-43.16 31.24-65.64 55.48-68.08 74.04-12-12.52-24.88-27.76-25.24-33.6-.6-8.84 20-34.12 66.4-68.72 7.64-5.68 16.28-11.72 25.48-18.12 44-30.56 98.48-68.6 90.24-106.16a4.087 4.087 0 0 0-8 1.68c5.12 22.36-17.84 46.36-46.2 68.44a258.588 258.588 0 0 0-81.72 4.8 209.662 209.662 0 0 1-25.12-40c6.16-2.88 46.4-19.68 109.84-11.28a4.034 4.034 0 0 0 1.04-8c-65.64-8.64-106.72 8.4-114.16 11.8a186.712 186.712 0 0 1-11.24-36 275.204 275.204 0 0 1 148.32-10.56c16.36 3.16 35.96 11.16 42.32 23.4 8.68 16.72 2.04 29.92-9.32 50.04zm3.36 290.32c16.4 62.24 24 86.84 26.04 93.36l.12-.04c-3.2 4.36-15.2 17.68-44.28 18.6l-6.6-34.28c13.12-1.2 25.72-.64 30.48 5.72a4 4 0 0 0 6.4-4.8c-10.88-14.52-41.04-9.08-63.08-5.12-4.6.84-8.6 1.56-11.76 1.96a184.014 184.014 0 0 1-50.36-.48 129.216 129.216 0 0 0-32.44-1.08 375.481 375.481 0 0 1-1.56-170.44 9.02 9.02 0 0 0 0-1.04c.24-2.64 10.96-17.8 49-36.48 3.08 8.88 10.04 30.92 14.04 50.32a590.128 590.128 0 0 1 12.84 108 4 4 0 0 0 8 0 597.627 597.627 0 0 0-12.84-109.64 532.749 532.749 0 0 0-14.56-52.32c9.24-4.24 20-8.64 32-13.12 7.72 15.76 41.52 87.16 58.56 150.88zm-31.6-111.2c-8.68-20-16-35.56-19.32-42.48a337.157 337.157 0 0 0 81.8-44.24 69.678 69.678 0 0 1-20.56 57.92 114.802 114.802 0 0 1-41.92 28.8z"
            opacity="1" data-original="#000000"></path>
    </g>
</svg>