<?xml version="1.0" encoding="UTF-8"?>
<!DOCTYPE svg PUBLIC "-//W3C//DTD SVG 1.1//EN" "http://www.w3.org/Graphics/SVG/1.1/DTD/svg11.dtd">
<!-- Creator: CorelDRAW -->
<svg xmlns="http://www.w3.org/2000/svg" xml:space="preserve" width="76px" height="76px" version="1.1" style="shape-rendering:geometricPrecision; text-rendering:geometricPrecision; image-rendering:optimizeQuality; fill-rule:evenodd; clip-rule:evenodd"
viewBox="0 0 97.27 97.1"
 xmlns:xlink="http://www.w3.org/1999/xlink"
 xmlns:xodm="http://www.corel.com/coreldraw/odm/2003">
 <defs>
  <style type="text/css">
   <![CDATA[
    .str0 {stroke:black;stroke-width:0.15;stroke-linecap:round;stroke-linejoin:round;stroke-miterlimit:22.9256}
    .fil0 {fill:none}
    .fil1 {fill:black}
   ]]>
  </style>
 </defs>
 <g id="Layer_x0020_1">
  <metadata id="CorelCorpID_0Corel-Layer"/>
  <rect class="fil0" width="97.27" height="97.09" rx="13.64" ry="13.61"/>
  <g>
   <path class="fil0 str0" d="M52.27 82.49c-0.26,0 0.05,0.25 0.03,-1.17l0.02 -4.57c0.2,-0.11 0.15,-0.06 0.25,-0.23 0.48,-0.02 1.26,-0.12 1.56,0.11 0.24,0.44 0.12,5.17 0.1,5.99 0.16,0.37 0.7,0.11 0.91,0.02 0.3,-1.25 0.08,-4.41 0.12,-5.94l1.51 -0.06c-0.02,0.94 -0.15,5.48 0.13,5.95 0.39,0.29 0.74,0.24 0.98,-0.17 0.31,-0.68 -0.04,-4.6 0.11,-5.69 0.35,-0.17 0.96,-0.09 1.38,-0.08 0.08,0.64 0.14,2.34 0.13,3.04 -0.01,0.71 -0.19,2.78 0.33,3.05 1.18,0.63 0.88,-1.85 0.86,-2.39 -0.08,-4.22 -0.32,-12.22 -0.75,-15.77 -0.23,-1.9 -0.28,-4.1 -0.62,-5.87 -0.35,-1.79 -0.7,-3.75 -0.97,-5.62 -0.28,-1.95 -1.42,-5.68 -2.03,-7.82 -0.25,-0.9 -0.59,-1.77 -0.8,-2.5 0.13,-0.12 0.25,-0.18 0.47,-0.35 0.18,-0.13 0.33,-0.26 0.49,-0.38 0.71,-0.52 1.54,-0.93 2.12,-1.58l0.78 -0.68c0.02,-0.01 0.04,-0.03 0.05,-0.04l0.91 -0.76c0.12,-0.11 0.14,-0.1 0.27,-0.21l1.82 -1.88c0.35,-0.35 0.65,-0.55 0.98,-0.87 1.6,-1.55 3.02,-3.34 3.81,-5.46 0.56,-1.51 0.56,-3.3 0.22,-4.86 -0.06,-0.26 -0.1,-0.46 -0.16,-0.71 -0.46,-1.87 -1.97,-4.59 -3.3,-5.97 -0.25,-0.25 -0.27,-0.25 -0.47,-0.5 -0.4,-0.51 -0.95,-0.97 -1.43,-1.31 -1.75,-1.22 -3.98,-1.79 -6.1,-2.29 -3.12,-0.73 -7,-0.76 -10.33,-0.56 -1.13,0.07 -2.21,0.28 -3.31,0.37 -2.42,0.19 -6.16,1.54 -7.86,3.25 -1.43,1.42 -2.18,2.35 -3.23,4.17 -0.38,0.67 -0.94,1.97 -1.12,2.6 -0.69,2.37 -0.77,3.78 0.15,6.15 0.33,0.88 0.76,1.67 1.31,2.4 1.38,1.84 1.47,1.62 2.67,2.89l1.92 1.77c0.11,0.07 0.16,0.09 0.24,0.16l0.52 0.45c0.69,0.42 1.41,1.12 2.06,1.64l1.85 1.35c0.18,0.14 0.36,0.25 0.55,0.45 -0.41,0.42 -1.49,2.63 -1.83,3.36 -1.03,2.19 -1.43,3.19 -2.13,5.76 -1.88,6.85 -2.58,13.84 -2.59,21.04l-0.01 3.9c-0.01,0.62 -0.09,0.83 0.34,1.06 1.59,0.91 0.41,-4.6 0.92,-6.14l1.33 -0.04c0.11,1.18 -0.2,5.27 0.11,5.92 0.36,0.48 0.95,0.39 1.13,-0.11 0.1,-0.27 0.04,-1.48 0.04,-1.86l0 -2.92c0.01,-0.29 -0.01,-0.74 0.12,-0.99l1.55 -0.06c-0.03,1.19 -0.14,5.23 0.07,6.09 1.55,0.49 1.16,-0.97 1.16,-2.32 -0.01,-4.33 -0.58,-3.64 1.44,-3.78l0 5.05c-0.01,0.61 -0.14,1.23 0.57,1.23 0.99,0.01 0.64,-2.17 0.64,-2.89 0.01,-0.84 -0.11,-2.76 0.08,-3.37l1.64 0c-0.07,1.09 -0.16,5.52 0.16,6.19 1.02,0.35 1.02,-0.4 1.01,-1.16 -0.03,-3.51 -0.08,-7.05 0.25,-10.51 0.09,-0.92 0.1,-3.39 0.3,-4.04 0.45,0.69 0.86,13.49 0.84,15.81 0,0.94 0,1.88 0,2.82 0,0.74 -0.47,3.27 0.89,2.61 0.34,-0.16 0.02,0 0.2,-0.13 0.35,-1.21 -0.19,-4.88 0.17,-5.83 0.34,-0.1 1.03,-0.12 1.43,0 0.26,1.62 -0.04,3.73 0.02,5.41 0.03,0.73 0.65,0.96 1.02,0.38zm-16.27 -12.73l10.03 0.01c0.04,-1.71 0.31,-7.43 0.49,-8.9 0.35,-2.73 0.21,-5.42 0.99,-8.41 0.09,-0.34 0.2,-0.61 0.28,-0.92l0.88 -2.61c0.21,-0.51 0.44,-0.96 0.79,-1.54 0.54,-0.9 1.95,-2.89 2.78,-3.57l1.73 -1.38c0.27,-0.17 0.43,-0.31 0.66,-0.51l1.67 -1.24c0.02,-0.01 0.05,-0.03 0.06,-0.04l0.97 -0.78c0.62,-0.48 3.07,-2.62 3.43,-3.1 0.46,-0.62 1.5,-1.53 2.08,-2 0.41,-0.32 0.27,-0.31 0.54,-0.63 0.15,-0.18 0.37,-0.3 0.62,-0.55l1.02 -1.4c1.61,-2.5 1.9,-4.48 0.91,-7.45 -0.18,-0.53 -0.42,-1.15 -0.68,-1.66l-0.88 -1.45c-0.43,-0.62 -0.81,-1.4 -1.49,-2.01 -0.19,-0.17 -0.45,-0.39 -0.55,-0.61 -0.01,0.9 0.15,0.99 -0.06,2.04 -0.13,0.63 -0.34,1.38 -0.55,1.88 -0.43,1.07 -2.12,3.65 -2.86,4.36l-1.2 1.22c-0.73,0.87 -1.94,1.72 -2.2,1.99 -1.16,1.2 -2.68,1.94 -3.58,2.76 -0.8,0.73 -1.68,1.27 -2.21,1.77l-1.27 1.17c-1.35,1.04 -4.27,4.03 -5.29,5.49l-2.4 4.11c-1.12,2.31 -1.8,4.27 -2.45,6.81 -1.37,5.38 -2.13,11.49 -2.26,17.15zm13.73 5.69l9.61 -0.01c-0.06,-5.74 -0.42,-11.67 -1.32,-17.01 -0.91,-5.4 -1.61,-9.52 -3.49,-14.83 -1.05,0.48 -2.28,1.97 -2.95,2.87l-0.64 0.92c-1.3,2.11 -1.57,2.69 -2.22,5.26 -0.43,1.72 -0.56,2.29 -0.31,4.24 0.46,3.41 1.04,10.1 1.13,13.72 0.04,1.53 0.06,3.36 0.19,4.84zm-11.49 -50.48l2.26 -0.98c2.77,-1.15 5.19,-1.45 8.17,-1.41 1.48,0.02 2.92,0.06 4.33,0.38 0.44,0.09 0.89,0.17 1.37,0.28 2.64,0.59 2.64,0.89 4.65,1.77 0.73,-0.71 1.76,-2.84 2,-4.02 0.23,-1.14 0.27,-2.79 -0.76,-3.39 -1.27,-0.75 -4.53,-1.57 -5.87,-1.75 -3.99,-0.54 -7.56,-0.28 -11.46,0.06 -1.82,0.17 -3.23,0.61 -4.86,1.31 -0.39,0.16 -1.72,0.68 -1.94,1.07 -0.32,0.53 -0.15,2.08 0.01,2.68 0.47,1.78 1.3,2.78 2.1,4zm3.96 15.92c0.68,-0.91 2.75,-3.39 3.39,-3.91 1.07,-0.86 1.2,-1.11 1.97,-1.83 0.16,-0.15 0.24,-0.19 0.41,-0.34 -0.02,-0.02 -0.04,-0.06 -0.05,-0.04l-0.96 -0.67c-1.78,-1.18 -1.72,-1.38 -3.11,-2.34l-1.27 -1.07c-0.52,-0.51 -0.35,-0.19 -0.73,-0.55 -0.15,-0.14 -0.27,-0.31 -0.42,-0.45 -0.2,-0.19 -0.3,-0.22 -0.5,-0.37 -0.42,-0.33 -1.09,-0.89 -1.41,-1.31l-1.39 -1.34c-0.5,-0.36 -1.23,-1.57 -1.59,-2.02 -0.98,-1.23 -1.98,-3.54 -1.7,-5.28l-2.82 4.03c-0.26,0.45 -0.49,1.1 -0.68,1.63l-0.47 1.79c-0.24,2.13 0.46,3.63 1.47,5.36 0.25,0.42 0.65,1.01 0.96,1.27 0.43,0.36 0.78,0.72 1.18,1.16 1.39,1.53 1.6,1.52 3.04,2.78l2.11 1.69c0.11,0.07 0.06,0.03 0.17,0.11l1.69 1.23c0.28,0.19 0.48,0.34 0.71,0.47zm-2.92 -14.94c0.07,0.3 0.23,0.32 0.47,0.56 1.2,1.16 1.54,1.53 2.92,2.62l3.25 2.58c0.01,0 0.17,0.12 0.17,0.12l1.63 1.2c0.47,0.3 0.89,0.72 1.34,0.88l2.7 -2.05c0.02,-0.02 0.15,-0.14 0.16,-0.14l4.25 -3.53c0.16,-0.14 0.11,-0.08 0.26,-0.23 0.48,-0.53 0.53,-0.46 0.85,-0.79 0.31,-0.34 0.7,-0.91 0.99,-1.2 -2.68,-1.81 -9.37,-2.53 -12.37,-2.07 -1.84,0.29 -2.97,0.44 -4.65,1.17 -0.32,0.14 -1.78,0.7 -1.97,0.88zm12.99 56.54c0.21,-0.2 0.15,-0.76 0.15,-1.17 0.01,-1.13 -0.06,-3.9 0.04,-4.68l1.64 -0.02 0.01 5.67c0,0 -0.06,0.07 0.12,0.33 0.02,-0.82 0.14,-5.55 -0.1,-5.99 -0.3,-0.23 -1.08,-0.13 -1.56,-0.11 -0.1,0.17 -0.05,0.12 -0.25,0.23l-0.02 4.57c0.02,1.42 -0.29,1.17 -0.03,1.17z"/>
   <path id="_1" class="fil1" d="M52.27 82.49c-0.26,0 0.05,0.25 0.03,-1.17l0.02 -4.57c0.2,-0.11 0.15,-0.06 0.25,-0.23 0.48,-0.02 1.26,-0.12 1.56,0.11 0.24,0.44 0.12,5.17 0.1,5.99 0.16,0.37 0.7,0.11 0.91,0.02 0.3,-1.25 0.08,-4.41 0.12,-5.94l1.51 -0.06c-0.02,0.94 -0.15,5.48 0.13,5.95 0.39,0.29 0.74,0.24 0.98,-0.17 0.31,-0.68 -0.04,-4.6 0.11,-5.69 0.35,-0.17 0.96,-0.09 1.38,-0.08 0.08,0.64 0.14,2.34 0.13,3.04 -0.01,0.71 -0.19,2.78 0.33,3.05 1.18,0.63 0.88,-1.85 0.86,-2.39 -0.08,-4.22 -0.32,-12.22 -0.75,-15.77 -0.23,-1.9 -0.28,-4.1 -0.62,-5.87 -0.35,-1.79 -0.7,-3.75 -0.97,-5.62 -0.28,-1.95 -1.42,-5.68 -2.03,-7.82 -0.25,-0.9 -0.59,-1.77 -0.8,-2.5 0.13,-0.12 0.25,-0.18 0.47,-0.35 0.18,-0.13 0.33,-0.26 0.49,-0.38 0.71,-0.52 1.54,-0.93 2.12,-1.58l0.78 -0.68c0.02,-0.01 0.04,-0.03 0.05,-0.04l0.91 -0.76c0.12,-0.11 0.14,-0.1 0.27,-0.21l1.82 -1.88c0.35,-0.35 0.65,-0.55 0.98,-0.87 1.6,-1.55 3.02,-3.34 3.81,-5.46 0.56,-1.51 0.56,-3.3 0.22,-4.86 -0.06,-0.26 -0.1,-0.46 -0.16,-0.71 -0.46,-1.87 -1.97,-4.59 -3.3,-5.97 -0.25,-0.25 -0.27,-0.25 -0.47,-0.5 -0.4,-0.51 -0.95,-0.97 -1.43,-1.31 -1.75,-1.22 -3.98,-1.79 -6.1,-2.29 -3.12,-0.73 -7,-0.76 -10.33,-0.56 -1.13,0.07 -2.21,0.28 -3.31,0.37 -2.42,0.19 -6.16,1.54 -7.86,3.25 -1.43,1.42 -2.18,2.35 -3.23,4.17 -0.38,0.67 -0.94,1.97 -1.12,2.6 -0.69,2.37 -0.77,3.78 0.15,6.15 0.33,0.88 0.76,1.67 1.31,2.4 1.38,1.84 1.47,1.62 2.67,2.89l1.92 1.77c0.11,0.07 0.16,0.09 0.24,0.16l0.52 0.45c0.69,0.42 1.41,1.12 2.06,1.64l1.85 1.35c0.18,0.14 0.36,0.25 0.55,0.45 -0.41,0.42 -1.49,2.63 -1.83,3.36 -1.03,2.19 -1.43,3.19 -2.13,5.76 -1.88,6.85 -2.58,13.84 -2.59,21.04l-0.01 3.9c-0.01,0.62 -0.09,0.83 0.34,1.06 1.59,0.91 0.41,-4.6 0.92,-6.14l1.33 -0.04c0.11,1.18 -0.2,5.27 0.11,5.92 0.36,0.48 0.95,0.39 1.13,-0.11 0.1,-0.27 0.04,-1.48 0.04,-1.86l0 -2.92c0.01,-0.29 -0.01,-0.74 0.12,-0.99l1.55 -0.06c-0.03,1.19 -0.14,5.23 0.07,6.09 1.55,0.49 1.16,-0.97 1.16,-2.32 -0.01,-4.33 -0.58,-3.64 1.44,-3.78l0 5.05c-0.01,0.61 -0.14,1.23 0.57,1.23 0.99,0.01 0.64,-2.17 0.64,-2.89 0.01,-0.84 -0.11,-2.76 0.08,-3.37l1.64 0c-0.07,1.09 -0.16,5.52 0.16,6.19 1.02,0.35 1.02,-0.4 1.01,-1.16 -0.03,-3.51 -0.08,-7.05 0.25,-10.51 0.09,-0.92 0.1,-3.39 0.3,-4.04 0.45,0.69 0.86,13.49 0.84,15.81 0,0.94 0,1.88 0,2.82 0,0.74 -0.47,3.27 0.89,2.61 0.34,-0.16 0.02,0 0.2,-0.13 0.35,-1.21 -0.19,-4.88 0.17,-5.83 0.34,-0.1 1.03,-0.12 1.43,0 0.26,1.62 -0.04,3.73 0.02,5.41 0.03,0.73 0.65,0.96 1.02,0.38zm-16.27 -12.73l10.03 0.01c0.04,-1.71 0.31,-7.43 0.49,-8.9 0.35,-2.73 0.21,-5.42 0.99,-8.41 0.09,-0.34 0.2,-0.61 0.28,-0.92l0.88 -2.61c0.21,-0.51 0.44,-0.96 0.79,-1.54 0.54,-0.9 1.95,-2.89 2.78,-3.57l1.73 -1.38c0.27,-0.17 0.43,-0.31 0.66,-0.51l1.67 -1.24c0.02,-0.01 0.05,-0.03 0.06,-0.04l0.97 -0.78c0.62,-0.48 3.07,-2.62 3.43,-3.1 0.46,-0.62 1.5,-1.53 2.08,-2 0.41,-0.32 0.27,-0.31 0.54,-0.63 0.15,-0.18 0.37,-0.3 0.62,-0.55l1.02 -1.4c1.61,-2.5 1.9,-4.48 0.91,-7.45 -0.18,-0.53 -0.42,-1.15 -0.68,-1.66l-0.88 -1.45c-0.43,-0.62 -0.81,-1.4 -1.49,-2.01 -0.19,-0.17 -0.45,-0.39 -0.55,-0.61 -0.01,0.9 0.15,0.99 -0.06,2.04 -0.13,0.63 -0.34,1.38 -0.55,1.88 -0.43,1.07 -2.12,3.65 -2.86,4.36l-1.2 1.22c-0.73,0.87 -1.94,1.72 -2.2,1.99 -1.16,1.2 -2.68,1.94 -3.58,2.76 -0.8,0.73 -1.68,1.27 -2.21,1.77l-1.27 1.17c-1.35,1.04 -4.27,4.03 -5.29,5.49l-2.4 4.11c-1.12,2.31 -1.8,4.27 -2.45,6.81 -1.37,5.38 -2.13,11.49 -2.26,17.15zm13.73 5.69l9.61 -0.01c-0.06,-5.74 -0.42,-11.67 -1.32,-17.01 -0.91,-5.4 -1.61,-9.52 -3.49,-14.83 -1.05,0.48 -2.28,1.97 -2.95,2.87l-0.64 0.92c-1.3,2.11 -1.57,2.69 -2.22,5.26 -0.43,1.72 -0.56,2.29 -0.31,4.24 0.46,3.41 1.04,10.1 1.13,13.72 0.04,1.53 0.06,3.36 0.19,4.84zm-11.49 -50.48l2.26 -0.98c2.77,-1.15 5.19,-1.45 8.17,-1.41 1.48,0.02 2.92,0.06 4.33,0.38 0.44,0.09 0.89,0.17 1.37,0.28 2.64,0.59 2.64,0.89 4.65,1.77 0.73,-0.71 1.76,-2.84 2,-4.02 0.23,-1.14 0.27,-2.79 -0.76,-3.39 -1.27,-0.75 -4.53,-1.57 -5.87,-1.75 -3.99,-0.54 -7.56,-0.28 -11.46,0.06 -1.82,0.17 -3.23,0.61 -4.86,1.31 -0.39,0.16 -1.72,0.68 -1.94,1.07 -0.32,0.53 -0.15,2.08 0.01,2.68 0.47,1.78 1.3,2.78 2.1,4zm3.96 15.92c0.68,-0.91 2.75,-3.39 3.39,-3.91 1.07,-0.86 1.2,-1.11 1.97,-1.83 0.16,-0.15 0.24,-0.19 0.41,-0.34 -0.02,-0.02 -0.04,-0.06 -0.05,-0.04l-0.96 -0.67c-1.78,-1.18 -1.72,-1.38 -3.11,-2.34l-1.27 -1.07c-0.52,-0.51 -0.35,-0.19 -0.73,-0.55 -0.15,-0.14 -0.27,-0.31 -0.42,-0.45 -0.2,-0.19 -0.3,-0.22 -0.5,-0.37 -0.42,-0.33 -1.09,-0.89 -1.41,-1.31l-1.39 -1.34c-0.5,-0.36 -1.23,-1.57 -1.59,-2.02 -0.98,-1.23 -1.98,-3.54 -1.7,-5.28l-2.82 4.03c-0.26,0.45 -0.49,1.1 -0.68,1.63l-0.47 1.79c-0.24,2.13 0.46,3.63 1.47,5.36 0.25,0.42 0.65,1.01 0.96,1.27 0.43,0.36 0.78,0.72 1.18,1.16 1.39,1.53 1.6,1.52 3.04,2.78l2.11 1.69c0.11,0.07 0.06,0.03 0.17,0.11l1.69 1.23c0.28,0.19 0.48,0.34 0.71,0.47zm-2.92 -14.94c0.07,0.3 0.23,0.32 0.47,0.56 1.2,1.16 1.54,1.53 2.92,2.62l3.25 2.58c0.01,0 0.17,0.12 0.17,0.12l1.63 1.2c0.47,0.3 0.89,0.72 1.34,0.88l2.7 -2.05c0.02,-0.02 0.15,-0.14 0.16,-0.14l4.25 -3.53c0.16,-0.14 0.11,-0.08 0.26,-0.23 0.48,-0.53 0.53,-0.46 0.85,-0.79 0.31,-0.34 0.7,-0.91 0.99,-1.2 -2.68,-1.81 -9.37,-2.53 -12.37,-2.07 -1.84,0.29 -2.97,0.44 -4.65,1.17 -0.32,0.14 -1.78,0.7 -1.97,0.88zm12.99 56.54c0.21,-0.2 0.15,-0.76 0.15,-1.17 0.01,-1.13 -0.06,-3.9 0.04,-4.68l1.64 -0.02 0.01 5.67c0,0 -0.06,0.07 0.12,0.33 0.02,-0.82 0.14,-5.55 -0.1,-5.99 -0.3,-0.23 -1.08,-0.13 -1.56,-0.11 -0.1,0.17 -0.05,0.12 -0.25,0.23l-0.02 4.57c0.02,1.42 -0.29,1.17 -0.03,1.17z"/>
  </g>
 </g>
</svg>
