<?xml version="1.0" encoding="UTF-8"?>
<!DOCTYPE svg PUBLIC "-//W3C//DTD SVG 1.1//EN" "http://www.w3.org/Graphics/SVG/1.1/DTD/svg11.dtd">
<!-- Creator: CorelDRAW -->
<svg xmlns="http://www.w3.org/2000/svg" xml:space="preserve" width="76px" height="76px" version="1.1" style="shape-rendering:geometricPrecision; text-rendering:geometricPrecision; image-rendering:optimizeQuality; fill-rule:evenodd; clip-rule:evenodd"
viewBox="0 0 2.73 2.73"
 xmlns:xlink="http://www.w3.org/1999/xlink"
 xmlns:xodm="http://www.corel.com/coreldraw/odm/2003">
 <defs>
  <style type="text/css">
   <![CDATA[
    .str0 {stroke:black;stroke-width:0.01;stroke-miterlimit:22.9256}
    .fil0 {fill:none}
    .fil1 {fill:#373435}
   ]]>
  </style>
 </defs>
 <g id="Layer_x0020_1">
  <metadata id="CorelCorpID_0Corel-Layer"/>
  <rect class="fil0" width="2.73" height="2.73" rx="0.38" ry="0.38"/>
  <path class="fil1 str0" d="M1.01 1.05c0,0.01 0,0.01 0,0.01l-0.05 0.03c-0.02,0.01 -0.04,0.02 -0.06,0.03 -0.06,0.03 -0.12,0.02 -0.18,-0.01 -0.01,-0.01 -0.03,-0.04 -0.05,-0.05 -0.05,-0.07 -0.04,-0.09 -0.09,-0.13 -0.02,-0.01 -0.04,-0.02 -0.07,-0.02 -0.03,0 -0.04,0.01 -0.05,0.05 -0.02,0.14 -0.11,0.2 -0.12,0.42 0,0.03 0,0.06 0,0.09 0.01,0.04 0.01,0.04 0,0.07 -0.03,0.05 -0.03,0.09 -0.04,0.15 0,0.04 0.01,0.11 0.03,0.14 0.05,0.04 0.09,0.04 0.14,0.05 0.09,0.03 0.09,-0.01 0.14,-0.01 0.04,0 0.08,0.04 0.16,0.02 0.01,-0.01 0.05,-0.02 0.07,-0.02 0.02,0 0.05,0.01 0.07,0.02 0.13,0.02 0.08,-0.05 0.32,-0.01 0.2,0.03 0.31,0.05 0.51,0.04 0.06,-0.01 0.12,-0.01 0.17,-0.02 0.05,-0.01 0.1,-0.02 0.15,-0.03 0.11,-0.03 0.21,-0.05 0.3,-0.12 0.06,-0.04 0.1,-0.15 0.06,-0.23 0,-0.01 -0.01,-0.02 -0.02,-0.02 -0.01,-0.02 0,-0.01 -0.02,-0.03 -0.08,-0.09 -0.21,-0.09 -0.34,-0.12 -0.09,-0.02 -0.23,-0.05 -0.31,-0.09 -0.02,-0.02 -0.07,-0.05 -0.08,-0.06 0.01,0 0.02,-0.02 0,-0.04 -0.02,0 -0.03,0.01 -0.03,0.02 -0.03,-0.02 -0.05,-0.03 -0.08,-0.05 -0.01,-0.01 -0.01,-0.02 -0.02,-0.02 0,-0.01 0.01,-0.02 0,-0.03 -0.01,-0.02 -0.03,0 -0.03,0l-0.1 -0.07 0 -0.02c0,0 0,-0.01 0,-0.01 -0.02,-0.01 -0.02,-0.01 -0.03,0l-0.14 -0.11c0,-0.01 -0.01,-0.01 -0.01,-0.01 -0.02,-0.02 -0.06,-0.04 -0.08,-0.05 -0.05,-0.01 -0.09,0.05 -0.11,0.09 -0.01,0.02 -0.02,0.05 -0.02,0.07 -0.01,0.03 0,0.07 0.01,0.08zm-0.24 0.12c-0.04,0.04 -0.1,0.08 -0.17,0.07 -0.08,0 -0.15,-0.06 -0.18,-0.07 0,0.02 -0.02,0.05 -0.02,0.07 -0.01,0.03 -0.02,0.06 -0.02,0.09 -0.01,0.05 -0.01,0.12 0,0.18 0.05,0 0.09,0.01 0.13,0.02 0.21,0.03 0.45,0.04 0.66,0.08 0.17,0.04 0.33,0.09 0.51,0.09 0.16,0 0.38,-0.01 0.54,-0.06 0.03,0 0.09,-0.03 0.1,-0.05 0.01,-0.02 0,-0.06 0.05,-0.08 -0.01,-0.01 -0.01,-0.01 -0.02,-0.02l-0.02 -0.02c-0.04,-0.03 -0.08,-0.05 -0.14,-0.05 -0.07,-0.01 -0.14,-0.03 -0.22,-0.05 -0.08,-0.02 -0.08,-0.01 -0.15,-0.04 -0.04,-0.01 -0.02,-0.01 -0.05,0 -0.06,0.04 -0.15,-0.02 -0.2,-0.05 -0.02,0.02 -0.03,0.04 -0.05,0.05 0,0.01 -0.02,0.01 -0.02,0.02 -0.01,-0.02 -0.02,-0.02 0.01,-0.05l0.04 -0.04c-0.02,-0.01 -0.08,-0.06 -0.11,-0.07l-0.05 0.06c-0.01,0.01 -0.02,0.01 -0.03,0 0,-0.03 0.01,-0.03 0.03,-0.05 0,-0.01 0.02,-0.02 0.03,-0.03 -0.02,-0.02 -0.04,-0.03 -0.05,-0.04l-0.06 -0.04c-0.02,0.01 -0.03,0.06 -0.07,0.06 -0.01,-0.02 0,-0.03 0.01,-0.05 0.01,-0.01 0.03,-0.03 0.04,-0.04 -0.01,0 -0.02,-0.01 -0.03,-0.01 -0.03,-0.02 -0.06,-0.03 -0.1,-0.02 -0.05,0.01 -0.13,0.06 -0.18,0.09 -0.06,0.04 -0.14,0.07 -0.21,0.05zm0.94 0.56c-0.13,0 -0.23,0 -0.34,-0.03 -0.05,-0.02 -0.1,-0.03 -0.15,-0.04 -0.17,-0.04 -0.34,-0.05 -0.51,-0.07 -0.11,-0.01 -0.22,-0.03 -0.33,-0.05 -0.02,0.02 -0.03,0.06 -0.04,0.09 0.07,-0.01 0.28,0.02 0.37,0.03 0.02,0 0.03,0 0.04,0.01 0,0.02 0,0.02 -0.01,0.02 -0.01,0.01 -0.05,0 -0.07,0 -0.07,-0.01 -0.28,-0.03 -0.33,-0.03l-0.01 0.05c0,0.02 0.02,0.09 0.03,0.1 0.03,0.02 0.06,0.03 0.1,0.04 0.05,0 0.05,0.02 0.11,0 0.05,-0.02 0.05,-0.02 0.1,0 0.13,0.04 0.11,-0.03 0.22,0 0.12,0.03 0.09,-0.02 0.24,-0.02 0.11,0.01 0.25,0.05 0.41,0.05 0.05,0 0.09,0.01 0.15,0 0.15,0 0.32,-0.03 0.46,-0.07 0.06,-0.02 0.14,-0.05 0.18,-0.08 0.01,-0.01 0.02,-0.02 0.02,-0.02 0.02,-0.01 0.03,-0.03 0.04,-0.05 0.01,-0.04 0.01,-0.08 0,-0.12 -0.06,0.04 0,0.07 -0.1,0.12 -0.12,0.05 -0.45,0.07 -0.58,0.07zm-1.21 -0.79c0,0.01 -0.01,0.04 -0.01,0.05l-0.04 0.1c0,0.01 -0.01,0.04 -0.02,0.05l0.07 0.03c0.07,0.04 0.13,0.06 0.21,0.01 0,0 0.01,-0.01 0.01,-0.01 0.01,-0.01 0.01,-0.01 0.02,-0.02 -0.02,0 -0.06,-0.03 -0.07,-0.04 -0.02,-0.02 -0.04,-0.05 -0.05,-0.07 -0.03,-0.05 -0.02,-0.06 -0.07,-0.09 -0.02,-0.01 -0.03,-0.01 -0.05,-0.01zm0.54 0.1c0.02,-0.01 0.04,-0.02 0.06,-0.03 0.06,-0.03 0.13,-0.02 0.18,0.01 0.01,0.01 0.02,0.01 0.03,0.02 0.01,-0.01 0.02,-0.02 0.03,-0.03 -0.02,-0.01 -0.04,-0.03 -0.05,-0.04 -0.01,0 -0.01,-0.01 -0.01,-0.01l-0.07 -0.06c-0.01,0 -0.01,0 -0.01,-0.01l-0.05 -0.04c-0.03,-0.01 -0.04,-0.01 -0.06,0.01 -0.06,0.04 -0.08,0.13 -0.05,0.18zm0.32 -0.01l-0.02 0.03c0,0 0,0 0.01,0.01l0.09 0.07c0,0 0.02,-0.01 0.03,-0.03l-0.03 -0.02c-0.01,-0.01 -0.02,-0.01 -0.03,-0.02l-0.05 -0.04zm0.11 0.13c0,0.01 0.03,0.03 0.05,0.04 0.01,0.01 0.04,0.03 0.05,0.04 0.01,-0.01 0.02,-0.02 0.02,-0.03l-0.08 -0.07c-0.01,0 -0.01,0 -0.01,-0.01 -0.02,0.01 -0.02,0.02 -0.03,0.03zm0.13 0.1c0.01,0 0.02,0.01 0.03,0.02 0.03,0.01 0.07,0.04 0.12,0.02l-0.13 -0.07c-0.01,0.01 -0.02,0.02 -0.02,0.03z"/>
 </g>
</svg>
