<?xml version="1.0" encoding="UTF-8"?>
<!DOCTYPE svg PUBLIC "-//W3C//DTD SVG 1.1//EN" "http://www.w3.org/Graphics/SVG/1.1/DTD/svg11.dtd">
<!-- Creator: CorelDRAW -->
<svg xmlns="http://www.w3.org/2000/svg" xml:space="preserve" width="76px" height="76px" version="1.1" style="shape-rendering:geometricPrecision; text-rendering:geometricPrecision; image-rendering:optimizeQuality; fill-rule:evenodd; clip-rule:evenodd"
viewBox="0 0 5.76 5.75"
 xmlns:xlink="http://www.w3.org/1999/xlink"
 xmlns:xodm="http://www.corel.com/coreldraw/odm/2003">
 <defs>
  <style type="text/css">
   <![CDATA[
    .str0 {stroke:black;stroke-width:0.02;stroke-miterlimit:22.9256}
    .fil0 {fill:none}
    .fil1 {fill:#373435}
   ]]>
  </style>
 </defs>
 <g id="Layer_x0020_1">
  <metadata id="CorelCorpID_0Corel-Layer"/>
  <rect class="fil0" width="5.76" height="5.75" rx="0.81" ry="0.81"/>
  <path class="fil1 str0" d="M2.14 2.22c0,0 0,0 0,0.01l-0.11 0.07c-0.04,0.03 -0.09,0.05 -0.13,0.07 -0.13,0.05 -0.26,0.04 -0.38,-0.04 -0.03,-0.02 -0.08,-0.07 -0.1,-0.1 -0.11,-0.14 -0.09,-0.19 -0.2,-0.27 -0.04,-0.02 -0.09,-0.05 -0.15,-0.04 -0.06,0.01 -0.08,0.03 -0.09,0.1 -0.05,0.3 -0.24,0.43 -0.26,0.9 0,0.06 0,0.13 0,0.18 0.01,0.08 0.03,0.09 -0.01,0.15 -0.06,0.11 -0.07,0.18 -0.08,0.31 0,0.09 0.02,0.24 0.08,0.3 0.08,0.09 0.17,0.09 0.27,0.11 0.2,0.05 0.2,-0.03 0.31,-0.03 0.09,0 0.16,0.08 0.32,0.04 0.04,-0.01 0.11,-0.04 0.15,-0.04 0.05,0.01 0.11,0.03 0.16,0.04 0.28,0.04 0.18,-0.1 0.68,-0.02 0.41,0.07 0.64,0.1 1.07,0.08 0.12,-0.01 0.24,-0.02 0.35,-0.04 0.11,-0.02 0.21,-0.04 0.32,-0.06 0.24,-0.06 0.44,-0.11 0.63,-0.24 0.14,-0.1 0.21,-0.33 0.13,-0.49 -0.01,-0.02 -0.02,-0.04 -0.03,-0.06 -0.03,-0.03 -0.02,-0.01 -0.05,-0.05 -0.18,-0.2 -0.44,-0.18 -0.71,-0.24 -0.2,-0.05 -0.48,-0.11 -0.66,-0.21 -0.04,-0.03 -0.15,-0.09 -0.18,-0.12 0.04,-0.01 0.04,-0.04 0.01,-0.08 -0.04,0 -0.06,0.01 -0.07,0.03 -0.06,-0.03 -0.11,-0.07 -0.15,-0.11 -0.03,-0.02 -0.04,-0.03 -0.06,-0.03 0.01,-0.01 0.03,-0.04 0.01,-0.07 -0.03,-0.03 -0.07,0.01 -0.07,0.01l-0.21 -0.16 0 -0.03c0,-0.01 -0.01,-0.02 -0.01,-0.03 -0.03,-0.01 -0.03,-0.01 -0.05,0.01l-0.29 -0.24c-0.02,-0.01 -0.02,-0.01 -0.03,-0.02 -0.04,-0.03 -0.12,-0.09 -0.17,-0.1 -0.1,-0.02 -0.19,0.1 -0.23,0.19 -0.03,0.05 -0.05,0.09 -0.05,0.15 -0.01,0.06 0.01,0.14 0.04,0.17zm-0.51 0.24c-0.1,0.09 -0.22,0.18 -0.37,0.16 -0.16,-0.01 -0.3,-0.13 -0.37,-0.15 -0.01,0.05 -0.04,0.1 -0.05,0.15 -0.02,0.06 -0.03,0.11 -0.04,0.18 -0.02,0.12 -0.01,0.26 0,0.38 0.1,0.01 0.18,0.02 0.28,0.04 0.43,0.08 0.95,0.09 1.38,0.18 0.37,0.08 0.7,0.19 1.08,0.19 0.35,-0.01 0.81,-0.03 1.14,-0.13 0.05,-0.01 0.18,-0.06 0.21,-0.1 0.02,-0.04 0.01,-0.14 0.1,-0.19 -0.01,-0.01 -0.02,-0.02 -0.03,-0.03l-0.04 -0.03c-0.09,-0.07 -0.19,-0.11 -0.3,-0.12 -0.16,-0.03 -0.31,-0.06 -0.47,-0.1 -0.16,-0.04 -0.16,-0.03 -0.32,-0.09 -0.07,-0.02 -0.04,-0.03 -0.09,0 -0.14,0.08 -0.33,-0.05 -0.42,-0.1 -0.06,0.04 -0.06,0.08 -0.11,0.11 -0.01,0.01 -0.04,0.02 -0.05,0.03 -0.01,-0.03 -0.04,-0.03 0.03,-0.1l0.07 -0.08c-0.05,-0.03 -0.16,-0.12 -0.22,-0.16l-0.11 0.14c-0.03,0.02 -0.04,0.01 -0.06,0 0,-0.06 0.02,-0.06 0.05,-0.1 0.02,-0.03 0.06,-0.06 0.07,-0.08 -0.04,-0.03 -0.08,-0.06 -0.11,-0.08l-0.12 -0.09c-0.04,0.03 -0.07,0.13 -0.14,0.13 -0.03,-0.04 -0.01,-0.05 0.02,-0.1 0.02,-0.03 0.06,-0.06 0.07,-0.08 -0.02,-0.01 -0.03,-0.02 -0.05,-0.03 -0.07,-0.05 -0.13,-0.07 -0.22,-0.05 -0.1,0.03 -0.27,0.13 -0.37,0.2 -0.12,0.08 -0.29,0.14 -0.44,0.1zm1.98 1.2c-0.27,0 -0.48,-0.02 -0.72,-0.08 -0.11,-0.03 -0.22,-0.05 -0.33,-0.08 -0.34,-0.09 -0.7,-0.12 -1.06,-0.15 -0.23,-0.03 -0.47,-0.07 -0.7,-0.1 -0.03,0.03 -0.07,0.12 -0.08,0.18 0.14,-0.01 0.59,0.04 0.78,0.06 0.04,0.01 0.05,0.01 0.09,0.04 -0.01,0.02 0,0.03 -0.02,0.04 -0.03,0.01 -0.12,-0.01 -0.17,-0.02 -0.13,-0.01 -0.58,-0.06 -0.69,-0.05l-0.01 0.1c0.01,0.05 0.04,0.19 0.06,0.22 0.06,0.04 0.13,0.06 0.2,0.07 0.11,0.01 0.11,0.05 0.23,0.01 0.12,-0.04 0.11,-0.04 0.23,-0.01 0.26,0.09 0.22,-0.06 0.46,0 0.24,0.06 0.19,-0.02 0.5,-0.02 0.23,0 0.53,0.1 0.87,0.1 0.11,0 0.19,0.01 0.32,0 0.31,-0.01 0.67,-0.07 0.97,-0.16 0.12,-0.03 0.3,-0.1 0.38,-0.17 0.02,-0.02 0.03,-0.03 0.04,-0.04 0.03,-0.02 0.05,-0.06 0.07,-0.1 0.04,-0.09 0.04,-0.16 0,-0.26 -0.13,0.09 0,0.15 -0.2,0.25 -0.25,0.12 -0.94,0.16 -1.22,0.17zm-2.55 -1.67c-0.01,0.02 -0.02,0.08 -0.03,0.11l-0.08 0.2c-0.01,0.03 -0.03,0.08 -0.04,0.1l0.15 0.08c0.15,0.07 0.28,0.11 0.43,0.01 0.01,-0.01 0.02,-0.02 0.03,-0.03 0.02,-0.01 0.02,-0.01 0.03,-0.03 -0.02,-0.01 -0.12,-0.07 -0.14,-0.09 -0.03,-0.03 -0.07,-0.11 -0.09,-0.14 -0.07,-0.12 -0.06,-0.13 -0.17,-0.19 -0.03,-0.02 -0.05,-0.03 -0.09,-0.02zm1.14 0.2c0.04,-0.02 0.08,-0.05 0.12,-0.06 0.13,-0.06 0.27,-0.05 0.38,0.02 0.03,0.02 0.04,0.03 0.07,0.04 0.01,-0.02 0.04,-0.04 0.05,-0.07 -0.03,-0.02 -0.07,-0.05 -0.1,-0.08 -0.01,0 -0.02,-0.01 -0.03,-0.02l-0.15 -0.12c-0.01,-0.01 0,0 -0.02,-0.02l-0.1 -0.08c-0.05,-0.03 -0.08,-0.02 -0.13,0.01 -0.11,0.09 -0.16,0.27 -0.09,0.38zm0.67 -0.02l-0.05 0.06c0.01,0.01 0,0.01 0.02,0.02l0.19 0.15c0,0 0.04,-0.02 0.06,-0.06l-0.05 -0.04c-0.03,-0.02 -0.04,-0.03 -0.06,-0.04l-0.11 -0.09zm0.22 0.27c0.02,0.02 0.07,0.06 0.11,0.09 0.02,0.02 0.08,0.06 0.11,0.08 0.02,-0.03 0.04,-0.04 0.05,-0.07l-0.18 -0.13c-0.01,0 -0.02,-0.01 -0.03,-0.02 -0.02,0.02 -0.04,0.03 -0.06,0.05zm0.28 0.21c0.02,0.02 0.04,0.02 0.07,0.04 0.06,0.03 0.15,0.09 0.24,0.06l-0.26 -0.16c-0.02,0.02 -0.04,0.04 -0.05,0.06z"/>
 </g>
</svg>
