<svg xmlns="http://www.w3.org/2000/svg" version="1.1" xmlns:xlink="http://www.w3.org/1999/xlink" width="512"
    height="512" x="0" y="0" viewBox="0 0 1707 1707" style="enable-background:new 0 0 512 512" xml:space="preserve"
    fill-rule="evenodd" class="">
    <style>
        path { fill: #000; } /* Default (light mode) */
        @media (prefers-color-scheme: dark) {
        path { fill: #fff; } /* Dark mode */
        }
    </style>
    <g transform="matrix(-0.6,0,0,0.6,1365.78359375,341.4207195281981)">
        <path
            d="M1580 1707H370c-114 0-333-52-339-249 0-9 4-17 10-22 7-4 17-4 24 0 4 3 229 142 689 118 221-10 343-25 450-38 122-15 221-28 416-28 7 0 13 2 17 8 3 3 54 67 35 129-11 37-41 62-90 77 2 5 0 5-2 5zM82 1501c41 158 283 161 285 161h1208c30-11 50-26 56-45 9-28-11-63-21-78-187 0-281 13-399 28-108 13-230 28-453 39-367 17-590-65-676-105z"
             opacity="1"></path>
        <path
            d="M1622 1537c-12 0-23-11-23-23 0-427-56-440-62-440-22 0-41 28-67 62-62 86-96 118-133 122-36 5-64-19-103-51-30-26-69-58-124-88-105-56-219-95-324 8-193 189-397 211-406 213-249 21-300 90-300 114 2 12-7 23-19 25-13 2-24-8-26-21 0-4-2-28 21-58 45-58 155-92 322-107 2 0 197-22 378-200 126-124 261-77 377-17 60 32 103 66 133 92s52 43 69 41c28-4 69-58 103-103 28-39 60-82 105-82 54 0 109 58 109 487-6 15-17 26-30 26z"
             opacity="1"></path>
        <path
            d="M530 1387c-73 0-135-15-173-54-9-8-9-23 0-32 8-8 23-8 32 0 58 58 236 52 412-17 148-56 246-137 251-206 0-13 10-21 26-21 12 0 23 13 21 25-6 90-112 183-281 247-88 34-195 58-288 58z"
             opacity="1"></path>
        <path
            d="M1039 1584c-9 0-15-4-19-10l-161-281c-7-11-2-26 8-33 11-6 26-2 32 9l161 281c7 11 2 26-8 32-5 0-9 2-13 2zM854 1595c-8 0-17-4-21-13l-112-240c-6-11 0-26 11-30 11-7 26 0 30 11l112 240c6 11 0 26-11 30-2 0-4 2-9 2zM1401 1544c-12 0-23-11-23-24v-6c0-133 103-241 236-245 13 0 23 11 23 24 0 12-10 23-23 23-107 2-191 90-191 198v6c2 13-9 24-22 24zM618 1329c-8 0-15-4-19-11l-34-58c-7-10-2-25 8-32 11-6 26-2 33 9l34 58c6 10 2 26-9 32-6 2-8 2-13 2zM711 1278c-9 0-15-5-20-11l-36-64c-7-11-2-26 8-33 11-6 26-2 33 9l36 64c7 11 2 26-8 32-5 3-9 3-13 3zM796 1207c-8 0-15-4-19-11l-36-64c-7-11-2-26 8-32 11-7 26-3 32 8l37 64c6 11 2 26-9 33-6 2-8 2-13 2zM352 1233c-53 0-107-20-150-69-6-7-6-15-4-24 2-8 11-13 19-15 2 0 236-32 537-306 145-134 218-211 285-282 75-79 135-143 270-255 7-4 13-6 20-4 2 0 75 15 98 71 13 32 7 66-17 105-2 2-2 4-4 6l-828 685c-50 38-138 88-226 88zm-83-71c116 77 270-50 279-56l826-682c15-24 19-43 12-60-8-22-36-35-55-39-127 105-185 165-258 242-66 71-141 151-287 284-236 216-431 287-517 311z"
             opacity="1"></path>
        <path
            d="M222 1172c-7 0-13-2-18-6-2-2-19-19-19-54 0-66 54-152 159-257 0 0 122-127 146-348 17-158 137-203 251-227 60-13 107-13 143-13 33 0 58 0 67-11 15-17 15-77 11-126-2-43-7-90 28-118 38-30 109-24 354 272 8 11 6 24-3 32-10 9-23 7-32-2-244-296-287-266-287-266-15 11-13 48-11 80 6 94 0 137-24 161-23 23-58 23-100 23-35 0-80 0-136 11-120 24-201 64-214 187-26 240-152 371-159 375-154 152-154 227-141 245 8 8 8 23 0 32-5 8-11 10-15 10z"
             opacity="1"></path>
        <path
            d="M370 896h-11c-13-2-22-13-22-26 3-13 13-21 26-21 71 6 189-101 270-243 69-120 91-232 56-279-8-11-4-26 4-32 11-9 26-4 33 4 47 67 28 189-52 331-75 128-199 266-304 266z"
             opacity="1"></path>
        <path
            d="M953 685c-2 0-6 0-9-2L676 583c-13-5-17-18-13-31 5-12 18-17 30-12l269 100c13 5 17 18 13 30-5 9-13 15-22 15zM831 797c-4 0-7 0-11-2L608 694c-11-6-17-19-11-30s19-17 30-11l212 101c11 7 18 19 11 30-2 7-11 13-19 13zM1178 454c-6 0-13-2-17-9-2-2-2-4-4-4-75-92-64-225 23-305 11-8 24-8 33 2 8 11 8 24-2 33-71 62-80 167-20 240l4 4c9 9 9 24-2 32-4 5-10 7-15 7zM520 750c-2 0-7 0-9-2l-56-22c-13-4-17-17-13-30 5-13 18-19 31-13l55 22c13 4 17 17 13 30-2 8-11 15-21 15zM554 662c-2 0-6 0-9-2l-60-24c-12-4-17-17-12-30 4-13 17-17 30-13l60 24c12 4 17 17 12 30-2 8-10 15-21 15zM573 565c-2 0-6 0-8-2l-60-23c-13-5-17-18-13-30 4-13 17-20 30-13l60 23c13 5 17 17 13 30-4 9-13 15-22 15z"
             opacity="1"></path>
    </g>
</svg>