<svg xmlns="http://www.w3.org/2000/svg" version="1.1" xmlns:xlink="http://www.w3.org/1999/xlink" width="512"
    height="512" x="0" y="0" viewBox="0 0 512 512" style="enable-background:new 0 0 512 512" xml:space="preserve">
    <style>
        path { fill: #000;} /* Default (light mode) */
        @media (prefers-color-scheme: dark) {
        path { fill: #fff;} /* Dark mode */
        }
    </style>
    <g transform="matrix(0.6000000000000001,0,0,0.6000000000000001,102.40059967041012,102.40000610351561)">
        <path
            d="M387.185 496a88 88 0 0 0 85.7-108l-33.094-141.818A8 8 0 0 0 432 240h-9.223l-6.886-41.315A8 8 0 0 0 408 192h-10.238c-4.578-13.321-17.374-48.33-36.739-83.831C327.664 47.01 292.329 16 256 16s-71.664 31.01-105.023 92.169c-19.365 35.5-32.161 70.51-36.739 83.831H104a8 8 0 0 0-7.891 6.685L89.223 240H80a8 8 0 0 0-7.791 6.182L39.118 388a88 88 0 0 0 85.7 108ZM457.3 391.64a71.615 71.615 0 0 1-13.716 61.115 73.055 73.055 0 0 1-4.957 5.62 71.555 71.555 0 0 0 6.836-50.735L410.081 256h15.571ZM406.556 240h-15.779l-5.333-32h15.779ZM165.129 115.637C185.967 77.482 218.647 32 256 32s70.033 45.482 90.871 83.637c16.522 30.252 28.345 60.847 33.914 76.363H376a8 8 0 0 0-7.891 9.315L374.556 240H368a8.023 8.023 0 0 0-8 7.975c-.021 3.267-1.688 80.025-104 80.025s-103.979-76.758-104-80a8 8 0 0 0-8-8h-6.556l6.447-38.685A8 8 0 0 0 136 192h-4.785c5.569-15.516 17.392-46.111 33.914-76.363ZM110.777 208h15.779l-5.333 32h-15.779ZM54.7 391.64 86.348 256h15.571L66.536 407.64a71.555 71.555 0 0 0 6.836 50.735 73.055 73.055 0 0 1-4.957-5.62A71.615 71.615 0 0 1 54.7 391.64ZM136.652 480a56 56 0 0 1-54.535-68.725L118.348 256h18.3a100.858 100.858 0 0 0 14.608 40.3C176.342 335.724 222.063 344 256 344s79.658-8.276 104.749-47.7a100.858 100.858 0 0 0 14.608-40.3h18.295l36.231 155.275A56 56 0 0 1 375.348 480Z"
            opacity="1" data-original="#000000"></path>
    </g>
</svg>