<?xml version="1.0" encoding="UTF-8"?>
<!DOCTYPE svg PUBLIC "-//W3C//DTD SVG 1.1//EN" "http://www.w3.org/Graphics/SVG/1.1/DTD/svg11.dtd">
<!-- Creator: CorelDRAW -->
<svg xmlns="http://www.w3.org/2000/svg" xml:space="preserve" width="76px" height="76px" version="1.1" style="shape-rendering:geometricPrecision; text-rendering:geometricPrecision; image-rendering:optimizeQuality; fill-rule:evenodd; clip-rule:evenodd"
viewBox="0 0 11.41 11.39"
 xmlns:xlink="http://www.w3.org/1999/xlink"
 xmlns:xodm="http://www.corel.com/coreldraw/odm/2003">
 <defs>
  <style type="text/css">
   <![CDATA[
    .str0 {stroke:black;stroke-width:0.02;stroke-miterlimit:22.9256}
    .fil0 {fill:none}
    .fil1 {fill:black}
   ]]>
  </style>
 </defs>
 <g id="Layer_x0020_1">
  <metadata id="CorelCorpID_0Corel-Layer"/>
  <rect class="fil0" width="11.41" height="11.39" rx="1.6" ry="1.6"/>
  <path class="fil1 str0" d="M5.64 2.36c-0.39,0.04 -0.7,0.26 -0.93,0.56l-0.08 0.1c-0.03,0.04 -0.06,0.07 -0.08,0.11 -0.08,0.11 -0.23,0.35 -0.29,0.46l-0.13 0.26c-0.14,0.26 -0.34,0.75 -0.45,1.05 -0.33,0.87 -0.45,1.48 -0.58,2.41 -0.06,0.42 -0.11,0.88 0.16,1.24 0.25,0.33 0.58,0.5 1.02,0.48 0.25,0 0.5,0.01 0.75,0 0.75,0 1.5,0.01 2.25,0 0.22,0 0.5,-0.12 0.66,-0.26 0.11,-0.09 0.19,-0.18 0.26,-0.31 0.23,-0.41 0.17,-0.81 0.1,-1.28 -0.06,-0.42 -0.15,-0.83 -0.25,-1.25 -0.09,-0.39 -0.23,-0.77 -0.36,-1.13 -0.04,-0.09 -0.07,-0.17 -0.11,-0.26 -0.03,-0.09 -0.07,-0.18 -0.11,-0.26 -0.18,-0.43 -0.4,-0.84 -0.66,-1.22l-0.08 -0.11c-0.03,-0.03 -0.06,-0.07 -0.09,-0.11 -0.02,-0.03 -0.05,-0.06 -0.08,-0.09 -0.07,-0.07 -0.13,-0.11 -0.2,-0.17 -0.18,-0.14 -0.47,-0.25 -0.72,-0.22zm2.25 3.47c0.01,-0.15 -0.42,-1.23 -0.5,-1.43 -0.1,-0.23 -0.21,-0.45 -0.32,-0.66 -0.13,-0.26 -0.21,-0.37 -0.36,-0.6l-0.1 -0.14c-0.02,-0.02 -0.04,-0.04 -0.06,-0.07l-0.18 -0.18c-0.05,-0.04 -0.08,-0.06 -0.14,-0.1 -0.33,-0.23 -0.76,-0.21 -1.09,0.03l-0.13 0.11c-0.02,0.02 -0.04,0.03 -0.07,0.05 -0.05,0.05 -0.07,0.09 -0.11,0.13 -0.56,0.68 -1.07,1.93 -1.31,2.81 -0.02,0.06 -0.02,0.05 0.04,0.05l1.43 0c0.32,0.01 0.65,0.01 0.97,0 0.32,0 0.64,0.01 0.96,0.01 0.13,-0.01 0.92,0 0.97,-0.01zm0.15 0.58l-0.01 0.03c-0.02,0.06 -0.02,0.14 -0.08,0.26 -0.07,0.16 -0.21,0.41 -0.35,0.52 -0.01,0.01 -0.02,0.01 -0.03,0.02 0,0 0,0.01 -0.01,0.01 0,0 0,0 0,0l-0.06 0.05c-0.03,0.02 0.01,0 -0.01,0.01 -0.18,0.13 -0.38,0.22 -0.63,0.25 -0.21,0.02 -0.56,0.02 -0.77,0.01 -0.01,0.12 0.02,0.3 -0.03,0.37 -0.03,0.05 -0.07,0.03 -0.08,0.07 -0.01,0.06 0.09,0.47 -0.28,0.47 -0.29,0 -0.27,-0.23 -0.27,-0.5 -0.18,-0.02 -0.08,-0.27 -0.12,-0.4 -0.03,-0.02 -0.63,-0.01 -0.75,-0.02 -0.25,-0.03 -0.45,-0.11 -0.64,-0.24 -0.02,-0.02 -0.03,-0.03 -0.05,-0.05 -0.22,-0.17 -0.39,-0.43 -0.48,-0.7 -0.01,-0.06 -0.02,-0.12 -0.03,-0.16 -0.02,0.18 -0.05,0.37 -0.09,0.56 -0.03,0.19 -0.06,0.37 -0.08,0.57 -0.03,0.21 -0.03,0.4 0.02,0.6 0.04,0.14 0.08,0.22 0.15,0.33l0.16 0.18c0.26,0.24 0.55,0.26 0.88,0.26l2.61 0c0.4,0 0.59,-0.03 0.87,-0.26l0.09 -0.09c0.02,-0.02 0.02,-0.02 0.04,-0.04 0.01,-0.02 0.02,-0.03 0.03,-0.05 0.21,-0.28 0.22,-0.59 0.18,-0.93l-0.07 -0.58c-0.02,-0.09 -0.04,-0.17 -0.05,-0.27 -0.02,-0.08 -0.05,-0.2 -0.06,-0.28zm-4.58 -0.33c0,0.26 0.03,0.48 0.15,0.68l0.19 0.27c0.08,0.07 0.06,0.08 0.19,0.17 0.17,0.12 0.34,0.21 0.59,0.23 0.25,0.02 0.56,0.02 0.81,0.01l0 -0.39c0,-0.11 0.03,-0.14 0.1,-0.18 0.1,-0.06 0.12,-0.04 0.24,-0.04 0.33,-0.01 0.27,0.28 0.27,0.61l0.7 0c0.32,0.01 0.63,-0.14 0.84,-0.36 0.27,-0.28 0.48,-0.72 0.38,-1.11l-4.36 -0.01c-0.05,0 -0.07,-0.01 -0.08,0.02 0,0 -0.02,0.1 -0.02,0.1zm2.05 1.36l0.37 0c-0.01,-0.34 0.06,-0.49 -0.18,-0.49 -0.08,0 -0.08,-0.01 -0.14,0.03 -0.06,0.04 -0.05,0.03 -0.05,0.12 0,0.11 0.01,0.23 0,0.34zm-0.06 0.13c0,0.35 -0.08,0.3 0.36,0.3l0.12 -0.01c0.04,-0.06 0.03,-0.21 0.03,-0.29l-0.51 0zm0.41 0.42l-0.3 0c0,0.08 0,0.17 0.01,0.24 0.01,0.08 0.06,0.11 0.14,0.11 0.2,-0.01 0.14,-0.19 0.15,-0.35z"/>
 </g>
</svg>
