<?xml version="1.0" encoding="UTF-8"?>
<!DOCTYPE svg PUBLIC "-//W3C//DTD SVG 1.1//EN" "http://www.w3.org/Graphics/SVG/1.1/DTD/svg11.dtd">
<!-- Creator: CorelDRAW -->
<svg xmlns="http://www.w3.org/2000/svg" xml:space="preserve" width="76px" height="76px" version="1.1" style="shape-rendering:geometricPrecision; text-rendering:geometricPrecision; image-rendering:optimizeQuality; fill-rule:evenodd; clip-rule:evenodd"
viewBox="0 0 5.04 5.03"
 xmlns:xlink="http://www.w3.org/1999/xlink"
 xmlns:xodm="http://www.corel.com/coreldraw/odm/2003">
 <defs>
  <style type="text/css">
   <![CDATA[
    .fil0 {fill:none}
    .fil1 {fill:#373435}
   ]]>
  </style>
 </defs>
 <g id="Layer_x0020_1">
  <metadata id="CorelCorpID_0Corel-Layer"/>
  <rect class="fil0" width="5.04" height="5.03" rx="0.71" ry="0.71"/>
  <path class="fil1" d="M2.49 1.13c-0.16,0.02 -0.29,0.11 -0.38,0.23l-0.04 0.05c-0.01,0.01 -0.02,0.03 -0.03,0.04 -0.03,0.05 -0.1,0.15 -0.12,0.19l-0.05 0.11c-0.06,0.11 -0.14,0.31 -0.19,0.43 -0.14,0.36 -0.19,0.62 -0.24,1 -0.03,0.18 -0.05,0.37 0.07,0.52 0.1,0.14 0.24,0.2 0.42,0.2 0.1,0 0.21,0 0.31,0 0.31,0 0.62,0 0.93,0 0.09,0 0.21,-0.05 0.27,-0.11 0.05,-0.04 0.09,-0.08 0.11,-0.13 0.1,-0.17 0.07,-0.34 0.05,-0.53 -0.03,-0.17 -0.07,-0.34 -0.11,-0.52 -0.04,-0.16 -0.09,-0.32 -0.15,-0.46 -0.01,-0.04 -0.03,-0.08 -0.04,-0.12 -0.02,-0.03 -0.03,-0.07 -0.05,-0.1 -0.07,-0.18 -0.16,-0.35 -0.27,-0.51l-0.04 -0.04c-0.01,-0.02 -0.02,-0.03 -0.03,-0.05 -0.01,-0.01 -0.03,-0.02 -0.04,-0.04 -0.02,-0.03 -0.05,-0.04 -0.08,-0.07 -0.07,-0.06 -0.2,-0.1 -0.3,-0.09zm0.93 1.44c0.01,-0.06 -0.17,-0.51 -0.2,-0.59 -0.04,-0.1 -0.09,-0.19 -0.13,-0.27 -0.06,-0.11 -0.09,-0.16 -0.15,-0.25l-0.05 -0.06c0,-0.01 -0.01,-0.02 -0.02,-0.03l-0.08 -0.07c-0.02,-0.02 -0.03,-0.03 -0.05,-0.05 -0.14,-0.09 -0.32,-0.09 -0.45,0.01l-0.06 0.05c-0.01,0.01 -0.02,0.01 -0.03,0.02 -0.02,0.02 -0.03,0.04 -0.04,0.06 -0.24,0.28 -0.45,0.8 -0.55,1.16 0,0.02 -0.01,0.02 0.02,0.02l0.59 0c0.13,0 0.27,0 0.4,0 0.14,0 0.27,0 0.4,0 0.06,0 0.38,0.01 0.4,0zm0.07 0.24l-0.01 0.01c-0.01,0.03 -0.01,0.06 -0.03,0.11 -0.03,0.07 -0.09,0.17 -0.15,0.22 0,0 0,0 -0.01,0.01 0,0 0,0 0,0 0,0 0,0 0,0l-0.03 0.02c-0.01,0.01 0.01,0 0,0 -0.08,0.06 -0.16,0.09 -0.26,0.11 -0.09,0.01 -0.24,0.01 -0.32,0 -0.01,0.05 0,0.13 -0.01,0.16 -0.02,0.02 -0.03,0.01 -0.04,0.02 0,0.03 0.04,0.2 -0.11,0.2 -0.12,0 -0.12,-0.1 -0.11,-0.21 -0.08,-0.01 -0.04,-0.11 -0.05,-0.16 -0.02,-0.01 -0.27,-0.01 -0.31,-0.01 -0.11,-0.01 -0.19,-0.05 -0.27,-0.1 -0.01,-0.01 -0.01,-0.01 -0.02,-0.02 -0.09,-0.07 -0.16,-0.18 -0.2,-0.29 -0.01,-0.03 -0.01,-0.05 -0.01,-0.07 -0.01,0.08 -0.03,0.16 -0.04,0.23 -0.01,0.08 -0.02,0.16 -0.03,0.24 -0.01,0.08 -0.02,0.16 0.01,0.25 0.01,0.06 0.03,0.09 0.06,0.14l0.06 0.07c0.11,0.1 0.23,0.11 0.37,0.11l1.08 0c0.16,0 0.24,-0.02 0.36,-0.11l0.04 -0.04c0.01,-0.01 0.01,-0.01 0.01,-0.02 0.01,0 0.01,-0.01 0.02,-0.01 0.08,-0.12 0.09,-0.25 0.07,-0.39l-0.03 -0.24c-0.01,-0.04 -0.01,-0.07 -0.02,-0.11 -0.01,-0.04 -0.02,-0.08 -0.02,-0.12zm-1.9 -0.14c0,0.11 0.01,0.2 0.06,0.28l0.08 0.12c0.03,0.03 0.02,0.03 0.08,0.07 0.07,0.05 0.14,0.08 0.24,0.09 0.1,0.01 0.23,0.01 0.34,0.01l0 -0.16c0,-0.05 0.01,-0.06 0.04,-0.08 0.04,-0.02 0.05,-0.02 0.1,-0.02 0.14,0 0.11,0.12 0.11,0.26l0.29 0c0.13,0 0.26,-0.06 0.35,-0.15 0.11,-0.12 0.2,-0.3 0.16,-0.46l-1.81 0c-0.02,0 -0.03,-0.01 -0.03,0 0,0 -0.01,0.04 -0.01,0.04zm0.85 0.57l0.15 0c0,-0.14 0.03,-0.2 -0.07,-0.2 -0.03,0 -0.04,-0.01 -0.06,0.01 -0.02,0.01 -0.02,0.01 -0.02,0.05 0,0.04 0,0.09 0,0.14zm-0.03 0.05c0,0.15 -0.03,0.12 0.15,0.12l0.05 0c0.02,-0.02 0.01,-0.08 0.01,-0.12l-0.21 0zm0.17 0.18l-0.12 0c0,0.03 0,0.07 0,0.1 0.01,0.03 0.03,0.04 0.06,0.04 0.08,0 0.06,-0.08 0.06,-0.14z"/>
 </g>
</svg>
