<?xml version="1.0" encoding="UTF-8"?>
<!DOCTYPE svg PUBLIC "-//W3C//DTD SVG 1.1//EN" "http://www.w3.org/Graphics/SVG/1.1/DTD/svg11.dtd">
<!-- Creator: CorelDRAW -->
<svg xmlns="http://www.w3.org/2000/svg" xml:space="preserve" width="76px" height="76px" version="1.1" style="shape-rendering:geometricPrecision; text-rendering:geometricPrecision; image-rendering:optimizeQuality; fill-rule:evenodd; clip-rule:evenodd"
viewBox="0 0 11.96 11.94"
 xmlns:xlink="http://www.w3.org/1999/xlink"
 xmlns:xodm="http://www.corel.com/coreldraw/odm/2003">
 <defs>
  <style type="text/css">
   <![CDATA[
    .fil0 {fill:none}
    .fil1 {fill:#373435}
   ]]>
  </style>
 </defs>
 <g id="Layer_x0020_1">
  <metadata id="CorelCorpID_0Corel-Layer"/>
  <rect class="fil0" width="11.96" height="11.94" rx="1.68" ry="1.67"/>
  <path class="fil1" d="M9.36 7.82l0.28 0c0,0.1 0,0.19 -0.01,0.29 -0.02,0.12 0.01,0.18 -0.12,0.18 -0.18,0.01 -0.12,-0.08 -0.15,-0.47zm-7 0.46c-0.05,-0.04 -0.04,-0.34 -0.05,-0.46l0.28 0c0.01,0.03 0,0.43 -0.06,0.46 -0.04,0.02 -0.13,0.01 -0.17,0zm-0.79 -2.79c0,-0.25 0.08,-0.51 0.39,-0.5 0.13,0 0.24,0.09 0.28,0.15 0.09,0.11 0.06,0.26 0.06,0.43l0 1c0,0.52 -0.16,0.42 0.98,0.42 1.96,0.01 3.95,-0.01 5.91,0 0.46,0 0.45,0.04 0.45,-0.25l0 -1.29c0,-0.18 0,-0.25 0.11,-0.35 0.08,-0.09 0.22,-0.13 0.36,-0.08 0.12,0.03 0.21,0.11 0.24,0.22 0.05,0.14 0.04,0.3 0.04,0.45 0,0.41 -0.01,0.82 0,1.22 0,0.24 0.05,0.65 -0.17,0.74 -0.11,0.05 -0.82,0.03 -0.97,0.03l-6.77 0c-0.77,0 -0.91,0.09 -0.91,-0.63 0,-0.52 0,-1.04 0,-1.56zm4.48 1.36c0,-0.11 0,-0.22 0,-0.33 0,-0.65 0.65,-0.52 1.09,-0.52l1.28 0c0.39,0 0.84,-0.09 1.02,0.27 0.09,0.16 0.06,0.36 0.06,0.57l-3.45 0.01zm-3.6 0c0.01,-0.18 -0.03,-0.47 0.05,-0.61 0.08,-0.12 0.22,-0.22 0.41,-0.24l2.56 0c0.6,0.12 0.4,0.55 0.44,0.84l-3.46 0.01zm3.6 -0.79c0.02,-0.4 -0.04,-1.8 0.02,-2.04 0.05,-0.17 0.11,-0.21 0.23,-0.29 0.14,-0.08 0.28,-0.06 0.46,-0.06l2.06 0c0.19,0 0.38,-0.01 0.52,0.13 0.07,0.06 0.12,0.12 0.15,0.23 0.02,0.09 0.02,1.96 0,2.04 -0.05,-0.07 -0.18,-0.16 -0.29,-0.19 -0.2,-0.05 -1.19,-0.03 -1.43,-0.03 -0.22,0 -1.25,-0.02 -1.42,0.02 -0.07,0.02 -0.15,0.06 -0.2,0.1l-0.1 0.09zm-3.6 0c0.01,-0.33 -0.03,-1.87 0.03,-2.04 0.02,-0.07 0.05,-0.12 0.09,-0.17 0.14,-0.18 0.38,-0.19 0.59,-0.18l2.07 0c0.24,0 0.41,-0.01 0.57,0.19 0.03,0.05 0.06,0.11 0.08,0.17 0.04,0.12 0.03,1.79 0.02,2.02 -0.05,-0.06 -0.05,-0.06 -0.13,-0.11 -0.21,-0.12 -0.38,-0.09 -0.63,-0.09l-1.93 0c-0.26,0 -0.58,-0.02 -0.76,0.21zm-0.15 -1.1c-0.05,-0.02 -0.06,-0.06 -0.19,-0.1 -0.08,-0.02 -0.17,-0.02 -0.26,-0.01 -0.18,0.03 -0.28,0.13 -0.35,0.25 -0.09,0.15 -0.07,0.31 -0.07,0.5 0,0.3 -0.02,1.6 0,1.78 0.01,0.16 0.13,0.32 0.22,0.37 0.13,0.09 0.34,0.06 0.52,0.07 0.02,0.42 -0.07,0.61 0.28,0.61 0.35,0 0.23,-0.17 0.3,-0.61l6.46 0c0,0.14 0.02,0.28 0.02,0.42 0.01,0.17 0.09,0.19 0.27,0.19 0.3,0.01 0.28,-0.11 0.29,-0.61 0.17,-0.03 0.36,0.04 0.52,-0.05 0.3,-0.17 0.23,-0.6 0.22,-0.96 0,-0.2 0,-0.4 0,-0.6 0,-0.29 0.05,-0.89 -0.07,-1.11 -0.14,-0.26 -0.55,-0.33 -0.78,-0.15 -0.03,0.03 0,0.01 -0.04,0.03 0,-0.22 0,-0.45 0,-0.68 0,-0.31 0,-0.52 -0.33,-0.7 -0.24,-0.13 -0.61,-0.08 -0.94,-0.08 -0.46,0 -0.91,0 -1.37,0 -0.3,0 -0.7,-0.06 -0.87,0.15 -0.03,0.04 -0.04,0.04 -0.08,0.08 -0.03,0.03 -0.05,0.07 -0.08,0.1 -0.04,-0.1 -0.11,-0.16 -0.19,-0.22 -0.02,-0.01 -0.03,-0.02 -0.06,-0.03 -0.24,-0.12 -0.47,-0.09 -0.77,-0.08 -0.45,0 -0.92,0 -1.37,0 -0.22,0 -0.47,-0.01 -0.68,0 -0.17,0.01 -0.4,0.15 -0.45,0.23 -0.27,0.39 -0.09,0.71 -0.15,1.21z"/>
 </g>
</svg>
