<?xml version="1.0" encoding="UTF-8"?>
<!DOCTYPE svg PUBLIC "-//W3C//DTD SVG 1.1//EN" "http://www.w3.org/Graphics/SVG/1.1/DTD/svg11.dtd">
<!-- Creator: CorelDRAW -->
<svg xmlns="http://www.w3.org/2000/svg" xml:space="preserve" width="76px" height="76px" version="1.1" style="shape-rendering:geometricPrecision; text-rendering:geometricPrecision; image-rendering:optimizeQuality; fill-rule:evenodd; clip-rule:evenodd"
viewBox="0 0 23.3 23.26"
 xmlns:xlink="http://www.w3.org/1999/xlink"
 xmlns:xodm="http://www.corel.com/coreldraw/odm/2003">
 <defs>
  <style type="text/css">
   <![CDATA[
    .str0 {stroke:black;stroke-width:0.04;stroke-miterlimit:22.9256}
    .fil0 {fill:none}
    .fil1 {fill:black}
   ]]>
  </style>
 </defs>
 <g id="Layer_x0020_1">
  <metadata id="CorelCorpID_0Corel-Layer"/>
  <rect class="fil0" width="23.3" height="23.26" rx="3.27" ry="3.26"/>
  <path class="fil1 str0" d="M18.23 15.23l0.56 0c-0.01,0.19 -0.02,0.38 -0.04,0.56 -0.02,0.23 0.03,0.35 -0.23,0.36 -0.36,0.01 -0.23,-0.16 -0.29,-0.92zm-13.63 0.9c-0.09,-0.08 -0.07,-0.66 -0.11,-0.9l0.56 0c0.01,0.07 -0.01,0.84 -0.12,0.9 -0.08,0.04 -0.26,0.03 -0.33,0zm-1.54 -5.44c0,-0.48 0.15,-0.99 0.75,-0.97 0.26,0 0.47,0.17 0.56,0.29 0.16,0.21 0.11,0.52 0.11,0.83l0 1.95c0,1.02 -0.3,0.82 1.9,0.82 3.83,0.02 7.7,-0.02 11.52,0.01 0.9,0 0.87,0.07 0.87,-0.48l0 -2.52c0,-0.35 0.02,-0.5 0.21,-0.69 0.16,-0.16 0.44,-0.24 0.71,-0.16 0.23,0.07 0.4,0.23 0.48,0.43 0.1,0.27 0.06,0.59 0.06,0.89 0,0.78 -0.02,1.58 0,2.37 0.01,0.46 0.1,1.27 -0.33,1.45 -0.2,0.08 -1.58,0.04 -1.87,0.04l-13.2 0c-1.49,0 -1.76,0.19 -1.77,-1.22 -0.01,-1.01 0,-2.02 0,-3.04zm8.72 2.65c0.01,-0.22 0,-0.43 0,-0.65 0,-1.25 1.27,-1.01 2.13,-1.01l2.49 0c0.76,0 1.64,-0.17 1.99,0.52 0.17,0.33 0.11,0.72 0.11,1.13l-6.72 0.01zm-7 -0.01c0,-0.34 -0.07,-0.91 0.1,-1.18 0.15,-0.24 0.41,-0.43 0.79,-0.46l4.97 -0.01c1.17,0.24 0.8,1.08 0.87,1.65l-6.73 0zm7 -1.52c0.05,-0.79 -0.07,-3.51 0.05,-3.99 0.08,-0.32 0.2,-0.4 0.44,-0.55 0.27,-0.17 0.55,-0.13 0.9,-0.13l4.02 0c0.35,0 0.73,-0.01 1,0.26 0.14,0.13 0.24,0.24 0.29,0.45 0.04,0.18 0.04,3.81 0.01,3.97 -0.11,-0.14 -0.35,-0.31 -0.58,-0.37 -0.37,-0.1 -2.3,-0.06 -2.77,-0.06 -0.43,0 -2.45,-0.04 -2.78,0.05 -0.13,0.04 -0.28,0.11 -0.38,0.19l-0.2 0.18zm-7 -0.01c0.02,-0.63 -0.06,-3.65 0.04,-3.97 0.05,-0.13 0.1,-0.23 0.18,-0.34 0.28,-0.34 0.74,-0.35 1.16,-0.35l4.02 0c0.47,0 0.8,-0.02 1.12,0.39 0.06,0.08 0.12,0.2 0.16,0.33 0.07,0.23 0.05,3.47 0.04,3.93 -0.1,-0.12 -0.1,-0.12 -0.26,-0.21 -0.42,-0.24 -0.75,-0.18 -1.23,-0.19l-3.75 0.01c-0.52,0 -1.14,-0.04 -1.48,0.4zm-0.31 -2.13c-0.09,-0.05 -0.11,-0.13 -0.35,-0.19 -0.16,-0.04 -0.34,-0.05 -0.51,-0.03 -0.35,0.05 -0.56,0.26 -0.69,0.48 -0.18,0.3 -0.14,0.61 -0.14,0.99 0,0.58 -0.03,3.1 0,3.45 0.02,0.31 0.26,0.63 0.43,0.73 0.26,0.17 0.66,0.11 1.02,0.14 0.04,0.81 -0.13,1.19 0.55,1.19 0.67,0 0.43,-0.34 0.57,-1.19l12.58 -0.01c0.02,0.27 0.05,0.55 0.06,0.82 0.01,0.33 0.17,0.38 0.5,0.38 0.59,0 0.55,-0.22 0.58,-1.19 0.34,-0.06 0.71,0.06 1.01,-0.1 0.59,-0.33 0.44,-1.18 0.44,-1.88 -0.01,-0.39 0,-0.77 0,-1.16 -0.01,-0.58 0.09,-1.73 -0.15,-2.17 -0.27,-0.5 -1.08,-0.65 -1.52,-0.29 -0.06,0.05 0.01,0.03 -0.08,0.07 0.01,-0.45 0,-0.89 0,-1.33 0,-0.61 0,-1.01 -0.64,-1.37 -0.47,-0.26 -1.19,-0.16 -1.83,-0.16 -0.89,0 -1.78,0.01 -2.67,0 -0.58,0 -1.36,-0.11 -1.69,0.3 -0.06,0.08 -0.09,0.08 -0.16,0.16 -0.05,0.05 -0.09,0.14 -0.15,0.19 -0.08,-0.2 -0.22,-0.32 -0.37,-0.43 -0.04,-0.02 -0.06,-0.03 -0.11,-0.06 -0.47,-0.23 -0.92,-0.16 -1.51,-0.16 -0.88,0.01 -1.79,0.01 -2.67,0 -0.42,0 -0.91,-0.02 -1.33,0 -0.33,0.02 -0.77,0.3 -0.87,0.46 -0.52,0.76 -0.18,1.38 -0.3,2.36z"/>
 </g>
</svg>
