<?xml version="1.0" encoding="UTF-8"?>
<!DOCTYPE svg PUBLIC "-//W3C//DTD SVG 1.1//EN" "http://www.w3.org/Graphics/SVG/1.1/DTD/svg11.dtd">
<!-- Creator: CorelDRAW -->
<svg xmlns="http://www.w3.org/2000/svg" xml:space="preserve" width="76px" height="76px" version="1.1" style="shape-rendering:geometricPrecision; text-rendering:geometricPrecision; image-rendering:optimizeQuality; fill-rule:evenodd; clip-rule:evenodd"
viewBox="0 0 2.11 2.11"
 xmlns:xlink="http://www.w3.org/1999/xlink"
 xmlns:xodm="http://www.corel.com/coreldraw/odm/2003">
 <defs>
  <style type="text/css">
   <![CDATA[
    .fil0 {fill:none}
    .fil1 {fill:#373435}
   ]]>
  </style>
 </defs>
 <g id="Layer_x0020_1">
  <metadata id="CorelCorpID_0Corel-Layer"/>
  <rect class="fil0" width="2.11" height="2.11" rx="0.3" ry="0.3"/>
  <path class="fil1" d="M0.57 0.98c0.01,0 0.01,0.07 0.01,0.09l0 0.28c0,0.05 -0.01,0.35 0,0.38 0.02,0.01 0.08,0 0.11,0l0.61 0c0.04,0 0.21,0.01 0.23,0 0,-0.02 0,-0.33 0,-0.38 0,-0.06 0,-0.12 0,-0.18l0 -0.17c0,-0.02 0,-0.02 0.01,-0.02 0.01,0.01 0.02,0.02 0.02,0.03 0.04,0.05 0.05,0.02 0.13,-0.04l0.15 -0.12c0.04,-0.03 0,-0.04 -0.04,-0.11 -0.01,-0.01 -0.02,-0.02 -0.03,-0.03l-0.13 -0.17c-0.05,-0.08 -0.06,-0.07 -0.13,-0.1l-0.18 -0.06c-0.06,-0.02 -0.05,-0.01 -0.09,0.02 -0.09,0.06 -0.26,0.07 -0.37,0 -0.05,-0.04 0,-0.05 -0.17,0.01 -0.04,0.01 -0.15,0.04 -0.18,0.06 -0.02,0.02 -0.04,0.05 -0.05,0.07l-0.21 0.27c-0.01,0.02 -0.01,0.03 0.01,0.04l0.21 0.17c0.01,0.01 0.02,0.01 0.03,0.01 0.03,0 0.03,-0.02 0.06,-0.05zm-0.01 -0.48c0.03,0.11 0.04,0.14 0.05,0.26 0.01,0.1 0,0.21 0,0.31 0,0.1 0,0.21 0,0.31 0,0.11 0,0.21 0,0.32l0.89 0c0,-0.06 0,-0.25 0,-0.31 0,-0.11 0,-0.21 0,-0.32 0,-0.19 -0.01,-0.26 0.02,-0.45 0.01,-0.04 0.02,-0.08 0.03,-0.12 -0.02,-0.01 -0.21,-0.08 -0.23,-0.08 0,0.04 -0.01,0.07 -0.03,0.1 -0.01,0.02 -0.03,0.05 -0.05,0.07 -0.03,0.02 -0.04,0.03 -0.08,0.05 -0.06,0.02 -0.15,0.02 -0.21,0 -0.09,-0.04 -0.15,-0.12 -0.16,-0.22 -0.03,0 -0.2,0.06 -0.23,0.08zm1.04 0.49c0.03,-0.02 0.19,-0.16 0.21,-0.16 -0.01,-0.02 -0.15,-0.21 -0.17,-0.23l-0.04 -0.05c-0.01,-0.01 -0.01,-0.01 -0.01,-0.02 -0.03,0.07 -0.04,0.16 -0.05,0.24 0,0.05 0,0.09 0,0.14 0,0.02 0.03,0.04 0.04,0.06l0.02 0.02zm-1.3 -0.17c0.02,0.02 0.04,0.03 0.05,0.05 0.02,0.01 0.04,0.02 0.05,0.04 0.01,0 0.02,0.01 0.03,0.02l0.08 0.06 0.05 -0.05c0.01,-0.01 0.01,-0.01 0.01,-0.03 0.01,-0.11 -0.01,-0.28 -0.04,-0.38 -0.01,0.01 -0.02,0.02 -0.03,0.03 -0.01,0.02 -0.02,0.03 -0.03,0.04l-0.17 0.22zm0.98 -0.4c-0.01,0.01 -0.02,0.02 -0.04,0.02 -0.02,0.01 -0.03,0.02 -0.06,0.03 -0.08,0.02 -0.17,0.03 -0.25,0 -0.03,-0.01 -0.05,-0.02 -0.08,-0.04 -0.01,0 -0.01,-0.01 -0.02,-0.01 0.01,0.12 0.11,0.2 0.23,0.2 0.11,0 0.22,-0.09 0.22,-0.2zm0.26 0.56c-0.01,0 -0.01,0 -0.01,0.02l0 0.17c0,0.06 0,0.12 0,0.18 0,0.05 0,0.36 0,0.38 -0.02,0.01 -0.19,0 -0.23,0l-0.61 0c-0.03,0 -0.09,0.01 -0.11,0 -0.01,-0.03 0,-0.33 0,-0.38l0 -0.28c0,-0.02 0,-0.09 -0.01,-0.09 0.01,0.06 0,0.23 0,0.31l0 0.39c0,0.02 0,0.05 0.02,0.06 0.02,0 0.13,0 0.16,0 0.07,0 0.75,0 0.77,0 0.02,-0.01 0.02,-0.04 0.02,-0.06l0 -0.39c0,-0.1 0,-0.21 0,-0.31z"/>
 </g>
</svg>
