<svg xmlns="http://www.w3.org/2000/svg" version="1.1" xmlns:xlink="http://www.w3.org/1999/xlink" width="512"
    height="512" x="0" y="0" viewBox="0 0 128 128"  xml:space="preserve"
    class=""
    >
    <style>
    path { fill: #000; } /* Default (light mode) */
    @media (prefers-color-scheme: dark) {
      path { fill: #fff; } /* Dark mode */
    }
    </style>
    <title>T-Shirt</title>
    <g transform="matrix(0.6000000000000002,0,0,0.6000000000000002,25.854601097106936,25.607690811157227)">
    <path fill="currentColor"
        d="M1.29,53.31,23.52,59v67a2,2,0,0,0,2,2h77a2,2,0,0,0,2-2V59l22.23-5.72A2.25,2.25,0,0,0,127.94,51s-7.4-26.27-7.4-26.27,0-.1-.05-.15A31.82,31.82,0,0,0,100.61,5.18c-6-2-11.52-3.72-16.43-5.1a2,2,0,0,0-1.72.3C78.2,3.45,71.3,5.29,64,5.29S49.8,3.45,45.54.38a2,2,0,0,0-1.72-.3c-4.91,1.38-10.44,3.09-16.43,5.1A31.82,31.82,0,0,0,7.51,24.53s0,.1,0,.15L.08,50.9A2.21,2.21,0,0,0,1.29,53.31Zm10-27.47A27.85,27.85,0,0,1,28.66,9C34.23,7.11,39.39,5.5,44,4.18c5,3.26,12.2,5.11,20,5.11S79,7.44,84,4.18C88.61,5.5,93.77,7.11,99.34,9a27.85,27.85,0,0,1,17.37,16.87L123.52,50l-19,4.88V28.44a2,2,0,0,0-4,0V124h-73V28.44a2,2,0,0,0-4,0V54.9L4.48,50Z"></path>
    </g>
</svg>


