<svg xmlns="http://www.w3.org/2000/svg" version="1.1" xmlns:xlink="http://www.w3.org/1999/xlink" width="512"
    height="512" x="0" y="0" viewBox="0 0 2500 2500" style="enable-background:new 0 0 512 512" xml:space="preserve">
    <style>
        path { fill: #000; } /* Default (light mode) */
        @media (prefers-color-scheme: dark) {
        path { fill: #fff; } /* Dark mode */
        }
    </style>
    <g transform="matrix(0.6,0,0,0.6,499.9980102539064,499.99995117187507)">
        <path
            d="M1979.35 849.64h-207.54C1764.52 286.32 1589.35 0 1249.98 0S735.45 286.32 728.16 849.64H520.65c-20.04 0-36.28 16.22-36.28 36.22v1462c0 83.88 68.36 152.14 152.37 152.14h1226.51c84 0 152.37-68.26 152.37-152.14v-1462c0-20.01-16.24-36.22-36.28-36.22zm-280.06 0h-48.4c-.19-177.15-3.22-379.13-48.87-542 61.63 128.41 94.18 309.26 97.27 542zM1249.98 72.45c317.6 0 328.02 421.64 328.36 777.19H921.63c.34-355.54 10.76-777.19 328.35-777.19zM897.94 307.64c-45.66 162.87-48.68 364.85-48.87 542h-48.4c3.08-232.74 35.63-413.59 97.27-542zm1045.12 2040.22c0 43.95-35.8 79.69-79.81 79.69H636.74c-44.02 0-79.81-35.74-79.81-79.69V922.08h1386.14v1425.77z"
            opacity="1" data-original="#000000"></path>
        <path
            d="M1857.78 2257.24c20.04 0 36.28-16.22 36.28-36.22v-242.73c0-20.01-16.24-36.22-36.28-36.22s-36.28 16.22-36.28 36.22v242.73c0 20.01 16.24 36.22 36.28 36.22zM1857.78 1771.75c20.04 0 36.28-16.22 36.28-36.22v-606.9c0-20.01-16.24-36.22-36.28-36.22s-36.28 16.22-36.28 36.22v606.9c0 20.01 16.24 36.22 36.28 36.22z"
            opacity="1" data-original="#000000"></path>
    </g>
</svg>