<?xml version="1.0" encoding="UTF-8"?>
<!DOCTYPE svg PUBLIC "-//W3C//DTD SVG 1.1//EN" "http://www.w3.org/Graphics/SVG/1.1/DTD/svg11.dtd">
<!-- Creator: CorelDRAW -->
<svg xmlns="http://www.w3.org/2000/svg" xml:space="preserve" width="76px" height="76px" version="1.1" style="shape-rendering:geometricPrecision; text-rendering:geometricPrecision; image-rendering:optimizeQuality; fill-rule:evenodd; clip-rule:evenodd"
viewBox="0 0 5.21 5.2"
 xmlns:xlink="http://www.w3.org/1999/xlink"
 xmlns:xodm="http://www.corel.com/coreldraw/odm/2003">
 <defs>
  <style type="text/css">
   <![CDATA[
    .str0 {stroke:black;stroke-width:0.02;stroke-miterlimit:22.9256}
    .fil0 {fill:none}
    .fil1 {fill:#373435}
   ]]>
  </style>
 </defs>
 <g id="Layer_x0020_1">
  <metadata id="CorelCorpID_0Corel-Layer"/>
  <rect class="fil0" width="5.21" height="5.2" rx="0.73" ry="0.73"/>
  <path class="fil1 str0" d="M1.93 2.12c-0.07,0 -0.42,-0.02 -0.46,0.01 -0.04,0.02 -0.02,0.15 -0.02,0.2 0.01,0.08 0.01,0.15 0.01,0.23 0.03,0.37 0.04,0.75 0.06,1.11 0.02,0.21 0,0.29 0.14,0.46 0.01,0.02 0.04,0.04 0.07,0.05 0.12,0.09 0.23,0.07 0.4,0.07 0.16,0 0.31,0 0.47,0 0.16,0 0.32,0 0.47,0 0.17,0 0.3,0.02 0.44,-0.09 0.08,-0.06 0.14,-0.15 0.16,-0.25 0.02,-0.1 0.07,-1.25 0.08,-1.35l0.01 -0.33c0.01,-0.13 -0.04,-0.12 -0.12,-0.11 -0.04,0 -0.08,0 -0.12,0l-0.24 -0.01c-0.01,-0.26 -0.06,-0.53 -0.15,-0.76 -0.05,-0.12 -0.12,-0.21 -0.19,-0.28 -0.14,-0.13 -0.34,-0.16 -0.52,-0.09 -0.03,0.01 -0.09,0.05 -0.12,0.07l-0.1 0.09c0,0.01 0,0.01 -0.01,0.02 -0.05,0.07 -0.07,0.1 -0.11,0.18 -0.09,0.18 -0.16,0.57 -0.15,0.78zm0.13 2.08c0.23,0 0.47,-0.01 0.71,-0.01 0.11,0.01 0.23,0 0.35,0 0.14,0.01 0.26,0.01 0.36,-0.08 0.04,-0.04 0.08,-0.1 0.11,-0.15 0.03,-0.09 0.03,-0.23 0.04,-0.32 0,-0.11 0.01,-0.23 0.02,-0.34 0,-0.08 0.02,-0.26 0.02,-0.34 0,-0.06 0,-0.13 0.01,-0.19 0,-0.09 0.03,-0.54 0.02,-0.59l-0.41 0c-0.01,0.07 0.03,0.23 0,0.29 -0.03,0.02 -0.13,0.01 -0.18,0.01 -0.08,0 -0.07,-0.01 -0.07,-0.1l0 -0.21 -0.87 0c0,0.07 -0.01,0.13 0,0.2 0,0.13 0.01,0.11 -0.17,0.11l-0.07 0c-0.02,-0.02 -0.02,-0.03 -0.02,-0.07l0.01 -0.23 -0.37 0c-0.06,0 -0.05,-0.02 -0.04,0.2 0.02,0.31 0.03,0.66 0.06,0.96 0,0.1 0.01,0.21 0.01,0.31 0.01,0.12 0.01,0.26 0.07,0.36 0.1,0.16 0.21,0.19 0.41,0.19zm0.11 -2.08c0.21,0 0.44,-0.01 0.65,0 0.05,0 0.17,0 0.22,-0.01 -0.01,-0.04 -0.01,-0.12 -0.01,-0.16 0,-0.06 -0.01,-0.11 -0.02,-0.17 -0.01,-0.11 -0.02,-0.2 -0.05,-0.3 -0.01,-0.04 -0.03,-0.1 -0.05,-0.13 -0.02,-0.04 -0.06,-0.1 -0.09,-0.13 -0.04,-0.04 -0.07,-0.07 -0.14,-0.09 -0.08,-0.02 -0.13,-0.02 -0.21,0.02 -0.01,0.01 -0.05,0.04 -0.05,0.04 -0.01,0.01 0,0 -0.01,0.01 -0.21,0.2 -0.22,0.65 -0.24,0.92zm-0.2 0.3l0.14 0c-0.01,-0.21 0.01,-0.66 0.06,-0.87 0.04,-0.16 0.12,-0.36 0.26,-0.44 0.04,-0.03 0.12,-0.06 0.18,-0.06 0.13,0.02 0.21,0.07 0.29,0.17 0.22,0.29 0.19,0.84 0.21,1.2l0.13 0c-0.02,-0.36 -0.03,-0.75 -0.19,-1.09 -0.05,-0.09 -0.1,-0.17 -0.18,-0.23 -0.08,-0.06 -0.15,-0.1 -0.26,-0.1 -0.14,0 -0.3,0.09 -0.38,0.21 -0.02,0.03 -0.04,0.05 -0.07,0.11 -0.03,0.06 -0.05,0.12 -0.08,0.19 -0.04,0.13 -0.07,0.29 -0.08,0.43 -0.01,0.08 -0.01,0.15 -0.02,0.23 -0.01,0.08 0,0.17 -0.01,0.25z"/>
 </g>
</svg>
