<?xml version="1.0" encoding="UTF-8"?>
<!DOCTYPE svg PUBLIC "-//W3C//DTD SVG 1.1//EN" "http://www.w3.org/Graphics/SVG/1.1/DTD/svg11.dtd">
<!-- Creator: CorelDRAW -->
<svg xmlns="http://www.w3.org/2000/svg" xml:space="preserve" width="76px" height="76px" version="1.1" style="shape-rendering:geometricPrecision; text-rendering:geometricPrecision; image-rendering:optimizeQuality; fill-rule:evenodd; clip-rule:evenodd"
viewBox="0 0 13.24 13.21"
 xmlns:xlink="http://www.w3.org/1999/xlink"
 xmlns:xodm="http://www.corel.com/coreldraw/odm/2003">
 <defs>
  <style type="text/css">
   <![CDATA[
    .str0 {stroke:black;stroke-width:0.06;stroke-miterlimit:22.9256}
    .fil0 {fill:none}
    .fil1 {fill:black}
   ]]>
  </style>
 </defs>
 <g id="Layer_x0020_1">
  <metadata id="CorelCorpID_0Corel-Layer"/>
  <rect class="fil0" width="13.24" height="13.21" rx="1.86" ry="1.85"/>
  <path class="fil1 str0" d="M4.9 5.38c-0.18,0 -1.07,-0.03 -1.17,0.03 -0.09,0.06 -0.05,0.38 -0.04,0.52 0.01,0.19 0.02,0.38 0.03,0.57 0.07,0.95 0.09,1.91 0.15,2.84 0.04,0.51 -0.01,0.73 0.35,1.16 0.03,0.04 0.1,0.09 0.16,0.13 0.33,0.22 0.6,0.18 1.02,0.18 0.41,0 0.81,-0.01 1.21,-0.01 0.4,0 0.8,0.01 1.2,0.01 0.44,0 0.76,0.04 1.11,-0.23 0.2,-0.15 0.35,-0.4 0.4,-0.66 0.05,-0.24 0.18,-3.16 0.2,-3.41l0.04 -0.85c0.02,-0.32 -0.11,-0.29 -0.31,-0.28 -0.1,0 -0.2,0 -0.3,0l-0.6 -0.01c-0.04,-0.68 -0.16,-1.36 -0.41,-1.94 -0.12,-0.29 -0.29,-0.53 -0.47,-0.7 -0.36,-0.34 -0.87,-0.42 -1.33,-0.23 -0.07,0.02 -0.22,0.11 -0.28,0.16l-0.27 0.24c-0.01,0.02 -0.01,0.03 -0.02,0.05 -0.14,0.17 -0.18,0.25 -0.29,0.46 -0.22,0.45 -0.39,1.45 -0.38,1.97zm0.33 5.28c0.6,0 1.2,0 1.8,0 0.3,0 0.6,0 0.89,0 0.37,0.01 0.66,0.01 0.92,-0.21 0.11,-0.1 0.22,-0.25 0.28,-0.4 0.09,-0.21 0.09,-0.56 0.1,-0.8 0.01,-0.28 0.03,-0.58 0.05,-0.86 0.01,-0.22 0.04,-0.68 0.04,-0.86 0,-0.16 0.02,-0.34 0.03,-0.5 0.01,-0.22 0.08,-1.37 0.07,-1.49l-1.05 -0.01c-0.02,0.19 0.07,0.59 0.01,0.75 -0.09,0.05 -0.33,0.03 -0.47,0.03 -0.19,0 -0.17,-0.02 -0.17,-0.25l0 -0.54 -2.21 0.01c-0.01,0.16 -0.02,0.32 -0.01,0.48 0.01,0.34 0.03,0.3 -0.42,0.3l-0.2 0c-0.05,-0.06 -0.04,-0.07 -0.04,-0.18l0.03 -0.6 -0.95 0c-0.15,0 -0.11,-0.03 -0.08,0.51 0.04,0.79 0.07,1.68 0.13,2.44 0.02,0.27 0.02,0.54 0.04,0.81 0.02,0.29 0.01,0.66 0.16,0.9 0.26,0.41 0.54,0.47 1.05,0.47zm0.29 -5.29c0.53,0.02 1.12,-0.01 1.65,0.01 0.13,0 0.42,0.01 0.55,-0.01 -0.02,-0.1 -0.02,-0.31 -0.02,-0.42 -0.01,-0.15 -0.03,-0.28 -0.04,-0.42 -0.02,-0.28 -0.07,-0.51 -0.14,-0.77 -0.03,-0.1 -0.09,-0.24 -0.13,-0.33 -0.05,-0.09 -0.15,-0.26 -0.22,-0.33 -0.11,-0.1 -0.19,-0.18 -0.36,-0.22 -0.2,-0.05 -0.33,-0.07 -0.54,0.05 -0.03,0.02 -0.12,0.08 -0.13,0.09 -0.01,0.02 0,0.01 -0.02,0.03 -0.52,0.5 -0.57,1.64 -0.6,2.32zm-0.52 0.78l0.35 0c-0.01,-0.54 0.05,-1.68 0.17,-2.21 0.09,-0.41 0.29,-0.91 0.65,-1.13 0.09,-0.05 0.31,-0.15 0.45,-0.13 0.34,0.05 0.55,0.16 0.76,0.43 0.54,0.73 0.47,2.14 0.51,3.04l0.34 0c-0.05,-0.92 -0.06,-1.91 -0.48,-2.76 -0.12,-0.24 -0.25,-0.43 -0.46,-0.6 -0.2,-0.16 -0.37,-0.24 -0.67,-0.24 -0.35,-0.01 -0.75,0.22 -0.95,0.51 -0.06,0.1 -0.11,0.13 -0.19,0.3 -0.07,0.15 -0.13,0.29 -0.19,0.47 -0.1,0.34 -0.17,0.74 -0.21,1.09 -0.02,0.21 -0.03,0.4 -0.05,0.6 -0.01,0.21 -0.01,0.43 -0.03,0.63z"/>
 </g>
</svg>
