<?xml version="1.0" encoding="UTF-8"?>
<!DOCTYPE svg PUBLIC "-//W3C//DTD SVG 1.1//EN" "http://www.w3.org/Graphics/SVG/1.1/DTD/svg11.dtd">
<!-- Creator: CorelDRAW -->
<svg xmlns="http://www.w3.org/2000/svg" xml:space="preserve" width="76px" height="76px" version="1.1" style="shape-rendering:geometricPrecision; text-rendering:geometricPrecision; image-rendering:optimizeQuality; fill-rule:evenodd; clip-rule:evenodd"
viewBox="0 0 3.72 3.71"
 xmlns:xlink="http://www.w3.org/1999/xlink"
 xmlns:xodm="http://www.corel.com/coreldraw/odm/2003">
 <defs>
  <style type="text/css">
   <![CDATA[
    .fil0 {fill:none}
    .fil1 {fill:#373435}
   ]]>
  </style>
 </defs>
 <g id="Layer_x0020_1">
  <metadata id="CorelCorpID_0Corel-Layer"/>
  <rect class="fil0" width="3.72" height="3.71" rx="0.52" ry="0.52"/>
  <path class="fil1" d="M1.37 1.1c-0.02,0.05 -0.03,0.1 -0.04,0.15 0,0.05 0,0.11 0.01,0.16 0.02,0.07 0.04,0.13 0.08,0.19 0.01,0.02 0.03,0.04 0.04,0.06 -0.04,0.01 -0.1,0.04 -0.13,0.06 -0.02,0.01 -0.04,0.02 -0.06,0.04l-0.16 0.14c0,0.01 -0.01,0.02 -0.02,0.02l-0.04 0.06c-0.04,0.05 -0.09,0.1 -0.08,0.17 0.01,0.03 0.01,0.06 0.03,0.08 0.01,0.02 0.03,0.04 0.05,0.05 0.14,0.07 0.21,-0.05 0.27,-0.08 -0.01,0.05 0,0.08 0.01,0.13 -0.05,0.01 -0.04,0 -0.09,0.02 -0.03,0.01 -0.04,0.02 -0.06,0.03 -0.03,0.03 -0.06,0.06 -0.07,0.09 0,0.02 -0.01,0.03 -0.01,0.04 -0.01,0.08 0,0.11 0.02,0.18 0.02,0.09 0.12,0.22 0.21,0.26 0.07,0.03 0.18,0.03 0.24,-0.02 0.03,-0.03 0.05,-0.05 0.06,-0.1 0.02,-0.03 0.01,-0.05 0.02,-0.08 0.03,0.01 0.06,0.02 0.1,0.03 0.07,0.02 0.21,0.01 0.27,-0.02 0.01,0 0.02,0 0.03,0 0,-0.01 0,-0.01 0.01,-0.01 0.02,0 0,0.02 0.03,0.08 0,0.03 0.02,0.05 0.03,0.07 0.02,0.02 0.04,0.04 0.06,0.05 0.05,0.02 0.09,0.03 0.15,0.01 0.02,0 0.05,-0.01 0.06,-0.02 0.02,0 0.03,-0.01 0.05,-0.02 0.01,-0.01 0.01,-0.01 0.02,-0.02l0.04 -0.04c0,0 0,0 0.01,-0.01 0.03,-0.04 0.04,-0.05 0.06,-0.1l0.03 -0.06c0.01,-0.04 0.02,-0.07 0.02,-0.12 0,-0.05 -0.01,-0.09 -0.03,-0.13 -0.01,-0.02 -0.05,-0.06 -0.08,-0.08 -0.04,-0.02 -0.06,-0.03 -0.12,-0.03 0.01,-0.01 0.01,-0.03 0.01,-0.05 0.01,-0.02 0,-0.06 0.01,-0.08l0.05 0.04c0.01,0.02 0.03,0.03 0.06,0.04 0.05,0.03 0.1,0.03 0.15,0 0.05,-0.03 0.07,-0.06 0.07,-0.13 0.01,-0.02 0,-0.07 -0.01,-0.08 -0.03,-0.06 -0.08,-0.13 -0.12,-0.17 -0.01,-0.01 -0.02,-0.02 -0.03,-0.03l-0.01 -0.01c-0.01,-0.02 -0.1,-0.09 -0.15,-0.12 -0.01,-0.01 -0.02,-0.01 -0.03,-0.02 -0.01,0 -0.01,0 -0.01,-0.01 -0.01,0 -0.01,0 -0.02,-0.01 -0.03,-0.01 -0.07,-0.03 -0.09,-0.05 0.02,-0.02 0.03,-0.05 0.05,-0.08 0,0 0,-0.01 0.01,-0.01 0.01,-0.02 0.01,-0.02 0.02,-0.05 0,-0.01 0.01,-0.02 0.01,-0.03 0.02,-0.09 0.02,-0.04 0.03,-0.15 0.01,-0.12 -0.03,-0.19 -0.04,-0.22 0.05,-0.03 0.06,-0.03 0.09,-0.07 0,-0.01 0,-0.01 0.01,-0.02 0.04,-0.07 0.02,-0.15 -0.03,-0.22 -0.04,-0.05 -0.11,-0.07 -0.18,-0.06 -0.03,0.01 -0.05,0.02 -0.08,0.04 -0.03,0.02 -0.04,0.05 -0.06,0.06 0,-0.01 -0.09,-0.03 -0.11,-0.04 -0.03,-0.01 -0.09,-0.02 -0.13,-0.02 -0.04,0 -0.15,0.02 -0.19,0.04 -0.02,0 -0.04,0.01 -0.06,0.02 -0.01,-0.03 -0.05,-0.06 -0.07,-0.07l-0.02 -0.01c0,0 0,0 0,0 0,0 0,0 0,0 -0.02,-0.01 -0.02,-0.01 -0.05,-0.01 -0.06,-0.01 -0.09,0 -0.14,0.02l-0.02 0.02c-0.03,0.03 -0.04,0.04 -0.05,0.08 -0.02,0.07 0,0.14 0.04,0.19 0.01,0.02 0.04,0.04 0.07,0.04zm0.48 -0.29l-0.12 0.02 -0.09 0.03c-0.04,0.02 -0.08,0.05 -0.11,0.08l-0.03 0.03c-0.08,0.08 -0.1,0.13 -0.13,0.24 -0.02,0.1 0,0.22 0.04,0.31 0.02,0.03 0.03,0.05 0.05,0.08 0.03,0.03 0.03,0.04 0.07,0.08l0.04 0.03c0.07,0.05 0.17,0.08 0.25,0.09 0.02,0 0.03,0.01 0.06,0 0.01,0 0,0 0.02,0 0.06,-0.01 0.04,0 0.11,-0.02 0.03,-0.01 0.07,-0.02 0.1,-0.05 0.05,-0.03 0.02,0.01 0.08,-0.05 0.03,-0.03 0.06,-0.06 0.08,-0.1 0.05,-0.06 0.09,-0.19 0.09,-0.29 -0.01,-0.18 -0.09,-0.27 -0.19,-0.37 -0.04,-0.03 -0.16,-0.08 -0.22,-0.09l-0.1 -0.02zm0.03 1.03c-0.09,0 -0.17,-0.02 -0.25,-0.06l-0.05 -0.02c-0.01,-0.01 -0.01,-0.02 -0.05,0.02l-0.03 0.04c-0.01,0 -0.01,0.01 -0.01,0.01 -0.07,0.08 -0.04,0.06 -0.08,0.13l-0.03 0.06c0,0.02 -0.01,0.03 -0.01,0.04l0 0.02c-0.01,0.01 -0.01,0.01 -0.01,0.02 -0.01,0.03 -0.03,0.2 0.01,0.23 0.02,0.02 0.05,0.02 0.07,0.03l0.04 0.03c0,0 0,0.01 0,0.01l0.06 0.06c0.05,0.06 0.02,0.03 0.05,0.07 0.03,0.05 0.06,0.12 0.06,0.18 0.02,0 0.05,0.02 0.1,0.03l0.04 0.01c0.08,0.01 0.16,0 0.23,-0.02 0.02,-0.01 0.04,-0.01 0.05,-0.02 0,-0.05 0.03,-0.09 0.04,-0.14 0.01,-0.02 0.03,-0.04 0.04,-0.06 0.02,-0.02 0.01,-0.02 0.04,-0.05l0.01 -0.02c0.07,-0.08 0.1,-0.07 0.15,-0.1 0.03,-0.02 0.02,-0.17 0.02,-0.18 -0.02,-0.08 -0.03,-0.13 -0.06,-0.21 -0.04,-0.07 -0.05,-0.07 -0.09,-0.13l-0.06 -0.07c0,0 0,0 -0.01,0 -0.01,0.01 -0.01,0.01 -0.01,0.01l-0.07 0.03c-0.01,0 -0.01,0.01 -0.02,0.01 -0.05,0.02 -0.11,0.04 -0.17,0.04zm0.51 0.53c-0.03,0 -0.05,0.01 -0.07,0.02l-0.03 0.02c-0.03,0.02 -0.08,0.06 -0.1,0.09 -0.01,0.03 0,0.02 -0.02,0.04 -0.02,0.02 -0.06,0.11 -0.06,0.14 -0.02,0.06 -0.01,0.1 0.01,0.16 0.01,0.03 0.04,0.06 0.07,0.07 0.01,0.01 0.02,0.01 0.04,0.02 0.03,0.01 0.08,0.01 0.1,0l0.02 -0.01c0.02,0 0.04,-0.01 0.06,-0.02l0.01 -0.01c0.01,-0.01 0.01,-0.01 0.02,-0.02 0.04,-0.03 0.03,-0.03 0.06,-0.07 0.02,-0.02 0,0.01 0.03,-0.03 0.01,-0.02 0.01,-0.03 0.02,-0.05 0.03,-0.07 0.06,-0.19 0.01,-0.26l-0.07 -0.07c-0.01,-0.01 -0.08,-0.03 -0.1,-0.02zm-0.77 0.33c0,-0.02 -0.04,-0.12 -0.06,-0.15 0,0 0,0 0,-0.01l-0.04 -0.05c-0.01,-0.01 0,0 -0.02,-0.01 -0.01,-0.02 -0.05,-0.07 -0.1,-0.1 -0.06,-0.02 -0.08,-0.02 -0.13,0 -0.01,0 -0.02,0 -0.03,0.01 -0.04,0.02 -0.08,0.05 -0.1,0.09 -0.02,0.04 -0.01,0.08 -0.01,0.12 0.01,0.06 0.04,0.14 0.08,0.19 0.04,0.05 0.05,0.06 0.1,0.1 0,0 0,0 0,0l0.02 0.01c0.05,0.04 0.12,0.05 0.18,0.02 0.02,0 0.05,-0.04 0.07,-0.05 0.02,-0.02 0.01,-0.02 0.02,-0.06 0.02,-0.04 0.02,-0.07 0.02,-0.11zm0.21 -1.44c-0.02,0 -0.04,0 -0.05,0.01 -0.02,0 -0.03,0.01 -0.05,0.02 -0.01,0 -0.03,0.01 -0.04,0.02l-0.04 0.04c-0.06,0.1 -0.06,0.21 0.02,0.29 0.03,0.04 0.06,0.06 0.11,0.07 0.08,0.03 0.14,0.02 0.21,-0.02 0.01,0 0.04,-0.02 0.05,-0.03 0.01,-0.01 0.01,-0.01 0.02,-0.02 0.04,-0.04 0.07,-0.12 0.06,-0.18 -0.02,-0.08 -0.06,-0.13 -0.11,-0.17 -0.05,-0.02 -0.08,-0.03 -0.12,-0.03l-0.06 0c0,0 0,0 0,0zm-0.19 0.23c0,0.03 0,0.05 0.01,0.07 0.02,0.04 0.06,0.08 0.1,0.1 0,0 0.01,0 0.01,0.01 0.01,0 0.01,0 0.02,0 0.07,0.03 0.19,0.01 0.25,-0.05l0 0c0.03,-0.03 0.04,-0.05 0.05,-0.09 0.02,-0.05 0,-0.12 -0.04,-0.16 -0.03,-0.04 -0.06,-0.06 -0.1,-0.07 -0.06,-0.02 -0.15,-0.01 -0.18,0.01 -0.04,0.03 -0.08,0.04 -0.1,0.09 -0.01,0.03 -0.02,0.06 -0.02,0.09zm-0.11 0.24c-0.04,-0.05 -0.04,-0.06 -0.12,-0.01 -0.03,0.01 -0.07,0.03 -0.09,0.05 -0.01,0.01 -0.03,0.01 -0.04,0.03l-0.06 0.04c-0.01,0.01 -0.01,0.01 -0.02,0.02 -0.01,0.01 -0.02,0.02 -0.03,0.03 -0.01,0.01 -0.01,0.01 -0.02,0.02 -0.02,0.02 -0.05,0.04 -0.07,0.07l-0.04 0.06c-0.03,0.04 -0.04,0.09 -0.03,0.14l0.01 0.02c0.02,0.03 0.04,0.06 0.08,0.06 0.1,0.01 0.11,-0.02 0.17,-0.07l0.03 -0.03c0.02,-0.02 0.02,-0.02 0.03,-0.08l0.03 -0.11c0.02,-0.04 0.03,-0.06 0.06,-0.1 0,0 0,0 0,0l0.02 -0.03c0,-0.01 0.01,-0.01 0.01,-0.02l0.03 -0.03c0,0 0,-0.01 0,-0.01l0.05 -0.05zm0.66 -0.01l0.01 0.01c0.02,0.03 0.01,0.01 0.02,0.03 0.03,0.03 0.06,0.07 0.09,0.12 0.01,0.03 0.03,0.06 0.04,0.09 0.04,0.1 0.03,0.08 0.05,0.16 0.01,0.03 0.01,0.03 0.03,0.04 0.07,0.05 0.1,0.1 0.18,0.09 0.08,0 0.14,-0.11 0.07,-0.21 -0.02,-0.03 -0.07,-0.1 -0.1,-0.13l-0.08 -0.07c0,-0.01 -0.01,-0.01 -0.01,-0.02l-0.09 -0.06c-0.01,-0.01 -0.02,-0.02 -0.04,-0.02l-0.09 -0.05c0,-0.01 -0.02,-0.01 -0.02,-0.02 -0.02,0 -0.03,0.02 -0.06,0.04zm-0.05 -0.87l0.11 0.1c0.04,0.04 0.07,0.11 0.09,0.13 0.02,-0.01 0.05,-0.03 0.06,-0.05l0.02 -0.02c0,-0.01 0.01,-0.02 0.01,-0.04 0.03,-0.08 -0.03,-0.17 -0.09,-0.19 -0.06,-0.01 -0.1,0 -0.16,0.02 -0.02,0.02 -0.03,0.04 -0.04,0.05zm-0.56 0c-0.01,-0.02 -0.01,-0.02 -0.04,-0.04l-0.04 -0.02c-0.02,-0.01 -0.05,-0.01 -0.07,-0.02 -0.02,0 -0.08,0.02 -0.1,0.04 0,0.01 0,0.01 -0.01,0.01 0,0.01 0,0.01 -0.01,0.01 -0.03,0.04 -0.04,0.14 0,0.19 0,0 0,0.01 0.01,0.01 0.01,0.01 0.02,0.03 0.04,0.04 0.03,0.01 0.02,0 0.06,-0.06 0.02,-0.03 0.07,-0.09 0.1,-0.11l0.06 -0.05zm0.27 0.64l-0.01 0.1c0,0 -0.01,-0.01 -0.01,-0.01 -0.02,-0.01 -0.04,-0.02 -0.07,0 0,0.04 0.02,0.03 0.04,0.03 0.04,0 0.06,0.04 0.11,0.01 0.03,-0.02 0.03,-0.01 0.04,-0.01 0.02,-0.04 -0.02,-0.05 -0.05,-0.03 -0.03,0.01 -0.02,0.02 -0.02,-0.06 0,-0.03 -0.01,-0.03 0.01,-0.04 0.02,-0.01 0.03,-0.01 0.04,-0.04 0,-0.04 -0.02,-0.07 -0.05,-0.08 -0.08,-0.01 -0.14,0.09 -0.03,0.13zm-0.2 -0.34c-0.04,0.02 -0.03,0.1 0.03,0.07 0.01,0 0.02,-0.01 0.02,-0.02 0.02,-0.04 -0.03,-0.06 -0.05,-0.05zm0.38 0c-0.04,0.03 -0.01,0.1 0.04,0.07 0.05,-0.02 0.01,-0.09 -0.04,-0.07z"/>
 </g>
</svg>
