<svg xmlns="http://www.w3.org/2000/svg" version="1.1" xmlns:xlink="http://www.w3.org/1999/xlink" width="512"
    height="512" x="0" y="0" viewBox="0 0 64 64" style="enable-background:new 0 0 512 512" xml:space="preserve">
    <style>
        path { fill: #000;} /* Default (light mode) */
        @media (prefers-color-scheme: dark) {
        path { fill: #ffffff; }
        }
    </style>
    <g transform="matrix(0.6,0,0,0.6,12.792277240753176,12.782406711578371)">
        <path
            d="m60 46.8-2.82-1a6.93 6.93 0 0 0-7.29 2.09 17.67 17.67 0 0 0 .15-2.2 19.42 19.42 0 0 0-.8-5.51 56.87 56.87 0 0 0 10.53-4.69c2.39-1.38 3-4.83 1.33-7.7s-4.94-4.07-7.33-2.69a54.46 54.46 0 0 1-8.52 4A14 14 0 0 0 49 19.15a17.16 17.16 0 0 0-1.61-7.23 6 6 0 1 0-8.3-8.33 16.6 16.6 0 0 0-14.18 0 6 6 0 1 0-8.3 8.33A17.16 17.16 0 0 0 15 19.15 14 14 0 0 0 18.79 29a54.46 54.46 0 0 1-8.52-4c-2.39-1.38-5.67-.17-7.33 2.69s-1.06 6.32 1.33 7.7a56.87 56.87 0 0 0 10.53 4.76 19.42 19.42 0 0 0-.8 5.51 17.67 17.67 0 0 0 .15 2.2 6.93 6.93 0 0 0-7.29-2.09L4 46.8c-2.9 1.05-3.89 5.39-2.26 9.87s5.26 7.16 8.12 6.1l11.27-4.1.26-.11A22.17 22.17 0 0 0 32 61a22.17 22.17 0 0 0 10.61-2.44l.26.11 11.27 4.1c2.9 1 6.45-1.63 8.08-6.1s.64-8.82-2.22-9.87zm-5.23-20c1.43-.83 3.49.05 4.6 2s.83 4.14-.6 5-3.5-.06-4.6-2-.88-4.17.56-5zm-3.19 1.67a6.58 6.58 0 0 0 .86 4.29 6.74 6.74 0 0 0 2.92 2.75 53.61 53.61 0 0 1-6.79 2.76 18.58 18.58 0 0 0-4.7-6.66 54.88 54.88 0 0 0 7.67-3.14zM44 3a4 4 0 0 1 2.44 7.14 17.2 17.2 0 0 0-5.57-5.59A4 4 0 0 1 44 3zM16 7a4 4 0 0 1 7.13-2.45 17.2 17.2 0 0 0-5.57 5.59A4 4 0 0 1 16 7zm1 12.15a15 15 0 1 1 30 0 11.84 11.84 0 0 1-7.6 11.4A7.37 7.37 0 0 0 41 26c0-4.41-4-8-9-8s-9 3.59-9 8a7.37 7.37 0 0 0 1.6 4.55 11.84 11.84 0 0 1-7.6-11.4zM39 26c0 3.31-3.14 6-7 6s-7-2.69-7-6 3.14-6 7-6 7 2.69 7 6zM5.27 33.73c-1.43-.83-1.7-3.06-.6-5s3.17-2.79 4.6-2 1.7 3.05.6 5-3.16 2.83-4.6 2zm3.4 1.78a6.71 6.71 0 0 0 2.93-2.75 6.61 6.61 0 0 0 .86-4.3 54.93 54.93 0 0 0 7.71 3.15 18.58 18.58 0 0 0-4.7 6.66 53.75 53.75 0 0 1-6.8-2.76zm.5 25.38C7.58 61.47 5 59.64 3.66 56s-.52-6.73 1.07-7.3 4.18 1.25 5.51 4.91.52 6.7-1.07 7.28zm11.28-4.1-7.92 2.88a10.86 10.86 0 0 0-.41-6.77 10.92 10.92 0 0 0-4-5.4 5.52 5.52 0 0 1 5.26 2.56 1 1 0 0 0 1.15.36l3.15-1.15a4 4 0 0 1 2.74 7.52zM33 59V39a1 1 0 0 0-2 0v20a20.37 20.37 0 0 1-7.7-1.69 6 6 0 0 0-1.69-9.69 5.92 5.92 0 0 0-4.58-.2l-.89.32a17.21 17.21 0 0 1-.14-2.08A16.76 16.76 0 0 1 22.87 32 20.31 20.31 0 0 0 32 34a20.31 20.31 0 0 0 9.13-2A16.76 16.76 0 0 1 48 45.66a17.21 17.21 0 0 1-.14 2.05l-.86-.32a6 6 0 0 0-6.27 9.89A20.37 20.37 0 0 1 33 59zm18.47.7-7.92-2.88a4 4 0 0 1-.32-7.39 4 4 0 0 1 3.06-.13l3.15 1.15a1 1 0 0 0 1.15-.36 5.52 5.52 0 0 1 5.26-2.56 10.86 10.86 0 0 0-4 5.4 10.86 10.86 0 0 0-.38 6.74zm8.87-3.7c-1.33 3.66-3.92 5.49-5.51 4.91s-2.4-3.65-1.07-7.3 3.93-5.49 5.51-4.91 2.4 3.63 1.07 7.3z"
             opacity="1"></path>
        <circle cx="38.5" cy="17.5" r="1.5"  opacity="1"></circle>
        <circle cx="25.5" cy="17.5" r="1.5"  opacity="1"></circle>
        <path
            d="M32.89 22h-1.78a2.5 2.5 0 0 0-1.47 4.52l1.36 1V30a1 1 0 0 0 2 0v-2.49l1.36-1A2.5 2.5 0 0 0 32.89 22zm.29 2.9-1.18.86-1.18-.86a.45.45 0 0 1-.18-.55.47.47 0 0 1 .47-.35h1.78a.47.47 0 0 1 .47.35.45.45 0 0 1-.18.55z"
             opacity="1"></path>
    </g>
</svg>