<?xml version="1.0" encoding="UTF-8"?>
<!DOCTYPE svg PUBLIC "-//W3C//DTD SVG 1.1//EN" "http://www.w3.org/Graphics/SVG/1.1/DTD/svg11.dtd">
<!-- Creator: CorelDRAW -->
<svg xmlns="http://www.w3.org/2000/svg" xml:space="preserve" width="76px" height="76px" version="1.1" style="shape-rendering:geometricPrecision; text-rendering:geometricPrecision; image-rendering:optimizeQuality; fill-rule:evenodd; clip-rule:evenodd"
viewBox="0 0 8.31 8.3"
 xmlns:xlink="http://www.w3.org/1999/xlink"
 xmlns:xodm="http://www.corel.com/coreldraw/odm/2003">
 <defs>
  <style type="text/css">
   <![CDATA[
    .str0 {stroke-width:0.09;stroke-miterlimit:22.9256}
    .fil0 {fill:none}
    .fil1 {fill:#000000}
     @media (prefers-color-scheme: dark) {
        .fil1 { fill: #ffffff; }
    }
   ]]>
  </style>
 </defs>
 <g id="Layer_x0020_1">
  <metadata id="CorelCorpID_0Corel-Layer"/>
  <rect class="fil0" width="8.31" height="8.3" rx="1.17" ry="1.16"/>
  <path class="fil1 str0" d="M3.45 1.7c-0.03,0.01 -0.06,0.04 -0.06,0.08 -0.01,0.12 0.24,0.19 0.22,0.69 -0.01,0.17 -0.11,0.39 -0.29,0.48 -0.08,0.03 -0.17,0.1 -0.24,0.15 -0.18,0.14 -0.29,0.32 -0.36,0.55 -0.08,0.26 -0.04,0.55 0.01,0.8 0.05,0.28 0.26,0.79 0.38,1.05l0.16 0.35c0.02,0.03 0.03,0.06 0.05,0.09 0.09,0.18 0.13,0.27 0.17,0.48 0.01,0.06 0.02,0.13 0.1,0.16 0.07,0.03 0.67,0.01 0.77,0.01 0.17,0 0.38,0.05 0.44,-0.07 0.04,-0.07 0.04,-0.22 0.12,-0.39l0.17 -0.35c0.28,-0.61 0.63,-1.34 0.53,-2.02 -0.02,-0.14 -0.07,-0.27 -0.14,-0.39 -0.08,-0.15 -0.24,-0.3 -0.39,-0.38 -0.04,-0.03 -0.14,-0.07 -0.18,-0.11 0,0 -0.01,-0.01 -0.01,-0.01 0,0 0,0 0,0 -0.26,-0.24 -0.23,-0.67 -0.06,-0.93 0.06,-0.1 0.09,-0.11 0.09,-0.17 -0.02,-0.09 -0.11,-0.07 -0.2,-0.07l-0.76 0c-0.07,0 -0.5,-0.01 -0.52,0zm1.39 0.08l-1.37 0c0.03,0.05 0.09,0.07 0.17,0.29 0.09,0.25 0.07,0.59 -0.09,0.8 -0.02,0.03 -0.03,0.04 -0.06,0.06 -0.09,0.09 -0.26,0.14 -0.41,0.27 -0.07,0.07 -0.15,0.16 -0.2,0.26 -0.24,0.49 -0.08,1 0.09,1.49 0.04,0.13 0.21,0.51 0.27,0.64l0.15 0.31c0.09,0.18 0.15,0.3 0.18,0.5 0.01,0.07 0.03,0.11 0.11,0.12 0.15,0 0.31,-0.01 0.47,-0.01 0.15,0 0.3,0.01 0.44,0.01 0.19,0 0.14,-0.06 0.19,-0.25 0.04,-0.14 0.21,-0.46 0.28,-0.63 0.09,-0.21 0.2,-0.41 0.28,-0.63 0.04,-0.12 0.08,-0.22 0.11,-0.34 0.02,-0.06 0.03,-0.13 0.05,-0.18 0.08,-0.34 0.09,-0.68 -0.04,-0.99 -0.06,-0.14 -0.18,-0.27 -0.29,-0.36 -0.12,-0.09 -0.21,-0.12 -0.29,-0.18l-0.07 -0.06c-0.19,-0.23 -0.23,-0.53 -0.14,-0.81 0.07,-0.2 0.15,-0.24 0.17,-0.31z"/>
 </g>
</svg>
