<svg xmlns="http://www.w3.org/2000/svg" version="1.1" xmlns:xlink="http://www.w3.org/1999/xlink" width="512"
    height="512" x="0" y="0" viewBox="0 0 682.667 682.667" style="enable-background:new 0 0 512 512"
    xml:space="preserve">
    <style>
        path { fill: #000; } /* Default (light mode) */
        @media (prefers-color-scheme: dark) {
        path { fill: #fff; } /* Dark mode */
        }
    </style>
    <g transform="matrix(0.6,0,0,0.6,136.5329772949219,136.53380699157717)">
        <defs>
            <clipPath id="a" clipPathUnits="userSpaceOnUse">
                <path d="M0 512h512V0H0Z" opacity="1" data-original="#000000"></path>
            </clipPath>
        </defs>
        <g clip-path="url(#a)" transform="matrix(1.33333 0 0 -1.33333 0 682.667)">
            <path
                d="M0 0c-1.383-10.04-1.814-21.148-.99-33.554 6.49-97.682 64.003-228.941 64.003-228.941h106.805s18.459 42.128 35.641 96.412"
                style="stroke-width:15;stroke-linecap:round;stroke-linejoin:round;stroke-miterlimit:10;stroke-dasharray:none;stroke-opacity:1"
                transform="translate(139.584 270.495)" fill="none" stroke="#000000" stroke-width="15"
                stroke-linecap="round" stroke-linejoin="round" stroke-miterlimit="10" stroke-dasharray="none"
                stroke-opacity="" data-original="#000000"></path>
            <path
                d="M0 0c9.604 34.194 17.565 70.867 19.75 103.738 6.49 97.682-64.908 114.892-64.908 163.627 0 48.736 23.566 103.432 23.566 103.432H-173.72s23.566-54.696 23.566-103.432c0-36.356-39.733-55.168-57.224-102.93"
                style="stroke-width:15;stroke-linecap:round;stroke-linejoin:round;stroke-miterlimit:10;stroke-dasharray:none;stroke-opacity:1"
                transform="translate(353.656 133.203)" fill="none" stroke="#000000" stroke-width="15"
                stroke-linecap="round" stroke-linejoin="round" stroke-miterlimit="10" stroke-dasharray="none"
                stroke-opacity="" data-original="#000000"></path>
            <path d="M0 0h25.787"
                style="stroke-width:15;stroke-linecap:round;stroke-linejoin:round;stroke-miterlimit:10;stroke-dasharray:none;stroke-opacity:1"
                transform="translate(294.207 469.59)" fill="none" stroke="#000000" stroke-width="15"
                stroke-linecap="round" stroke-linejoin="round" stroke-miterlimit="10" stroke-dasharray="none"
                stroke-opacity="" data-original="#000000"></path>
            <path d="M0 0h72.202"
                style="stroke-width:15;stroke-linecap:round;stroke-linejoin:round;stroke-miterlimit:10;stroke-dasharray:none;stroke-opacity:1"
                transform="translate(192.005 469.59)" fill="none" stroke="#000000" stroke-width="15"
                stroke-linecap="round" stroke-linejoin="round" stroke-miterlimit="10" stroke-dasharray="none"
                stroke-opacity="" data-original="#000000"></path>
        </g>
    </g>
</svg>