<svg xmlns="http://www.w3.org/2000/svg" version="1.1" xmlns:xlink="http://www.w3.org/1999/xlink" width="512"
    height="512" x="0" y="0" viewBox="0 0 682.667 682.667" style="enable-background:new 0 0 512 512"
    xml:space="preserve" class="">
    <style>
        path { fill: #000; stroke: #fff; } /* Default (light mode) */
        @media (prefers-color-scheme: dark) {
        path { fill: #fff; stroke: #000; } /* Dark mode */
        }
    </style>
    <g transform="matrix(0.6,0,0,0.6,136.53301086425782,136.53379135131837)">
        <defs>
            <clipPath id="a" clipPathUnits="userSpaceOnUse">
                <path d="M0 512h512V0H0Z" fill="#000000" opacity="1" data-original="#000000" class=""></path>
            </clipPath>
        </defs>
        <g clip-path="url(#a)" transform="matrix(1.33333 0 0 -1.33333 0 682.667)">
            <path
                d="M0 0c.74-17.17 4.23-40.36 15.6-65.13 24.23-52.74 67.93-77.02 82.59-84.37h-354.88c14.66 7.35 58.36 31.63 82.59 84.37 11.37 24.77 14.86 47.96 15.6 65.13"
                style="stroke-width:15;stroke-linecap:round;stroke-linejoin:round;stroke-miterlimit:10;stroke-dasharray:none;stroke-opacity:1"
                transform="translate(335.25 474.5)" fill="none" stroke="#FFF" stroke-width="15"
                stroke-linecap="round" stroke-linejoin="round" stroke-miterlimit="10" stroke-dasharray="none"
                stroke-opacity="" data-original="#000000"></path>
            <path d="M0 0h-196a5 5 0 0 0-5 5c0 16.568 13.432 30 30 30h146C-8.432 35 5 21.568 5 5a5 5 0 0 0-5-5Z"
                style="stroke-width:15;stroke-linecap:round;stroke-linejoin:round;stroke-miterlimit:10;stroke-dasharray:none;stroke-opacity:1"
                transform="translate(354 7.5)" fill="none" stroke="#FFF" stroke-width="15" stroke-linecap="round"
                stroke-linejoin="round" stroke-miterlimit="10" stroke-dasharray="none" stroke-opacity=""
                data-original="#000000"></path>
            <path
                d="M0 0h181c8.284 0 15 6.716 15 15 0 8.284-6.716 15-15 15H0c-8.284 0-15-6.716-15-15C-15 6.716-8.284 0 0 0Z"
                style="stroke-width:15;stroke-linecap:round;stroke-linejoin:round;stroke-miterlimit:10;stroke-dasharray:none;stroke-opacity:1"
                transform="translate(165.5 474.5)" fill="none" stroke="#FFF" stroke-width="15" stroke-linecap="round"
                stroke-linejoin="round" stroke-miterlimit="10" stroke-dasharray="none" stroke-opacity=""
                data-original="#000000"></path>
            <path d="M0 0v0h-146a425.109 425.109 0 0 0-104.437 279.082v3.418h354.874v-3.418A425.109 425.109 0 0 0 0 0Z"
                style="stroke-width:15;stroke-linecap:round;stroke-linejoin:round;stroke-miterlimit:10;stroke-dasharray:none;stroke-opacity:1"
                transform="translate(329 42.5)" fill="none" stroke="#FFF" stroke-width="15" stroke-linecap="round"
                stroke-linejoin="round" stroke-miterlimit="10" stroke-dasharray="none" stroke-opacity=""
                data-original="#000000"></path>
            <path d="M0 0h-337.061"
                style="stroke-width:15;stroke-linecap:round;stroke-linejoin:round;stroke-miterlimit:10;stroke-dasharray:none;stroke-opacity:1"
                transform="translate(424.53 235)" fill="none" stroke="#FFF" stroke-width="15" stroke-linecap="round"
                stroke-linejoin="round" stroke-miterlimit="10" stroke-dasharray="none" stroke-opacity=""
                data-original="#000000"></path>
            <path d="M0 0v56a4 4 0 0 0 4 4h43.218a4 4 0 0 0 4-4V32.48a4 4 0 0 0-4-4H30"
                style="stroke-width:15;stroke-linecap:round;stroke-linejoin:round;stroke-miterlimit:10;stroke-dasharray:none;stroke-opacity:1"
                transform="translate(108.564 235)" fill="none" stroke="#FFF" stroke-width="15" stroke-linecap="round"
                stroke-linejoin="round" stroke-miterlimit="10" stroke-dasharray="none" stroke-opacity=""
                data-original="#000000"></path>
            <path d="M0 0v56a4 4 0 0 0 4 4h43.219a4 4 0 0 0 4-4V32.48a4 4 0 0 0-4-4H30"
                style="stroke-width:15;stroke-linecap:round;stroke-linejoin:round;stroke-miterlimit:10;stroke-dasharray:none;stroke-opacity:1"
                transform="translate(189.781 235)" fill="none" stroke="#FFF"  stroke-width="15" stroke-linecap="round"
                stroke-linejoin="round" stroke-miterlimit="10" stroke-dasharray="none" stroke-opacity=""
                data-original="#000000"></path>
            <path d="M0 0v56a4 4 0 0 0 4 4h43.219a4 4 0 0 0 4-4V32.48a4 4 0 0 0-4-4H30"
                style="stroke-width:15;stroke-linecap:round;stroke-linejoin:round;stroke-miterlimit:10;stroke-dasharray:none;stroke-opacity:1"
                transform="translate(271 235)" fill="none" stroke="#FFF"  stroke-width="15" stroke-linecap="round"
                stroke-linejoin="round" stroke-miterlimit="10" stroke-dasharray="none" stroke-opacity=""
                data-original="#000000"></path>
            <path d="M0 0v56a4 4 0 0 0 4 4h43.218a4 4 0 0 0 4-4V32.48a4 4 0 0 0-4-4H30"
                style="stroke-width:15;stroke-linecap:round;stroke-linejoin:round;stroke-miterlimit:10;stroke-dasharray:none;stroke-opacity:1"
                transform="translate(352.219 235)" fill="none" stroke="#FFF"  stroke-width="15" stroke-linecap="round"
                stroke-linejoin="round" stroke-miterlimit="10" stroke-dasharray="none" stroke-opacity=""
                data-original="#000000"></path>
            <path d="M0 0h179.557"
                style="stroke-width:15;stroke-linecap:round;stroke-linejoin:round;stroke-miterlimit:10;stroke-dasharray:none;stroke-opacity:1"
                transform="translate(128.502 121.688)" fill="none" stroke="#FFF"  stroke-width="15"
                stroke-linecap="round" stroke-linejoin="round" stroke-miterlimit="10" stroke-dasharray="none"
                stroke-opacity="" data-original="#000000"></path>
            <path d="M0 0h-287.549"
                style="stroke-width:15;stroke-linecap:round;stroke-linejoin:round;stroke-miterlimit:10;stroke-dasharray:none;stroke-opacity:1"
                transform="translate(399.774 155.812)" fill="none" stroke="#FFF"  stroke-width="15"
                stroke-linecap="round" stroke-linejoin="round" stroke-miterlimit="10" stroke-dasharray="none"
                stroke-opacity="" data-original="#000000"></path>
            <path d="M0 0h40.439"
                style="stroke-width:15;stroke-linecap:round;stroke-linejoin:round;stroke-miterlimit:10;stroke-dasharray:none;stroke-opacity:1"
                transform="translate(343.059 121.688)" fill="none" stroke="#FFF"  stroke-width="15"
                stroke-linecap="round" stroke-linejoin="round" stroke-miterlimit="10" stroke-dasharray="none"
                stroke-opacity="" data-original="#000000"></path>
            <path d="M0 0h97.35"
                style="stroke-width:15;stroke-linecap:round;stroke-linejoin:round;stroke-miterlimit:10;stroke-dasharray:none;stroke-opacity:1"
                transform="translate(243.452 437.498)" fill="none" stroke="#FFF"  stroke-width="15"
                stroke-linecap="round" stroke-linejoin="round" stroke-miterlimit="10" stroke-dasharray="none"
                stroke-opacity="" data-original="#000000"></path>
            <path d="M0 0h37.257"
                style="stroke-width:15;stroke-linecap:round;stroke-linejoin:round;stroke-miterlimit:10;stroke-dasharray:none;stroke-opacity:1"
                transform="translate(171.195 437.498)" fill="none" stroke="#FFF"  stroke-width="15"
                stroke-linecap="round" stroke-linejoin="round" stroke-miterlimit="10" stroke-dasharray="none"
                stroke-opacity="" data-original="#000000"></path>
        </g>
    </g>
</svg>