<?xml version="1.0" encoding="UTF-8"?>
<!DOCTYPE svg PUBLIC "-//W3C//DTD SVG 1.1//EN" "http://www.w3.org/Graphics/SVG/1.1/DTD/svg11.dtd">
<!-- Creator: CorelDRAW -->
<svg xmlns="http://www.w3.org/2000/svg" xml:space="preserve" width="76px" height="76px" version="1.1" style="shape-rendering:geometricPrecision; text-rendering:geometricPrecision; image-rendering:optimizeQuality; fill-rule:evenodd; clip-rule:evenodd"
viewBox="0 0 4.33 4.32"
 xmlns:xlink="http://www.w3.org/1999/xlink"
 xmlns:xodm="http://www.corel.com/coreldraw/odm/2003">
 <defs>
  <style type="text/css">
   <![CDATA[
    .fil0 {fill:none}
    .fil1 {fill:#373435}
   ]]>
  </style>
 </defs>
 <g id="Layer_x0020_1">
  <metadata id="CorelCorpID_0Corel-Layer"/>
  <rect class="fil0" width="4.33" height="4.32" rx="0.61" ry="0.61"/>
  <path class="fil1" d="M1.79 0.89c-0.01,0 -0.02,0.01 -0.03,0.03 0,0.07 0.13,0.1 0.12,0.36 0,0.09 -0.06,0.21 -0.15,0.25 -0.04,0.02 -0.09,0.06 -0.13,0.08 -0.09,0.08 -0.15,0.17 -0.19,0.29 -0.04,0.13 -0.02,0.28 0.01,0.42 0.03,0.14 0.13,0.41 0.2,0.54l0.08 0.19c0.01,0.01 0.02,0.03 0.03,0.04 0.04,0.09 0.07,0.14 0.09,0.25 0,0.03 0.01,0.07 0.05,0.08 0.03,0.02 0.35,0.01 0.4,0.01 0.09,0 0.19,0.03 0.23,-0.04 0.02,-0.03 0.02,-0.11 0.06,-0.2l0.09 -0.18c0.14,-0.32 0.33,-0.7 0.28,-1.05 -0.01,-0.08 -0.04,-0.15 -0.08,-0.21 -0.04,-0.07 -0.12,-0.15 -0.2,-0.2 -0.02,-0.01 -0.08,-0.03 -0.1,-0.05 0,0 0,0 0,-0.01 0,0 0,0 0,0 -0.13,-0.12 -0.12,-0.34 -0.03,-0.48 0.03,-0.05 0.05,-0.06 0.04,-0.09 0,-0.04 -0.05,-0.04 -0.1,-0.04l-0.4 0c-0.03,0 -0.26,0 -0.27,0.01zm0.73 0.04l-0.71 0c0.01,0.02 0.04,0.03 0.08,0.14 0.05,0.14 0.04,0.31 -0.04,0.42 -0.02,0.02 -0.02,0.02 -0.03,0.03 -0.05,0.05 -0.14,0.08 -0.22,0.15 -0.03,0.03 -0.07,0.08 -0.1,0.13 -0.13,0.26 -0.04,0.52 0.04,0.78 0.03,0.06 0.11,0.26 0.15,0.33l0.07 0.16c0.05,0.09 0.08,0.16 0.1,0.26 0,0.04 0.01,0.06 0.06,0.06 0.08,0 0.16,0 0.24,0 0.08,0 0.15,0 0.23,0 0.1,0 0.07,-0.03 0.1,-0.13 0.02,-0.07 0.11,-0.24 0.14,-0.32 0.05,-0.11 0.11,-0.22 0.15,-0.33 0.02,-0.06 0.04,-0.12 0.06,-0.18 0.01,-0.03 0.01,-0.07 0.02,-0.1 0.04,-0.17 0.05,-0.35 -0.02,-0.51 -0.03,-0.07 -0.09,-0.14 -0.15,-0.19 -0.06,-0.04 -0.11,-0.06 -0.15,-0.09l-0.04 -0.03c-0.1,-0.12 -0.12,-0.28 -0.07,-0.42 0.04,-0.1 0.08,-0.13 0.09,-0.16z"/>
 </g>
</svg>
