<svg xmlns="http://www.w3.org/2000/svg" version="1.1" xmlns:xlink="http://www.w3.org/1999/xlink" width="512"
    height="512" x="0" y="0" viewBox="0 0 64 64" style="enable-background:new 0 0 512 512" xml:space="preserve">
    <style>
        path { fill: #000; } /* Default (light mode) */
        @media (prefers-color-scheme: dark) {
        path { fill: #fff; } /* Dark mode */
        }
    </style>
    <g transform="matrix(0.6,0,0,0.6,12.79993553161621,12.799998092651368)">
        <path
            d="M59.845 32.04a4.733 4.733 0 0 0-1.44-2.34c-1.979-1.649-4.208-3.608-5.298-4.698h3.16a2.72 2.72 0 0 0 0-5.439c-1.498.083-4.293-.338-5.55.62-.889-2.24-1.959-4.979-2.778-7.098a4.99 4.99 0 0 0-4.62-3.08H20.667a5.001 5.001 0 0 0-4.63 3.1c-.809 2.11-1.879 4.839-2.768 7.078-1.258-.966-4.081-.529-5.55-.62a2.72 2.72 0 0 0 .001 5.439h3.16c-1.1 1.1-3.33 3.059-5.36 4.749A4.599 4.599 0 0 0 4 33.21v9.787a4.94 4.94 0 0 0 1 3v4.998a3.008 3.008 0 0 0 2.999 3h5.998a3.008 3.008 0 0 0 3-3v-3h29.992v3a3.002 3.002 0 0 0 2.999 3h5.998a3.002 3.002 0 0 0 3-3v-4.999a4.94 4.94 0 0 0 1-2.999c-.049-.64.131-10.693-.14-10.957Zm-7.008-10.477h3.43a.72.72 0 0 1 0 1.44h-4.39c-.12-.27-.24-.58-.37-.91a1.992 1.992 0 0 1 1.33-.53Zm-34.94-7.708a2.97 2.97 0 0 1 2.769-1.85H43.32a2.965 2.965 0 0 1 2.76 1.82c.269.71 3.858 9.717 4.058 10.177h-36.29c1.24-2.87 3.728-9.307 4.048-10.147ZM7.718 23.002a.72.72 0 0 1 0-1.44h3.43a1.992 1.992 0 0 1 1.329.53c-.13.33-.25.64-.37.91Zm7.278 27.993a1.003 1.003 0 0 1-1 1H8a1.003 1.003 0 0 1-1-1v-3.41a5.105 5.105 0 0 0 2 .41h5.998Zm5.261-4.999.735-2h22.213l.684 2Zm36.728 4.999a1.001 1.001 0 0 1-1 1h-5.998a1.001 1.001 0 0 1-1-1v-3c1.555-.103 6.702.318 7.998-.409Zm-2-4.999h-8.982l-1.138-3.323a1 1 0 0 0-.946-.676H20.296a1 1 0 0 0-.939.655l-1.228 3.344c-1.495.004-7.54-.002-9.13 0a2.999 2.999 0 0 1-3-2.999V33.21a2.724 2.724 0 0 1 .86-1.97c1.12-.94 4.4-3.699 5.819-5.238h38.63c1.42 1.54 4.698 4.288 5.768 5.188a2.741 2.741 0 0 1 .91 2.02v9.787a3.008 3.008 0 0 1-3 3Z"
            opacity="1"></path>
        <path
            d="M17.758 32.445a1 1 0 0 0-.831-.445H8.999a1 1 0 0 0-1 1 5.005 5.005 0 0 0 4.999 4.998h6.598a1.007 1.007 0 0 0 .831-1.554Zm-4.76 3.554a3.004 3.004 0 0 1-2.828-2h6.222l1.335 2ZM42.26 32H21.725a1.007 1.007 0 0 0-.83 1.555l2.668 3.999a1 1 0 0 0 .832.444H39.59a1 1 0 0 0 .831-.444l2.67-4A1.007 1.007 0 0 0 42.26 32Zm-3.204 3.999H24.93l-1.334-2H40.39ZM54.987 32h-7.928a1 1 0 0 0-.832.445l-2.669 3.999a1.007 1.007 0 0 0 .831 1.554h6.599A5.005 5.005 0 0 0 55.986 33a1 1 0 0 0-1-1Zm-4 3.999H46.26l1.334-2h6.223a3.004 3.004 0 0 1-2.828 2Z"
            opacity="1"></path>
    </g>
</svg>