<?xml version="1.0" encoding="UTF-8"?>
<!DOCTYPE svg PUBLIC "-//W3C//DTD SVG 1.1//EN" "http://www.w3.org/Graphics/SVG/1.1/DTD/svg11.dtd">
<!-- Creator: CorelDRAW -->
<svg xmlns="http://www.w3.org/2000/svg" xml:space="preserve" width="76px" height="76px" version="1.1" style="shape-rendering:geometricPrecision; text-rendering:geometricPrecision; image-rendering:optimizeQuality; fill-rule:evenodd; clip-rule:evenodd"
viewBox="0 0 6.54 6.53"
 xmlns:xlink="http://www.w3.org/1999/xlink"
 xmlns:xodm="http://www.corel.com/coreldraw/odm/2003">
 <defs>
  <style type="text/css">
   <![CDATA[
    .str0 {stroke:black;stroke-width:0.03;stroke-linecap:round;stroke-linejoin:round;stroke-miterlimit:22.9256}
    .fil0 {fill:none}
    .fil1 {fill:#000000}
     @media (prefers-color-scheme: dark) {
        .fil1 { fill: #ffffff; }
    }
   ]]>
  </style>
 </defs>
 <g id="Layer_x0020_1">
  <metadata id="CorelCorpID_0Corel-Layer"/>
  <rect class="fil0" width="6.54" height="6.53" rx="0.92" ry="0.92"/>
  <g>
   <path class="fil0 str0" d="M1.91 2.7c-0.02,-0.13 -0.01,-0.17 -0.19,-0.17 -0.06,0 -0.15,-0.01 -0.19,0.01 -0.07,0.05 -0.07,0.22 0,0.27 0.05,0.03 0.2,0.02 0.27,0.02 -0.02,0 -0.09,0.06 -0.11,0.07l-0.04 0.06c-0.01,0.01 -0.03,0.04 -0.04,0.05 -0.07,0.13 -0.06,0.2 -0.06,0.37 0,0.09 -0.01,0.55 0.01,0.61 0.01,0.04 0.02,0.07 0.04,0.09l0.06 0.07 0 0.32c0,0.1 0.07,0.16 0.13,0.19 0.05,0.03 0.24,0.03 0.3,0.02 0.04,-0.01 0.09,-0.03 0.11,-0.05 0.01,-0.01 0.04,-0.04 0.04,-0.04 0.06,-0.09 0.04,-0.24 0.04,-0.37l1.96 0c0.02,0.12 -0.02,0.27 0.04,0.36 0.04,0.05 0.05,0.06 0.11,0.09 0.06,0.02 0.14,0.01 0.2,0.01 0.09,0 0.1,0 0.17,-0.03 0.03,-0.02 0.04,-0.02 0.06,-0.05 0.01,-0.02 0.01,-0.01 0.02,-0.03 0.01,-0.01 0.01,-0.03 0.02,-0.04 0.03,-0.07 0.01,-0.37 0.01,-0.38 0.01,-0.01 0.01,-0.01 0.03,-0.02 0.09,-0.07 0.08,-0.2 0.08,-0.29 0,-0.14 0,-0.28 0,-0.42 0,-0.18 0.01,-0.31 -0.08,-0.44 -0.03,-0.04 -0.13,-0.14 -0.17,-0.15 0.17,0 0.36,0.05 0.33,-0.2 0,-0.03 -0.02,-0.06 -0.04,-0.08 -0.04,-0.04 -0.16,-0.02 -0.23,-0.02 -0.06,0 -0.1,-0.01 -0.13,0.03 -0.03,0.02 -0.05,0.08 -0.04,0.13 -0.04,-0.11 -0.08,-0.22 -0.14,-0.34 0,-0.02 -0.01,-0.03 -0.01,-0.04 -0.04,-0.1 -0.08,-0.22 -0.16,-0.29 -0.02,-0.02 -0.05,-0.07 -0.12,-0.1 -0.03,-0.02 -0.06,-0.04 -0.11,-0.06 -0.09,-0.03 -0.38,-0.01 -0.5,-0.01l-0.97 0c-0.12,0 -0.27,0.05 -0.35,0.13l-0.05 0.05c-0.01,0.01 -0.02,0.01 -0.02,0.03l-0.09 0.16 -0.19 0.48zm0.03 0.14c-0.02,0.01 -0.02,0 -0.06,0.02 -0.11,0.05 -0.2,0.14 -0.24,0.25 -0.04,0.1 -0.03,0.14 -0.03,0.26 0,0.09 0,0.53 0,0.58 0.01,0.06 0.05,0.14 0.12,0.17 0.12,0.05 0.12,0.03 0.25,0.03 0.1,0 0.2,0 0.3,0 0.77,0 1.55,0 2.32,0 0.04,0 0.09,0.01 0.13,-0.01 0.04,-0.01 0.08,-0.02 0.1,-0.04 0.03,-0.03 0.05,-0.04 0.07,-0.08 0.02,-0.04 0.02,-0.06 0.02,-0.12 0,-0.08 0,-0.67 -0.01,-0.72 0,-0.02 0,-0.03 -0.01,-0.05 -0.01,-0.02 -0.01,-0.04 -0.02,-0.06l-0.06 -0.08c-0.01,-0.03 -0.05,-0.06 -0.07,-0.08 -0.06,-0.04 -0.13,-0.08 -0.2,-0.08 -0.1,0 -0.2,0 -0.3,0l-2.24 0c-0.06,0 -0.03,0 -0.07,0.01zm0 -0.08l2.65 0.01c-0.01,-0.01 -0.03,-0.07 -0.04,-0.09 -0.04,-0.12 -0.19,-0.48 -0.25,-0.57 -0.05,-0.08 -0.13,-0.14 -0.22,-0.18 -0.07,-0.02 -0.18,-0.02 -0.26,-0.02l-1.1 0c-0.17,0 -0.3,0 -0.42,0.12 -0.05,0.05 -0.09,0.1 -0.12,0.16l-0.16 0.39c-0.01,0.03 -0.07,0.18 -0.08,0.18zm-0.04 0.85l0.57 0c0.05,0 0.09,-0.02 0.09,-0.08 0.02,-0.14 -0.03,-0.31 -0.22,-0.31 -0.11,0 -0.42,-0.01 -0.48,0.01 0,0 0,0 0,0 -0.01,0 -0.01,0 -0.01,0 0,0 0,0 0,0 -0.07,0.03 -0.08,0.1 -0.08,0.17 0,0.08 -0.02,0.21 0.13,0.21zm2.18 0l0.56 0c0.13,0 0.11,-0.16 0.11,-0.24 0,-0.16 -0.11,-0.15 -0.21,-0.15 -0.07,0 -0.37,-0.01 -0.43,0.02 -0.16,0.09 -0.16,0.29 -0.1,0.35 0.01,0.01 0.05,0.02 0.07,0.02zm-1.86 0.61c-0.06,0 -0.35,0 -0.39,-0.01 -0.03,0 -0.06,-0.01 -0.09,-0.02 0,0 0,0 -0.01,-0.01l0 0c-0.01,0.04 -0.01,0.29 0,0.33 0.01,0.03 0.04,0.06 0.07,0.08 0.05,0.03 0.09,0.03 0.15,0.03 0.05,0 0.13,0 0.16,-0.01 0.03,-0.01 0.05,-0.03 0.07,-0.04 0.07,-0.08 0.06,-0.23 0.04,-0.35zm2.09 0c-0.01,0.06 -0.01,0.26 0.01,0.31 0.02,0.02 0.06,0.07 0.09,0.08 0.03,0.01 0.26,0.02 0.3,-0.01 0.05,-0.03 0.05,-0.03 0.08,-0.07 0,0 0,-0.01 0.01,-0.01 0.02,-0.04 0.01,-0.28 0.01,-0.34 -0.08,0.05 -0.14,0.04 -0.24,0.04 -0.09,0 -0.17,0 -0.26,0zm-1.81 -0.68c0.01,-0.06 0,-0.16 -0.04,-0.19 -0.04,-0.06 -0.08,-0.07 -0.17,-0.06l-0.35 -0.01c-0.04,0.01 -0.08,0 -0.09,0.03 -0.02,0.03 -0.03,0.18 -0.01,0.21 0.03,0.05 0.14,0.03 0.2,0.03 0.08,0 0.16,0 0.24,0 0.06,0 0.18,0.01 0.22,-0.01zm1.54 0c0.04,0.02 0.38,0.01 0.45,0.01 0.03,0 0.07,0 0.11,0 0.04,0 0.06,0.01 0.08,-0.03 0.01,-0.03 0.02,-0.18 0,-0.21 -0.03,-0.04 -0.13,-0.02 -0.21,-0.02 -0.07,0 -0.15,0 -0.23,0 -0.09,-0.01 -0.12,0.01 -0.16,0.06 -0.05,0.04 -0.04,0.12 -0.04,0.19zm-0.96 -0.15l0.66 0c0.06,0 0.05,-0.04 0.03,-0.05 -0.03,-0.02 -0.85,-0.01 -0.95,-0.01 -0.03,0 -0.09,0 -0.06,0.05 0.02,0.02 0.07,0.01 0.1,0.01 0.07,0 0.15,0 0.22,0zm1.6 -0.7c0,0.09 -0.04,0.08 0.17,0.08 0.13,0 0.14,0.02 0.14,-0.11 0,-0.09 -0.05,-0.07 -0.17,-0.07 -0.18,0 -0.11,0.03 -0.14,0.1zm-2.95 0.08l0.11 0c0.01,-0.05 0.01,-0.1 0,-0.14 -0.02,-0.06 -0.12,-0.04 -0.19,-0.04 -0.1,0 -0.11,0.02 -0.1,0.13 0,0.07 0.11,0.05 0.18,0.05zm1.11 0.82c0.01,0.02 0,0.01 0.02,0.01 0.13,0 0.76,0.02 0.82,0l0 -0.04 -0.75 0c-0.1,0 -0.08,-0.01 -0.09,0.03zm0 0c0.01,-0.04 -0.01,-0.03 0.09,-0.03l0.75 0 0 0.04c-0.06,0.02 -0.69,0 -0.82,0 0.03,0.02 0.37,0.01 0.44,0.01l0.34 0c0.05,0 0.05,-0.01 0.04,-0.06l-0.83 0 -0.01 0.04z"/>
   <path id="_1" class="fil1" d="M1.91 2.7c-0.02,-0.13 -0.01,-0.17 -0.19,-0.17 -0.06,0 -0.15,-0.01 -0.19,0.01 -0.07,0.05 -0.07,0.22 0,0.27 0.05,0.03 0.2,0.02 0.27,0.02 -0.02,0 -0.09,0.06 -0.11,0.07l-0.04 0.06c-0.01,0.01 -0.03,0.04 -0.04,0.05 -0.07,0.13 -0.06,0.2 -0.06,0.37 0,0.09 -0.01,0.55 0.01,0.61 0.01,0.04 0.02,0.07 0.04,0.09l0.06 0.07 0 0.32c0,0.1 0.07,0.16 0.13,0.19 0.05,0.03 0.24,0.03 0.3,0.02 0.04,-0.01 0.09,-0.03 0.11,-0.05 0.01,-0.01 0.04,-0.04 0.04,-0.04 0.06,-0.09 0.04,-0.24 0.04,-0.37l1.96 0c0.02,0.12 -0.02,0.27 0.04,0.36 0.04,0.05 0.05,0.06 0.11,0.09 0.06,0.02 0.14,0.01 0.2,0.01 0.09,0 0.1,0 0.17,-0.03 0.03,-0.02 0.04,-0.02 0.06,-0.05 0.01,-0.02 0.01,-0.01 0.02,-0.03 0.01,-0.01 0.01,-0.03 0.02,-0.04 0.03,-0.07 0.01,-0.37 0.01,-0.38 0.01,-0.01 0.01,-0.01 0.03,-0.02 0.09,-0.07 0.08,-0.2 0.08,-0.29 0,-0.14 0,-0.28 0,-0.42 0,-0.18 0.01,-0.31 -0.08,-0.44 -0.03,-0.04 -0.13,-0.14 -0.17,-0.15 0.17,0 0.36,0.05 0.33,-0.2 0,-0.03 -0.02,-0.06 -0.04,-0.08 -0.04,-0.04 -0.16,-0.02 -0.23,-0.02 -0.06,0 -0.1,-0.01 -0.13,0.03 -0.03,0.02 -0.05,0.08 -0.04,0.13 -0.04,-0.11 -0.08,-0.22 -0.14,-0.34 0,-0.02 -0.01,-0.03 -0.01,-0.04 -0.04,-0.1 -0.08,-0.22 -0.16,-0.29 -0.02,-0.02 -0.05,-0.07 -0.12,-0.1 -0.03,-0.02 -0.06,-0.04 -0.11,-0.06 -0.09,-0.03 -0.38,-0.01 -0.5,-0.01l-0.97 0c-0.12,0 -0.27,0.05 -0.35,0.13l-0.05 0.05c-0.01,0.01 -0.02,0.01 -0.02,0.03l-0.09 0.16 -0.19 0.48zm0.03 0.14c-0.02,0.01 -0.02,0 -0.06,0.02 -0.11,0.05 -0.2,0.14 -0.24,0.25 -0.04,0.1 -0.03,0.14 -0.03,0.26 0,0.09 0,0.53 0,0.58 0.01,0.06 0.05,0.14 0.12,0.17 0.12,0.05 0.12,0.03 0.25,0.03 0.1,0 0.2,0 0.3,0 0.77,0 1.55,0 2.32,0 0.04,0 0.09,0.01 0.13,-0.01 0.04,-0.01 0.08,-0.02 0.1,-0.04 0.03,-0.03 0.05,-0.04 0.07,-0.08 0.02,-0.04 0.02,-0.06 0.02,-0.12 0,-0.08 0,-0.67 -0.01,-0.72 0,-0.02 0,-0.03 -0.01,-0.05 -0.01,-0.02 -0.01,-0.04 -0.02,-0.06l-0.06 -0.08c-0.01,-0.03 -0.05,-0.06 -0.07,-0.08 -0.06,-0.04 -0.13,-0.08 -0.2,-0.08 -0.1,0 -0.2,0 -0.3,0l-2.24 0c-0.06,0 -0.03,0 -0.07,0.01zm0 -0.08l2.65 0.01c-0.01,-0.01 -0.03,-0.07 -0.04,-0.09 -0.04,-0.12 -0.19,-0.48 -0.25,-0.57 -0.05,-0.08 -0.13,-0.14 -0.22,-0.18 -0.07,-0.02 -0.18,-0.02 -0.26,-0.02l-1.1 0c-0.17,0 -0.3,0 -0.42,0.12 -0.05,0.05 -0.09,0.1 -0.12,0.16l-0.16 0.39c-0.01,0.03 -0.07,0.18 -0.08,0.18zm-0.04 0.85l0.57 0c0.05,0 0.09,-0.02 0.09,-0.08 0.02,-0.14 -0.03,-0.31 -0.22,-0.31 -0.11,0 -0.42,-0.01 -0.48,0.01 0,0 0,0 0,0 -0.01,0 -0.01,0 -0.01,0 0,0 0,0 0,0 -0.07,0.03 -0.08,0.1 -0.08,0.17 0,0.08 -0.02,0.21 0.13,0.21zm2.18 0l0.56 0c0.13,0 0.11,-0.16 0.11,-0.24 0,-0.16 -0.11,-0.15 -0.21,-0.15 -0.07,0 -0.37,-0.01 -0.43,0.02 -0.16,0.09 -0.16,0.29 -0.1,0.35 0.01,0.01 0.05,0.02 0.07,0.02zm-1.86 0.61c-0.06,0 -0.35,0 -0.39,-0.01 -0.03,0 -0.06,-0.01 -0.09,-0.02 0,0 0,0 -0.01,-0.01l0 0c-0.01,0.04 -0.01,0.29 0,0.33 0.01,0.03 0.04,0.06 0.07,0.08 0.05,0.03 0.09,0.03 0.15,0.03 0.05,0 0.13,0 0.16,-0.01 0.03,-0.01 0.05,-0.03 0.07,-0.04 0.07,-0.08 0.06,-0.23 0.04,-0.35zm2.09 0c-0.01,0.06 -0.01,0.26 0.01,0.31 0.02,0.02 0.06,0.07 0.09,0.08 0.03,0.01 0.26,0.02 0.3,-0.01 0.05,-0.03 0.05,-0.03 0.08,-0.07 0,0 0,-0.01 0.01,-0.01 0.02,-0.04 0.01,-0.28 0.01,-0.34 -0.08,0.05 -0.14,0.04 -0.24,0.04 -0.09,0 -0.17,0 -0.26,0zm-1.81 -0.68c0.01,-0.06 0,-0.16 -0.04,-0.19 -0.04,-0.06 -0.08,-0.07 -0.17,-0.06l-0.35 -0.01c-0.04,0.01 -0.08,0 -0.09,0.03 -0.02,0.03 -0.03,0.18 -0.01,0.21 0.03,0.05 0.14,0.03 0.2,0.03 0.08,0 0.16,0 0.24,0 0.06,0 0.18,0.01 0.22,-0.01zm1.54 0c0.04,0.02 0.38,0.01 0.45,0.01 0.03,0 0.07,0 0.11,0 0.04,0 0.06,0.01 0.08,-0.03 0.01,-0.03 0.02,-0.18 0,-0.21 -0.03,-0.04 -0.13,-0.02 -0.21,-0.02 -0.07,0 -0.15,0 -0.23,0 -0.09,-0.01 -0.12,0.01 -0.16,0.06 -0.05,0.04 -0.04,0.12 -0.04,0.19zm-0.96 -0.15l0.66 0c0.06,0 0.05,-0.04 0.03,-0.05 -0.03,-0.02 -0.85,-0.01 -0.95,-0.01 -0.03,0 -0.09,0 -0.06,0.05 0.02,0.02 0.07,0.01 0.1,0.01 0.07,0 0.15,0 0.22,0zm1.6 -0.7c0,0.09 -0.04,0.08 0.17,0.08 0.13,0 0.14,0.02 0.14,-0.11 0,-0.09 -0.05,-0.07 -0.17,-0.07 -0.18,0 -0.11,0.03 -0.14,0.1zm-2.95 0.08l0.11 0c0.01,-0.05 0.01,-0.1 0,-0.14 -0.02,-0.06 -0.12,-0.04 -0.19,-0.04 -0.1,0 -0.11,0.02 -0.1,0.13 0,0.07 0.11,0.05 0.18,0.05zm1.11 0.82c0.01,0.02 0,0.01 0.02,0.01 0.13,0 0.76,0.02 0.82,0l0 -0.04 -0.75 0c-0.1,0 -0.08,-0.01 -0.09,0.03zm0 0c0.01,-0.04 -0.01,-0.03 0.09,-0.03l0.75 0 0 0.04c-0.06,0.02 -0.69,0 -0.82,0 0.03,0.02 0.37,0.01 0.44,0.01l0.34 0c0.05,0 0.05,-0.01 0.04,-0.06l-0.83 0 -0.01 0.04z"/>
  </g>
 </g>
</svg>
