<?xml version="1.0" encoding="UTF-8"?>
<!DOCTYPE svg PUBLIC "-//W3C//DTD SVG 1.1//EN" "http://www.w3.org/Graphics/SVG/1.1/DTD/svg11.dtd">
<!-- Creator: CorelDRAW -->
<svg xmlns="http://www.w3.org/2000/svg" xml:space="preserve" width="76px" height="76px" version="1.1" style="shape-rendering:geometricPrecision; text-rendering:geometricPrecision; image-rendering:optimizeQuality; fill-rule:evenodd; clip-rule:evenodd"
viewBox="0 0 3.32 3.31"
 xmlns:xlink="http://www.w3.org/1999/xlink"
 xmlns:xodm="http://www.corel.com/coreldraw/odm/2003">
 <defs>
  <style type="text/css">
   <![CDATA[
    .fil0 {fill:none}
    .fil1 {fill:#373435}
   ]]>
  </style>
 </defs>
 <g id="Layer_x0020_1">
  <metadata id="CorelCorpID_0Corel-Layer"/>
  <rect class="fil0" width="3.32" height="3.31" rx="0.46" ry="0.46"/>
  <path class="fil1" d="M0.97 1.37c-0.01,-0.07 -0.01,-0.09 -0.1,-0.09 -0.03,0 -0.08,0 -0.1,0.01 -0.03,0.02 -0.03,0.11 0.01,0.13 0.02,0.02 0.1,0.02 0.13,0.02 -0.01,0 -0.04,0.02 -0.05,0.03l-0.02 0.03c-0.01,0.01 -0.02,0.02 -0.02,0.03 -0.04,0.06 -0.03,0.1 -0.03,0.18 0,0.05 -0.01,0.28 0,0.31 0.01,0.02 0.01,0.04 0.02,0.05l0.03 0.03 0 0.17c0,0.05 0.03,0.08 0.07,0.09 0.03,0.02 0.12,0.02 0.15,0.01 0.02,0 0.04,-0.01 0.06,-0.02 0,-0.01 0.01,-0.02 0.02,-0.03 0.03,-0.04 0.02,-0.11 0.02,-0.18l0.99 0c0.01,0.06 -0.01,0.14 0.02,0.18 0.02,0.03 0.02,0.03 0.06,0.05 0.03,0.01 0.06,0 0.1,0 0.04,0 0.05,0 0.08,-0.01 0.02,-0.01 0.02,-0.02 0.03,-0.03 0.01,-0.01 0.01,0 0.01,-0.01 0.01,-0.01 0.01,-0.02 0.01,-0.02 0.02,-0.04 0.01,-0.19 0.01,-0.2 0,0 0.01,0 0.01,-0.01 0.05,-0.03 0.04,-0.1 0.04,-0.14 0.01,-0.08 0,-0.15 0,-0.22 0,-0.09 0.01,-0.15 -0.04,-0.22 -0.01,-0.02 -0.06,-0.07 -0.08,-0.07 0.08,0 0.18,0.02 0.17,-0.1 -0.01,-0.02 -0.02,-0.04 -0.02,-0.05 -0.03,-0.02 -0.08,-0.01 -0.12,-0.01 -0.03,0 -0.05,0 -0.07,0.02 -0.01,0.01 -0.02,0.04 -0.02,0.06 -0.02,-0.05 -0.04,-0.11 -0.07,-0.17 0,-0.01 0,-0.01 -0.01,-0.02 -0.02,-0.05 -0.04,-0.11 -0.07,-0.15 -0.01,-0.01 -0.03,-0.03 -0.06,-0.05 -0.02,-0.01 -0.04,-0.02 -0.06,-0.03 -0.05,-0.01 -0.19,0 -0.26,0l-0.49 0c-0.06,0 -0.14,0.03 -0.18,0.06l-0.02 0.03c-0.01,0.01 -0.01,0.01 -0.01,0.01l-0.04 0.08 -0.1 0.25zm0.01 0.07c-0.01,0 -0.01,0 -0.02,0.01 -0.06,0.02 -0.11,0.07 -0.13,0.13 -0.02,0.04 -0.01,0.07 -0.01,0.13 0,0.04 -0.01,0.27 0,0.29 0,0.03 0.02,0.07 0.06,0.09 0.06,0.02 0.06,0.01 0.13,0.01 0.05,0 0.1,0 0.15,0 0.39,0 0.78,0 1.17,0 0.02,0 0.05,0.01 0.07,0 0.02,-0.01 0.04,-0.01 0.05,-0.02 0.02,-0.02 0.02,-0.02 0.03,-0.04 0.01,-0.02 0.01,-0.03 0.01,-0.06 0,-0.04 0.01,-0.34 0,-0.37 0,-0.01 0,-0.01 -0.01,-0.02 0,-0.01 0,-0.02 -0.01,-0.03l-0.02 -0.05c-0.01,-0.01 -0.03,-0.02 -0.04,-0.03 -0.03,-0.02 -0.07,-0.04 -0.11,-0.04 -0.05,0 -0.1,0 -0.15,0l-1.13 0c-0.03,0 -0.02,-0.01 -0.04,0zm0 -0.04l1.35 0c-0.01,0 -0.02,-0.03 -0.02,-0.04 -0.03,-0.06 -0.1,-0.24 -0.13,-0.29 -0.02,-0.04 -0.07,-0.07 -0.11,-0.09 -0.04,-0.01 -0.09,-0.01 -0.13,-0.01l-0.56 0c-0.09,0 -0.15,0 -0.22,0.06 -0.02,0.02 -0.04,0.05 -0.05,0.08l-0.08 0.2c-0.01,0.01 -0.04,0.09 -0.05,0.09zm-0.02 0.43l0.29 0c0.03,0 0.05,-0.01 0.05,-0.04 0.01,-0.07 -0.02,-0.16 -0.11,-0.16 -0.06,0 -0.22,0 -0.25,0.01 0,0 0,0 0,0 0,0 0,0 0,0 0,0 0,0 0,0 -0.04,0.01 -0.04,0.05 -0.04,0.08 0,0.04 -0.01,0.11 0.06,0.11zm1.11 0l0.28 0c0.07,0 0.06,-0.08 0.06,-0.12 0,-0.08 -0.06,-0.08 -0.11,-0.08 -0.04,0 -0.19,0 -0.22,0.01 -0.08,0.05 -0.08,0.15 -0.05,0.18 0.01,0.01 0.03,0.01 0.04,0.01zm-0.94 0.31c-0.03,0 -0.18,0 -0.2,0 -0.02,-0.01 -0.03,-0.01 -0.05,-0.02 0,0 0,0 0,0l0 0c-0.01,0.02 -0.01,0.15 0,0.16 0,0.02 0.02,0.04 0.03,0.05 0.03,0.01 0.05,0.01 0.08,0.01 0.02,0 0.06,0 0.08,0 0.01,-0.01 0.02,-0.02 0.03,-0.02 0.04,-0.04 0.03,-0.12 0.03,-0.18zm1.05 0c0,0.03 0,0.13 0.01,0.15 0.01,0.02 0.03,0.04 0.05,0.05 0.01,0 0.13,0.01 0.15,-0.01 0.02,-0.01 0.03,-0.02 0.04,-0.03 0,-0.01 0,-0.01 0,-0.01 0.01,-0.02 0.01,-0.14 0.01,-0.17 -0.04,0.02 -0.07,0.02 -0.12,0.02 -0.05,0 -0.09,0 -0.14,0zm-0.91 -0.35c0,-0.03 0,-0.08 -0.02,-0.09 -0.02,-0.03 -0.04,-0.03 -0.09,-0.03l-0.18 0c-0.02,0 -0.04,-0.01 -0.04,0.01 -0.01,0.01 -0.02,0.09 -0.01,0.11 0.02,0.02 0.07,0.01 0.11,0.01 0.04,0 0.08,0 0.12,0 0.03,0 0.09,0.01 0.11,-0.01zm0.78 0c0.02,0.01 0.19,0.01 0.22,0.01 0.02,0 0.04,0 0.06,0 0.02,0 0.03,0 0.04,-0.01 0.01,-0.02 0.01,-0.1 0,-0.11 -0.01,-0.02 -0.06,-0.01 -0.1,-0.01 -0.04,0 -0.08,0 -0.12,0 -0.04,0 -0.06,0 -0.08,0.03 -0.03,0.02 -0.02,0.06 -0.02,0.09zm-0.49 -0.07l0.34 0c0.03,0 0.02,-0.02 0.01,-0.03 -0.01,-0.01 -0.43,0 -0.48,0 -0.02,0 -0.05,0 -0.03,0.02 0.01,0.01 0.04,0.01 0.05,0.01 0.04,0 0.07,0 0.11,0zm0.81 -0.35c0,0.04 -0.02,0.03 0.09,0.03 0.06,0 0.07,0.01 0.07,-0.05 0,-0.05 -0.02,-0.04 -0.09,-0.04 -0.09,0 -0.05,0.02 -0.07,0.06zm-1.49 0.03l0.05 0c0.01,-0.02 0.01,-0.05 0,-0.07 -0.01,-0.03 -0.06,-0.02 -0.09,-0.02 -0.06,0 -0.06,0.01 -0.06,0.07 0.01,0.03 0.06,0.02 0.1,0.02zm0.56 0.42c0,0.01 0,0.01 0.01,0.01 0.07,-0.01 0.38,0.01 0.42,-0.01l0 -0.02 -0.39 0c-0.05,0 -0.04,0 -0.04,0.02zm0 0c0,-0.02 -0.01,-0.02 0.04,-0.02l0.39 0 0 0.02c-0.04,0.02 -0.35,0 -0.42,0.01 0.02,0 0.19,0 0.22,0l0.17 0c0.03,0 0.03,-0.01 0.03,-0.03l-0.43 0 0 0.02z"/>
 </g>
</svg>
