<svg xmlns="http://www.w3.org/2000/svg" version="1.1" xmlns:xlink="http://www.w3.org/1999/xlink" width="512"
    height="512" x="0" y="0" viewBox="0 0 66 66" style="enable-background:new 0 0 512 512" xml:space="preserve">
    <style>
        path { fill: #000; } /* Default (light mode) */
        @media (prefers-color-scheme: dark) {
        path { fill: #fff; } /* Dark mode */
        }
    </style>
    <g transform="matrix(0.6,0,0,0.6,13.19601058959961,13.19799976348877)">
        <path
            d="M57.24 20.39h-8.41l-13.7-10.28c.34-.19.66-.41.94-.7.02-.02.05-.05.07-.08.78-.82 1.21-1.88 1.21-3.01 0-2.41-1.96-4.36-4.36-4.36s-4.36 1.96-4.36 4.36c0 1.13.43 2.19 1.21 3.01.02.03.05.05.07.08.28.28.61.5.94.7l-13.7 10.28h-8.4c-1.6 0-2.91 1.3-2.91 2.91v37.82c0 1.6 1.3 2.91 2.91 2.91h48.48c1.6 0 2.91-1.3 2.91-2.91V23.3c.01-1.6-1.29-2.91-2.9-2.91zM33 3.91c1.34 0 2.42 1.09 2.42 2.42 0 .64-.25 1.25-.71 1.71-.02.02-.04.04-.05.06-.9.84-2.41.84-3.31 0-.02-.02-.04-.04-.05-.06-.46-.46-.71-1.07-.71-1.71C30.57 5 31.66 3.91 33 3.91zm0 7.03 12.6 9.46H20.39zm25.21 50.18c0 .54-.44.97-.97.97H8.76a.97.97 0 0 1-.97-.97V23.3c0-.54.44-.97.97-.97h48.48c.53 0 .97.43.97.97z"
            opacity="1"></path>
        <path
            d="M54.33 25.24H11.67c-.54 0-.97.43-.97.97v32c0 .03.02.06.02.1.01.07.02.13.04.19s.04.11.07.17c.03.05.06.1.1.15s.08.09.13.13.09.07.15.1.12.06.18.08c.03.01.06.03.09.04.06.01.13.02.19.02h42.67c.54 0 .97-.43.97-.97v-32a.988.988 0 0 0-.98-.98zm-.97 1.94v26.91c-2.22-3.59-6.52-8.49-13.56-8.49-2.86 0-5.39.84-7.55 2.47-2.14-1.45-4.78-2.47-7.99-2.47-6.24 0-9.76 3.96-11.64 7.41V27.18zM39.47 57.24c-.59-1.4-2.35-5.08-5.6-7.93 1.72-1.17 3.71-1.77 5.94-1.77 7.57 0 11.67 6.84 13.06 9.7zm-2.14 0H12.92c.85-2.81 3.71-9.7 11.35-9.7 7.57.01 11.68 6.85 13.06 9.7z"
            opacity="1"></path>
        <path
            d="M19.42 36.88c2.14 0 3.88-1.74 3.88-3.88s-1.74-3.88-3.88-3.88-3.88 1.74-3.88 3.88 1.75 3.88 3.88 3.88zm0-5.82c1.07 0 1.94.87 1.94 1.94s-.87 1.94-1.94 1.94-1.94-.87-1.94-1.94.87-1.94 1.94-1.94zM39.96 32.01c.19-.03 1.85-.26 2.87 1.48.01.02.03.03.04.05.02.02.03.04.05.07.07.08.14.15.23.21.01 0 .01.01.02.02h.01c.05.03.1.05.16.07.03.01.05.02.08.03.05.01.09.01.14.02.04 0 .07.01.11.01.04 0 .07-.01.11-.01.04-.01.09-.01.13-.02.03-.01.05-.02.08-.03.05-.02.11-.04.15-.06h.01c.01 0 .01-.01.02-.02.09-.05.16-.13.23-.21a.18.18 0 0 0 .05-.07c.01-.02.03-.03.04-.05 1.02-1.73 2.68-1.51 2.87-1.48.52.1 1.03-.25 1.13-.77a.975.975 0 0 0-.77-1.14c-.11-.02-2.33-.41-4.06 1.32-1.73-1.73-3.95-1.34-4.06-1.32-.52.1-.86.6-.77 1.13.1.52.61.86 1.13.77z"
            opacity="1"></path>
    </g>
</svg>