<?xml version="1.0" encoding="UTF-8"?>
<!DOCTYPE svg PUBLIC "-//W3C//DTD SVG 1.1//EN" "http://www.w3.org/Graphics/SVG/1.1/DTD/svg11.dtd">
<!-- Creator: CorelDRAW -->
<svg xmlns="http://www.w3.org/2000/svg" xml:space="preserve" width="76px" height="76px" version="1.1" style="shape-rendering:geometricPrecision; text-rendering:geometricPrecision; image-rendering:optimizeQuality; fill-rule:evenodd; clip-rule:evenodd"
viewBox="0 0 7.1 7.09"
 xmlns:xlink="http://www.w3.org/1999/xlink"
 xmlns:xodm="http://www.corel.com/coreldraw/odm/2003">
 <defs>
  <style type="text/css">
   <![CDATA[
    .str0 {stroke:black;stroke-width:0.06;stroke-miterlimit:22.9256}
    .fil0 {fill:none}
    .fil1 {fill:#373435}
   ]]>
  </style>
 </defs>
 <g id="Layer_x0020_1">
  <metadata id="CorelCorpID_0Corel-Layer"/>
  <rect class="fil0" width="7.1" height="7.09" rx="1" ry="0.99"/>
  <path class="fil1 str0" d="M3.4 1.41c-0.01,0.01 -0.02,0.01 -0.04,0.02 -0.01,0.01 -0.02,0.01 -0.04,0.02l-0.13 0.13c-0.01,0.01 0,0 -0.02,0.01l-0.26 0.23c-0.01,0.01 -0.02,0.01 -0.03,0.03 -0.06,0.05 -0.05,0.03 -0.11,0.09 -0.1,0.1 -0.06,0.08 -0.17,0.08 -0.04,0 -0.09,0 -0.13,0 -0.09,0 -0.17,0 -0.26,0l-0.19 0c-0.03,0 -0.02,0 -0.05,0.01 -0.01,0.05 -0.01,0.72 -0.01,0.84 0,0.3 0,0.6 0,0.89l0 2c0,0.06 -0.02,0.14 0.05,0.15l1.33 0c0.11,0 1.72,0.01 1.79,-0.01 0.02,-0.06 0.01,-0.16 0.01,-0.23l0 -3.54c0,-0.15 0.01,-0.11 -0.27,-0.11l-0.35 0c-0.07,0.01 -0.06,0.01 -0.1,-0.02 -0.09,-0.08 -0.29,-0.24 -0.35,-0.3 -0.02,-0.01 -0.01,-0.01 -0.03,-0.03l-0.07 -0.06c-0.03,-0.04 -0.05,-0.04 -0.11,-0.09 -0.04,-0.05 -0.09,-0.09 -0.15,-0.11 0.02,-0.06 0.04,-0.12 -0.04,-0.19 -0.02,-0.01 0,-0.01 -0.03,-0.02 -0.16,-0.09 -0.3,0.08 -0.24,0.21zm-1.36 4.42c0.06,-0.01 2.1,0 2.27,0 0.25,0 0.51,0 0.75,-0.01l0 -3.72 -3.02 0 0 3.73zm0.25 -3.31l0 2.67c0,0.46 -0.05,0.39 0.21,0.39l2.28 0c0.03,0 0.04,-0.02 0.04,-0.06 0.01,-0.69 0,-1.43 0,-2.12l0 -1.03c-0.04,-0.04 -0.07,-0.02 -0.17,-0.02l-2.26 0c-0.12,0 -0.11,0.01 -0.1,0.17zm0.07 1.39c0.03,-0.01 0.26,-0.23 0.6,-0.17 0.07,0.02 0.16,0.05 0.21,0.1 0.21,0.19 0.21,0.3 0.36,0.55l0.14 0.18c0.11,0.07 0.25,0.03 0.36,-0.03l0.14 -0.13c0.01,-0.01 0.01,-0.01 0.03,-0.03 0.07,-0.05 0.08,-0.09 0.16,-0.15 0.04,-0.03 0.11,-0.07 0.16,-0.08 0.06,-0.03 0.13,-0.04 0.22,-0.04l0 -1.68 -2.38 0 0 1.48zm0 0.38l0 1.22 2.38 0 0 -1.32c-0.14,0 -0.24,0.04 -0.34,0.11l-0.17 0.17c-0.05,0.06 -0.05,0.04 -0.08,0.07l-0.06 0.05c-0.14,0.09 -0.25,0.12 -0.42,0.07 -0.1,-0.03 -0.2,-0.2 -0.25,-0.29 -0.06,-0.12 -0.1,-0.23 -0.18,-0.34 -0.06,-0.08 -0.07,-0.09 -0.13,-0.13 -0.06,-0.04 -0.1,-0.07 -0.19,-0.08 -0.21,-0.03 -0.34,0.05 -0.48,0.15 -0.03,0.02 -0.01,0.01 -0.04,0.03 -0.01,0.01 -0.03,0.03 -0.03,0.04 -0.02,0.02 -0.01,0.21 -0.01,0.25zm1.61 -1.52c-0.07,0.01 -0.1,0 -0.2,0.06 -0.05,0.03 -0.02,0 -0.06,0.05 -0.02,0.01 -0.01,0 -0.03,0.02 -0.22,0.29 -0.01,0.76 0.4,0.7 0.12,-0.02 0.12,-0.02 0.19,-0.07 0.06,-0.03 0.08,-0.05 0.11,-0.1 0.07,-0.11 0.07,-0.16 0.07,-0.3 -0.01,-0.11 -0.05,-0.15 -0.1,-0.22l-0.08 -0.08c-0.06,-0.05 -0.2,-0.08 -0.28,-0.07 -0.05,0.01 0.03,-0.01 -0.01,0l-0.01 0.01zm-1.16 -0.75l1.5 0c-0.02,-0.02 -0.35,-0.29 -0.4,-0.34l-0.01 -0.02c-0.01,-0.01 -0.01,-0.01 -0.02,-0.02l-0.09 -0.07c-0.08,-0.08 -0.1,-0.08 -0.12,-0.1 -0.04,0.02 -0.08,0.05 -0.14,0.04 -0.11,-0.02 -0.04,-0.11 -0.28,0.12 -0.08,0.08 -0.18,0.15 -0.25,0.22l-0.19 0.17zm1.17 0.82c-0.09,0.02 -0.11,0.02 -0.2,0.08 0,0 -0.01,0.01 -0.01,0.01 -0.01,0.01 -0.01,0.01 -0.02,0.02 -0.02,0.02 -0.02,0.04 -0.03,0.05 -0.04,0.07 -0.06,0.1 -0.05,0.22 0.01,0.07 0.04,0.13 0.08,0.18 0,0 0,0 0,0 0,0.01 0.01,0.01 0.01,0.01 0.15,0.19 0.45,0.12 0.53,0 0.07,-0.1 0.11,-0.17 0.07,-0.3 0,-0.02 0,-0.02 -0.01,-0.03 -0.04,-0.15 -0.21,-0.27 -0.37,-0.24zm-0.44 -1.58c-0.06,0.02 -0.08,0.06 -0.07,0.1 0.02,0.07 0.07,0.08 0.13,0.05 0.04,-0.01 0.05,-0.05 0.04,-0.08 -0.01,-0.05 -0.04,-0.08 -0.1,-0.07z"/>
 </g>
</svg>
