<?xml version="1.0" encoding="UTF-8"?>
<!DOCTYPE svg PUBLIC "-//W3C//DTD SVG 1.1//EN" "http://www.w3.org/Graphics/SVG/1.1/DTD/svg11.dtd">
<!-- Creator: CorelDRAW -->
<svg xmlns="http://www.w3.org/2000/svg" xml:space="preserve" width="76px" height="76px" version="1.1" style="shape-rendering:geometricPrecision; text-rendering:geometricPrecision; image-rendering:optimizeQuality; fill-rule:evenodd; clip-rule:evenodd"
viewBox="0 0 3.39 3.38"
 xmlns:xlink="http://www.w3.org/1999/xlink"
 xmlns:xodm="http://www.corel.com/coreldraw/odm/2003">
 <defs>
  <style type="text/css">
   <![CDATA[
    .str0 {stroke:black;stroke-width:0.03;stroke-miterlimit:22.9256}
    .fil0 {fill:none}
    .fil1 {fill:#373435}
   ]]>
  </style>
 </defs>
 <g id="Layer_x0020_1">
  <metadata id="CorelCorpID_0Corel-Layer"/>
  <rect class="fil0" width="3.39" height="3.38" rx="0.48" ry="0.47"/>
  <path class="fil1 str0" d="M1.62 0.67c0,0.01 -0.01,0.01 -0.02,0.01 0,0.01 0,0.01 -0.01,0.01l-0.07 0.06c-0.01,0.01 0,0 -0.01,0.01l-0.12 0.11c-0.01,0.01 -0.01,0.01 -0.02,0.01 -0.02,0.03 -0.02,0.02 -0.05,0.05 -0.04,0.04 -0.03,0.03 -0.08,0.04 -0.02,0 -0.04,0 -0.06,0 -0.04,0 -0.08,0 -0.13,0l-0.09 -0.01c-0.01,0 -0.01,0 -0.02,0.01 -0.01,0.02 0,0.34 0,0.4 0,0.14 0,0.28 0,0.43l0 0.95c0,0.03 -0.02,0.07 0.02,0.07l0.63 0c0.06,0 0.83,0 0.86,0 0.01,-0.03 0,-0.08 0,-0.11l0 -1.69c0,-0.07 0.01,-0.06 -0.13,-0.05l-0.16 -0.01c-0.04,0.01 -0.03,0.01 -0.05,-0.01 -0.04,-0.03 -0.14,-0.11 -0.17,-0.14 -0.01,-0.01 0,0 -0.01,-0.01l-0.04 -0.03c-0.01,-0.02 -0.02,-0.02 -0.05,-0.04 -0.02,-0.03 -0.04,-0.05 -0.07,-0.06 0.01,-0.03 0.02,-0.05 -0.02,-0.09 -0.01,0 0,0 -0.01,-0.01 -0.08,-0.04 -0.15,0.04 -0.12,0.1zm-0.65 2.11c0.03,-0.01 1,0 1.09,0 0.11,0 0.24,0 0.36,0l0 -1.78 -1.45 0 0 1.78zm0.12 -1.58l0 1.28c0,0.22 -0.02,0.18 0.1,0.18l1.09 0c0.02,0 0.02,-0.01 0.02,-0.03 0,-0.32 0,-0.68 0,-1.01l0 -0.49c-0.02,-0.02 -0.03,-0.01 -0.08,-0.01l-1.08 0c-0.06,0 -0.05,0.01 -0.05,0.08zm0.04 0.67c0.01,-0.01 0.12,-0.11 0.28,-0.08 0.04,0 0.08,0.02 0.1,0.04 0.1,0.09 0.1,0.14 0.17,0.27l0.07 0.08c0.05,0.03 0.12,0.02 0.17,-0.02l0.07 -0.06c0.01,0 0,0 0.01,-0.01 0.04,-0.03 0.04,-0.04 0.08,-0.07 0.02,-0.02 0.05,-0.03 0.08,-0.04 0.03,-0.01 0.06,-0.02 0.1,-0.02l0 -0.8 -1.13 0 0 0.71zm0 0.18l0 0.58 1.13 0 0 -0.63c-0.06,0 -0.11,0.02 -0.16,0.05l-0.08 0.08c-0.03,0.03 -0.02,0.02 -0.04,0.04l-0.03 0.02c-0.06,0.04 -0.12,0.06 -0.2,0.03 -0.05,-0.01 -0.09,-0.09 -0.12,-0.13 -0.03,-0.06 -0.05,-0.11 -0.08,-0.17 -0.03,-0.04 -0.04,-0.04 -0.07,-0.06 -0.02,-0.02 -0.05,-0.03 -0.09,-0.04 -0.1,-0.01 -0.16,0.03 -0.23,0.07 -0.01,0.01 0,0.01 -0.01,0.02 -0.01,0 -0.02,0.01 -0.02,0.02 -0.01,0.01 0,0.1 0,0.12zm0.76 -0.73c-0.03,0.01 -0.04,0 -0.09,0.03 -0.03,0.02 -0.01,0 -0.03,0.02 -0.01,0.01 -0.01,0 -0.01,0.02 -0.11,0.13 -0.01,0.36 0.19,0.33 0.05,-0.01 0.05,-0.01 0.09,-0.03 0.03,-0.02 0.04,-0.03 0.05,-0.06 0.03,-0.05 0.04,-0.07 0.03,-0.14 0,-0.05 -0.02,-0.07 -0.04,-0.1l-0.04 -0.04c-0.03,-0.02 -0.1,-0.04 -0.14,-0.03 -0.02,0 0.02,-0.01 0,0l-0.01 0zm-0.55 -0.35l0.72 0c-0.01,-0.02 -0.17,-0.15 -0.19,-0.17l-0.01 -0.01c0,0 -0.01,0 -0.01,-0.01l-0.04 -0.03c-0.04,-0.04 -0.05,-0.04 -0.06,-0.05 -0.02,0.01 -0.04,0.02 -0.07,0.02 -0.05,-0.01 -0.01,-0.05 -0.13,0.06 -0.04,0.04 -0.08,0.07 -0.12,0.1l-0.09 0.09zm0.56 0.39c-0.05,0.01 -0.06,0 -0.09,0.03 -0.01,0 -0.01,0.01 -0.01,0.01 -0.01,0 -0.01,0 -0.01,0.01 -0.01,0.01 -0.01,0.01 -0.02,0.02 -0.01,0.04 -0.03,0.05 -0.02,0.11 0.01,0.03 0.02,0.06 0.04,0.08 0,0 0,0 0,0 0,0.01 0,0.01 0,0.01 0.08,0.09 0.22,0.05 0.26,0 0.03,-0.05 0.05,-0.08 0.03,-0.15 0,0 0,-0.01 0,-0.01 -0.03,-0.07 -0.1,-0.13 -0.18,-0.11zm-0.21 -0.76c-0.03,0.01 -0.04,0.03 -0.03,0.05 0.01,0.03 0.03,0.04 0.06,0.02 0.02,0 0.02,-0.02 0.02,-0.04 -0.01,-0.02 -0.02,-0.03 -0.05,-0.03z"/>
 </g>
</svg>
