<?xml version="1.0" encoding="UTF-8"?>
<!DOCTYPE svg PUBLIC "-//W3C//DTD SVG 1.1//EN" "http://www.w3.org/Graphics/SVG/1.1/DTD/svg11.dtd">
<!-- Creator: CorelDRAW -->
<svg xmlns="http://www.w3.org/2000/svg" xml:space="preserve" width="76px" height="76px" version="1.1" style="shape-rendering:geometricPrecision; text-rendering:geometricPrecision; image-rendering:optimizeQuality; fill-rule:evenodd; clip-rule:evenodd"
viewBox="0 0 2.69 2.68"
 xmlns:xlink="http://www.w3.org/1999/xlink"
 xmlns:xodm="http://www.corel.com/coreldraw/odm/2003">
 <defs>
  <style type="text/css">
   <![CDATA[
    .fil0 {fill:none}
    .fil1 {fill:#373435}
   ]]>
  </style>
 </defs>
 <g id="Layer_x0020_1">
  <metadata id="CorelCorpID_0Corel-Layer"/>
  <rect class="fil0" width="2.69" height="2.68" rx="0.38" ry="0.38"/>
  <path class="fil1" d="M1.1 0.84c-0.02,0.01 -0.04,0.03 -0.05,0.05 -0.01,0.03 -0.01,0.06 -0.01,0.09 -0.01,0.02 -0.02,0.02 -0.03,0.04 -0.01,0 -0.01,0 -0.02,0.01 0,0.01 -0.01,0.01 -0.01,0.02l-0.07 0.1c0,0 0,0 0,0 -0.01,0.02 -0.02,0.05 -0.02,0.07 -0.01,0.03 -0.02,0.05 -0.02,0.08 -0.01,0.06 0.01,0.15 0.03,0.2l0.04 0.09c0.02,0.02 0.03,0.04 0.05,0.05 0.02,0.01 0.03,0.03 0.04,0.04 0.01,0.01 0,0 0.01,0.01 0.01,0.03 0,0.07 0.01,0.1 0,0.01 0.01,0.02 0.02,0.03 0.01,0.01 0.02,0.02 0.03,0.02 0,0.05 0,0.11 0,0.15 0,0.05 0,0.1 0,0.15 0,0.03 0,0.05 0.01,0.06 0.01,0.01 0.02,0.02 0.03,0.03l0.01 0c0,0 0,0 0,0 0.02,0.01 0.29,0 0.31,0 0.02,0 0.05,-0.01 0.06,-0.04 0.01,-0.03 0,-0.22 0,-0.27 0,-0.02 0,-0.06 0,-0.08 0.01,0 0.01,0 0.02,-0.01 0.05,-0.03 0.03,-0.08 0.04,-0.14 0,0 0.01,-0.01 0.02,-0.02 0.01,-0.01 0.01,-0.01 0.02,-0.02 0.02,-0.01 0.03,-0.02 0.04,-0.04 0,-0.01 0.01,-0.01 0.01,-0.02l0.01 -0.01c0.01,-0.01 0.01,-0.03 0.02,-0.04 0,-0.01 0,-0.01 0.01,-0.02 0.01,-0.02 0.02,-0.04 0.02,-0.06 0,-0.01 0.01,-0.03 0.01,-0.04 0.03,0 0.06,0 0.07,-0.03 0.01,-0.01 0.01,-0.03 0.01,-0.05 0,-0.02 0,-0.03 -0.01,-0.05 -0.01,-0.02 -0.04,-0.03 -0.07,-0.02 0,-0.01 0,-0.01 0,-0.01l0 -0.03c-0.02,-0.04 -0.03,-0.07 -0.05,-0.11 0,-0.01 0,0 0,-0.01l-0.02 -0.03c-0.01,-0.01 0.01,0.01 -0.01,0l-0.03 -0.05c-0.02,-0.02 -0.01,-0.01 -0.03,-0.02 -0.03,-0.03 -0.02,-0.01 -0.02,-0.09 0,-0.03 -0.02,-0.04 -0.02,-0.05 -0.01,-0.01 -0.01,-0.01 -0.01,-0.01 -0.01,-0.01 -0.01,-0.01 -0.02,-0.01 -0.01,-0.01 -0.01,-0.04 -0.01,-0.05 0,-0.05 0.01,-0.27 0,-0.29 0,-0.03 -0.03,-0.05 -0.06,-0.06 -0.02,0 -0.04,0 -0.06,0 -0.07,0 -0.15,0 -0.23,0 -0.02,0 -0.04,0.01 -0.06,0.02 -0.02,0.03 -0.01,0.09 -0.01,0.14 0,0.02 0,0.03 0,0.05 0,0.02 0,0.02 0,0.03l0 0.15zm0.18 0.09c-0.09,0.01 -0.15,0.03 -0.22,0.08l-0.02 0.01c0,0 0,0.01 0,0.01 -0.01,0 -0.01,0 -0.01,0 -0.02,0.02 -0.03,0.03 -0.04,0.05 0,0 0,0 -0.01,0l0 0.01c-0.02,0.02 -0.03,0.04 -0.04,0.06 -0.01,0.02 -0.02,0.04 -0.02,0.06l-0.02 0.04c0,0.06 -0.01,0.13 0.01,0.18 0,0.01 0,0.01 0,0.01 0.01,0.03 0.01,0.05 0.03,0.07l0 0.02c0.01,0.01 0,0 0.01,0.01 0,0.02 0.02,0.04 0.04,0.06l0.03 0.04c0.01,0.01 0.01,0 0.02,0.01 0.03,0.03 0.07,0.07 0.11,0.08 0.1,0.03 0.16,0.04 0.27,0.01 0.04,-0.01 0.08,-0.03 0.11,-0.05l0.03 -0.02c0,0 0,0 0,0l0.06 -0.06c0,0 0,0 0,0 0,0 0,0 0.01,0l0.03 -0.04c0,0 0,0 0,-0.01 0,0 0,0 0,0 0,0 0,-0.01 0.01,-0.01 0,-0.01 0.01,-0.02 0.01,-0.02 0,-0.01 0,-0.01 0,-0.01 0.01,-0.02 0.02,-0.05 0.03,-0.07 0,0 0,0 0,0 0.01,-0.06 0.01,-0.07 0.01,-0.15l0 -0.03c-0.01,-0.02 -0.01,-0.03 -0.01,-0.04 -0.01,-0.03 -0.02,-0.05 -0.03,-0.08 -0.01,-0.02 -0.02,-0.03 -0.03,-0.05 0,0 0,0 -0.01,0l-0.05 -0.07c-0.01,-0.01 -0.03,-0.02 -0.04,-0.03l-0.02 -0.01c-0.07,-0.04 -0.16,-0.07 -0.25,-0.06zm0.04 0.85c-0.03,0 -0.02,0.01 -0.05,0 -0.01,0 -0.01,0 -0.02,0 -0.02,0 -0.03,-0.01 -0.05,-0.01l-0.01 0c0,0 0,0 0,0l-0.06 -0.03c0,0.06 -0.01,0.42 0,0.44 0,0.02 0.01,0.02 0.03,0.03 0,0 0,0 0.01,0l0.2 0c0.04,0 0.12,0.02 0.12,-0.05 0,-0.12 0.01,-0.31 0,-0.42 -0.01,0 0,0 0,0.01 -0.01,0 -0.01,0 -0.01,0 -0.01,0 -0.02,0.01 -0.02,0.01 -0.01,0 -0.01,0 -0.02,0 -0.03,0.01 -0.08,0.02 -0.12,0.02zm-0.19 -0.84c0,0 0.01,-0.01 0.01,-0.01l0.13 -0.03c0.02,0 0.04,0 0.06,0 0.04,0 0.06,0.01 0.1,0.02l0.06 0.02 0 -0.4c0,-0.02 0.01,-0.04 -0.01,-0.05l-0.01 -0.01c-0.02,-0.01 -0.12,0 -0.16,0 -0.03,0 -0.14,-0.01 -0.16,0l-0.01 0.01c0,0 -0.01,0 -0.01,0.01 0,0.01 0,0.02 0,0.03l0 0.25c0,0.04 0,0.11 0,0.16zm0.21 0.35c-0.01,0 -0.02,-0.01 -0.03,-0.01 -0.02,0 -0.02,0.01 -0.04,0.01 0,-0.01 0,0 -0.01,-0.02 -0.03,-0.02 -0.03,-0.02 -0.05,-0.04 -0.01,-0.01 -0.01,-0.01 -0.02,-0.02l-0.03 -0.03c0,0 -0.02,-0.03 -0.03,0 0,0.01 0,0 0,0.01l0.06 0.06c0.01,0.01 0.06,0.05 0.06,0.06 0,0.01 0,0.01 0,0.01 -0.01,0.02 -0.01,0.05 0.01,0.06 0.01,0.01 0.01,0.01 0.01,0.01 0.01,0.01 0.02,0.01 0.03,0.01 0.01,0 0.03,0 0.03,0 0.02,-0.01 0.03,-0.03 0.03,-0.05 0.01,-0.04 -0.02,-0.02 0.02,-0.06 0.04,-0.04 0.08,-0.08 0.12,-0.12 0.01,-0.01 0.02,-0.02 0.03,-0.02 0.02,-0.02 0.02,-0.01 0.02,-0.03 -0.01,-0.01 -0.02,-0.02 -0.03,0 -0.02,0.02 -0.04,0.03 -0.05,0.05l-0.04 0.04c-0.02,0.01 0,0 -0.03,0.03l-0.06 0.05zm0.41 0.1c0.01,0 0.03,0 0.04,-0.01l0 -0.08c-0.01,-0.01 -0.02,-0.01 -0.04,-0.01 0,0.03 0,0.07 0,0.1zm-0.44 -0.08c-0.05,0 -0.04,0.07 0,0.07 0.02,0 0.03,-0.02 0.03,-0.04 0,-0.02 -0.02,-0.03 -0.03,-0.03zm0.29 0.03l0 0.01c0.02,0.01 0.01,0.01 0.04,0.01 0.02,0 0.03,0 0.05,0 0.01,-0.04 0,-0.03 -0.06,-0.03 -0.01,0 -0.02,0 -0.02,0 -0.01,0.01 0,0.01 -0.01,0.01zm-0.58 0.02c0,-0.03 0,-0.03 -0.03,-0.03 -0.02,0 -0.05,0 -0.06,0 0,0.01 0,0.02 0,0.02 0,0.01 0,0.01 0,0.01 0.01,0 0.02,0 0.03,0 0.02,0 0.04,0 0.06,0zm0.28 -0.31c0.02,0 0.02,-0.01 0.02,-0.03 0,-0.02 0,-0.04 0,-0.05 -0.03,-0.01 -0.03,0 -0.03,0.03 0,0.01 0,0.04 0.01,0.05zm0 0.62c0,0.01 -0.01,0.03 0,0.04 0,0.01 0.01,0 0.02,0 0,-0.01 0.01,-0.07 -0.01,-0.08 0,0 -0.01,0 -0.01,0.01 -0.01,0 0,0.02 0,0.03zm0.22 0.06l0 0.08c0.01,-0.01 0.03,-0.01 0.03,-0.04 0,-0.02 0,-0.04 0,-0.06 -0.01,0.01 -0.02,0.01 -0.03,0.02zm-0.45 -0.76l0.03 -0.02 0 -0.08c-0.01,0.01 -0.02,0.01 -0.03,0.04 0,0.02 0,0.04 0,0.06zm0.45 -0.02c0.01,0.01 0.02,0.01 0.03,0.02 0,-0.01 0,-0.06 0,-0.06 0,-0.01 -0.02,-0.04 -0.03,-0.04l0 0.08zm-0.42 0.86c0,-0.12 0,-0.07 -0.03,-0.1 0,0.02 0,0.05 0,0.06l0 0.01c0,0.01 0,0.01 0.01,0.01 0,0 0,0 0,0.01 0.01,0.01 0.01,0 0.02,0.01z"/>
 </g>
</svg>
