<?xml version="1.0" encoding="UTF-8"?>
<!DOCTYPE svg PUBLIC "-//W3C//DTD SVG 1.1//EN" "http://www.w3.org/Graphics/SVG/1.1/DTD/svg11.dtd">
<!-- Creator: CorelDRAW -->
<svg xmlns="http://www.w3.org/2000/svg" xml:space="preserve" width="76px" height="76px" version="1.1" style="shape-rendering:geometricPrecision; text-rendering:geometricPrecision; image-rendering:optimizeQuality; fill-rule:evenodd; clip-rule:evenodd"
viewBox="0 0 5.39 5.38"
 xmlns:xlink="http://www.w3.org/1999/xlink"
 xmlns:xodm="http://www.corel.com/coreldraw/odm/2003">
 <defs>
  <style type="text/css">
   <![CDATA[
    .str0 {stroke:black;stroke-width:0.03;stroke-miterlimit:22.9256}
    .fil0 {fill:none}
    .fil1 {fill:black}
   ]]>
  </style>
 </defs>
 <g id="Layer_x0020_1">
  <metadata id="CorelCorpID_0Corel-Layer"/>
  <rect class="fil0" width="5.39" height="5.38" rx="0.76" ry="0.75"/>
  <path class="fil1 str0" d="M2.2 1.68c-0.04,0.02 -0.08,0.06 -0.1,0.11 -0.02,0.05 0,0.12 -0.01,0.19 -0.02,0.02 -0.04,0.03 -0.07,0.06 -0.01,0.01 -0.02,0.01 -0.03,0.03 -0.01,0.01 -0.02,0.02 -0.03,0.04l-0.13 0.19c0,0 0,0 0,0.01 -0.02,0.05 -0.04,0.09 -0.05,0.14 -0.02,0.05 -0.03,0.11 -0.03,0.16 -0.02,0.12 0.01,0.3 0.05,0.4l0.09 0.18c0.03,0.03 0.05,0.08 0.09,0.11 0.04,0.02 0.06,0.05 0.09,0.08 0.02,0.01 0.01,-0.01 0.02,0.01 0.02,0.05 -0.01,0.15 0.01,0.2 0.01,0.03 0.02,0.05 0.05,0.07 0.01,0.01 0.05,0.03 0.05,0.04 0.01,0.08 0.01,0.21 0,0.3 0,0.09 0.01,0.2 0,0.29 0,0.05 0,0.1 0.02,0.13 0.02,0.02 0.04,0.04 0.07,0.05l0.02 0.01c0,0 0,0 0,0 0.03,0.01 0.59,0 0.61,0 0.06,0 0.11,-0.04 0.13,-0.09 0.01,-0.05 0,-0.45 0,-0.54 0,-0.04 0.01,-0.11 0,-0.15 0.01,-0.01 0.02,-0.01 0.03,-0.02 0.11,-0.07 0.07,-0.18 0.08,-0.29 0,0 0.04,-0.02 0.06,-0.05 0.01,-0.01 0.02,-0.01 0.03,-0.02 0.03,-0.03 0.05,-0.06 0.08,-0.09 0,-0.01 0.01,-0.02 0.02,-0.03l0.02 -0.04c0.02,-0.02 0.02,-0.04 0.04,-0.07 0.01,-0.02 0.01,-0.02 0.02,-0.04 0.01,-0.04 0.03,-0.07 0.04,-0.12 0.01,-0.02 0.02,-0.06 0.03,-0.08 0.05,0 0.1,-0.01 0.13,-0.05 0.02,-0.03 0.02,-0.07 0.02,-0.11 0,-0.03 0,-0.06 -0.02,-0.1 -0.02,-0.05 -0.07,-0.05 -0.14,-0.05 0,-0.01 0,-0.02 0,-0.02l-0.01 -0.05c-0.03,-0.08 -0.04,-0.15 -0.09,-0.23 -0.01,-0.01 0,0 -0.01,-0.01l-0.03 -0.06c-0.02,-0.02 0.01,0.02 -0.01,-0.01l-0.08 -0.09c-0.04,-0.04 -0.01,-0.02 -0.06,-0.05 -0.06,-0.05 -0.04,-0.02 -0.04,-0.18 0,-0.06 -0.02,-0.08 -0.04,-0.1 0,-0.01 0,-0.01 -0.01,-0.02 -0.02,-0.02 -0.03,-0.01 -0.04,-0.02 -0.02,-0.02 -0.02,-0.07 -0.02,-0.1 0,-0.1 0.01,-0.54 0,-0.58 -0.01,-0.06 -0.06,-0.11 -0.12,-0.11 -0.03,-0.01 -0.08,-0.01 -0.11,-0.01 -0.15,0.01 -0.32,0 -0.47,0 -0.05,0 -0.09,0.02 -0.12,0.05 -0.05,0.06 -0.03,0.18 -0.03,0.27 0,0.04 0,0.07 0,0.11 0.01,0.02 0,0.03 0,0.06l0 0.29zm0.37 0.18c-0.19,0.02 -0.29,0.06 -0.44,0.16l-0.04 0.03c0,0 -0.01,0.01 -0.01,0.01 -0.01,0 -0.01,0.01 -0.02,0.01 -0.03,0.03 -0.06,0.06 -0.08,0.1 0,0 0,0 0,0l-0.01 0.01c-0.04,0.05 -0.06,0.09 -0.09,0.13 -0.01,0.04 -0.03,0.09 -0.04,0.12l-0.03 0.09c-0.01,0.1 -0.02,0.25 0.01,0.35 0,0.01 0,0.02 0,0.03 0.02,0.04 0.03,0.1 0.06,0.14l0.01 0.03c0.01,0.01 0,0 0.01,0.02 0.01,0.03 0.05,0.09 0.08,0.12l0.06 0.07c0.02,0.03 0.03,0.02 0.05,0.04 0.05,0.05 0.15,0.12 0.22,0.14 0.2,0.07 0.32,0.09 0.54,0.03 0.08,-0.02 0.15,-0.06 0.22,-0.1l0.06 -0.04c0,0 0,0 0,0l0.13 -0.12c0,0 0,0 0,0 0,-0.01 0,-0.01 0,-0.01l0.06 -0.08c0,0 0,0 0,0 0,0 0.01,-0.01 0.01,-0.01 0,-0.01 0.01,-0.01 0.01,-0.03 0.01,-0.01 0.02,-0.02 0.03,-0.03 0,-0.01 0,-0.01 0,-0.02 0.02,-0.04 0.04,-0.09 0.05,-0.14 0,0 0,0 0,0 0.03,-0.12 0.03,-0.14 0.03,-0.29l-0.01 -0.07c0,-0.03 -0.01,-0.06 -0.02,-0.09 -0.02,-0.06 -0.03,-0.1 -0.06,-0.15 -0.01,-0.04 -0.03,-0.07 -0.05,-0.1 -0.01,0 -0.01,-0.01 -0.01,-0.01l-0.12 -0.13c-0.02,-0.03 -0.05,-0.05 -0.08,-0.07l-0.03 -0.02c-0.15,-0.08 -0.32,-0.14 -0.5,-0.12zm0.08 1.72c-0.05,0 -0.05,0 -0.1,-0.01 -0.01,0 -0.02,0 -0.04,0 -0.04,0 -0.06,-0.01 -0.09,-0.02l-0.03 0c0,0 -0.01,-0.01 -0.01,-0.01l-0.12 -0.04c0,0.1 -0.01,0.84 0,0.87 0.01,0.04 0.04,0.04 0.06,0.05 0.02,0.01 0.01,0.01 0.02,0.01l0.4 0c0.08,-0.01 0.25,0.03 0.25,-0.09 0,-0.24 0.01,-0.63 0,-0.84 -0.01,0 0.01,-0.01 -0.01,0 -0.01,0.01 -0.01,0.01 -0.02,0.01 -0.01,0.01 -0.02,0.01 -0.04,0.02 -0.01,0 -0.02,0 -0.04,0.01 -0.06,0.02 -0.16,0.04 -0.23,0.04zm-0.39 -1.7c0.01,0 0.02,-0.01 0.03,-0.01l0.27 -0.07c0.03,0 0.07,0 0.11,0 0.08,0.01 0.12,0.02 0.2,0.04l0.12 0.04 0 -0.81c0,-0.02 0.01,-0.06 -0.02,-0.09l-0.02 -0.01c-0.05,-0.02 -0.25,-0.02 -0.32,-0.01 -0.05,0 -0.29,-0.02 -0.32,0l-0.02 0.01c-0.01,0.01 -0.02,0.02 -0.02,0.03 -0.01,0.01 -0.01,0.04 -0.01,0.06l0 0.49c0,0.1 0.01,0.24 0,0.33zm0.43 0.72c-0.02,-0.01 -0.04,-0.02 -0.07,-0.03 -0.03,0 -0.04,0.01 -0.07,0.02 0,-0.02 0,-0.01 -0.03,-0.03 -0.06,-0.05 -0.05,-0.05 -0.1,-0.1 -0.01,-0.01 -0.02,-0.01 -0.03,-0.02l-0.06 -0.07c0,0 -0.05,-0.06 -0.07,-0.01 0,0.02 0,0 0,0.02l0.13 0.13c0.02,0.01 0.11,0.11 0.13,0.12 -0.01,0.01 -0.01,0.01 -0.01,0.03 -0.02,0.03 -0.01,0.09 0.02,0.11 0.01,0.01 0.01,0.01 0.02,0.02 0.02,0.01 0.04,0.02 0.06,0.02 0.03,0 0.05,0 0.07,-0.01 0.03,-0.02 0.05,-0.06 0.06,-0.1 0,-0.08 -0.06,-0.03 0.03,-0.11 0.09,-0.08 0.16,-0.16 0.25,-0.24 0.01,-0.02 0.03,-0.03 0.04,-0.05 0.04,-0.03 0.04,-0.02 0.05,-0.05 -0.02,-0.03 -0.04,-0.04 -0.06,-0.01 -0.03,0.04 -0.08,0.07 -0.11,0.1l-0.07 0.08c-0.04,0.03 -0.01,0.02 -0.07,0.06l-0.11 0.12zm0.81 0.19c0.03,0.01 0.08,0 0.09,-0.03l0 -0.14c-0.02,-0.03 -0.05,-0.03 -0.08,-0.03 -0.01,0.06 0,0.14 -0.01,0.2zm-0.88 -0.16c-0.09,0 -0.08,0.14 0,0.13 0.04,0 0.06,-0.04 0.06,-0.07 0,-0.03 -0.04,-0.06 -0.06,-0.06zm0.59 0.05l0 0.03c0.03,0.02 0.02,0.02 0.08,0.02 0.04,0 0.06,0 0.1,-0.01 0.02,-0.06 0,-0.05 -0.12,-0.05 -0.03,0 -0.03,0 -0.05,0.01 0,0 0.01,0 -0.01,0zm-1.17 0.04c0.01,-0.05 0,-0.05 -0.05,-0.05 -0.04,0 -0.1,-0.01 -0.12,0.01 -0.01,0.01 -0.01,0.03 0,0.04 0,0 0,0 0,0 0.02,0.01 0.04,0.01 0.05,0.01 0.04,0 0.08,0 0.12,-0.01zm0.56 -0.62c0.06,0.01 0.05,-0.01 0.05,-0.06 0,-0.03 0.01,-0.08 0,-0.1 -0.05,-0.02 -0.05,0.01 -0.06,0.06 0,0.02 0.01,0.09 0.01,0.1zm0 1.25c0,0.02 -0.01,0.05 0,0.07 0.01,0.02 0.02,0.02 0.04,0.02 0.02,-0.03 0.02,-0.15 -0.01,-0.16 -0.01,-0.01 -0.02,-0.01 -0.03,0 -0.01,0.01 0,0.05 0,0.07zm0.45 0.11l0 0.18c0.02,-0.03 0.05,-0.03 0.05,-0.08 0.01,-0.04 0,-0.09 0.01,-0.13 -0.02,0.01 -0.04,0.02 -0.06,0.03zm-0.9 -1.52l0.05 -0.03 0 -0.17c-0.01,0.02 -0.04,0.03 -0.05,0.08 -0.01,0.04 -0.01,0.08 0,0.12zm0.9 -0.03c0.01,0.01 0.04,0.02 0.05,0.03 0,-0.01 0.01,-0.11 0.01,-0.12 -0.01,-0.02 -0.05,-0.06 -0.06,-0.07l0 0.16zm-0.85 1.72c0,-0.24 0.01,-0.14 -0.05,-0.19 0,0.03 0,0.09 0,0.12l0 0.02c0.01,0 0.01,0 0.01,0 0,0.01 0,0.02 0.01,0.02 0.01,0.02 0.02,0.01 0.03,0.03z"/>
 </g>
</svg>
