<svg xmlns="http://www.w3.org/2000/svg" version="1.1" xmlns:xlink="http://www.w3.org/1999/xlink" width="512"
    height="512" x="0" y="0" viewBox="0 0 512 512" style="enable-background:new 0 0 512 512" xml:space="preserve"
    fill-rule="evenodd">
    <style>
        path { fill: #000;} /* Default (light mode) */
        @media (prefers-color-scheme: dark) {
        path { fill: #fff;} /* Dark mode */
        }
    </style>
    <g transform="matrix(0.6,0,0,0.6,102.4,102.4)">
        <path
            d="M330 512H179c-3 0-6-2-7-5l-33-130c-1-4 2-8 5-9 4-1 8 1 9 5l31 125h141l32-125c1-4 5-6 9-5 3 1 6 5 5 9l-34 130c-1 3-4 5-7 5z"
            opacity="1"></path>
        <path
            d="M255 424c-45 0-87-18-119-49-32-32-49-74-49-119s18-87 49-119c32-32 74-49 119-49s87 17 119 49c31 32 49 74 49 119s-18 87-49 119c-32 31-74 49-119 49zm0-322c-85 0-154 69-154 154s69 154 154 154 154-69 154-154-69-154-154-154z"
            opacity="1"></path>
        <path
            d="M142 148h-2c-4-1-6-5-5-9L170 5c1-3 4-5 7-5h151c3 0 6 2 7 5l33 128c1 4-2 8-5 9-4 1-8-2-9-5L323 14H182l-33 129c-1 3-4 5-7 5z"
            opacity="1"></path>
        <path
            d="M255 397c-78 0-141-63-141-141s63-141 141-141 141 63 141 141-63 141-141 141zm0-268c-70 0-127 57-127 127s57 127 127 127 127-57 127-127-57-127-127-127z"
            opacity="1"></path>
        <path
            d="M255 162c-4 0-7-3-7-7v-33c0-4 3-7 7-7s7 3 7 7v33c0 4-3 7-7 7zM326 192c-2 0-4-1-5-2-3-3-3-7 0-10l24-24c3-3 7-3 10 0s3 7 0 10l-24 24c-1 1-3 2-5 2zM389 263h-33c-4 0-7-3-7-7s3-7 7-7h33c4 0 7 3 7 7s-3 7-7 7zM350 358c-2 0-4-1-5-2l-24-24c-3-3-3-7 0-10s7-3 10 0l24 24c3 3 3 7 0 10-1 1-3 2-5 2zM255 397c-4 0-7-3-7-7v-33c0-4 3-7 7-7s7 3 7 7v33c0 4-3 7-7 7zM160 358c-2 0-4-1-5-2-3-3-3-7 0-10l24-24c3-3 7-3 10 0s3 7 0 10l-24 24c-1 1-3 2-5 2zM154 263h-33c-4 0-7-3-7-7s3-7 7-7h33c4 0 7 3 7 7s-3 7-7 7zM184 192c-2 0-4-1-5-2l-24-24c-3-3-3-7 0-10s7-3 10 0l24 24c3 3 3 7 0 10-1 1-3 2-5 2zM276 263h-23c-4 0-7-3-7-7v-41c0-4 3-7 7-7s7 3 7 7v34h16c4 0 7 3 7 7s-3 7-7 7zM449 263h-33c-4 0-7-3-7-7s3-7 7-7h33c4 0 7 3 7 7s-3 7-7 7z"
            opacity="1"></path>
        <path
            d="M449 274c-4 0-7-3-7-7v-22c0-4 3-7 7-7s7 3 7 7v22c0 4-3 7-7 7zM96 236H63c-4 0-7-3-7-7s3-7 7-7h33c4 0 7 3 7 7s-3 7-7 7z"
            opacity="1"></path>
        <path
            d="M63 247c-4 0-7-3-7-7v-22c0-4 3-7 7-7s7 3 7 7v22c0 4-3 7-7 7zM96 290H63c-4 0-7-3-7-7s3-7 7-7h33c4 0 7 3 7 7s-3 7-7 7z"
            opacity="1"></path>
        <path
            d="M63 301c-4 0-7-3-7-7v-21c0-4 3-7 7-7s7 3 7 7v21c0 4-3 7-7 7zM300 477h-90c-4 0-7-3-7-7s3-7 7-7h90c4 0 7 3 7 7s-3 7-7 7zM296 49h-89c-4 0-7-3-7-7s3-7 7-7h89c4 0 7 3 7 7s-3 7-7 7z"
            opacity="1"></path>
    </g>
</svg>