<?xml version="1.0" encoding="UTF-8"?>
<!DOCTYPE svg PUBLIC "-//W3C//DTD SVG 1.1//EN" "http://www.w3.org/Graphics/SVG/1.1/DTD/svg11.dtd">
<!-- Creator: CorelDRAW -->
<svg xmlns="http://www.w3.org/2000/svg" xml:space="preserve" width="166px" height="198px" version="1.1" style="shape-rendering:geometricPrecision; text-rendering:geometricPrecision; image-rendering:optimizeQuality; fill-rule:evenodd; clip-rule:evenodd"
viewBox="0 0 166.01 197.95"
 xmlns:xlink="http://www.w3.org/1999/xlink"
 xmlns:xodm="http://www.corel.com/coreldraw/odm/2003">
 <defs>
  <style type="text/css">
   <![CDATA[
    .str0 {stroke:black;stroke-width:1.18;stroke-linecap:round;stroke-linejoin:round;stroke-miterlimit:22.9256}
    .fil0 {fill:none}
    .fil1 {fill:black}
   ]]>
  </style>
 </defs>
 <g id="Layer_x0020_1">
  <metadata id="CorelCorpID_0Corel-Layer"/>
  <g>
   <path class="fil0 str0" d="M80.42 164.11l7.65 0.02c0.02,3.57 1.23,9.49 -3.79,9.51 -4.82,0.02 -4.35,-6.16 -3.86,-9.53zm-2.29 -14.81l12.34 -0.03 -0.06 11.31 -12.31 0.01 0.03 -11.29zm-53.52 -31.84c0.4,0.42 2.93,8.02 7.04,13.26 3.37,4.3 6.19,6.92 10.74,9.97 6.09,4.09 15.54,6.89 22.91,7.97 2.5,0.37 7.31,0.05 9.18,1.23 0.59,2.67 -0.26,10.11 0.35,12.03 0.49,1.54 1.07,1.31 1.93,2.17 0.42,4.49 -1.23,8.48 2.75,11.68 3.07,2.46 8.38,1.68 10.72,-1.35 1.53,-1.99 1.35,-3.49 1.36,-5.94 0,-0.94 -0.11,-2.71 0,-3.54 0.17,-1.3 0.83,-1 1.59,-1.91 1.7,-2.03 0.07,-10.62 0.89,-13.61 5.64,-1.09 7.51,0.25 17.88,-2.54 6.55,-1.76 15.21,-5.5 19.74,-10.87 0.62,-0.74 1.77,-1.86 2.55,-2.44 1.81,-1.37 5.46,-6.6 6.55,-8.9 0.55,-1.15 2.89,-6.81 3.19,-7.22 -0.32,9.22 0.52,26.54 -0.2,33.71 -1.67,16.67 -13.29,32.14 -29.18,38.78 -11.25,4.71 -18.48,3.86 -30.32,3.85 -11.14,0 -19.64,0.97 -30.11,-3.78 -8.34,-3.78 -13.56,-7.58 -19.29,-14.81 -5.8,-7.32 -9.1,-14.47 -10.05,-23.86 -0.69,-6.78 0.07,-24.95 -0.22,-33.88zm55.75 15.07l7.73 -0.06 0.02 13.35 -7.79 -0.08 0.04 -13.21zm11.53 12.41c-0.44,-1.83 -0.19,-6.81 -0.19,-8.97 0.02,-6.56 1.47,-7.54 -11.29,-7 -3.91,0.16 -3.58,2 -3.58,5.35 0.01,3 0.1,6.12 0.04,9.11 -0.06,3.44 -3.81,2.32 -6.37,2.14 -5.51,-0.38 -9.82,-1.32 -15.09,-2.81 -7.78,-2.2 -16.79,-8.07 -21.34,-14.7 -7.38,-10.74 -7.09,-15.61 -9.8,-26.17l119.47 0c-0.27,6.4 -2.42,13.26 -5.12,19.04 -2.51,5.37 -6.23,9.85 -10.54,13.66 -4.78,4.23 -9.34,6.84 -15.64,8.56 -3.94,1.07 -17.61,4.14 -20.55,1.79zm-12.27 -46.62c0.22,-0.53 23,-16.05 25.7,-17.88 10.3,-6.96 18.11,-12.94 31.32,-12.43 23.32,0.9 37.52,29.43 10.94,47.4 -0.28,-3.14 -0.02,-7.31 -0.02,-10.57 -0.02,-6.58 -0.2,-6.51 -4.32,-6.49 -7.07,0.03 -14.15,0.01 -21.22,0.01 -13.94,-0.01 -28.56,0.43 -42.4,-0.04zm-21.76 -94.12c12.49,-0.68 27.23,4.92 31.07,18 3.89,13.27 -4.61,25.62 -16.17,31.42 -11.66,5.84 -24.51,7.27 -36.09,13.22 -12.97,6.67 -18.78,17.5 -16.5,32.1 0.71,4.51 0.93,6.88 1.08,11.47 0.21,6.3 -1.37,2.85 -4.17,-0.06 -14.31,-14.87 -15.85,-38.91 -9.5,-57.73 3.63,-10.77 9.97,-23.14 18.2,-31.08 9.07,-8.75 18.78,-16.62 32.08,-17.34zm-2.19 -3.35c-37.93,4.22 -73.7,67.75 -44.22,108.47 6.76,9.34 10.46,5.09 9.76,19.15 -0.33,6.59 -0.35,22.08 0.91,28.29 2.74,13.58 12.59,26.7 24.37,33.84 12.38,7.5 23.49,6.68 36.97,6.67 4.83,0 9.8,0.2 14.61,0 14.45,-0.6 29.7,-8.16 38.52,-19.75 7.67,-10.09 10.89,-20.6 10.93,-32.98 0.02,-4.8 0.19,-9.91 -0.03,-14.67 -0.72,-15.54 2.83,-9.3 10.35,-18.44 18.18,-22.1 1.24,-48.4 -25.23,-47.05 -13.33,0.67 -27.95,11.87 -38.64,19.55 -5.66,4.07 -11.55,7.7 -17.31,11.61 -3.97,2.69 -6.83,3 -11.55,2.93 -7.55,-0.09 -22.08,-0.44 -28.95,-0.21 -3.43,0.11 -10.76,1.79 -12.6,-1.88 -1.47,-2.93 0.02,-9.66 1.19,-12.67 1.09,-2.8 3.86,-6.3 6,-8.43 9.6,-9.54 28.66,-11.57 41.14,-16.96 14.34,-6.19 24.48,-19.94 20.43,-36.12 -4.11,-16.38 -21.09,-23.07 -36.65,-21.35z"/>
   <path id="_1" class="fil1" d="M80.42 164.11l7.65 0.02c0.02,3.57 1.23,9.49 -3.79,9.51 -4.82,0.02 -4.35,-6.16 -3.86,-9.53zm-2.29 -14.81l12.34 -0.03 -0.06 11.31 -12.31 0.01 0.03 -11.29zm-53.52 -31.84c0.4,0.42 2.93,8.02 7.04,13.26 3.37,4.3 6.19,6.92 10.74,9.97 6.09,4.09 15.54,6.89 22.91,7.97 2.5,0.37 7.31,0.05 9.18,1.23 0.59,2.67 -0.26,10.11 0.35,12.03 0.49,1.54 1.07,1.31 1.93,2.17 0.42,4.49 -1.23,8.48 2.75,11.68 3.07,2.46 8.38,1.68 10.72,-1.35 1.53,-1.99 1.35,-3.49 1.36,-5.94 0,-0.94 -0.11,-2.71 0,-3.54 0.17,-1.3 0.83,-1 1.59,-1.91 1.7,-2.03 0.07,-10.62 0.89,-13.61 5.64,-1.09 7.51,0.25 17.88,-2.54 6.55,-1.76 15.21,-5.5 19.74,-10.87 0.62,-0.74 1.77,-1.86 2.55,-2.44 1.81,-1.37 5.46,-6.6 6.55,-8.9 0.55,-1.15 2.89,-6.81 3.19,-7.22 -0.32,9.22 0.52,26.54 -0.2,33.71 -1.67,16.67 -13.29,32.14 -29.18,38.78 -11.25,4.71 -18.48,3.86 -30.32,3.85 -11.14,0 -19.64,0.97 -30.11,-3.78 -8.34,-3.78 -13.56,-7.58 -19.29,-14.81 -5.8,-7.32 -9.1,-14.47 -10.05,-23.86 -0.69,-6.78 0.07,-24.95 -0.22,-33.88zm55.75 15.07l7.73 -0.06 0.02 13.35 -7.79 -0.08 0.04 -13.21zm11.53 12.41c-0.44,-1.83 -0.19,-6.81 -0.19,-8.97 0.02,-6.56 1.47,-7.54 -11.29,-7 -3.91,0.16 -3.58,2 -3.58,5.35 0.01,3 0.1,6.12 0.04,9.11 -0.06,3.44 -3.81,2.32 -6.37,2.14 -5.51,-0.38 -9.82,-1.32 -15.09,-2.81 -7.78,-2.2 -16.79,-8.07 -21.34,-14.7 -7.38,-10.74 -7.09,-15.61 -9.8,-26.17l119.47 0c-0.27,6.4 -2.42,13.26 -5.12,19.04 -2.51,5.37 -6.23,9.85 -10.54,13.66 -4.78,4.23 -9.34,6.84 -15.64,8.56 -3.94,1.07 -17.61,4.14 -20.55,1.79zm-12.27 -46.62c0.22,-0.53 23,-16.05 25.7,-17.88 10.3,-6.96 18.11,-12.94 31.32,-12.43 23.32,0.9 37.52,29.43 10.94,47.4 -0.28,-3.14 -0.02,-7.31 -0.02,-10.57 -0.02,-6.58 -0.2,-6.51 -4.32,-6.49 -7.07,0.03 -14.15,0.01 -21.22,0.01 -13.94,-0.01 -28.56,0.43 -42.4,-0.04zm-21.76 -94.12c12.49,-0.68 27.23,4.92 31.07,18 3.89,13.27 -4.61,25.62 -16.17,31.42 -11.66,5.84 -24.51,7.27 -36.09,13.22 -12.97,6.67 -18.78,17.5 -16.5,32.1 0.71,4.51 0.93,6.88 1.08,11.47 0.21,6.3 -1.37,2.85 -4.17,-0.06 -14.31,-14.87 -15.85,-38.91 -9.5,-57.73 3.63,-10.77 9.97,-23.14 18.2,-31.08 9.07,-8.75 18.78,-16.62 32.08,-17.34zm-2.19 -3.35c-37.93,4.22 -73.7,67.75 -44.22,108.47 6.76,9.34 10.46,5.09 9.76,19.15 -0.33,6.59 -0.35,22.08 0.91,28.29 2.74,13.58 12.59,26.7 24.37,33.84 12.38,7.5 23.49,6.68 36.97,6.67 4.83,0 9.8,0.2 14.61,0 14.45,-0.6 29.7,-8.16 38.52,-19.75 7.67,-10.09 10.89,-20.6 10.93,-32.98 0.02,-4.8 0.19,-9.91 -0.03,-14.67 -0.72,-15.54 2.83,-9.3 10.35,-18.44 18.18,-22.1 1.24,-48.4 -25.23,-47.05 -13.33,0.67 -27.95,11.87 -38.64,19.55 -5.66,4.07 -11.55,7.7 -17.31,11.61 -3.97,2.69 -6.83,3 -11.55,2.93 -7.55,-0.09 -22.08,-0.44 -28.95,-0.21 -3.43,0.11 -10.76,1.79 -12.6,-1.88 -1.47,-2.93 0.02,-9.66 1.19,-12.67 1.09,-2.8 3.86,-6.3 6,-8.43 9.6,-9.54 28.66,-11.57 41.14,-16.96 14.34,-6.19 24.48,-19.94 20.43,-36.12 -4.11,-16.38 -21.09,-23.07 -36.65,-21.35z"/>
  </g>
 </g>
</svg>
