<?xml version="1.0" encoding="UTF-8"?>
<!DOCTYPE svg PUBLIC "-//W3C//DTD SVG 1.1//EN" "http://www.w3.org/Graphics/SVG/1.1/DTD/svg11.dtd">
<!-- Creator: CorelDRAW -->
<svg xmlns="http://www.w3.org/2000/svg" xml:space="preserve" width="199px" height="149px" version="1.1" style="shape-rendering:geometricPrecision; text-rendering:geometricPrecision; image-rendering:optimizeQuality; fill-rule:evenodd; clip-rule:evenodd"
viewBox="0 0 199 148.82"
 xmlns:xlink="http://www.w3.org/1999/xlink"
 xmlns:xodm="http://www.corel.com/coreldraw/odm/2003">
 <defs>
  <style type="text/css">
   <![CDATA[
    .fil0 {fill:#373435;fill-rule:nonzero}
   ]]>
  </style>
 </defs>
 <g id="Layer_x0020_1">
  <metadata id="CorelCorpID_0Corel-Layer"/>
  <g id="_2534779058576">
   <path class="fil0" d="M74.54 31.19c1.47,-3.44 3.86,-4.97 7.36,-4.97 3.44,0 5.84,1.53 7.13,4.97l44.39 117.63 28.36 0 -49.36 -129.97c-5.22,-13.63 -15.17,-18.85 -30.33,-18.85 -15.35,0 -25.36,5.22 -30.76,18.85l-51.33 129.97 28.18 0 46.36 -117.63z"/>
   <g>
    <path class="fil0" d="M111.76 31.19c1.47,-3.44 3.86,-4.97 7.36,-4.97 3.44,0 5.84,1.53 7.12,4.97l44.39 117.63 28.37 0 -49.36 -129.97c-5.22,-13.63 -15.17,-18.85 -30.33,-18.85 -15.35,0 -25.36,5.22 -30.76,18.85l-51.33 129.97 28.18 0 46.36 -117.63z"/>
   </g>
  </g>
 </g>
</svg>
