<?xml version="1.0" encoding="UTF-8"?>
<svg xmlns="http://www.w3.org/2000/svg" id="Layer_3" data-name="Layer 3" viewBox="0 0 64 64" width="512" height="512"> <style> path { fill: #000; } /* Default (light mode) */ @media (prefers-color-scheme: dark) {
      path { fill: #fff; } /* Dark mode */
    } </style>  <path d="M62,1H2A1,1,0,0,0,1,2V62a1,1,0,0,0,1,1H62a1,1,0,0,0,1-1V2A1,1,0,0,0,62,1Zm-1,9H55V3h6ZM53.293,36.707,56.586,40l-3.293,3.293a1,1,0,0,0,0,1.414L56.586,48l-3.293,3.293a1,1,0,0,0,0,1.414L56.586,56l-3.293,3.293a1,1,0,0,0,0,1.414l.293.293H50.414l-1-1,3.293-3.293a1,1,0,0,0,0-1.414L49.414,52l3.293-3.293a1,1,0,0,0,0-1.414L49.414,44l3.293-3.293a1,1,0,0,0,0-1.414L49.414,36l3-3h3.172l-2.293,2.293A1,1,0,0,0,53.293,36.707ZM15,53.414,17.586,56l-5,5H7.414ZM16.414,60,19,57.414,22.586,61H17.414Zm0-8L19,49.414,30.586,61H25.414ZM48,31V24h5v7ZM16.414,36,19,33.414l12,12v5.172Zm-12-5L17,18.414,23.086,24.5l-6.5,6.5ZM14,6.414,20.086,12.5,12.5,20.086,6.414,14ZM33,18h6v4H33Zm8,0h5v4H41Zm0-2V12h5v4Zm-2,0H33V12h6Zm-8,.586-6.5,6.5L18.414,17,31,4.414ZM27.586,33,31,36.414v6.172L21.414,33ZM31,33.586,30.414,33H31ZM19.414,31,31,19.414V31ZM33,24h6v7H33Zm8,0h5v7H41Zm7-2V18h5v4Zm0-6V12h5v4Zm0-6V3h5v7Zm-2,0H41V3h5Zm-7,0H33V3h6ZM21.5,11.086,15.414,5l2-2H29.586Zm-12-3L4.414,3H14.586ZM8.086,9.5,3,14.586V4.414ZM3,17.414l2-2L11.086,21.5,3,29.586ZM3,33H8.585L3,38.586Zm0,8.414L11.413,33h5.173L3,46.586Zm0,8,12-12L17.586,40,3,54.586Zm16-8,12,12v5.172L16.414,44ZM33,33h4.586l-2.293,2.293a1,1,0,0,0,0,1.414L38.586,40l-3.293,3.293a1,1,0,0,0,0,1.414L38.586,48l-3.293,3.293a1,1,0,0,0,0,1.414L38.586,56l-3.293,3.293a1,1,0,0,0,0,1.414l.293.293H33Zm4.414,27,3.293-3.293a1,1,0,0,0,0-1.414L37.414,52l3.293-3.293a1,1,0,0,0,0-1.414L37.414,44l3.293-3.293a1,1,0,0,0,0-1.414L37.414,36l3-3h3.172l-2.293,2.293a1,1,0,0,0,0,1.414L44.586,40l-3.293,3.293a1,1,0,0,0,0,1.414L44.586,48l-3.293,3.293a1,1,0,0,0,0,1.414L44.586,56l-3.293,3.293a1,1,0,0,0,0,1.414l.293.293H38.414Zm6,0,3.293-3.293a1,1,0,0,0,0-1.414L43.414,52l3.293-3.293a1,1,0,0,0,0-1.414L43.414,44l3.293-3.293a1,1,0,0,0,0-1.414L43.414,36l3-3h3.172l-2.293,2.293a1,1,0,0,0,0,1.414L50.586,40l-3.293,3.293a1,1,0,0,0,0,1.414L50.586,48l-3.293,3.293a1,1,0,0,0,0,1.414L50.586,56l-3.293,3.293a1,1,0,0,0,0,1.414l.293.293H44.414ZM55,31V24h6v7Zm0-9V18h6v4Zm0-6V12h6v4ZM3,57.414l12-12L17.586,48l-13,13H3ZM56.414,61l-1-1,3.293-3.293a1,1,0,0,0,0-1.414L55.414,52l3.293-3.293a1,1,0,0,0,0-1.414L55.414,44l3.293-3.293a1,1,0,0,0,0-1.414L55.414,36l3-3H61V61Z"/></svg>
